G04 #@! TF.FileFunction,Soldermask,Bot*
%FSLAX46Y46*%
G04 Gerber Fmt 4.6, Leading zero omitted, Abs format (unit mm)*
G04 Created by KiCad (PCBNEW 4.0.7-e2-6376~58~ubuntu16.04.1) date Sun Sep 16 22:19:27 2018*
%MOMM*%
%LPD*%
G01*
G04 APERTURE LIST*
%ADD10C,0.100000*%
%ADD11C,1.711200*%
%ADD12C,3.501200*%
G04 APERTURE END LIST*
D10*
D11*
X140885000Y-141605000D03*
X140885000Y-139065000D03*
X140885000Y-136525000D03*
X140885000Y-133985000D03*
X140885000Y-131445000D03*
X140885000Y-128905000D03*
X140885000Y-126365000D03*
X140885000Y-123825000D03*
X140885000Y-121285000D03*
X140885000Y-118745000D03*
X140885000Y-116205000D03*
X140885000Y-113665000D03*
X140885000Y-111125000D03*
X140885000Y-108585000D03*
X140885000Y-106045000D03*
X140885000Y-103505000D03*
X140885000Y-100965000D03*
X140885000Y-98425000D03*
X140885000Y-95885000D03*
X140885000Y-93345000D03*
X140885000Y-90805000D03*
X140885000Y-88265000D03*
X140885000Y-85725000D03*
X140885000Y-83185000D03*
X140885000Y-80645000D03*
X140885000Y-78105000D03*
X140885000Y-75565000D03*
X140885000Y-73025000D03*
X140885000Y-70485000D03*
X140885000Y-67945000D03*
X140885000Y-65405000D03*
X140885000Y-62865000D03*
X143425000Y-62865000D03*
X143425000Y-65405000D03*
X143425000Y-67945000D03*
X143425000Y-70485000D03*
X143425000Y-73025000D03*
X143425000Y-75565000D03*
X143425000Y-78105000D03*
X143425000Y-80645000D03*
X143425000Y-83185000D03*
X143425000Y-85725000D03*
X143425000Y-88265000D03*
X143425000Y-90805000D03*
X143425000Y-93345000D03*
X143425000Y-95885000D03*
X143425000Y-98425000D03*
X143425000Y-100965000D03*
X143425000Y-103505000D03*
X143425000Y-106045000D03*
X143425000Y-108585000D03*
X143425000Y-111125000D03*
X143425000Y-113665000D03*
X143425000Y-116205000D03*
X143425000Y-118745000D03*
X143425000Y-121285000D03*
X143425000Y-123825000D03*
X143425000Y-126365000D03*
X143425000Y-128905000D03*
X143425000Y-131445000D03*
X143425000Y-133985000D03*
X143425000Y-136525000D03*
X143425000Y-139065000D03*
X143425000Y-141605000D03*
D12*
X138345000Y-57785000D03*
X138345000Y-146685000D03*
D11*
X166695000Y-122995000D03*
X166695000Y-120455000D03*
X164155000Y-120455000D03*
X164155000Y-122995000D03*
M02*
