G04 #@! TF.FileFunction,Legend,Top*
%FSLAX46Y46*%
G04 Gerber Fmt 4.6, Leading zero omitted, Abs format (unit mm)*
G04 Created by KiCad (PCBNEW 4.0.7-e2-6376~58~ubuntu16.04.1) date Sun Sep 16 22:19:27 2018*
%MOMM*%
%LPD*%
G01*
G04 APERTURE LIST*
%ADD10C,0.100000*%
%ADD11C,0.150000*%
G04 APERTURE END LIST*
D10*
D11*
X173797857Y-147037381D02*
X173797857Y-146037381D01*
X174035952Y-146037381D01*
X174178810Y-146085000D01*
X174274048Y-146180238D01*
X174321667Y-146275476D01*
X174369286Y-146465952D01*
X174369286Y-146608810D01*
X174321667Y-146799286D01*
X174274048Y-146894524D01*
X174178810Y-146989762D01*
X174035952Y-147037381D01*
X173797857Y-147037381D01*
X174797857Y-147037381D02*
X174797857Y-146370714D01*
X174797857Y-146037381D02*
X174750238Y-146085000D01*
X174797857Y-146132619D01*
X174845476Y-146085000D01*
X174797857Y-146037381D01*
X174797857Y-146132619D01*
X175702619Y-146370714D02*
X175702619Y-147180238D01*
X175655000Y-147275476D01*
X175607381Y-147323095D01*
X175512142Y-147370714D01*
X175369285Y-147370714D01*
X175274047Y-147323095D01*
X175702619Y-146989762D02*
X175607381Y-147037381D01*
X175416904Y-147037381D01*
X175321666Y-146989762D01*
X175274047Y-146942143D01*
X175226428Y-146846905D01*
X175226428Y-146561190D01*
X175274047Y-146465952D01*
X175321666Y-146418333D01*
X175416904Y-146370714D01*
X175607381Y-146370714D01*
X175702619Y-146418333D01*
X176178809Y-147037381D02*
X176178809Y-146370714D01*
X176178809Y-146037381D02*
X176131190Y-146085000D01*
X176178809Y-146132619D01*
X176226428Y-146085000D01*
X176178809Y-146037381D01*
X176178809Y-146132619D01*
X176512142Y-146370714D02*
X176893094Y-146370714D01*
X176654999Y-146037381D02*
X176654999Y-146894524D01*
X176702618Y-146989762D01*
X176797856Y-147037381D01*
X176893094Y-147037381D01*
X177226428Y-147037381D02*
X177226428Y-146370714D01*
X177226428Y-146037381D02*
X177178809Y-146085000D01*
X177226428Y-146132619D01*
X177274047Y-146085000D01*
X177226428Y-146037381D01*
X177226428Y-146132619D01*
X177607380Y-146370714D02*
X178131190Y-146370714D01*
X177607380Y-147037381D01*
X178131190Y-147037381D01*
X178893095Y-146989762D02*
X178797857Y-147037381D01*
X178607380Y-147037381D01*
X178512142Y-146989762D01*
X178464523Y-146894524D01*
X178464523Y-146513571D01*
X178512142Y-146418333D01*
X178607380Y-146370714D01*
X178797857Y-146370714D01*
X178893095Y-146418333D01*
X178940714Y-146513571D01*
X178940714Y-146608810D01*
X178464523Y-146704048D01*
X179369285Y-147037381D02*
X179369285Y-146370714D01*
X179369285Y-146561190D02*
X179416904Y-146465952D01*
X179464523Y-146418333D01*
X179559761Y-146370714D01*
X179655000Y-146370714D01*
X171226428Y-148687381D02*
X171226428Y-147687381D01*
X171797857Y-148687381D01*
X171797857Y-147687381D01*
X172274047Y-148687381D02*
X172274047Y-148020714D01*
X172274047Y-147687381D02*
X172226428Y-147735000D01*
X172274047Y-147782619D01*
X172321666Y-147735000D01*
X172274047Y-147687381D01*
X172274047Y-147782619D01*
X173178809Y-148639762D02*
X173083571Y-148687381D01*
X172893094Y-148687381D01*
X172797856Y-148639762D01*
X172750237Y-148592143D01*
X172702618Y-148496905D01*
X172702618Y-148211190D01*
X172750237Y-148115952D01*
X172797856Y-148068333D01*
X172893094Y-148020714D01*
X173083571Y-148020714D01*
X173178809Y-148068333D01*
X173607380Y-148687381D02*
X173607380Y-147687381D01*
X173702618Y-148306429D02*
X173988333Y-148687381D01*
X173988333Y-148020714D02*
X173607380Y-148401667D01*
X174559761Y-148687381D02*
X174464523Y-148639762D01*
X174416904Y-148592143D01*
X174369285Y-148496905D01*
X174369285Y-148211190D01*
X174416904Y-148115952D01*
X174464523Y-148068333D01*
X174559761Y-148020714D01*
X174702619Y-148020714D01*
X174797857Y-148068333D01*
X174845476Y-148115952D01*
X174893095Y-148211190D01*
X174893095Y-148496905D01*
X174845476Y-148592143D01*
X174797857Y-148639762D01*
X174702619Y-148687381D01*
X174559761Y-148687381D01*
X175464523Y-148687381D02*
X175369285Y-148639762D01*
X175321666Y-148544524D01*
X175321666Y-147687381D01*
X176274048Y-148687381D02*
X176274048Y-148163571D01*
X176226429Y-148068333D01*
X176131191Y-148020714D01*
X175940714Y-148020714D01*
X175845476Y-148068333D01*
X176274048Y-148639762D02*
X176178810Y-148687381D01*
X175940714Y-148687381D01*
X175845476Y-148639762D01*
X175797857Y-148544524D01*
X175797857Y-148449286D01*
X175845476Y-148354048D01*
X175940714Y-148306429D01*
X176178810Y-148306429D01*
X176274048Y-148258810D01*
X176702619Y-148639762D02*
X176797857Y-148687381D01*
X176988333Y-148687381D01*
X177083572Y-148639762D01*
X177131191Y-148544524D01*
X177131191Y-148496905D01*
X177083572Y-148401667D01*
X176988333Y-148354048D01*
X176845476Y-148354048D01*
X176750238Y-148306429D01*
X176702619Y-148211190D01*
X176702619Y-148163571D01*
X176750238Y-148068333D01*
X176845476Y-148020714D01*
X176988333Y-148020714D01*
X177083572Y-148068333D01*
X178321667Y-147687381D02*
X178321667Y-148496905D01*
X178369286Y-148592143D01*
X178416905Y-148639762D01*
X178512143Y-148687381D01*
X178702620Y-148687381D01*
X178797858Y-148639762D01*
X178845477Y-148592143D01*
X178893096Y-148496905D01*
X178893096Y-147687381D01*
X179369286Y-148020714D02*
X179369286Y-149020714D01*
X179369286Y-148068333D02*
X179464524Y-148020714D01*
X179655001Y-148020714D01*
X179750239Y-148068333D01*
X179797858Y-148115952D01*
X179845477Y-148211190D01*
X179845477Y-148496905D01*
X179797858Y-148592143D01*
X179750239Y-148639762D01*
X179655001Y-148687381D01*
X179464524Y-148687381D01*
X179369286Y-148639762D01*
X180416905Y-148687381D02*
X180321667Y-148639762D01*
X180274048Y-148592143D01*
X180226429Y-148496905D01*
X180226429Y-148211190D01*
X180274048Y-148115952D01*
X180321667Y-148068333D01*
X180416905Y-148020714D01*
X180559763Y-148020714D01*
X180655001Y-148068333D01*
X180702620Y-148115952D01*
X180750239Y-148211190D01*
X180750239Y-148496905D01*
X180702620Y-148592143D01*
X180655001Y-148639762D01*
X180559763Y-148687381D01*
X180416905Y-148687381D01*
X181321667Y-148687381D02*
X181226429Y-148639762D01*
X181178810Y-148544524D01*
X181178810Y-147687381D01*
X182083573Y-148639762D02*
X181988335Y-148687381D01*
X181797858Y-148687381D01*
X181702620Y-148639762D01*
X181655001Y-148544524D01*
X181655001Y-148163571D01*
X181702620Y-148068333D01*
X181797858Y-148020714D01*
X181988335Y-148020714D01*
X182083573Y-148068333D01*
X182131192Y-148163571D01*
X182131192Y-148258810D01*
X181655001Y-148354048D01*
X169797857Y-150337381D02*
X169464523Y-149861190D01*
X169226428Y-150337381D02*
X169226428Y-149337381D01*
X169607381Y-149337381D01*
X169702619Y-149385000D01*
X169750238Y-149432619D01*
X169797857Y-149527857D01*
X169797857Y-149670714D01*
X169750238Y-149765952D01*
X169702619Y-149813571D01*
X169607381Y-149861190D01*
X169226428Y-149861190D01*
X170607381Y-150289762D02*
X170512143Y-150337381D01*
X170321666Y-150337381D01*
X170226428Y-150289762D01*
X170178809Y-150194524D01*
X170178809Y-149813571D01*
X170226428Y-149718333D01*
X170321666Y-149670714D01*
X170512143Y-149670714D01*
X170607381Y-149718333D01*
X170655000Y-149813571D01*
X170655000Y-149908810D01*
X170178809Y-150004048D01*
X170988333Y-149670714D02*
X171226428Y-150337381D01*
X171464524Y-149670714D01*
X172797857Y-149337381D02*
X172893096Y-149337381D01*
X172988334Y-149385000D01*
X173035953Y-149432619D01*
X173083572Y-149527857D01*
X173131191Y-149718333D01*
X173131191Y-149956429D01*
X173083572Y-150146905D01*
X173035953Y-150242143D01*
X172988334Y-150289762D01*
X172893096Y-150337381D01*
X172797857Y-150337381D01*
X172702619Y-150289762D01*
X172655000Y-150242143D01*
X172607381Y-150146905D01*
X172559762Y-149956429D01*
X172559762Y-149718333D01*
X172607381Y-149527857D01*
X172655000Y-149432619D01*
X172702619Y-149385000D01*
X172797857Y-149337381D01*
X173559762Y-150242143D02*
X173607381Y-150289762D01*
X173559762Y-150337381D01*
X173512143Y-150289762D01*
X173559762Y-150242143D01*
X173559762Y-150337381D01*
X174226428Y-149337381D02*
X174321667Y-149337381D01*
X174416905Y-149385000D01*
X174464524Y-149432619D01*
X174512143Y-149527857D01*
X174559762Y-149718333D01*
X174559762Y-149956429D01*
X174512143Y-150146905D01*
X174464524Y-150242143D01*
X174416905Y-150289762D01*
X174321667Y-150337381D01*
X174226428Y-150337381D01*
X174131190Y-150289762D01*
X174083571Y-150242143D01*
X174035952Y-150146905D01*
X173988333Y-149956429D01*
X173988333Y-149718333D01*
X174035952Y-149527857D01*
X174083571Y-149432619D01*
X174131190Y-149385000D01*
X174226428Y-149337381D01*
X175035952Y-150289762D02*
X175035952Y-150337381D01*
X174988333Y-150432619D01*
X174940714Y-150480238D01*
X176178809Y-150289762D02*
X176321666Y-150337381D01*
X176559762Y-150337381D01*
X176655000Y-150289762D01*
X176702619Y-150242143D01*
X176750238Y-150146905D01*
X176750238Y-150051667D01*
X176702619Y-149956429D01*
X176655000Y-149908810D01*
X176559762Y-149861190D01*
X176369285Y-149813571D01*
X176274047Y-149765952D01*
X176226428Y-149718333D01*
X176178809Y-149623095D01*
X176178809Y-149527857D01*
X176226428Y-149432619D01*
X176274047Y-149385000D01*
X176369285Y-149337381D01*
X176607381Y-149337381D01*
X176750238Y-149385000D01*
X177559762Y-150289762D02*
X177464524Y-150337381D01*
X177274047Y-150337381D01*
X177178809Y-150289762D01*
X177131190Y-150194524D01*
X177131190Y-149813571D01*
X177178809Y-149718333D01*
X177274047Y-149670714D01*
X177464524Y-149670714D01*
X177559762Y-149718333D01*
X177607381Y-149813571D01*
X177607381Y-149908810D01*
X177131190Y-150004048D01*
X178035952Y-149670714D02*
X178035952Y-150670714D01*
X178035952Y-149718333D02*
X178131190Y-149670714D01*
X178321667Y-149670714D01*
X178416905Y-149718333D01*
X178464524Y-149765952D01*
X178512143Y-149861190D01*
X178512143Y-150146905D01*
X178464524Y-150242143D01*
X178416905Y-150289762D01*
X178321667Y-150337381D01*
X178131190Y-150337381D01*
X178035952Y-150289762D01*
X178797857Y-149670714D02*
X179178809Y-149670714D01*
X178940714Y-149337381D02*
X178940714Y-150194524D01*
X178988333Y-150289762D01*
X179083571Y-150337381D01*
X179178809Y-150337381D01*
X179512143Y-150242143D02*
X179559762Y-150289762D01*
X179512143Y-150337381D01*
X179464524Y-150289762D01*
X179512143Y-150242143D01*
X179512143Y-150337381D01*
X180702619Y-149432619D02*
X180750238Y-149385000D01*
X180845476Y-149337381D01*
X181083572Y-149337381D01*
X181178810Y-149385000D01*
X181226429Y-149432619D01*
X181274048Y-149527857D01*
X181274048Y-149623095D01*
X181226429Y-149765952D01*
X180655000Y-150337381D01*
X181274048Y-150337381D01*
X181893095Y-149337381D02*
X181988334Y-149337381D01*
X182083572Y-149385000D01*
X182131191Y-149432619D01*
X182178810Y-149527857D01*
X182226429Y-149718333D01*
X182226429Y-149956429D01*
X182178810Y-150146905D01*
X182131191Y-150242143D01*
X182083572Y-150289762D01*
X181988334Y-150337381D01*
X181893095Y-150337381D01*
X181797857Y-150289762D01*
X181750238Y-150242143D01*
X181702619Y-150146905D01*
X181655000Y-149956429D01*
X181655000Y-149718333D01*
X181702619Y-149527857D01*
X181750238Y-149432619D01*
X181797857Y-149385000D01*
X181893095Y-149337381D01*
X183178810Y-150337381D02*
X182607381Y-150337381D01*
X182893095Y-150337381D02*
X182893095Y-149337381D01*
X182797857Y-149480238D01*
X182702619Y-149575476D01*
X182607381Y-149623095D01*
X183750238Y-149765952D02*
X183655000Y-149718333D01*
X183607381Y-149670714D01*
X183559762Y-149575476D01*
X183559762Y-149527857D01*
X183607381Y-149432619D01*
X183655000Y-149385000D01*
X183750238Y-149337381D01*
X183940715Y-149337381D01*
X184035953Y-149385000D01*
X184083572Y-149432619D01*
X184131191Y-149527857D01*
X184131191Y-149575476D01*
X184083572Y-149670714D01*
X184035953Y-149718333D01*
X183940715Y-149765952D01*
X183750238Y-149765952D01*
X183655000Y-149813571D01*
X183607381Y-149861190D01*
X183559762Y-149956429D01*
X183559762Y-150146905D01*
X183607381Y-150242143D01*
X183655000Y-150289762D01*
X183750238Y-150337381D01*
X183940715Y-150337381D01*
X184035953Y-150289762D01*
X184083572Y-150242143D01*
X184131191Y-150146905D01*
X184131191Y-149956429D01*
X184083572Y-149861190D01*
X184035953Y-149813571D01*
X183940715Y-149765952D01*
X178137143Y-107627619D02*
X178184762Y-107580000D01*
X178280000Y-107532381D01*
X178518096Y-107532381D01*
X178613334Y-107580000D01*
X178660953Y-107627619D01*
X178708572Y-107722857D01*
X178708572Y-107818095D01*
X178660953Y-107960952D01*
X178089524Y-108532381D01*
X178708572Y-108532381D01*
X179613334Y-107532381D02*
X179137143Y-107532381D01*
X179089524Y-108008571D01*
X179137143Y-107960952D01*
X179232381Y-107913333D01*
X179470477Y-107913333D01*
X179565715Y-107960952D01*
X179613334Y-108008571D01*
X179660953Y-108103810D01*
X179660953Y-108341905D01*
X179613334Y-108437143D01*
X179565715Y-108484762D01*
X179470477Y-108532381D01*
X179232381Y-108532381D01*
X179137143Y-108484762D01*
X179089524Y-108437143D01*
X180851429Y-108532381D02*
X180851429Y-107532381D01*
X181184763Y-108246667D01*
X181518096Y-107532381D01*
X181518096Y-108532381D01*
X181994286Y-108532381D02*
X181994286Y-107532381D01*
X181994286Y-108008571D02*
X182565715Y-108008571D01*
X182565715Y-108532381D02*
X182565715Y-107532381D01*
X182946667Y-107865714D02*
X183470477Y-107865714D01*
X182946667Y-108532381D01*
X183470477Y-108532381D01*
X181073810Y-94167381D02*
X180597619Y-94167381D01*
X180597619Y-93167381D01*
X181550000Y-94167381D02*
X181454762Y-94119762D01*
X181407143Y-94072143D01*
X181359524Y-93976905D01*
X181359524Y-93691190D01*
X181407143Y-93595952D01*
X181454762Y-93548333D01*
X181550000Y-93500714D01*
X181692858Y-93500714D01*
X181788096Y-93548333D01*
X181835715Y-93595952D01*
X181883334Y-93691190D01*
X181883334Y-93976905D01*
X181835715Y-94072143D01*
X181788096Y-94119762D01*
X181692858Y-94167381D01*
X181550000Y-94167381D01*
X182740477Y-94119762D02*
X182645239Y-94167381D01*
X182454762Y-94167381D01*
X182359524Y-94119762D01*
X182311905Y-94072143D01*
X182264286Y-93976905D01*
X182264286Y-93691190D01*
X182311905Y-93595952D01*
X182359524Y-93548333D01*
X182454762Y-93500714D01*
X182645239Y-93500714D01*
X182740477Y-93548333D01*
X183169048Y-94167381D02*
X183169048Y-93167381D01*
X183264286Y-93786429D02*
X183550001Y-94167381D01*
X183550001Y-93500714D02*
X183169048Y-93881667D01*
X180073810Y-89357381D02*
X180692858Y-89357381D01*
X180359524Y-89738333D01*
X180502382Y-89738333D01*
X180597620Y-89785952D01*
X180645239Y-89833571D01*
X180692858Y-89928810D01*
X180692858Y-90166905D01*
X180645239Y-90262143D01*
X180597620Y-90309762D01*
X180502382Y-90357381D01*
X180216667Y-90357381D01*
X180121429Y-90309762D01*
X180073810Y-90262143D01*
X181121429Y-90262143D02*
X181169048Y-90309762D01*
X181121429Y-90357381D01*
X181073810Y-90309762D01*
X181121429Y-90262143D01*
X181121429Y-90357381D01*
X181502381Y-89357381D02*
X182121429Y-89357381D01*
X181788095Y-89738333D01*
X181930953Y-89738333D01*
X182026191Y-89785952D01*
X182073810Y-89833571D01*
X182121429Y-89928810D01*
X182121429Y-90166905D01*
X182073810Y-90262143D01*
X182026191Y-90309762D01*
X181930953Y-90357381D01*
X181645238Y-90357381D01*
X181550000Y-90309762D01*
X181502381Y-90262143D01*
X182407143Y-89357381D02*
X182740476Y-90357381D01*
X183073810Y-89357381D01*
X183407143Y-90357381D02*
X183407143Y-89357381D01*
X183645238Y-89357381D01*
X183788096Y-89405000D01*
X183883334Y-89500238D01*
X183930953Y-89595476D01*
X183978572Y-89785952D01*
X183978572Y-89928810D01*
X183930953Y-90119286D01*
X183883334Y-90214524D01*
X183788096Y-90309762D01*
X183645238Y-90357381D01*
X183407143Y-90357381D01*
X151925000Y-92235000D02*
X151925000Y-92985000D01*
X152675000Y-92235000D02*
X151925000Y-92235000D01*
X171925000Y-92235000D02*
X171175000Y-92235000D01*
X171925000Y-92985000D02*
X171925000Y-92235000D01*
X151925000Y-112235000D02*
X152675000Y-112235000D01*
X151925000Y-111485000D02*
X151925000Y-112235000D01*
X151925000Y-112235000D02*
X151925000Y-111485000D01*
X171175000Y-112235000D02*
X171925000Y-111485000D01*
X170450000Y-69085000D02*
X170450000Y-68785000D01*
X170450000Y-68785000D02*
X172450000Y-68785000D01*
X172450000Y-68785000D02*
X172450000Y-69085000D01*
X170450000Y-70985000D02*
X170450000Y-69985000D01*
X170450000Y-72185000D02*
X172150000Y-72185000D01*
X172150000Y-72185000D02*
X172450000Y-71885000D01*
X170450000Y-72185000D02*
X170450000Y-71885000D01*
X170450000Y-132585000D02*
X170450000Y-132285000D01*
X170450000Y-132285000D02*
X172450000Y-132285000D01*
X172450000Y-132285000D02*
X172450000Y-132585000D01*
X170450000Y-134485000D02*
X170450000Y-133485000D01*
X170450000Y-135685000D02*
X172150000Y-135685000D01*
X172150000Y-135685000D02*
X172450000Y-135385000D01*
X170450000Y-135685000D02*
X170450000Y-135385000D01*
X160887210Y-72898000D02*
G75*
G03X160887210Y-72898000I-359210J0D01*
G01*
X157480000Y-67310000D02*
X161290000Y-67310000D01*
X161290000Y-67310000D02*
X161290000Y-73025000D01*
X161290000Y-73025000D02*
X160655000Y-73660000D01*
X160655000Y-73660000D02*
X157480000Y-73660000D01*
X157480000Y-73660000D02*
X157480000Y-67310000D01*
X160887210Y-136398000D02*
G75*
G03X160887210Y-136398000I-359210J0D01*
G01*
X157480000Y-130810000D02*
X161290000Y-130810000D01*
X161290000Y-130810000D02*
X161290000Y-136525000D01*
X161290000Y-136525000D02*
X160655000Y-137160000D01*
X160655000Y-137160000D02*
X157480000Y-137160000D01*
X157480000Y-137160000D02*
X157480000Y-130810000D01*
X167005000Y-60960000D02*
X167005000Y-57150000D01*
X167005000Y-57150000D02*
X168275000Y-55880000D01*
X168275000Y-55880000D02*
X169545000Y-55880000D01*
X169545000Y-55880000D02*
X169545000Y-60960000D01*
X169545000Y-60960000D02*
X167005000Y-60960000D01*
X151130000Y-60960000D02*
X151130000Y-57150000D01*
X151130000Y-57150000D02*
X152400000Y-55880000D01*
X152400000Y-55880000D02*
X153670000Y-55880000D01*
X153670000Y-55880000D02*
X153670000Y-60960000D01*
X153670000Y-60960000D02*
X151130000Y-60960000D01*
X151130000Y-148590000D02*
X151130000Y-144780000D01*
X151130000Y-144780000D02*
X152400000Y-143510000D01*
X152400000Y-143510000D02*
X153670000Y-143510000D01*
X153670000Y-143510000D02*
X153670000Y-148590000D01*
X153670000Y-148590000D02*
X151130000Y-148590000D01*
X180907000Y-109985000D02*
X180653000Y-109985000D01*
X179510000Y-111255000D02*
X179510000Y-111001000D01*
X179510000Y-111255000D02*
X179510000Y-111509000D01*
X167275000Y-144650000D02*
X167275000Y-144350000D01*
X167275000Y-144350000D02*
X169275000Y-144350000D01*
X169275000Y-144350000D02*
X169275000Y-144650000D01*
X167275000Y-146550000D02*
X167275000Y-145550000D01*
X167275000Y-147750000D02*
X168975000Y-147750000D01*
X168975000Y-147750000D02*
X169275000Y-147450000D01*
X167275000Y-147750000D02*
X167275000Y-147450000D01*
X161163095Y-101052381D02*
X161163095Y-101861905D01*
X161210714Y-101957143D01*
X161258333Y-102004762D01*
X161353571Y-102052381D01*
X161544048Y-102052381D01*
X161639286Y-102004762D01*
X161686905Y-101957143D01*
X161734524Y-101861905D01*
X161734524Y-101052381D01*
X162686905Y-101052381D02*
X162210714Y-101052381D01*
X162163095Y-101528571D01*
X162210714Y-101480952D01*
X162305952Y-101433333D01*
X162544048Y-101433333D01*
X162639286Y-101480952D01*
X162686905Y-101528571D01*
X162734524Y-101623810D01*
X162734524Y-101861905D01*
X162686905Y-101957143D01*
X162639286Y-102004762D01*
X162544048Y-102052381D01*
X162305952Y-102052381D01*
X162210714Y-102004762D01*
X162163095Y-101957143D01*
X179025953Y-114787143D02*
X178978334Y-114834762D01*
X178835477Y-114882381D01*
X178740239Y-114882381D01*
X178597381Y-114834762D01*
X178502143Y-114739524D01*
X178454524Y-114644286D01*
X178406905Y-114453810D01*
X178406905Y-114310952D01*
X178454524Y-114120476D01*
X178502143Y-114025238D01*
X178597381Y-113930000D01*
X178740239Y-113882381D01*
X178835477Y-113882381D01*
X178978334Y-113930000D01*
X179025953Y-113977619D01*
X179978334Y-114882381D02*
X179406905Y-114882381D01*
X179692619Y-114882381D02*
X179692619Y-113882381D01*
X179597381Y-114025238D01*
X179502143Y-114120476D01*
X179406905Y-114168095D01*
X180597381Y-113882381D02*
X180692620Y-113882381D01*
X180787858Y-113930000D01*
X180835477Y-113977619D01*
X180883096Y-114072857D01*
X180930715Y-114263333D01*
X180930715Y-114501429D01*
X180883096Y-114691905D01*
X180835477Y-114787143D01*
X180787858Y-114834762D01*
X180692620Y-114882381D01*
X180597381Y-114882381D01*
X180502143Y-114834762D01*
X180454524Y-114787143D01*
X180406905Y-114691905D01*
X180359286Y-114501429D01*
X180359286Y-114263333D01*
X180406905Y-114072857D01*
X180454524Y-113977619D01*
X180502143Y-113930000D01*
X180597381Y-113882381D01*
X181549762Y-113882381D02*
X181645001Y-113882381D01*
X181740239Y-113930000D01*
X181787858Y-113977619D01*
X181835477Y-114072857D01*
X181883096Y-114263333D01*
X181883096Y-114501429D01*
X181835477Y-114691905D01*
X181787858Y-114787143D01*
X181740239Y-114834762D01*
X181645001Y-114882381D01*
X181549762Y-114882381D01*
X181454524Y-114834762D01*
X181406905Y-114787143D01*
X181359286Y-114691905D01*
X181311667Y-114501429D01*
X181311667Y-114263333D01*
X181359286Y-114072857D01*
X181406905Y-113977619D01*
X181454524Y-113930000D01*
X181549762Y-113882381D01*
X179538334Y-74652143D02*
X179490715Y-74699762D01*
X179347858Y-74747381D01*
X179252620Y-74747381D01*
X179109762Y-74699762D01*
X179014524Y-74604524D01*
X178966905Y-74509286D01*
X178919286Y-74318810D01*
X178919286Y-74175952D01*
X178966905Y-73985476D01*
X179014524Y-73890238D01*
X179109762Y-73795000D01*
X179252620Y-73747381D01*
X179347858Y-73747381D01*
X179490715Y-73795000D01*
X179538334Y-73842619D01*
X180490715Y-74747381D02*
X179919286Y-74747381D01*
X180205000Y-74747381D02*
X180205000Y-73747381D01*
X180109762Y-73890238D01*
X180014524Y-73985476D01*
X179919286Y-74033095D01*
X174458334Y-67032143D02*
X174410715Y-67079762D01*
X174267858Y-67127381D01*
X174172620Y-67127381D01*
X174029762Y-67079762D01*
X173934524Y-66984524D01*
X173886905Y-66889286D01*
X173839286Y-66698810D01*
X173839286Y-66555952D01*
X173886905Y-66365476D01*
X173934524Y-66270238D01*
X174029762Y-66175000D01*
X174172620Y-66127381D01*
X174267858Y-66127381D01*
X174410715Y-66175000D01*
X174458334Y-66222619D01*
X174839286Y-66222619D02*
X174886905Y-66175000D01*
X174982143Y-66127381D01*
X175220239Y-66127381D01*
X175315477Y-66175000D01*
X175363096Y-66222619D01*
X175410715Y-66317857D01*
X175410715Y-66413095D01*
X175363096Y-66555952D01*
X174791667Y-67127381D01*
X175410715Y-67127381D01*
X174458334Y-74652143D02*
X174410715Y-74699762D01*
X174267858Y-74747381D01*
X174172620Y-74747381D01*
X174029762Y-74699762D01*
X173934524Y-74604524D01*
X173886905Y-74509286D01*
X173839286Y-74318810D01*
X173839286Y-74175952D01*
X173886905Y-73985476D01*
X173934524Y-73890238D01*
X174029762Y-73795000D01*
X174172620Y-73747381D01*
X174267858Y-73747381D01*
X174410715Y-73795000D01*
X174458334Y-73842619D01*
X174791667Y-73747381D02*
X175410715Y-73747381D01*
X175077381Y-74128333D01*
X175220239Y-74128333D01*
X175315477Y-74175952D01*
X175363096Y-74223571D01*
X175410715Y-74318810D01*
X175410715Y-74556905D01*
X175363096Y-74652143D01*
X175315477Y-74699762D01*
X175220239Y-74747381D01*
X174934524Y-74747381D01*
X174839286Y-74699762D01*
X174791667Y-74652143D01*
X176998334Y-72112143D02*
X176950715Y-72159762D01*
X176807858Y-72207381D01*
X176712620Y-72207381D01*
X176569762Y-72159762D01*
X176474524Y-72064524D01*
X176426905Y-71969286D01*
X176379286Y-71778810D01*
X176379286Y-71635952D01*
X176426905Y-71445476D01*
X176474524Y-71350238D01*
X176569762Y-71255000D01*
X176712620Y-71207381D01*
X176807858Y-71207381D01*
X176950715Y-71255000D01*
X176998334Y-71302619D01*
X177855477Y-71540714D02*
X177855477Y-72207381D01*
X177617381Y-71159762D02*
X177379286Y-71874048D01*
X177998334Y-71874048D01*
X167362143Y-70016666D02*
X167409762Y-70064285D01*
X167457381Y-70207142D01*
X167457381Y-70302380D01*
X167409762Y-70445238D01*
X167314524Y-70540476D01*
X167219286Y-70588095D01*
X167028810Y-70635714D01*
X166885952Y-70635714D01*
X166695476Y-70588095D01*
X166600238Y-70540476D01*
X166505000Y-70445238D01*
X166457381Y-70302380D01*
X166457381Y-70207142D01*
X166505000Y-70064285D01*
X166552619Y-70016666D01*
X166457381Y-69111904D02*
X166457381Y-69588095D01*
X166933571Y-69635714D01*
X166885952Y-69588095D01*
X166838333Y-69492857D01*
X166838333Y-69254761D01*
X166885952Y-69159523D01*
X166933571Y-69111904D01*
X167028810Y-69064285D01*
X167266905Y-69064285D01*
X167362143Y-69111904D01*
X167409762Y-69159523D01*
X167457381Y-69254761D01*
X167457381Y-69492857D01*
X167409762Y-69588095D01*
X167362143Y-69635714D01*
X182921667Y-65492381D02*
X182921667Y-66206667D01*
X182874047Y-66349524D01*
X182778809Y-66444762D01*
X182635952Y-66492381D01*
X182540714Y-66492381D01*
X183921667Y-66492381D02*
X183350238Y-66492381D01*
X183635952Y-66492381D02*
X183635952Y-65492381D01*
X183540714Y-65635238D01*
X183445476Y-65730476D01*
X183350238Y-65778095D01*
X179538334Y-69667381D02*
X179205000Y-69191190D01*
X178966905Y-69667381D02*
X178966905Y-68667381D01*
X179347858Y-68667381D01*
X179443096Y-68715000D01*
X179490715Y-68762619D01*
X179538334Y-68857857D01*
X179538334Y-69000714D01*
X179490715Y-69095952D01*
X179443096Y-69143571D01*
X179347858Y-69191190D01*
X178966905Y-69191190D01*
X180490715Y-69667381D02*
X179919286Y-69667381D01*
X180205000Y-69667381D02*
X180205000Y-68667381D01*
X180109762Y-68810238D01*
X180014524Y-68905476D01*
X179919286Y-68953095D01*
X176998334Y-74747381D02*
X176665000Y-74271190D01*
X176426905Y-74747381D02*
X176426905Y-73747381D01*
X176807858Y-73747381D01*
X176903096Y-73795000D01*
X176950715Y-73842619D01*
X176998334Y-73937857D01*
X176998334Y-74080714D01*
X176950715Y-74175952D01*
X176903096Y-74223571D01*
X176807858Y-74271190D01*
X176426905Y-74271190D01*
X177379286Y-73842619D02*
X177426905Y-73795000D01*
X177522143Y-73747381D01*
X177760239Y-73747381D01*
X177855477Y-73795000D01*
X177903096Y-73842619D01*
X177950715Y-73937857D01*
X177950715Y-74033095D01*
X177903096Y-74175952D01*
X177331667Y-74747381D01*
X177950715Y-74747381D01*
X176998334Y-69667381D02*
X176665000Y-69191190D01*
X176426905Y-69667381D02*
X176426905Y-68667381D01*
X176807858Y-68667381D01*
X176903096Y-68715000D01*
X176950715Y-68762619D01*
X176998334Y-68857857D01*
X176998334Y-69000714D01*
X176950715Y-69095952D01*
X176903096Y-69143571D01*
X176807858Y-69191190D01*
X176426905Y-69191190D01*
X177331667Y-68667381D02*
X177950715Y-68667381D01*
X177617381Y-69048333D01*
X177760239Y-69048333D01*
X177855477Y-69095952D01*
X177903096Y-69143571D01*
X177950715Y-69238810D01*
X177950715Y-69476905D01*
X177903096Y-69572143D01*
X177855477Y-69619762D01*
X177760239Y-69667381D01*
X177474524Y-69667381D01*
X177379286Y-69619762D01*
X177331667Y-69572143D01*
X179538334Y-67127381D02*
X179205000Y-66651190D01*
X178966905Y-67127381D02*
X178966905Y-66127381D01*
X179347858Y-66127381D01*
X179443096Y-66175000D01*
X179490715Y-66222619D01*
X179538334Y-66317857D01*
X179538334Y-66460714D01*
X179490715Y-66555952D01*
X179443096Y-66603571D01*
X179347858Y-66651190D01*
X178966905Y-66651190D01*
X180395477Y-66460714D02*
X180395477Y-67127381D01*
X180157381Y-66079762D02*
X179919286Y-66794048D01*
X180538334Y-66794048D01*
X176998334Y-67127381D02*
X176665000Y-66651190D01*
X176426905Y-67127381D02*
X176426905Y-66127381D01*
X176807858Y-66127381D01*
X176903096Y-66175000D01*
X176950715Y-66222619D01*
X176998334Y-66317857D01*
X176998334Y-66460714D01*
X176950715Y-66555952D01*
X176903096Y-66603571D01*
X176807858Y-66651190D01*
X176426905Y-66651190D01*
X177903096Y-66127381D02*
X177426905Y-66127381D01*
X177379286Y-66603571D01*
X177426905Y-66555952D01*
X177522143Y-66508333D01*
X177760239Y-66508333D01*
X177855477Y-66555952D01*
X177903096Y-66603571D01*
X177950715Y-66698810D01*
X177950715Y-66936905D01*
X177903096Y-67032143D01*
X177855477Y-67079762D01*
X177760239Y-67127381D01*
X177522143Y-67127381D01*
X177426905Y-67079762D01*
X177379286Y-67032143D01*
X171918334Y-67127381D02*
X171585000Y-66651190D01*
X171346905Y-67127381D02*
X171346905Y-66127381D01*
X171727858Y-66127381D01*
X171823096Y-66175000D01*
X171870715Y-66222619D01*
X171918334Y-66317857D01*
X171918334Y-66460714D01*
X171870715Y-66555952D01*
X171823096Y-66603571D01*
X171727858Y-66651190D01*
X171346905Y-66651190D01*
X172775477Y-66127381D02*
X172585000Y-66127381D01*
X172489762Y-66175000D01*
X172442143Y-66222619D01*
X172346905Y-66365476D01*
X172299286Y-66555952D01*
X172299286Y-66936905D01*
X172346905Y-67032143D01*
X172394524Y-67079762D01*
X172489762Y-67127381D01*
X172680239Y-67127381D01*
X172775477Y-67079762D01*
X172823096Y-67032143D01*
X172870715Y-66936905D01*
X172870715Y-66698810D01*
X172823096Y-66603571D01*
X172775477Y-66555952D01*
X172680239Y-66508333D01*
X172489762Y-66508333D01*
X172394524Y-66555952D01*
X172346905Y-66603571D01*
X172299286Y-66698810D01*
X171918334Y-74747381D02*
X171585000Y-74271190D01*
X171346905Y-74747381D02*
X171346905Y-73747381D01*
X171727858Y-73747381D01*
X171823096Y-73795000D01*
X171870715Y-73842619D01*
X171918334Y-73937857D01*
X171918334Y-74080714D01*
X171870715Y-74175952D01*
X171823096Y-74223571D01*
X171727858Y-74271190D01*
X171346905Y-74271190D01*
X172251667Y-73747381D02*
X172918334Y-73747381D01*
X172489762Y-74747381D01*
X168783095Y-67397381D02*
X168783095Y-68206905D01*
X168830714Y-68302143D01*
X168878333Y-68349762D01*
X168973571Y-68397381D01*
X169164048Y-68397381D01*
X169259286Y-68349762D01*
X169306905Y-68302143D01*
X169354524Y-68206905D01*
X169354524Y-67397381D01*
X170354524Y-68397381D02*
X169783095Y-68397381D01*
X170068809Y-68397381D02*
X170068809Y-67397381D01*
X169973571Y-67540238D01*
X169878333Y-67635476D01*
X169783095Y-67683095D01*
X167362143Y-68111666D02*
X167409762Y-68159285D01*
X167457381Y-68302142D01*
X167457381Y-68397380D01*
X167409762Y-68540238D01*
X167314524Y-68635476D01*
X167219286Y-68683095D01*
X167028810Y-68730714D01*
X166885952Y-68730714D01*
X166695476Y-68683095D01*
X166600238Y-68635476D01*
X166505000Y-68540238D01*
X166457381Y-68397380D01*
X166457381Y-68302142D01*
X166505000Y-68159285D01*
X166552619Y-68111666D01*
X166457381Y-67254523D02*
X166457381Y-67445000D01*
X166505000Y-67540238D01*
X166552619Y-67587857D01*
X166695476Y-67683095D01*
X166885952Y-67730714D01*
X167266905Y-67730714D01*
X167362143Y-67683095D01*
X167409762Y-67635476D01*
X167457381Y-67540238D01*
X167457381Y-67349761D01*
X167409762Y-67254523D01*
X167362143Y-67206904D01*
X167266905Y-67159285D01*
X167028810Y-67159285D01*
X166933571Y-67206904D01*
X166885952Y-67254523D01*
X166838333Y-67349761D01*
X166838333Y-67540238D01*
X166885952Y-67635476D01*
X166933571Y-67683095D01*
X167028810Y-67730714D01*
X167362143Y-71921666D02*
X167409762Y-71969285D01*
X167457381Y-72112142D01*
X167457381Y-72207380D01*
X167409762Y-72350238D01*
X167314524Y-72445476D01*
X167219286Y-72493095D01*
X167028810Y-72540714D01*
X166885952Y-72540714D01*
X166695476Y-72493095D01*
X166600238Y-72445476D01*
X166505000Y-72350238D01*
X166457381Y-72207380D01*
X166457381Y-72112142D01*
X166505000Y-71969285D01*
X166552619Y-71921666D01*
X166457381Y-71588333D02*
X166457381Y-70921666D01*
X167457381Y-71350238D01*
X167362143Y-73826666D02*
X167409762Y-73874285D01*
X167457381Y-74017142D01*
X167457381Y-74112380D01*
X167409762Y-74255238D01*
X167314524Y-74350476D01*
X167219286Y-74398095D01*
X167028810Y-74445714D01*
X166885952Y-74445714D01*
X166695476Y-74398095D01*
X166600238Y-74350476D01*
X166505000Y-74255238D01*
X166457381Y-74112380D01*
X166457381Y-74017142D01*
X166505000Y-73874285D01*
X166552619Y-73826666D01*
X166885952Y-73255238D02*
X166838333Y-73350476D01*
X166790714Y-73398095D01*
X166695476Y-73445714D01*
X166647857Y-73445714D01*
X166552619Y-73398095D01*
X166505000Y-73350476D01*
X166457381Y-73255238D01*
X166457381Y-73064761D01*
X166505000Y-72969523D01*
X166552619Y-72921904D01*
X166647857Y-72874285D01*
X166695476Y-72874285D01*
X166790714Y-72921904D01*
X166838333Y-72969523D01*
X166885952Y-73064761D01*
X166885952Y-73255238D01*
X166933571Y-73350476D01*
X166981190Y-73398095D01*
X167076429Y-73445714D01*
X167266905Y-73445714D01*
X167362143Y-73398095D01*
X167409762Y-73350476D01*
X167457381Y-73255238D01*
X167457381Y-73064761D01*
X167409762Y-72969523D01*
X167362143Y-72921904D01*
X167266905Y-72874285D01*
X167076429Y-72874285D01*
X166981190Y-72921904D01*
X166933571Y-72969523D01*
X166885952Y-73064761D01*
X151487143Y-70651666D02*
X151534762Y-70699285D01*
X151582381Y-70842142D01*
X151582381Y-70937380D01*
X151534762Y-71080238D01*
X151439524Y-71175476D01*
X151344286Y-71223095D01*
X151153810Y-71270714D01*
X151010952Y-71270714D01*
X150820476Y-71223095D01*
X150725238Y-71175476D01*
X150630000Y-71080238D01*
X150582381Y-70937380D01*
X150582381Y-70842142D01*
X150630000Y-70699285D01*
X150677619Y-70651666D01*
X151582381Y-70175476D02*
X151582381Y-69985000D01*
X151534762Y-69889761D01*
X151487143Y-69842142D01*
X151344286Y-69746904D01*
X151153810Y-69699285D01*
X150772857Y-69699285D01*
X150677619Y-69746904D01*
X150630000Y-69794523D01*
X150582381Y-69889761D01*
X150582381Y-70080238D01*
X150630000Y-70175476D01*
X150677619Y-70223095D01*
X150772857Y-70270714D01*
X151010952Y-70270714D01*
X151106190Y-70223095D01*
X151153810Y-70175476D01*
X151201429Y-70080238D01*
X151201429Y-69889761D01*
X151153810Y-69794523D01*
X151106190Y-69746904D01*
X151010952Y-69699285D01*
X179062143Y-138152143D02*
X179014524Y-138199762D01*
X178871667Y-138247381D01*
X178776429Y-138247381D01*
X178633571Y-138199762D01*
X178538333Y-138104524D01*
X178490714Y-138009286D01*
X178443095Y-137818810D01*
X178443095Y-137675952D01*
X178490714Y-137485476D01*
X178538333Y-137390238D01*
X178633571Y-137295000D01*
X178776429Y-137247381D01*
X178871667Y-137247381D01*
X179014524Y-137295000D01*
X179062143Y-137342619D01*
X180014524Y-138247381D02*
X179443095Y-138247381D01*
X179728809Y-138247381D02*
X179728809Y-137247381D01*
X179633571Y-137390238D01*
X179538333Y-137485476D01*
X179443095Y-137533095D01*
X180633571Y-137247381D02*
X180728810Y-137247381D01*
X180824048Y-137295000D01*
X180871667Y-137342619D01*
X180919286Y-137437857D01*
X180966905Y-137628333D01*
X180966905Y-137866429D01*
X180919286Y-138056905D01*
X180871667Y-138152143D01*
X180824048Y-138199762D01*
X180728810Y-138247381D01*
X180633571Y-138247381D01*
X180538333Y-138199762D01*
X180490714Y-138152143D01*
X180443095Y-138056905D01*
X180395476Y-137866429D01*
X180395476Y-137628333D01*
X180443095Y-137437857D01*
X180490714Y-137342619D01*
X180538333Y-137295000D01*
X180633571Y-137247381D01*
X173982143Y-130532143D02*
X173934524Y-130579762D01*
X173791667Y-130627381D01*
X173696429Y-130627381D01*
X173553571Y-130579762D01*
X173458333Y-130484524D01*
X173410714Y-130389286D01*
X173363095Y-130198810D01*
X173363095Y-130055952D01*
X173410714Y-129865476D01*
X173458333Y-129770238D01*
X173553571Y-129675000D01*
X173696429Y-129627381D01*
X173791667Y-129627381D01*
X173934524Y-129675000D01*
X173982143Y-129722619D01*
X174934524Y-130627381D02*
X174363095Y-130627381D01*
X174648809Y-130627381D02*
X174648809Y-129627381D01*
X174553571Y-129770238D01*
X174458333Y-129865476D01*
X174363095Y-129913095D01*
X175886905Y-130627381D02*
X175315476Y-130627381D01*
X175601190Y-130627381D02*
X175601190Y-129627381D01*
X175505952Y-129770238D01*
X175410714Y-129865476D01*
X175315476Y-129913095D01*
X173982143Y-138152143D02*
X173934524Y-138199762D01*
X173791667Y-138247381D01*
X173696429Y-138247381D01*
X173553571Y-138199762D01*
X173458333Y-138104524D01*
X173410714Y-138009286D01*
X173363095Y-137818810D01*
X173363095Y-137675952D01*
X173410714Y-137485476D01*
X173458333Y-137390238D01*
X173553571Y-137295000D01*
X173696429Y-137247381D01*
X173791667Y-137247381D01*
X173934524Y-137295000D01*
X173982143Y-137342619D01*
X174934524Y-138247381D02*
X174363095Y-138247381D01*
X174648809Y-138247381D02*
X174648809Y-137247381D01*
X174553571Y-137390238D01*
X174458333Y-137485476D01*
X174363095Y-137533095D01*
X175315476Y-137342619D02*
X175363095Y-137295000D01*
X175458333Y-137247381D01*
X175696429Y-137247381D01*
X175791667Y-137295000D01*
X175839286Y-137342619D01*
X175886905Y-137437857D01*
X175886905Y-137533095D01*
X175839286Y-137675952D01*
X175267857Y-138247381D01*
X175886905Y-138247381D01*
X176522143Y-135612143D02*
X176474524Y-135659762D01*
X176331667Y-135707381D01*
X176236429Y-135707381D01*
X176093571Y-135659762D01*
X175998333Y-135564524D01*
X175950714Y-135469286D01*
X175903095Y-135278810D01*
X175903095Y-135135952D01*
X175950714Y-134945476D01*
X175998333Y-134850238D01*
X176093571Y-134755000D01*
X176236429Y-134707381D01*
X176331667Y-134707381D01*
X176474524Y-134755000D01*
X176522143Y-134802619D01*
X177474524Y-135707381D02*
X176903095Y-135707381D01*
X177188809Y-135707381D02*
X177188809Y-134707381D01*
X177093571Y-134850238D01*
X176998333Y-134945476D01*
X176903095Y-134993095D01*
X178331667Y-135040714D02*
X178331667Y-135707381D01*
X178093571Y-134659762D02*
X177855476Y-135374048D01*
X178474524Y-135374048D01*
X167362143Y-134627857D02*
X167409762Y-134675476D01*
X167457381Y-134818333D01*
X167457381Y-134913571D01*
X167409762Y-135056429D01*
X167314524Y-135151667D01*
X167219286Y-135199286D01*
X167028810Y-135246905D01*
X166885952Y-135246905D01*
X166695476Y-135199286D01*
X166600238Y-135151667D01*
X166505000Y-135056429D01*
X166457381Y-134913571D01*
X166457381Y-134818333D01*
X166505000Y-134675476D01*
X166552619Y-134627857D01*
X167457381Y-133675476D02*
X167457381Y-134246905D01*
X167457381Y-133961191D02*
X166457381Y-133961191D01*
X166600238Y-134056429D01*
X166695476Y-134151667D01*
X166743095Y-134246905D01*
X166457381Y-132770714D02*
X166457381Y-133246905D01*
X166933571Y-133294524D01*
X166885952Y-133246905D01*
X166838333Y-133151667D01*
X166838333Y-132913571D01*
X166885952Y-132818333D01*
X166933571Y-132770714D01*
X167028810Y-132723095D01*
X167266905Y-132723095D01*
X167362143Y-132770714D01*
X167409762Y-132818333D01*
X167457381Y-132913571D01*
X167457381Y-133151667D01*
X167409762Y-133246905D01*
X167362143Y-133294524D01*
X167362143Y-132087857D02*
X167409762Y-132135476D01*
X167457381Y-132278333D01*
X167457381Y-132373571D01*
X167409762Y-132516429D01*
X167314524Y-132611667D01*
X167219286Y-132659286D01*
X167028810Y-132706905D01*
X166885952Y-132706905D01*
X166695476Y-132659286D01*
X166600238Y-132611667D01*
X166505000Y-132516429D01*
X166457381Y-132373571D01*
X166457381Y-132278333D01*
X166505000Y-132135476D01*
X166552619Y-132087857D01*
X167457381Y-131135476D02*
X167457381Y-131706905D01*
X167457381Y-131421191D02*
X166457381Y-131421191D01*
X166600238Y-131516429D01*
X166695476Y-131611667D01*
X166743095Y-131706905D01*
X166457381Y-130278333D02*
X166457381Y-130468810D01*
X166505000Y-130564048D01*
X166552619Y-130611667D01*
X166695476Y-130706905D01*
X166885952Y-130754524D01*
X167266905Y-130754524D01*
X167362143Y-130706905D01*
X167409762Y-130659286D01*
X167457381Y-130564048D01*
X167457381Y-130373571D01*
X167409762Y-130278333D01*
X167362143Y-130230714D01*
X167266905Y-130183095D01*
X167028810Y-130183095D01*
X166933571Y-130230714D01*
X166885952Y-130278333D01*
X166838333Y-130373571D01*
X166838333Y-130564048D01*
X166885952Y-130659286D01*
X166933571Y-130706905D01*
X167028810Y-130754524D01*
X167362143Y-137167857D02*
X167409762Y-137215476D01*
X167457381Y-137358333D01*
X167457381Y-137453571D01*
X167409762Y-137596429D01*
X167314524Y-137691667D01*
X167219286Y-137739286D01*
X167028810Y-137786905D01*
X166885952Y-137786905D01*
X166695476Y-137739286D01*
X166600238Y-137691667D01*
X166505000Y-137596429D01*
X166457381Y-137453571D01*
X166457381Y-137358333D01*
X166505000Y-137215476D01*
X166552619Y-137167857D01*
X167457381Y-136215476D02*
X167457381Y-136786905D01*
X167457381Y-136501191D02*
X166457381Y-136501191D01*
X166600238Y-136596429D01*
X166695476Y-136691667D01*
X166743095Y-136786905D01*
X166457381Y-135882143D02*
X166457381Y-135215476D01*
X167457381Y-135644048D01*
X167362143Y-139707857D02*
X167409762Y-139755476D01*
X167457381Y-139898333D01*
X167457381Y-139993571D01*
X167409762Y-140136429D01*
X167314524Y-140231667D01*
X167219286Y-140279286D01*
X167028810Y-140326905D01*
X166885952Y-140326905D01*
X166695476Y-140279286D01*
X166600238Y-140231667D01*
X166505000Y-140136429D01*
X166457381Y-139993571D01*
X166457381Y-139898333D01*
X166505000Y-139755476D01*
X166552619Y-139707857D01*
X167457381Y-138755476D02*
X167457381Y-139326905D01*
X167457381Y-139041191D02*
X166457381Y-139041191D01*
X166600238Y-139136429D01*
X166695476Y-139231667D01*
X166743095Y-139326905D01*
X166885952Y-138184048D02*
X166838333Y-138279286D01*
X166790714Y-138326905D01*
X166695476Y-138374524D01*
X166647857Y-138374524D01*
X166552619Y-138326905D01*
X166505000Y-138279286D01*
X166457381Y-138184048D01*
X166457381Y-137993571D01*
X166505000Y-137898333D01*
X166552619Y-137850714D01*
X166647857Y-137803095D01*
X166695476Y-137803095D01*
X166790714Y-137850714D01*
X166838333Y-137898333D01*
X166885952Y-137993571D01*
X166885952Y-138184048D01*
X166933571Y-138279286D01*
X166981190Y-138326905D01*
X167076429Y-138374524D01*
X167266905Y-138374524D01*
X167362143Y-138326905D01*
X167409762Y-138279286D01*
X167457381Y-138184048D01*
X167457381Y-137993571D01*
X167409762Y-137898333D01*
X167362143Y-137850714D01*
X167266905Y-137803095D01*
X167076429Y-137803095D01*
X166981190Y-137850714D01*
X166933571Y-137898333D01*
X166885952Y-137993571D01*
X151487143Y-134627857D02*
X151534762Y-134675476D01*
X151582381Y-134818333D01*
X151582381Y-134913571D01*
X151534762Y-135056429D01*
X151439524Y-135151667D01*
X151344286Y-135199286D01*
X151153810Y-135246905D01*
X151010952Y-135246905D01*
X150820476Y-135199286D01*
X150725238Y-135151667D01*
X150630000Y-135056429D01*
X150582381Y-134913571D01*
X150582381Y-134818333D01*
X150630000Y-134675476D01*
X150677619Y-134627857D01*
X151582381Y-133675476D02*
X151582381Y-134246905D01*
X151582381Y-133961191D02*
X150582381Y-133961191D01*
X150725238Y-134056429D01*
X150820476Y-134151667D01*
X150868095Y-134246905D01*
X151582381Y-133199286D02*
X151582381Y-133008810D01*
X151534762Y-132913571D01*
X151487143Y-132865952D01*
X151344286Y-132770714D01*
X151153810Y-132723095D01*
X150772857Y-132723095D01*
X150677619Y-132770714D01*
X150630000Y-132818333D01*
X150582381Y-132913571D01*
X150582381Y-133104048D01*
X150630000Y-133199286D01*
X150677619Y-133246905D01*
X150772857Y-133294524D01*
X151010952Y-133294524D01*
X151106190Y-133246905D01*
X151153810Y-133199286D01*
X151201429Y-133104048D01*
X151201429Y-132913571D01*
X151153810Y-132818333D01*
X151106190Y-132770714D01*
X151010952Y-132723095D01*
X174787143Y-108377857D02*
X174834762Y-108425476D01*
X174882381Y-108568333D01*
X174882381Y-108663571D01*
X174834762Y-108806429D01*
X174739524Y-108901667D01*
X174644286Y-108949286D01*
X174453810Y-108996905D01*
X174310952Y-108996905D01*
X174120476Y-108949286D01*
X174025238Y-108901667D01*
X173930000Y-108806429D01*
X173882381Y-108663571D01*
X173882381Y-108568333D01*
X173930000Y-108425476D01*
X173977619Y-108377857D01*
X173977619Y-107996905D02*
X173930000Y-107949286D01*
X173882381Y-107854048D01*
X173882381Y-107615952D01*
X173930000Y-107520714D01*
X173977619Y-107473095D01*
X174072857Y-107425476D01*
X174168095Y-107425476D01*
X174310952Y-107473095D01*
X174882381Y-108044524D01*
X174882381Y-107425476D01*
X173882381Y-106806429D02*
X173882381Y-106711190D01*
X173930000Y-106615952D01*
X173977619Y-106568333D01*
X174072857Y-106520714D01*
X174263333Y-106473095D01*
X174501429Y-106473095D01*
X174691905Y-106520714D01*
X174787143Y-106568333D01*
X174834762Y-106615952D01*
X174882381Y-106711190D01*
X174882381Y-106806429D01*
X174834762Y-106901667D01*
X174787143Y-106949286D01*
X174691905Y-106996905D01*
X174501429Y-107044524D01*
X174263333Y-107044524D01*
X174072857Y-106996905D01*
X173977619Y-106949286D01*
X173930000Y-106901667D01*
X173882381Y-106806429D01*
X174787143Y-104377857D02*
X174834762Y-104425476D01*
X174882381Y-104568333D01*
X174882381Y-104663571D01*
X174834762Y-104806429D01*
X174739524Y-104901667D01*
X174644286Y-104949286D01*
X174453810Y-104996905D01*
X174310952Y-104996905D01*
X174120476Y-104949286D01*
X174025238Y-104901667D01*
X173930000Y-104806429D01*
X173882381Y-104663571D01*
X173882381Y-104568333D01*
X173930000Y-104425476D01*
X173977619Y-104377857D01*
X173977619Y-103996905D02*
X173930000Y-103949286D01*
X173882381Y-103854048D01*
X173882381Y-103615952D01*
X173930000Y-103520714D01*
X173977619Y-103473095D01*
X174072857Y-103425476D01*
X174168095Y-103425476D01*
X174310952Y-103473095D01*
X174882381Y-104044524D01*
X174882381Y-103425476D01*
X174882381Y-102473095D02*
X174882381Y-103044524D01*
X174882381Y-102758810D02*
X173882381Y-102758810D01*
X174025238Y-102854048D01*
X174120476Y-102949286D01*
X174168095Y-103044524D01*
X174787143Y-97377857D02*
X174834762Y-97425476D01*
X174882381Y-97568333D01*
X174882381Y-97663571D01*
X174834762Y-97806429D01*
X174739524Y-97901667D01*
X174644286Y-97949286D01*
X174453810Y-97996905D01*
X174310952Y-97996905D01*
X174120476Y-97949286D01*
X174025238Y-97901667D01*
X173930000Y-97806429D01*
X173882381Y-97663571D01*
X173882381Y-97568333D01*
X173930000Y-97425476D01*
X173977619Y-97377857D01*
X173977619Y-96996905D02*
X173930000Y-96949286D01*
X173882381Y-96854048D01*
X173882381Y-96615952D01*
X173930000Y-96520714D01*
X173977619Y-96473095D01*
X174072857Y-96425476D01*
X174168095Y-96425476D01*
X174310952Y-96473095D01*
X174882381Y-97044524D01*
X174882381Y-96425476D01*
X173977619Y-96044524D02*
X173930000Y-95996905D01*
X173882381Y-95901667D01*
X173882381Y-95663571D01*
X173930000Y-95568333D01*
X173977619Y-95520714D01*
X174072857Y-95473095D01*
X174168095Y-95473095D01*
X174310952Y-95520714D01*
X174882381Y-96092143D01*
X174882381Y-95473095D01*
X174787143Y-93877857D02*
X174834762Y-93925476D01*
X174882381Y-94068333D01*
X174882381Y-94163571D01*
X174834762Y-94306429D01*
X174739524Y-94401667D01*
X174644286Y-94449286D01*
X174453810Y-94496905D01*
X174310952Y-94496905D01*
X174120476Y-94449286D01*
X174025238Y-94401667D01*
X173930000Y-94306429D01*
X173882381Y-94163571D01*
X173882381Y-94068333D01*
X173930000Y-93925476D01*
X173977619Y-93877857D01*
X173977619Y-93496905D02*
X173930000Y-93449286D01*
X173882381Y-93354048D01*
X173882381Y-93115952D01*
X173930000Y-93020714D01*
X173977619Y-92973095D01*
X174072857Y-92925476D01*
X174168095Y-92925476D01*
X174310952Y-92973095D01*
X174882381Y-93544524D01*
X174882381Y-92925476D01*
X173882381Y-92592143D02*
X173882381Y-91973095D01*
X174263333Y-92306429D01*
X174263333Y-92163571D01*
X174310952Y-92068333D01*
X174358571Y-92020714D01*
X174453810Y-91973095D01*
X174691905Y-91973095D01*
X174787143Y-92020714D01*
X174834762Y-92068333D01*
X174882381Y-92163571D01*
X174882381Y-92449286D01*
X174834762Y-92544524D01*
X174787143Y-92592143D01*
X170282143Y-90087143D02*
X170234524Y-90134762D01*
X170091667Y-90182381D01*
X169996429Y-90182381D01*
X169853571Y-90134762D01*
X169758333Y-90039524D01*
X169710714Y-89944286D01*
X169663095Y-89753810D01*
X169663095Y-89610952D01*
X169710714Y-89420476D01*
X169758333Y-89325238D01*
X169853571Y-89230000D01*
X169996429Y-89182381D01*
X170091667Y-89182381D01*
X170234524Y-89230000D01*
X170282143Y-89277619D01*
X170663095Y-89277619D02*
X170710714Y-89230000D01*
X170805952Y-89182381D01*
X171044048Y-89182381D01*
X171139286Y-89230000D01*
X171186905Y-89277619D01*
X171234524Y-89372857D01*
X171234524Y-89468095D01*
X171186905Y-89610952D01*
X170615476Y-90182381D01*
X171234524Y-90182381D01*
X172091667Y-89515714D02*
X172091667Y-90182381D01*
X171853571Y-89134762D02*
X171615476Y-89849048D01*
X172234524Y-89849048D01*
X162782143Y-90087143D02*
X162734524Y-90134762D01*
X162591667Y-90182381D01*
X162496429Y-90182381D01*
X162353571Y-90134762D01*
X162258333Y-90039524D01*
X162210714Y-89944286D01*
X162163095Y-89753810D01*
X162163095Y-89610952D01*
X162210714Y-89420476D01*
X162258333Y-89325238D01*
X162353571Y-89230000D01*
X162496429Y-89182381D01*
X162591667Y-89182381D01*
X162734524Y-89230000D01*
X162782143Y-89277619D01*
X163163095Y-89277619D02*
X163210714Y-89230000D01*
X163305952Y-89182381D01*
X163544048Y-89182381D01*
X163639286Y-89230000D01*
X163686905Y-89277619D01*
X163734524Y-89372857D01*
X163734524Y-89468095D01*
X163686905Y-89610952D01*
X163115476Y-90182381D01*
X163734524Y-90182381D01*
X164639286Y-89182381D02*
X164163095Y-89182381D01*
X164115476Y-89658571D01*
X164163095Y-89610952D01*
X164258333Y-89563333D01*
X164496429Y-89563333D01*
X164591667Y-89610952D01*
X164639286Y-89658571D01*
X164686905Y-89753810D01*
X164686905Y-89991905D01*
X164639286Y-90087143D01*
X164591667Y-90134762D01*
X164496429Y-90182381D01*
X164258333Y-90182381D01*
X164163095Y-90134762D01*
X164115476Y-90087143D01*
X155782143Y-90087143D02*
X155734524Y-90134762D01*
X155591667Y-90182381D01*
X155496429Y-90182381D01*
X155353571Y-90134762D01*
X155258333Y-90039524D01*
X155210714Y-89944286D01*
X155163095Y-89753810D01*
X155163095Y-89610952D01*
X155210714Y-89420476D01*
X155258333Y-89325238D01*
X155353571Y-89230000D01*
X155496429Y-89182381D01*
X155591667Y-89182381D01*
X155734524Y-89230000D01*
X155782143Y-89277619D01*
X156163095Y-89277619D02*
X156210714Y-89230000D01*
X156305952Y-89182381D01*
X156544048Y-89182381D01*
X156639286Y-89230000D01*
X156686905Y-89277619D01*
X156734524Y-89372857D01*
X156734524Y-89468095D01*
X156686905Y-89610952D01*
X156115476Y-90182381D01*
X156734524Y-90182381D01*
X157591667Y-89182381D02*
X157401190Y-89182381D01*
X157305952Y-89230000D01*
X157258333Y-89277619D01*
X157163095Y-89420476D01*
X157115476Y-89610952D01*
X157115476Y-89991905D01*
X157163095Y-90087143D01*
X157210714Y-90134762D01*
X157305952Y-90182381D01*
X157496429Y-90182381D01*
X157591667Y-90134762D01*
X157639286Y-90087143D01*
X157686905Y-89991905D01*
X157686905Y-89753810D01*
X157639286Y-89658571D01*
X157591667Y-89610952D01*
X157496429Y-89563333D01*
X157305952Y-89563333D01*
X157210714Y-89610952D01*
X157163095Y-89658571D01*
X157115476Y-89753810D01*
X152282143Y-90087143D02*
X152234524Y-90134762D01*
X152091667Y-90182381D01*
X151996429Y-90182381D01*
X151853571Y-90134762D01*
X151758333Y-90039524D01*
X151710714Y-89944286D01*
X151663095Y-89753810D01*
X151663095Y-89610952D01*
X151710714Y-89420476D01*
X151758333Y-89325238D01*
X151853571Y-89230000D01*
X151996429Y-89182381D01*
X152091667Y-89182381D01*
X152234524Y-89230000D01*
X152282143Y-89277619D01*
X152663095Y-89277619D02*
X152710714Y-89230000D01*
X152805952Y-89182381D01*
X153044048Y-89182381D01*
X153139286Y-89230000D01*
X153186905Y-89277619D01*
X153234524Y-89372857D01*
X153234524Y-89468095D01*
X153186905Y-89610952D01*
X152615476Y-90182381D01*
X153234524Y-90182381D01*
X153567857Y-89182381D02*
X154234524Y-89182381D01*
X153805952Y-90182381D01*
X149777143Y-97377857D02*
X149824762Y-97425476D01*
X149872381Y-97568333D01*
X149872381Y-97663571D01*
X149824762Y-97806429D01*
X149729524Y-97901667D01*
X149634286Y-97949286D01*
X149443810Y-97996905D01*
X149300952Y-97996905D01*
X149110476Y-97949286D01*
X149015238Y-97901667D01*
X148920000Y-97806429D01*
X148872381Y-97663571D01*
X148872381Y-97568333D01*
X148920000Y-97425476D01*
X148967619Y-97377857D01*
X148967619Y-96996905D02*
X148920000Y-96949286D01*
X148872381Y-96854048D01*
X148872381Y-96615952D01*
X148920000Y-96520714D01*
X148967619Y-96473095D01*
X149062857Y-96425476D01*
X149158095Y-96425476D01*
X149300952Y-96473095D01*
X149872381Y-97044524D01*
X149872381Y-96425476D01*
X149300952Y-95854048D02*
X149253333Y-95949286D01*
X149205714Y-95996905D01*
X149110476Y-96044524D01*
X149062857Y-96044524D01*
X148967619Y-95996905D01*
X148920000Y-95949286D01*
X148872381Y-95854048D01*
X148872381Y-95663571D01*
X148920000Y-95568333D01*
X148967619Y-95520714D01*
X149062857Y-95473095D01*
X149110476Y-95473095D01*
X149205714Y-95520714D01*
X149253333Y-95568333D01*
X149300952Y-95663571D01*
X149300952Y-95854048D01*
X149348571Y-95949286D01*
X149396190Y-95996905D01*
X149491429Y-96044524D01*
X149681905Y-96044524D01*
X149777143Y-95996905D01*
X149824762Y-95949286D01*
X149872381Y-95854048D01*
X149872381Y-95663571D01*
X149824762Y-95568333D01*
X149777143Y-95520714D01*
X149681905Y-95473095D01*
X149491429Y-95473095D01*
X149396190Y-95520714D01*
X149348571Y-95568333D01*
X149300952Y-95663571D01*
X149777143Y-101877857D02*
X149824762Y-101925476D01*
X149872381Y-102068333D01*
X149872381Y-102163571D01*
X149824762Y-102306429D01*
X149729524Y-102401667D01*
X149634286Y-102449286D01*
X149443810Y-102496905D01*
X149300952Y-102496905D01*
X149110476Y-102449286D01*
X149015238Y-102401667D01*
X148920000Y-102306429D01*
X148872381Y-102163571D01*
X148872381Y-102068333D01*
X148920000Y-101925476D01*
X148967619Y-101877857D01*
X148967619Y-101496905D02*
X148920000Y-101449286D01*
X148872381Y-101354048D01*
X148872381Y-101115952D01*
X148920000Y-101020714D01*
X148967619Y-100973095D01*
X149062857Y-100925476D01*
X149158095Y-100925476D01*
X149300952Y-100973095D01*
X149872381Y-101544524D01*
X149872381Y-100925476D01*
X149872381Y-100449286D02*
X149872381Y-100258810D01*
X149824762Y-100163571D01*
X149777143Y-100115952D01*
X149634286Y-100020714D01*
X149443810Y-99973095D01*
X149062857Y-99973095D01*
X148967619Y-100020714D01*
X148920000Y-100068333D01*
X148872381Y-100163571D01*
X148872381Y-100354048D01*
X148920000Y-100449286D01*
X148967619Y-100496905D01*
X149062857Y-100544524D01*
X149300952Y-100544524D01*
X149396190Y-100496905D01*
X149443810Y-100449286D01*
X149491429Y-100354048D01*
X149491429Y-100163571D01*
X149443810Y-100068333D01*
X149396190Y-100020714D01*
X149300952Y-99973095D01*
X149777143Y-108377857D02*
X149824762Y-108425476D01*
X149872381Y-108568333D01*
X149872381Y-108663571D01*
X149824762Y-108806429D01*
X149729524Y-108901667D01*
X149634286Y-108949286D01*
X149443810Y-108996905D01*
X149300952Y-108996905D01*
X149110476Y-108949286D01*
X149015238Y-108901667D01*
X148920000Y-108806429D01*
X148872381Y-108663571D01*
X148872381Y-108568333D01*
X148920000Y-108425476D01*
X148967619Y-108377857D01*
X148872381Y-108044524D02*
X148872381Y-107425476D01*
X149253333Y-107758810D01*
X149253333Y-107615952D01*
X149300952Y-107520714D01*
X149348571Y-107473095D01*
X149443810Y-107425476D01*
X149681905Y-107425476D01*
X149777143Y-107473095D01*
X149824762Y-107520714D01*
X149872381Y-107615952D01*
X149872381Y-107901667D01*
X149824762Y-107996905D01*
X149777143Y-108044524D01*
X148872381Y-106806429D02*
X148872381Y-106711190D01*
X148920000Y-106615952D01*
X148967619Y-106568333D01*
X149062857Y-106520714D01*
X149253333Y-106473095D01*
X149491429Y-106473095D01*
X149681905Y-106520714D01*
X149777143Y-106568333D01*
X149824762Y-106615952D01*
X149872381Y-106711190D01*
X149872381Y-106806429D01*
X149824762Y-106901667D01*
X149777143Y-106949286D01*
X149681905Y-106996905D01*
X149491429Y-107044524D01*
X149253333Y-107044524D01*
X149062857Y-106996905D01*
X148967619Y-106949286D01*
X148920000Y-106901667D01*
X148872381Y-106806429D01*
X149777143Y-111877857D02*
X149824762Y-111925476D01*
X149872381Y-112068333D01*
X149872381Y-112163571D01*
X149824762Y-112306429D01*
X149729524Y-112401667D01*
X149634286Y-112449286D01*
X149443810Y-112496905D01*
X149300952Y-112496905D01*
X149110476Y-112449286D01*
X149015238Y-112401667D01*
X148920000Y-112306429D01*
X148872381Y-112163571D01*
X148872381Y-112068333D01*
X148920000Y-111925476D01*
X148967619Y-111877857D01*
X148872381Y-111544524D02*
X148872381Y-110925476D01*
X149253333Y-111258810D01*
X149253333Y-111115952D01*
X149300952Y-111020714D01*
X149348571Y-110973095D01*
X149443810Y-110925476D01*
X149681905Y-110925476D01*
X149777143Y-110973095D01*
X149824762Y-111020714D01*
X149872381Y-111115952D01*
X149872381Y-111401667D01*
X149824762Y-111496905D01*
X149777143Y-111544524D01*
X149872381Y-109973095D02*
X149872381Y-110544524D01*
X149872381Y-110258810D02*
X148872381Y-110258810D01*
X149015238Y-110354048D01*
X149110476Y-110449286D01*
X149158095Y-110544524D01*
X156782143Y-115097143D02*
X156734524Y-115144762D01*
X156591667Y-115192381D01*
X156496429Y-115192381D01*
X156353571Y-115144762D01*
X156258333Y-115049524D01*
X156210714Y-114954286D01*
X156163095Y-114763810D01*
X156163095Y-114620952D01*
X156210714Y-114430476D01*
X156258333Y-114335238D01*
X156353571Y-114240000D01*
X156496429Y-114192381D01*
X156591667Y-114192381D01*
X156734524Y-114240000D01*
X156782143Y-114287619D01*
X157115476Y-114192381D02*
X157734524Y-114192381D01*
X157401190Y-114573333D01*
X157544048Y-114573333D01*
X157639286Y-114620952D01*
X157686905Y-114668571D01*
X157734524Y-114763810D01*
X157734524Y-115001905D01*
X157686905Y-115097143D01*
X157639286Y-115144762D01*
X157544048Y-115192381D01*
X157258333Y-115192381D01*
X157163095Y-115144762D01*
X157115476Y-115097143D01*
X158115476Y-114287619D02*
X158163095Y-114240000D01*
X158258333Y-114192381D01*
X158496429Y-114192381D01*
X158591667Y-114240000D01*
X158639286Y-114287619D01*
X158686905Y-114382857D01*
X158686905Y-114478095D01*
X158639286Y-114620952D01*
X158067857Y-115192381D01*
X158686905Y-115192381D01*
X159782143Y-115097143D02*
X159734524Y-115144762D01*
X159591667Y-115192381D01*
X159496429Y-115192381D01*
X159353571Y-115144762D01*
X159258333Y-115049524D01*
X159210714Y-114954286D01*
X159163095Y-114763810D01*
X159163095Y-114620952D01*
X159210714Y-114430476D01*
X159258333Y-114335238D01*
X159353571Y-114240000D01*
X159496429Y-114192381D01*
X159591667Y-114192381D01*
X159734524Y-114240000D01*
X159782143Y-114287619D01*
X160115476Y-114192381D02*
X160734524Y-114192381D01*
X160401190Y-114573333D01*
X160544048Y-114573333D01*
X160639286Y-114620952D01*
X160686905Y-114668571D01*
X160734524Y-114763810D01*
X160734524Y-115001905D01*
X160686905Y-115097143D01*
X160639286Y-115144762D01*
X160544048Y-115192381D01*
X160258333Y-115192381D01*
X160163095Y-115144762D01*
X160115476Y-115097143D01*
X161067857Y-114192381D02*
X161686905Y-114192381D01*
X161353571Y-114573333D01*
X161496429Y-114573333D01*
X161591667Y-114620952D01*
X161639286Y-114668571D01*
X161686905Y-114763810D01*
X161686905Y-115001905D01*
X161639286Y-115097143D01*
X161591667Y-115144762D01*
X161496429Y-115192381D01*
X161210714Y-115192381D01*
X161115476Y-115144762D01*
X161067857Y-115097143D01*
X165282143Y-115097143D02*
X165234524Y-115144762D01*
X165091667Y-115192381D01*
X164996429Y-115192381D01*
X164853571Y-115144762D01*
X164758333Y-115049524D01*
X164710714Y-114954286D01*
X164663095Y-114763810D01*
X164663095Y-114620952D01*
X164710714Y-114430476D01*
X164758333Y-114335238D01*
X164853571Y-114240000D01*
X164996429Y-114192381D01*
X165091667Y-114192381D01*
X165234524Y-114240000D01*
X165282143Y-114287619D01*
X165615476Y-114192381D02*
X166234524Y-114192381D01*
X165901190Y-114573333D01*
X166044048Y-114573333D01*
X166139286Y-114620952D01*
X166186905Y-114668571D01*
X166234524Y-114763810D01*
X166234524Y-115001905D01*
X166186905Y-115097143D01*
X166139286Y-115144762D01*
X166044048Y-115192381D01*
X165758333Y-115192381D01*
X165663095Y-115144762D01*
X165615476Y-115097143D01*
X167091667Y-114525714D02*
X167091667Y-115192381D01*
X166853571Y-114144762D02*
X166615476Y-114859048D01*
X167234524Y-114859048D01*
X170282143Y-115097143D02*
X170234524Y-115144762D01*
X170091667Y-115192381D01*
X169996429Y-115192381D01*
X169853571Y-115144762D01*
X169758333Y-115049524D01*
X169710714Y-114954286D01*
X169663095Y-114763810D01*
X169663095Y-114620952D01*
X169710714Y-114430476D01*
X169758333Y-114335238D01*
X169853571Y-114240000D01*
X169996429Y-114192381D01*
X170091667Y-114192381D01*
X170234524Y-114240000D01*
X170282143Y-114287619D01*
X170615476Y-114192381D02*
X171234524Y-114192381D01*
X170901190Y-114573333D01*
X171044048Y-114573333D01*
X171139286Y-114620952D01*
X171186905Y-114668571D01*
X171234524Y-114763810D01*
X171234524Y-115001905D01*
X171186905Y-115097143D01*
X171139286Y-115144762D01*
X171044048Y-115192381D01*
X170758333Y-115192381D01*
X170663095Y-115144762D01*
X170615476Y-115097143D01*
X172139286Y-114192381D02*
X171663095Y-114192381D01*
X171615476Y-114668571D01*
X171663095Y-114620952D01*
X171758333Y-114573333D01*
X171996429Y-114573333D01*
X172091667Y-114620952D01*
X172139286Y-114668571D01*
X172186905Y-114763810D01*
X172186905Y-115001905D01*
X172139286Y-115097143D01*
X172091667Y-115144762D01*
X171996429Y-115192381D01*
X171758333Y-115192381D01*
X171663095Y-115144762D01*
X171615476Y-115097143D01*
X182921667Y-96992381D02*
X182921667Y-97706667D01*
X182874047Y-97849524D01*
X182778809Y-97944762D01*
X182635952Y-97992381D01*
X182540714Y-97992381D01*
X183350238Y-97087619D02*
X183397857Y-97040000D01*
X183493095Y-96992381D01*
X183731191Y-96992381D01*
X183826429Y-97040000D01*
X183874048Y-97087619D01*
X183921667Y-97182857D01*
X183921667Y-97278095D01*
X183874048Y-97420952D01*
X183302619Y-97992381D01*
X183921667Y-97992381D01*
X182921667Y-128992381D02*
X182921667Y-129706667D01*
X182874047Y-129849524D01*
X182778809Y-129944762D01*
X182635952Y-129992381D01*
X182540714Y-129992381D01*
X183302619Y-128992381D02*
X183921667Y-128992381D01*
X183588333Y-129373333D01*
X183731191Y-129373333D01*
X183826429Y-129420952D01*
X183874048Y-129468571D01*
X183921667Y-129563810D01*
X183921667Y-129801905D01*
X183874048Y-129897143D01*
X183826429Y-129944762D01*
X183731191Y-129992381D01*
X183445476Y-129992381D01*
X183350238Y-129944762D01*
X183302619Y-129897143D01*
X179327381Y-102786666D02*
X178851190Y-103120000D01*
X179327381Y-103358095D02*
X178327381Y-103358095D01*
X178327381Y-102977142D01*
X178375000Y-102881904D01*
X178422619Y-102834285D01*
X178517857Y-102786666D01*
X178660714Y-102786666D01*
X178755952Y-102834285D01*
X178803571Y-102881904D01*
X178851190Y-102977142D01*
X178851190Y-103358095D01*
X178755952Y-102215238D02*
X178708333Y-102310476D01*
X178660714Y-102358095D01*
X178565476Y-102405714D01*
X178517857Y-102405714D01*
X178422619Y-102358095D01*
X178375000Y-102310476D01*
X178327381Y-102215238D01*
X178327381Y-102024761D01*
X178375000Y-101929523D01*
X178422619Y-101881904D01*
X178517857Y-101834285D01*
X178565476Y-101834285D01*
X178660714Y-101881904D01*
X178708333Y-101929523D01*
X178755952Y-102024761D01*
X178755952Y-102215238D01*
X178803571Y-102310476D01*
X178851190Y-102358095D01*
X178946429Y-102405714D01*
X179136905Y-102405714D01*
X179232143Y-102358095D01*
X179279762Y-102310476D01*
X179327381Y-102215238D01*
X179327381Y-102024761D01*
X179279762Y-101929523D01*
X179232143Y-101881904D01*
X179136905Y-101834285D01*
X178946429Y-101834285D01*
X178851190Y-101881904D01*
X178803571Y-101929523D01*
X178755952Y-102024761D01*
X179538334Y-133167381D02*
X179205000Y-132691190D01*
X178966905Y-133167381D02*
X178966905Y-132167381D01*
X179347858Y-132167381D01*
X179443096Y-132215000D01*
X179490715Y-132262619D01*
X179538334Y-132357857D01*
X179538334Y-132500714D01*
X179490715Y-132595952D01*
X179443096Y-132643571D01*
X179347858Y-132691190D01*
X178966905Y-132691190D01*
X180014524Y-133167381D02*
X180205000Y-133167381D01*
X180300239Y-133119762D01*
X180347858Y-133072143D01*
X180443096Y-132929286D01*
X180490715Y-132738810D01*
X180490715Y-132357857D01*
X180443096Y-132262619D01*
X180395477Y-132215000D01*
X180300239Y-132167381D01*
X180109762Y-132167381D01*
X180014524Y-132215000D01*
X179966905Y-132262619D01*
X179919286Y-132357857D01*
X179919286Y-132595952D01*
X179966905Y-132691190D01*
X180014524Y-132738810D01*
X180109762Y-132786429D01*
X180300239Y-132786429D01*
X180395477Y-132738810D01*
X180443096Y-132691190D01*
X180490715Y-132595952D01*
X176522143Y-138247381D02*
X176188809Y-137771190D01*
X175950714Y-138247381D02*
X175950714Y-137247381D01*
X176331667Y-137247381D01*
X176426905Y-137295000D01*
X176474524Y-137342619D01*
X176522143Y-137437857D01*
X176522143Y-137580714D01*
X176474524Y-137675952D01*
X176426905Y-137723571D01*
X176331667Y-137771190D01*
X175950714Y-137771190D01*
X177474524Y-138247381D02*
X176903095Y-138247381D01*
X177188809Y-138247381D02*
X177188809Y-137247381D01*
X177093571Y-137390238D01*
X176998333Y-137485476D01*
X176903095Y-137533095D01*
X178093571Y-137247381D02*
X178188810Y-137247381D01*
X178284048Y-137295000D01*
X178331667Y-137342619D01*
X178379286Y-137437857D01*
X178426905Y-137628333D01*
X178426905Y-137866429D01*
X178379286Y-138056905D01*
X178331667Y-138152143D01*
X178284048Y-138199762D01*
X178188810Y-138247381D01*
X178093571Y-138247381D01*
X177998333Y-138199762D01*
X177950714Y-138152143D01*
X177903095Y-138056905D01*
X177855476Y-137866429D01*
X177855476Y-137628333D01*
X177903095Y-137437857D01*
X177950714Y-137342619D01*
X177998333Y-137295000D01*
X178093571Y-137247381D01*
X176522143Y-133167381D02*
X176188809Y-132691190D01*
X175950714Y-133167381D02*
X175950714Y-132167381D01*
X176331667Y-132167381D01*
X176426905Y-132215000D01*
X176474524Y-132262619D01*
X176522143Y-132357857D01*
X176522143Y-132500714D01*
X176474524Y-132595952D01*
X176426905Y-132643571D01*
X176331667Y-132691190D01*
X175950714Y-132691190D01*
X177474524Y-133167381D02*
X176903095Y-133167381D01*
X177188809Y-133167381D02*
X177188809Y-132167381D01*
X177093571Y-132310238D01*
X176998333Y-132405476D01*
X176903095Y-132453095D01*
X178426905Y-133167381D02*
X177855476Y-133167381D01*
X178141190Y-133167381D02*
X178141190Y-132167381D01*
X178045952Y-132310238D01*
X177950714Y-132405476D01*
X177855476Y-132453095D01*
X179062143Y-130627381D02*
X178728809Y-130151190D01*
X178490714Y-130627381D02*
X178490714Y-129627381D01*
X178871667Y-129627381D01*
X178966905Y-129675000D01*
X179014524Y-129722619D01*
X179062143Y-129817857D01*
X179062143Y-129960714D01*
X179014524Y-130055952D01*
X178966905Y-130103571D01*
X178871667Y-130151190D01*
X178490714Y-130151190D01*
X180014524Y-130627381D02*
X179443095Y-130627381D01*
X179728809Y-130627381D02*
X179728809Y-129627381D01*
X179633571Y-129770238D01*
X179538333Y-129865476D01*
X179443095Y-129913095D01*
X180395476Y-129722619D02*
X180443095Y-129675000D01*
X180538333Y-129627381D01*
X180776429Y-129627381D01*
X180871667Y-129675000D01*
X180919286Y-129722619D01*
X180966905Y-129817857D01*
X180966905Y-129913095D01*
X180919286Y-130055952D01*
X180347857Y-130627381D01*
X180966905Y-130627381D01*
X176522143Y-130627381D02*
X176188809Y-130151190D01*
X175950714Y-130627381D02*
X175950714Y-129627381D01*
X176331667Y-129627381D01*
X176426905Y-129675000D01*
X176474524Y-129722619D01*
X176522143Y-129817857D01*
X176522143Y-129960714D01*
X176474524Y-130055952D01*
X176426905Y-130103571D01*
X176331667Y-130151190D01*
X175950714Y-130151190D01*
X177474524Y-130627381D02*
X176903095Y-130627381D01*
X177188809Y-130627381D02*
X177188809Y-129627381D01*
X177093571Y-129770238D01*
X176998333Y-129865476D01*
X176903095Y-129913095D01*
X177807857Y-129627381D02*
X178426905Y-129627381D01*
X178093571Y-130008333D01*
X178236429Y-130008333D01*
X178331667Y-130055952D01*
X178379286Y-130103571D01*
X178426905Y-130198810D01*
X178426905Y-130436905D01*
X178379286Y-130532143D01*
X178331667Y-130579762D01*
X178236429Y-130627381D01*
X177950714Y-130627381D01*
X177855476Y-130579762D01*
X177807857Y-130532143D01*
X171442143Y-130627381D02*
X171108809Y-130151190D01*
X170870714Y-130627381D02*
X170870714Y-129627381D01*
X171251667Y-129627381D01*
X171346905Y-129675000D01*
X171394524Y-129722619D01*
X171442143Y-129817857D01*
X171442143Y-129960714D01*
X171394524Y-130055952D01*
X171346905Y-130103571D01*
X171251667Y-130151190D01*
X170870714Y-130151190D01*
X172394524Y-130627381D02*
X171823095Y-130627381D01*
X172108809Y-130627381D02*
X172108809Y-129627381D01*
X172013571Y-129770238D01*
X171918333Y-129865476D01*
X171823095Y-129913095D01*
X173251667Y-129960714D02*
X173251667Y-130627381D01*
X173013571Y-129579762D02*
X172775476Y-130294048D01*
X173394524Y-130294048D01*
X171442143Y-138247381D02*
X171108809Y-137771190D01*
X170870714Y-138247381D02*
X170870714Y-137247381D01*
X171251667Y-137247381D01*
X171346905Y-137295000D01*
X171394524Y-137342619D01*
X171442143Y-137437857D01*
X171442143Y-137580714D01*
X171394524Y-137675952D01*
X171346905Y-137723571D01*
X171251667Y-137771190D01*
X170870714Y-137771190D01*
X172394524Y-138247381D02*
X171823095Y-138247381D01*
X172108809Y-138247381D02*
X172108809Y-137247381D01*
X172013571Y-137390238D01*
X171918333Y-137485476D01*
X171823095Y-137533095D01*
X173299286Y-137247381D02*
X172823095Y-137247381D01*
X172775476Y-137723571D01*
X172823095Y-137675952D01*
X172918333Y-137628333D01*
X173156429Y-137628333D01*
X173251667Y-137675952D01*
X173299286Y-137723571D01*
X173346905Y-137818810D01*
X173346905Y-138056905D01*
X173299286Y-138152143D01*
X173251667Y-138199762D01*
X173156429Y-138247381D01*
X172918333Y-138247381D01*
X172823095Y-138199762D01*
X172775476Y-138152143D01*
X168783095Y-130897381D02*
X168783095Y-131706905D01*
X168830714Y-131802143D01*
X168878333Y-131849762D01*
X168973571Y-131897381D01*
X169164048Y-131897381D01*
X169259286Y-131849762D01*
X169306905Y-131802143D01*
X169354524Y-131706905D01*
X169354524Y-130897381D01*
X169735476Y-130897381D02*
X170354524Y-130897381D01*
X170021190Y-131278333D01*
X170164048Y-131278333D01*
X170259286Y-131325952D01*
X170306905Y-131373571D01*
X170354524Y-131468810D01*
X170354524Y-131706905D01*
X170306905Y-131802143D01*
X170259286Y-131849762D01*
X170164048Y-131897381D01*
X169878333Y-131897381D01*
X169783095Y-131849762D01*
X169735476Y-131802143D01*
X158623095Y-65873381D02*
X158623095Y-66682905D01*
X158670714Y-66778143D01*
X158718333Y-66825762D01*
X158813571Y-66873381D01*
X159004048Y-66873381D01*
X159099286Y-66825762D01*
X159146905Y-66778143D01*
X159194524Y-66682905D01*
X159194524Y-65873381D01*
X159623095Y-65968619D02*
X159670714Y-65921000D01*
X159765952Y-65873381D01*
X160004048Y-65873381D01*
X160099286Y-65921000D01*
X160146905Y-65968619D01*
X160194524Y-66063857D01*
X160194524Y-66159095D01*
X160146905Y-66301952D01*
X159575476Y-66873381D01*
X160194524Y-66873381D01*
X158623095Y-129373381D02*
X158623095Y-130182905D01*
X158670714Y-130278143D01*
X158718333Y-130325762D01*
X158813571Y-130373381D01*
X159004048Y-130373381D01*
X159099286Y-130325762D01*
X159146905Y-130278143D01*
X159194524Y-130182905D01*
X159194524Y-129373381D01*
X160099286Y-129706714D02*
X160099286Y-130373381D01*
X159861190Y-129325762D02*
X159623095Y-130040048D01*
X160242143Y-130040048D01*
X167513095Y-54062381D02*
X167513095Y-54871905D01*
X167560714Y-54967143D01*
X167608333Y-55014762D01*
X167703571Y-55062381D01*
X167894048Y-55062381D01*
X167989286Y-55014762D01*
X168036905Y-54967143D01*
X168084524Y-54871905D01*
X168084524Y-54062381D01*
X168989286Y-54062381D02*
X168798809Y-54062381D01*
X168703571Y-54110000D01*
X168655952Y-54157619D01*
X168560714Y-54300476D01*
X168513095Y-54490952D01*
X168513095Y-54871905D01*
X168560714Y-54967143D01*
X168608333Y-55014762D01*
X168703571Y-55062381D01*
X168894048Y-55062381D01*
X168989286Y-55014762D01*
X169036905Y-54967143D01*
X169084524Y-54871905D01*
X169084524Y-54633810D01*
X169036905Y-54538571D01*
X168989286Y-54490952D01*
X168894048Y-54443333D01*
X168703571Y-54443333D01*
X168608333Y-54490952D01*
X168560714Y-54538571D01*
X168513095Y-54633810D01*
X151638095Y-54062381D02*
X151638095Y-54871905D01*
X151685714Y-54967143D01*
X151733333Y-55014762D01*
X151828571Y-55062381D01*
X152019048Y-55062381D01*
X152114286Y-55014762D01*
X152161905Y-54967143D01*
X152209524Y-54871905D01*
X152209524Y-54062381D01*
X152590476Y-54062381D02*
X153257143Y-54062381D01*
X152828571Y-55062381D01*
X151638095Y-149312381D02*
X151638095Y-150121905D01*
X151685714Y-150217143D01*
X151733333Y-150264762D01*
X151828571Y-150312381D01*
X152019048Y-150312381D01*
X152114286Y-150264762D01*
X152161905Y-150217143D01*
X152209524Y-150121905D01*
X152209524Y-149312381D01*
X152828571Y-149740952D02*
X152733333Y-149693333D01*
X152685714Y-149645714D01*
X152638095Y-149550476D01*
X152638095Y-149502857D01*
X152685714Y-149407619D01*
X152733333Y-149360000D01*
X152828571Y-149312381D01*
X153019048Y-149312381D01*
X153114286Y-149360000D01*
X153161905Y-149407619D01*
X153209524Y-149502857D01*
X153209524Y-149550476D01*
X153161905Y-149645714D01*
X153114286Y-149693333D01*
X153019048Y-149740952D01*
X152828571Y-149740952D01*
X152733333Y-149788571D01*
X152685714Y-149836190D01*
X152638095Y-149931429D01*
X152638095Y-150121905D01*
X152685714Y-150217143D01*
X152733333Y-150264762D01*
X152828571Y-150312381D01*
X153019048Y-150312381D01*
X153114286Y-150264762D01*
X153161905Y-150217143D01*
X153209524Y-150121905D01*
X153209524Y-149931429D01*
X153161905Y-149836190D01*
X153114286Y-149788571D01*
X153019048Y-149740952D01*
X168267143Y-63857143D02*
X168219524Y-63904762D01*
X168076667Y-63952381D01*
X167981429Y-63952381D01*
X167838571Y-63904762D01*
X167743333Y-63809524D01*
X167695714Y-63714286D01*
X167648095Y-63523810D01*
X167648095Y-63380952D01*
X167695714Y-63190476D01*
X167743333Y-63095238D01*
X167838571Y-63000000D01*
X167981429Y-62952381D01*
X168076667Y-62952381D01*
X168219524Y-63000000D01*
X168267143Y-63047619D01*
X168600476Y-62952381D02*
X169219524Y-62952381D01*
X168886190Y-63333333D01*
X169029048Y-63333333D01*
X169124286Y-63380952D01*
X169171905Y-63428571D01*
X169219524Y-63523810D01*
X169219524Y-63761905D01*
X169171905Y-63857143D01*
X169124286Y-63904762D01*
X169029048Y-63952381D01*
X168743333Y-63952381D01*
X168648095Y-63904762D01*
X168600476Y-63857143D01*
X170076667Y-62952381D02*
X169886190Y-62952381D01*
X169790952Y-63000000D01*
X169743333Y-63047619D01*
X169648095Y-63190476D01*
X169600476Y-63380952D01*
X169600476Y-63761905D01*
X169648095Y-63857143D01*
X169695714Y-63904762D01*
X169790952Y-63952381D01*
X169981429Y-63952381D01*
X170076667Y-63904762D01*
X170124286Y-63857143D01*
X170171905Y-63761905D01*
X170171905Y-63523810D01*
X170124286Y-63428571D01*
X170076667Y-63380952D01*
X169981429Y-63333333D01*
X169790952Y-63333333D01*
X169695714Y-63380952D01*
X169648095Y-63428571D01*
X169600476Y-63523810D01*
X162282143Y-60967857D02*
X162329762Y-61015476D01*
X162377381Y-61158333D01*
X162377381Y-61253571D01*
X162329762Y-61396429D01*
X162234524Y-61491667D01*
X162139286Y-61539286D01*
X161948810Y-61586905D01*
X161805952Y-61586905D01*
X161615476Y-61539286D01*
X161520238Y-61491667D01*
X161425000Y-61396429D01*
X161377381Y-61253571D01*
X161377381Y-61158333D01*
X161425000Y-61015476D01*
X161472619Y-60967857D01*
X161377381Y-60634524D02*
X161377381Y-60015476D01*
X161758333Y-60348810D01*
X161758333Y-60205952D01*
X161805952Y-60110714D01*
X161853571Y-60063095D01*
X161948810Y-60015476D01*
X162186905Y-60015476D01*
X162282143Y-60063095D01*
X162329762Y-60110714D01*
X162377381Y-60205952D01*
X162377381Y-60491667D01*
X162329762Y-60586905D01*
X162282143Y-60634524D01*
X161377381Y-59682143D02*
X161377381Y-59015476D01*
X162377381Y-59444048D01*
X152392143Y-63857143D02*
X152344524Y-63904762D01*
X152201667Y-63952381D01*
X152106429Y-63952381D01*
X151963571Y-63904762D01*
X151868333Y-63809524D01*
X151820714Y-63714286D01*
X151773095Y-63523810D01*
X151773095Y-63380952D01*
X151820714Y-63190476D01*
X151868333Y-63095238D01*
X151963571Y-63000000D01*
X152106429Y-62952381D01*
X152201667Y-62952381D01*
X152344524Y-63000000D01*
X152392143Y-63047619D01*
X152725476Y-62952381D02*
X153344524Y-62952381D01*
X153011190Y-63333333D01*
X153154048Y-63333333D01*
X153249286Y-63380952D01*
X153296905Y-63428571D01*
X153344524Y-63523810D01*
X153344524Y-63761905D01*
X153296905Y-63857143D01*
X153249286Y-63904762D01*
X153154048Y-63952381D01*
X152868333Y-63952381D01*
X152773095Y-63904762D01*
X152725476Y-63857143D01*
X153915952Y-63380952D02*
X153820714Y-63333333D01*
X153773095Y-63285714D01*
X153725476Y-63190476D01*
X153725476Y-63142857D01*
X153773095Y-63047619D01*
X153820714Y-63000000D01*
X153915952Y-62952381D01*
X154106429Y-62952381D01*
X154201667Y-63000000D01*
X154249286Y-63047619D01*
X154296905Y-63142857D01*
X154296905Y-63190476D01*
X154249286Y-63285714D01*
X154201667Y-63333333D01*
X154106429Y-63380952D01*
X153915952Y-63380952D01*
X153820714Y-63428571D01*
X153773095Y-63476190D01*
X153725476Y-63571429D01*
X153725476Y-63761905D01*
X153773095Y-63857143D01*
X153820714Y-63904762D01*
X153915952Y-63952381D01*
X154106429Y-63952381D01*
X154201667Y-63904762D01*
X154249286Y-63857143D01*
X154296905Y-63761905D01*
X154296905Y-63571429D01*
X154249286Y-63476190D01*
X154201667Y-63428571D01*
X154106429Y-63380952D01*
X146407143Y-60967857D02*
X146454762Y-61015476D01*
X146502381Y-61158333D01*
X146502381Y-61253571D01*
X146454762Y-61396429D01*
X146359524Y-61491667D01*
X146264286Y-61539286D01*
X146073810Y-61586905D01*
X145930952Y-61586905D01*
X145740476Y-61539286D01*
X145645238Y-61491667D01*
X145550000Y-61396429D01*
X145502381Y-61253571D01*
X145502381Y-61158333D01*
X145550000Y-61015476D01*
X145597619Y-60967857D01*
X145502381Y-60634524D02*
X145502381Y-60015476D01*
X145883333Y-60348810D01*
X145883333Y-60205952D01*
X145930952Y-60110714D01*
X145978571Y-60063095D01*
X146073810Y-60015476D01*
X146311905Y-60015476D01*
X146407143Y-60063095D01*
X146454762Y-60110714D01*
X146502381Y-60205952D01*
X146502381Y-60491667D01*
X146454762Y-60586905D01*
X146407143Y-60634524D01*
X146502381Y-59539286D02*
X146502381Y-59348810D01*
X146454762Y-59253571D01*
X146407143Y-59205952D01*
X146264286Y-59110714D01*
X146073810Y-59063095D01*
X145692857Y-59063095D01*
X145597619Y-59110714D01*
X145550000Y-59158333D01*
X145502381Y-59253571D01*
X145502381Y-59444048D01*
X145550000Y-59539286D01*
X145597619Y-59586905D01*
X145692857Y-59634524D01*
X145930952Y-59634524D01*
X146026190Y-59586905D01*
X146073810Y-59539286D01*
X146121429Y-59444048D01*
X146121429Y-59253571D01*
X146073810Y-59158333D01*
X146026190Y-59110714D01*
X145930952Y-59063095D01*
X152392143Y-141327143D02*
X152344524Y-141374762D01*
X152201667Y-141422381D01*
X152106429Y-141422381D01*
X151963571Y-141374762D01*
X151868333Y-141279524D01*
X151820714Y-141184286D01*
X151773095Y-140993810D01*
X151773095Y-140850952D01*
X151820714Y-140660476D01*
X151868333Y-140565238D01*
X151963571Y-140470000D01*
X152106429Y-140422381D01*
X152201667Y-140422381D01*
X152344524Y-140470000D01*
X152392143Y-140517619D01*
X153249286Y-140755714D02*
X153249286Y-141422381D01*
X153011190Y-140374762D02*
X152773095Y-141089048D01*
X153392143Y-141089048D01*
X153963571Y-140422381D02*
X154058810Y-140422381D01*
X154154048Y-140470000D01*
X154201667Y-140517619D01*
X154249286Y-140612857D01*
X154296905Y-140803333D01*
X154296905Y-141041429D01*
X154249286Y-141231905D01*
X154201667Y-141327143D01*
X154154048Y-141374762D01*
X154058810Y-141422381D01*
X153963571Y-141422381D01*
X153868333Y-141374762D01*
X153820714Y-141327143D01*
X153773095Y-141231905D01*
X153725476Y-141041429D01*
X153725476Y-140803333D01*
X153773095Y-140612857D01*
X153820714Y-140517619D01*
X153868333Y-140470000D01*
X153963571Y-140422381D01*
X146407143Y-148597857D02*
X146454762Y-148645476D01*
X146502381Y-148788333D01*
X146502381Y-148883571D01*
X146454762Y-149026429D01*
X146359524Y-149121667D01*
X146264286Y-149169286D01*
X146073810Y-149216905D01*
X145930952Y-149216905D01*
X145740476Y-149169286D01*
X145645238Y-149121667D01*
X145550000Y-149026429D01*
X145502381Y-148883571D01*
X145502381Y-148788333D01*
X145550000Y-148645476D01*
X145597619Y-148597857D01*
X145835714Y-147740714D02*
X146502381Y-147740714D01*
X145454762Y-147978810D02*
X146169048Y-148216905D01*
X146169048Y-147597857D01*
X146502381Y-146693095D02*
X146502381Y-147264524D01*
X146502381Y-146978810D02*
X145502381Y-146978810D01*
X145645238Y-147074048D01*
X145740476Y-147169286D01*
X145788095Y-147264524D01*
X168267143Y-141327143D02*
X168219524Y-141374762D01*
X168076667Y-141422381D01*
X167981429Y-141422381D01*
X167838571Y-141374762D01*
X167743333Y-141279524D01*
X167695714Y-141184286D01*
X167648095Y-140993810D01*
X167648095Y-140850952D01*
X167695714Y-140660476D01*
X167743333Y-140565238D01*
X167838571Y-140470000D01*
X167981429Y-140422381D01*
X168076667Y-140422381D01*
X168219524Y-140470000D01*
X168267143Y-140517619D01*
X169124286Y-140755714D02*
X169124286Y-141422381D01*
X168886190Y-140374762D02*
X168648095Y-141089048D01*
X169267143Y-141089048D01*
X169600476Y-140517619D02*
X169648095Y-140470000D01*
X169743333Y-140422381D01*
X169981429Y-140422381D01*
X170076667Y-140470000D01*
X170124286Y-140517619D01*
X170171905Y-140612857D01*
X170171905Y-140708095D01*
X170124286Y-140850952D01*
X169552857Y-141422381D01*
X170171905Y-141422381D01*
X163957143Y-146692857D02*
X164004762Y-146740476D01*
X164052381Y-146883333D01*
X164052381Y-146978571D01*
X164004762Y-147121429D01*
X163909524Y-147216667D01*
X163814286Y-147264286D01*
X163623810Y-147311905D01*
X163480952Y-147311905D01*
X163290476Y-147264286D01*
X163195238Y-147216667D01*
X163100000Y-147121429D01*
X163052381Y-146978571D01*
X163052381Y-146883333D01*
X163100000Y-146740476D01*
X163147619Y-146692857D01*
X163385714Y-145835714D02*
X164052381Y-145835714D01*
X163004762Y-146073810D02*
X163719048Y-146311905D01*
X163719048Y-145692857D01*
X163052381Y-145407143D02*
X163052381Y-144788095D01*
X163433333Y-145121429D01*
X163433333Y-144978571D01*
X163480952Y-144883333D01*
X163528571Y-144835714D01*
X163623810Y-144788095D01*
X163861905Y-144788095D01*
X163957143Y-144835714D01*
X164004762Y-144883333D01*
X164052381Y-144978571D01*
X164052381Y-145264286D01*
X164004762Y-145359524D01*
X163957143Y-145407143D01*
X181311905Y-92897381D02*
X181311905Y-91897381D01*
X181550000Y-91897381D01*
X181692858Y-91945000D01*
X181788096Y-92040238D01*
X181835715Y-92135476D01*
X181883334Y-92325952D01*
X181883334Y-92468810D01*
X181835715Y-92659286D01*
X181788096Y-92754524D01*
X181692858Y-92849762D01*
X181550000Y-92897381D01*
X181311905Y-92897381D01*
X182835715Y-92897381D02*
X182264286Y-92897381D01*
X182550000Y-92897381D02*
X182550000Y-91897381D01*
X182454762Y-92040238D01*
X182359524Y-92135476D01*
X182264286Y-92183095D01*
X181311905Y-96707381D02*
X181311905Y-95707381D01*
X181550000Y-95707381D01*
X181692858Y-95755000D01*
X181788096Y-95850238D01*
X181835715Y-95945476D01*
X181883334Y-96135952D01*
X181883334Y-96278810D01*
X181835715Y-96469286D01*
X181788096Y-96564524D01*
X181692858Y-96659762D01*
X181550000Y-96707381D01*
X181311905Y-96707381D01*
X182264286Y-95802619D02*
X182311905Y-95755000D01*
X182407143Y-95707381D01*
X182645239Y-95707381D01*
X182740477Y-95755000D01*
X182788096Y-95802619D01*
X182835715Y-95897857D01*
X182835715Y-95993095D01*
X182788096Y-96135952D01*
X182216667Y-96707381D01*
X182835715Y-96707381D01*
X177105000Y-111469285D02*
X177057381Y-111564523D01*
X177057381Y-111707380D01*
X177105000Y-111850238D01*
X177200238Y-111945476D01*
X177295476Y-111993095D01*
X177485952Y-112040714D01*
X177628810Y-112040714D01*
X177819286Y-111993095D01*
X177914524Y-111945476D01*
X178009762Y-111850238D01*
X178057381Y-111707380D01*
X178057381Y-111612142D01*
X178009762Y-111469285D01*
X177962143Y-111421666D01*
X177628810Y-111421666D01*
X177628810Y-111612142D01*
X178057381Y-110469285D02*
X178057381Y-111040714D01*
X178057381Y-110755000D02*
X177057381Y-110755000D01*
X177200238Y-110850238D01*
X177295476Y-110945476D01*
X177343095Y-111040714D01*
X177755953Y-92897381D02*
X177422619Y-92421190D01*
X177184524Y-92897381D02*
X177184524Y-91897381D01*
X177565477Y-91897381D01*
X177660715Y-91945000D01*
X177708334Y-91992619D01*
X177755953Y-92087857D01*
X177755953Y-92230714D01*
X177708334Y-92325952D01*
X177660715Y-92373571D01*
X177565477Y-92421190D01*
X177184524Y-92421190D01*
X178708334Y-92897381D02*
X178136905Y-92897381D01*
X178422619Y-92897381D02*
X178422619Y-91897381D01*
X178327381Y-92040238D01*
X178232143Y-92135476D01*
X178136905Y-92183095D01*
X179327381Y-91897381D02*
X179422620Y-91897381D01*
X179517858Y-91945000D01*
X179565477Y-91992619D01*
X179613096Y-92087857D01*
X179660715Y-92278333D01*
X179660715Y-92516429D01*
X179613096Y-92706905D01*
X179565477Y-92802143D01*
X179517858Y-92849762D01*
X179422620Y-92897381D01*
X179327381Y-92897381D01*
X179232143Y-92849762D01*
X179184524Y-92802143D01*
X179136905Y-92706905D01*
X179089286Y-92516429D01*
X179089286Y-92278333D01*
X179136905Y-92087857D01*
X179184524Y-91992619D01*
X179232143Y-91945000D01*
X179327381Y-91897381D01*
X180279762Y-91897381D02*
X180375001Y-91897381D01*
X180470239Y-91945000D01*
X180517858Y-91992619D01*
X180565477Y-92087857D01*
X180613096Y-92278333D01*
X180613096Y-92516429D01*
X180565477Y-92706905D01*
X180517858Y-92802143D01*
X180470239Y-92849762D01*
X180375001Y-92897381D01*
X180279762Y-92897381D01*
X180184524Y-92849762D01*
X180136905Y-92802143D01*
X180089286Y-92706905D01*
X180041667Y-92516429D01*
X180041667Y-92278333D01*
X180089286Y-92087857D01*
X180136905Y-91992619D01*
X180184524Y-91945000D01*
X180279762Y-91897381D01*
X177755953Y-96707381D02*
X177422619Y-96231190D01*
X177184524Y-96707381D02*
X177184524Y-95707381D01*
X177565477Y-95707381D01*
X177660715Y-95755000D01*
X177708334Y-95802619D01*
X177755953Y-95897857D01*
X177755953Y-96040714D01*
X177708334Y-96135952D01*
X177660715Y-96183571D01*
X177565477Y-96231190D01*
X177184524Y-96231190D01*
X178708334Y-96707381D02*
X178136905Y-96707381D01*
X178422619Y-96707381D02*
X178422619Y-95707381D01*
X178327381Y-95850238D01*
X178232143Y-95945476D01*
X178136905Y-95993095D01*
X179327381Y-95707381D02*
X179422620Y-95707381D01*
X179517858Y-95755000D01*
X179565477Y-95802619D01*
X179613096Y-95897857D01*
X179660715Y-96088333D01*
X179660715Y-96326429D01*
X179613096Y-96516905D01*
X179565477Y-96612143D01*
X179517858Y-96659762D01*
X179422620Y-96707381D01*
X179327381Y-96707381D01*
X179232143Y-96659762D01*
X179184524Y-96612143D01*
X179136905Y-96516905D01*
X179089286Y-96326429D01*
X179089286Y-96088333D01*
X179136905Y-95897857D01*
X179184524Y-95802619D01*
X179232143Y-95755000D01*
X179327381Y-95707381D01*
X180613096Y-96707381D02*
X180041667Y-96707381D01*
X180327381Y-96707381D02*
X180327381Y-95707381D01*
X180232143Y-95850238D01*
X180136905Y-95945476D01*
X180041667Y-95993095D01*
X167513095Y-148042381D02*
X167513095Y-148851905D01*
X167560714Y-148947143D01*
X167608333Y-148994762D01*
X167703571Y-149042381D01*
X167894048Y-149042381D01*
X167989286Y-148994762D01*
X168036905Y-148947143D01*
X168084524Y-148851905D01*
X168084524Y-148042381D01*
X168608333Y-149042381D02*
X168798809Y-149042381D01*
X168894048Y-148994762D01*
X168941667Y-148947143D01*
X169036905Y-148804286D01*
X169084524Y-148613810D01*
X169084524Y-148232857D01*
X169036905Y-148137619D01*
X168989286Y-148090000D01*
X168894048Y-148042381D01*
X168703571Y-148042381D01*
X168608333Y-148090000D01*
X168560714Y-148137619D01*
X168513095Y-148232857D01*
X168513095Y-148470952D01*
X168560714Y-148566190D01*
X168608333Y-148613810D01*
X168703571Y-148661429D01*
X168894048Y-148661429D01*
X168989286Y-148613810D01*
X169036905Y-148566190D01*
X169084524Y-148470952D01*
M02*
