G04 #@! TF.FileFunction,Copper,L1,Top,Signal*
%FSLAX46Y46*%
G04 Gerber Fmt 4.6, Leading zero omitted, Abs format (unit mm)*
G04 Created by KiCad (PCBNEW 4.0.7-e2-6376~58~ubuntu16.04.1) date Sun Sep 16 22:19:27 2018*
%MOMM*%
%LPD*%
G01*
G04 APERTURE LIST*
%ADD10C,0.100000*%
%ADD11C,1.711200*%
%ADD12C,3.501200*%
%ADD13R,1.600000X0.300000*%
%ADD14R,0.300000X1.600000*%
%ADD15R,0.900000X0.700000*%
%ADD16R,0.700000X0.900000*%
%ADD17R,3.300000X2.000000*%
%ADD18R,3.600000X0.900000*%
%ADD19R,1.473000X0.482000*%
%ADD20R,2.261000X0.400000*%
%ADD21R,2.000000X1.500000*%
%ADD22R,2.000000X3.800000*%
%ADD23R,1.700000X1.350000*%
%ADD24C,0.604800*%
%ADD25C,0.700000*%
%ADD26C,1.500000*%
%ADD27C,0.600000*%
%ADD28C,1.711000*%
%ADD29C,0.900000*%
%ADD30C,0.355600*%
%ADD31C,0.254000*%
%ADD32C,1.711200*%
%ADD33C,0.700000*%
%ADD34C,1.500000*%
%ADD35C,0.900000*%
G04 APERTURE END LIST*
D10*
D11*
X140885000Y-141605000D03*
X140885000Y-139065000D03*
X140885000Y-136525000D03*
X140885000Y-133985000D03*
X140885000Y-131445000D03*
X140885000Y-128905000D03*
X140885000Y-126365000D03*
X140885000Y-123825000D03*
X140885000Y-121285000D03*
X140885000Y-118745000D03*
X140885000Y-116205000D03*
X140885000Y-113665000D03*
X140885000Y-111125000D03*
X140885000Y-108585000D03*
X140885000Y-106045000D03*
X140885000Y-103505000D03*
X140885000Y-100965000D03*
X140885000Y-98425000D03*
X140885000Y-95885000D03*
X140885000Y-93345000D03*
X140885000Y-90805000D03*
X140885000Y-88265000D03*
X140885000Y-85725000D03*
X140885000Y-83185000D03*
X140885000Y-80645000D03*
X140885000Y-78105000D03*
X140885000Y-75565000D03*
X140885000Y-73025000D03*
X140885000Y-70485000D03*
X140885000Y-67945000D03*
X140885000Y-65405000D03*
X140885000Y-62865000D03*
X143425000Y-62865000D03*
X143425000Y-65405000D03*
X143425000Y-67945000D03*
X143425000Y-70485000D03*
X143425000Y-73025000D03*
X143425000Y-75565000D03*
X143425000Y-78105000D03*
X143425000Y-80645000D03*
X143425000Y-83185000D03*
X143425000Y-85725000D03*
X143425000Y-88265000D03*
X143425000Y-90805000D03*
X143425000Y-93345000D03*
X143425000Y-95885000D03*
X143425000Y-98425000D03*
X143425000Y-100965000D03*
X143425000Y-103505000D03*
X143425000Y-106045000D03*
X143425000Y-108585000D03*
X143425000Y-111125000D03*
X143425000Y-113665000D03*
X143425000Y-116205000D03*
X143425000Y-118745000D03*
X143425000Y-121285000D03*
X143425000Y-123825000D03*
X143425000Y-126365000D03*
X143425000Y-128905000D03*
X143425000Y-131445000D03*
X143425000Y-133985000D03*
X143425000Y-136525000D03*
X143425000Y-139065000D03*
X143425000Y-141605000D03*
D12*
X138345000Y-57785000D03*
X138345000Y-146685000D03*
D13*
X172525000Y-110985000D03*
X172525000Y-110485000D03*
X172525000Y-109985000D03*
X172525000Y-109485000D03*
X172525000Y-108985000D03*
X172525000Y-108485000D03*
X172525000Y-107985000D03*
X172525000Y-107485000D03*
X172525000Y-106985000D03*
X172525000Y-106485000D03*
X172525000Y-105985000D03*
X172525000Y-105485000D03*
X172525000Y-104985000D03*
X172525000Y-104485000D03*
X172525000Y-103985000D03*
X172525000Y-103485000D03*
X172525000Y-102985000D03*
X172525000Y-102485000D03*
X172525000Y-101985000D03*
X172525000Y-101485000D03*
X172525000Y-100985000D03*
X172525000Y-100485000D03*
X172525000Y-99985000D03*
X172525000Y-99485000D03*
X172525000Y-98985000D03*
X172525000Y-98485000D03*
X172525000Y-97985000D03*
X172525000Y-97485000D03*
X172525000Y-96985000D03*
X172525000Y-96485000D03*
X172525000Y-95985000D03*
X172525000Y-95485000D03*
X172525000Y-94985000D03*
X172525000Y-94485000D03*
X172525000Y-93985000D03*
X172525000Y-93485000D03*
D14*
X170675000Y-91635000D03*
X170175000Y-91635000D03*
X169675000Y-91635000D03*
X169175000Y-91635000D03*
X168675000Y-91635000D03*
X168175000Y-91635000D03*
X167675000Y-91635000D03*
X167175000Y-91635000D03*
X166675000Y-91635000D03*
X166175000Y-91635000D03*
X165675000Y-91635000D03*
X165175000Y-91635000D03*
X164675000Y-91635000D03*
X164175000Y-91635000D03*
X163675000Y-91635000D03*
X163175000Y-91635000D03*
X162675000Y-91635000D03*
X162175000Y-91635000D03*
X161675000Y-91635000D03*
X161175000Y-91635000D03*
X160675000Y-91635000D03*
X160175000Y-91635000D03*
X159675000Y-91635000D03*
X159175000Y-91635000D03*
X158675000Y-91635000D03*
X158175000Y-91635000D03*
X157675000Y-91635000D03*
X157175000Y-91635000D03*
X156675000Y-91635000D03*
X156175000Y-91635000D03*
X155675000Y-91635000D03*
X155175000Y-91635000D03*
X154675000Y-91635000D03*
X154175000Y-91635000D03*
X153675000Y-91635000D03*
X153175000Y-91635000D03*
D13*
X151325000Y-93485000D03*
X151325000Y-93985000D03*
X151325000Y-94485000D03*
X151325000Y-94985000D03*
X151325000Y-95485000D03*
X151325000Y-95985000D03*
X151325000Y-96485000D03*
X151325000Y-96985000D03*
X151325000Y-97485000D03*
X151325000Y-97985000D03*
X151325000Y-98485000D03*
X151325000Y-98985000D03*
X151325000Y-99485000D03*
X151325000Y-99985000D03*
X151325000Y-100485000D03*
X151325000Y-100985000D03*
X151325000Y-101485000D03*
X151325000Y-101985000D03*
X151325000Y-102485000D03*
X151325000Y-102985000D03*
X151325000Y-103485000D03*
X151325000Y-103985000D03*
X151325000Y-104485000D03*
X151325000Y-104985000D03*
X151325000Y-105485000D03*
X151325000Y-105985000D03*
X151325000Y-106485000D03*
X151325000Y-106985000D03*
X151325000Y-107485000D03*
X151325000Y-107985000D03*
X151325000Y-108485000D03*
X151325000Y-108985000D03*
X151325000Y-109485000D03*
X151325000Y-109985000D03*
X151325000Y-110485000D03*
X151325000Y-110985000D03*
D14*
X153175000Y-112835000D03*
X153675000Y-112835000D03*
X154175000Y-112835000D03*
X154675000Y-112835000D03*
X155175000Y-112835000D03*
X155675000Y-112835000D03*
X156175000Y-112835000D03*
X156675000Y-112835000D03*
X157175000Y-112835000D03*
X157675000Y-112835000D03*
X158175000Y-112835000D03*
X158675000Y-112835000D03*
X159175000Y-112835000D03*
X159675000Y-112835000D03*
X160175000Y-112835000D03*
X160675000Y-112835000D03*
X161175000Y-112835000D03*
X161675000Y-112835000D03*
X162175000Y-112835000D03*
X162675000Y-112835000D03*
X163175000Y-112835000D03*
X163675000Y-112835000D03*
X164175000Y-112835000D03*
X164675000Y-112835000D03*
X165175000Y-112835000D03*
X165675000Y-112835000D03*
X166175000Y-112835000D03*
X166675000Y-112835000D03*
X167175000Y-112835000D03*
X167675000Y-112835000D03*
X168175000Y-112835000D03*
X168675000Y-112835000D03*
X169175000Y-112835000D03*
X169675000Y-112835000D03*
X170175000Y-112835000D03*
X170675000Y-112835000D03*
D15*
X179495000Y-115700000D03*
X180795000Y-115700000D03*
X180355000Y-73025000D03*
X179055000Y-73025000D03*
X175275000Y-67945000D03*
X173975000Y-67945000D03*
X175275000Y-73025000D03*
X173975000Y-73025000D03*
D16*
X174625000Y-69835000D03*
X174625000Y-71135000D03*
X168910000Y-71135000D03*
X168910000Y-69835000D03*
D17*
X183105000Y-73255000D03*
D18*
X183255000Y-70485000D03*
D17*
X183105000Y-67715000D03*
D15*
X180355000Y-70485000D03*
X179055000Y-70485000D03*
X177815000Y-73025000D03*
X176515000Y-73025000D03*
X177815000Y-70485000D03*
X176515000Y-70485000D03*
X180355000Y-67945000D03*
X179055000Y-67945000D03*
X177815000Y-67945000D03*
X176515000Y-67945000D03*
X172735000Y-67945000D03*
X171435000Y-67945000D03*
X171435000Y-73025000D03*
X172735000Y-73025000D03*
D19*
X172631000Y-71435000D03*
X172631000Y-70485000D03*
X172631000Y-69535000D03*
X170269000Y-69535000D03*
X170269000Y-71435000D03*
D16*
X165100000Y-68595000D03*
X165100000Y-67295000D03*
X165100000Y-70470000D03*
X165100000Y-71770000D03*
X165100000Y-73010000D03*
X165100000Y-74310000D03*
X153035000Y-71135000D03*
X153035000Y-69835000D03*
D15*
X180355000Y-136525000D03*
X179055000Y-136525000D03*
X175275000Y-131445000D03*
X173975000Y-131445000D03*
X175275000Y-136525000D03*
X173975000Y-136525000D03*
D16*
X174625000Y-133335000D03*
X174625000Y-134635000D03*
X168910000Y-134635000D03*
X168910000Y-133335000D03*
X165100000Y-132095000D03*
X165100000Y-130795000D03*
X165100000Y-133970000D03*
X165100000Y-135270000D03*
X165100000Y-136510000D03*
X165100000Y-137810000D03*
X153035000Y-134635000D03*
X153035000Y-133335000D03*
X175700000Y-108385000D03*
X175700000Y-107085000D03*
X175700000Y-103085000D03*
X175700000Y-104385000D03*
X175700000Y-96085000D03*
X175700000Y-97385000D03*
X175700000Y-93885000D03*
X175700000Y-92585000D03*
D15*
X170275000Y-88460000D03*
X171575000Y-88460000D03*
X164075000Y-88460000D03*
X162775000Y-88460000D03*
X155775000Y-88460000D03*
X157075000Y-88460000D03*
X153575000Y-88460000D03*
X152275000Y-88460000D03*
D16*
X148150000Y-97385000D03*
X148150000Y-96085000D03*
X148150000Y-101885000D03*
X148150000Y-100585000D03*
X148150000Y-107085000D03*
X148150000Y-108385000D03*
X148150000Y-111885000D03*
X148150000Y-110585000D03*
D15*
X156775000Y-116010000D03*
X158075000Y-116010000D03*
X161075000Y-116010000D03*
X159775000Y-116010000D03*
X165275000Y-116010000D03*
X166575000Y-116010000D03*
X171575000Y-116010000D03*
X170275000Y-116010000D03*
D17*
X183105000Y-104755000D03*
D18*
X183255000Y-101985000D03*
D17*
X183105000Y-99215000D03*
X183105000Y-136755000D03*
D18*
X183255000Y-133985000D03*
D17*
X183105000Y-131215000D03*
D16*
X180145000Y-101970000D03*
X180145000Y-103270000D03*
D15*
X180355000Y-133985000D03*
X179055000Y-133985000D03*
X177815000Y-136525000D03*
X176515000Y-136525000D03*
X177815000Y-133985000D03*
X176515000Y-133985000D03*
X180355000Y-131445000D03*
X179055000Y-131445000D03*
X177815000Y-131445000D03*
X176515000Y-131445000D03*
X172735000Y-131445000D03*
X171435000Y-131445000D03*
X171435000Y-136525000D03*
X172735000Y-136525000D03*
D19*
X172631000Y-134935000D03*
X172631000Y-133985000D03*
X172631000Y-133035000D03*
X170269000Y-133035000D03*
X170269000Y-134935000D03*
D11*
X166695000Y-122995000D03*
X166695000Y-120455000D03*
X164155000Y-120455000D03*
X164155000Y-122995000D03*
D20*
X162763000Y-73410000D03*
X162763000Y-72760000D03*
X162763000Y-72110000D03*
X162763000Y-71460000D03*
X162763000Y-70810000D03*
X162763000Y-70160000D03*
X162763000Y-69510000D03*
X162763000Y-68860000D03*
X162763000Y-68210000D03*
X162763000Y-67560000D03*
X156007000Y-67560000D03*
X156007000Y-68210000D03*
X156007000Y-68860000D03*
X156007000Y-69510000D03*
X156007000Y-70160000D03*
X156007000Y-70810000D03*
X156007000Y-71460000D03*
X156007000Y-72110000D03*
X156007000Y-72760000D03*
X156007000Y-73410000D03*
X162763000Y-136910000D03*
X162763000Y-136260000D03*
X162763000Y-135610000D03*
X162763000Y-134960000D03*
X162763000Y-134310000D03*
X162763000Y-133660000D03*
X162763000Y-133010000D03*
X162763000Y-132360000D03*
X162763000Y-131710000D03*
X162763000Y-131060000D03*
X156007000Y-131060000D03*
X156007000Y-131710000D03*
X156007000Y-132360000D03*
X156007000Y-133010000D03*
X156007000Y-133660000D03*
X156007000Y-134310000D03*
X156007000Y-134960000D03*
X156007000Y-135610000D03*
X156007000Y-136260000D03*
X156007000Y-136910000D03*
D21*
X165125000Y-56120000D03*
X165125000Y-58420000D03*
X165125000Y-60720000D03*
D22*
X171425000Y-58420000D03*
D21*
X149250000Y-56120000D03*
X149250000Y-58420000D03*
X149250000Y-60720000D03*
D22*
X155550000Y-58420000D03*
D21*
X149250000Y-143750000D03*
X149250000Y-146050000D03*
X149250000Y-148350000D03*
D22*
X155550000Y-146050000D03*
D15*
X168260000Y-62230000D03*
X169560000Y-62230000D03*
D16*
X163195000Y-60975000D03*
X163195000Y-59675000D03*
D15*
X152385000Y-62230000D03*
X153685000Y-62230000D03*
D16*
X147320000Y-60975000D03*
X147320000Y-59675000D03*
D15*
X152385000Y-142240000D03*
X153685000Y-142240000D03*
D16*
X147320000Y-148605000D03*
X147320000Y-147305000D03*
D15*
X169560000Y-142240000D03*
X168260000Y-142240000D03*
D16*
X165100000Y-145400000D03*
X165100000Y-146700000D03*
D15*
X181400000Y-91175000D03*
X182700000Y-91175000D03*
X182700000Y-94985000D03*
X181400000Y-94985000D03*
D23*
X182080000Y-112525000D03*
X182080000Y-109985000D03*
X179480000Y-109985000D03*
X179480000Y-112525000D03*
D15*
X178225000Y-91175000D03*
X179525000Y-91175000D03*
X179525000Y-94985000D03*
X178225000Y-94985000D03*
D19*
X169456000Y-147000000D03*
X169456000Y-146050000D03*
X169456000Y-145100000D03*
X167094000Y-145100000D03*
X167094000Y-147000000D03*
D24*
X168275000Y-146050000D03*
X163830000Y-145415000D03*
D25*
X147320000Y-146050000D03*
X163195000Y-58420000D03*
D26*
X149225000Y-141605000D03*
X165100000Y-53975000D03*
X149225000Y-53975000D03*
D25*
X147320000Y-58420000D03*
X154940000Y-62230000D03*
X170815000Y-62230000D03*
X154940000Y-142240000D03*
D24*
X182880000Y-74930000D03*
X182880000Y-66040000D03*
X182880000Y-106680000D03*
X182880000Y-97155000D03*
X182880000Y-138430000D03*
X182880000Y-129540000D03*
X161290000Y-131710000D03*
X161290000Y-136910000D03*
X165735000Y-137795000D03*
X165735000Y-135255000D03*
X165735000Y-130810000D03*
X152400000Y-134620000D03*
X161290000Y-68210000D03*
X161290000Y-73410000D03*
X165735000Y-74295000D03*
X165735000Y-67310000D03*
X150075000Y-101985000D03*
X172720000Y-66675000D03*
X168275000Y-69850000D03*
X175260000Y-69850000D03*
X176530000Y-74295000D03*
X179070000Y-71755000D03*
X173990000Y-66675000D03*
X152400000Y-71120000D03*
X172720000Y-130175000D03*
X173990000Y-130175000D03*
X176530000Y-137795000D03*
X179070000Y-135255000D03*
D27*
X180145000Y-104525000D03*
D24*
X168275000Y-133350000D03*
X175260000Y-133350000D03*
D27*
X166175000Y-92905000D03*
X162675000Y-92905000D03*
X157175000Y-92905000D03*
X156675000Y-111565000D03*
X160675000Y-111565000D03*
X165675000Y-111565000D03*
X171255000Y-102485000D03*
X180780000Y-116970000D03*
X183955000Y-109985000D03*
X176970000Y-91175000D03*
X183955000Y-94985000D03*
X157060000Y-87190000D03*
X162790000Y-87190000D03*
X171560000Y-87190000D03*
X152290000Y-87190000D03*
X146880000Y-101870000D03*
X146880000Y-97370000D03*
X146880000Y-107100000D03*
X146880000Y-111870000D03*
X156790000Y-117280000D03*
X161060000Y-117280000D03*
X165290000Y-117280000D03*
X171560000Y-117280000D03*
X176970000Y-107100000D03*
X176970000Y-104370000D03*
X176970000Y-97370000D03*
X176970000Y-92600000D03*
D24*
X165735000Y-71755000D03*
D25*
X170815000Y-142240000D03*
D28*
X146050000Y-150495000D03*
X146685000Y-53975000D03*
D29*
X146050000Y-148590000D03*
X146050000Y-60960000D03*
X163195000Y-74930000D03*
X161290000Y-66040000D03*
X163195000Y-129540000D03*
D24*
X165735000Y-133985000D03*
X165735000Y-132080000D03*
X165735000Y-70485000D03*
X165735000Y-68580000D03*
D29*
X152400000Y-139065000D03*
D24*
X152400000Y-133350000D03*
X152400000Y-69850000D03*
D27*
X179510000Y-116970000D03*
X183955000Y-91175000D03*
X155790000Y-87190000D03*
X164060000Y-87190000D03*
X170290000Y-87190000D03*
X153560000Y-87190000D03*
X146880000Y-100600000D03*
X146880000Y-96100000D03*
X146880000Y-108370000D03*
X146880000Y-110600000D03*
X158060000Y-117280000D03*
X159790000Y-117280000D03*
X166560000Y-117280000D03*
X170290000Y-117280000D03*
X176970000Y-108370000D03*
X176970000Y-103100000D03*
X176970000Y-96100000D03*
X176970000Y-93870000D03*
D24*
X153325000Y-111485000D03*
X154825000Y-109985000D03*
X156325000Y-108485000D03*
X157825000Y-106985000D03*
X159325000Y-106985000D03*
X160825000Y-105485000D03*
D28*
X162560000Y-53975000D03*
D29*
X161925000Y-60960000D03*
D24*
X163830000Y-146685000D03*
D28*
X162560000Y-140970000D03*
D24*
X160825000Y-97985000D03*
X159325000Y-96485000D03*
X157825000Y-94985000D03*
X156325000Y-93485000D03*
X154825000Y-93485000D03*
X156325000Y-94985000D03*
X157825000Y-96485000D03*
X159325000Y-97985000D03*
X160825000Y-103985000D03*
X159325000Y-105485000D03*
X157825000Y-108485000D03*
X156325000Y-109985000D03*
X154825000Y-111485000D03*
X165735000Y-73025000D03*
X165735000Y-136525000D03*
X153035000Y-66675000D03*
X163025000Y-99485000D03*
X151765000Y-67310000D03*
X164525000Y-99485000D03*
X153035000Y-67945000D03*
X164525000Y-97985000D03*
X151765000Y-68580000D03*
X166025000Y-97985000D03*
X166025000Y-96485000D03*
X151765000Y-72390000D03*
X153035000Y-73025000D03*
X167525000Y-96485000D03*
X151765000Y-73660000D03*
X167525000Y-94985000D03*
X153035000Y-74295000D03*
X169025000Y-94985000D03*
X153035000Y-130175000D03*
X168525000Y-110485000D03*
X151765000Y-130810000D03*
X168525000Y-108985000D03*
X153035000Y-131445000D03*
X167025000Y-108985000D03*
X167025000Y-107485000D03*
X151765000Y-132080000D03*
X151765000Y-135890000D03*
X165525000Y-107485000D03*
X153035000Y-136525000D03*
X165525000Y-105985000D03*
X151765000Y-137160000D03*
X164025000Y-105985000D03*
X153035000Y-137795000D03*
X164025000Y-104485000D03*
D29*
X179705000Y-130175000D03*
X179705000Y-137795000D03*
X179705000Y-74295000D03*
D24*
X175260000Y-71120000D03*
X175260000Y-134620000D03*
D29*
X168275000Y-66040000D03*
X168275000Y-74930000D03*
X169545000Y-129540000D03*
D24*
X168275000Y-71120000D03*
X168275000Y-134620000D03*
X158525000Y-128485000D03*
X170025000Y-110485000D03*
X163025000Y-100985000D03*
X157525000Y-65985000D03*
D30*
X180355000Y-70485000D02*
X180355000Y-73025000D01*
X183255000Y-70485000D02*
X180355000Y-70485000D01*
X177815000Y-73025000D02*
X177815000Y-70485000D01*
X179055000Y-73025000D02*
X177815000Y-73025000D01*
X172631000Y-69535000D02*
X173416000Y-69535000D01*
X174625000Y-68834000D02*
X175275000Y-68184000D01*
X174117000Y-68834000D02*
X174625000Y-68834000D01*
X173416000Y-69535000D02*
X174117000Y-68834000D01*
X175275000Y-67945000D02*
X175275000Y-68184000D01*
X176515000Y-67945000D02*
X175275000Y-67945000D01*
X169456000Y-146050000D02*
X168275000Y-146050000D01*
X165100000Y-145400000D02*
X163845000Y-145400000D01*
X163845000Y-145400000D02*
X163830000Y-145415000D01*
D31*
X172525000Y-96985000D02*
X174680000Y-96985000D01*
X175080000Y-97385000D02*
X175700000Y-97385000D01*
X174680000Y-96985000D02*
X175080000Y-97385000D01*
X151325000Y-107485000D02*
X149170000Y-107485000D01*
X148770000Y-107085000D02*
X148150000Y-107085000D01*
X149170000Y-107485000D02*
X148770000Y-107085000D01*
D32*
X143425000Y-141605000D02*
X140885000Y-141605000D01*
X143425000Y-62865000D02*
X140885000Y-62865000D01*
X143425000Y-103505000D02*
X140885000Y-103505000D01*
D33*
X147320000Y-147305000D02*
X147320000Y-146050000D01*
X163195000Y-59675000D02*
X163195000Y-58420000D01*
D34*
X149250000Y-143750000D02*
X149250000Y-141630000D01*
X149250000Y-141630000D02*
X149225000Y-141605000D01*
X165125000Y-56120000D02*
X165125000Y-54000000D01*
X165125000Y-54000000D02*
X165100000Y-53975000D01*
X149250000Y-56120000D02*
X149250000Y-54000000D01*
X149250000Y-54000000D02*
X149225000Y-53975000D01*
D33*
X147320000Y-59675000D02*
X147320000Y-58420000D01*
X153685000Y-62230000D02*
X154940000Y-62230000D01*
X169560000Y-62230000D02*
X170815000Y-62230000D01*
X153685000Y-142240000D02*
X154940000Y-142240000D01*
D30*
X183105000Y-73255000D02*
X183105000Y-74705000D01*
X183105000Y-74705000D02*
X182880000Y-74930000D01*
X183105000Y-67715000D02*
X183105000Y-66265000D01*
X183105000Y-66265000D02*
X182880000Y-66040000D01*
X183105000Y-104755000D02*
X183105000Y-106455000D01*
X183105000Y-106455000D02*
X182880000Y-106680000D01*
X183105000Y-99215000D02*
X183105000Y-97380000D01*
X183105000Y-97380000D02*
X182880000Y-97155000D01*
X183105000Y-136755000D02*
X183105000Y-138205000D01*
X183105000Y-138205000D02*
X182880000Y-138430000D01*
X183105000Y-131215000D02*
X183105000Y-129765000D01*
X183105000Y-129765000D02*
X182880000Y-129540000D01*
X162763000Y-131710000D02*
X161290000Y-131710000D01*
X162763000Y-136910000D02*
X161290000Y-136910000D01*
X165100000Y-137810000D02*
X165720000Y-137810000D01*
X165720000Y-137810000D02*
X165735000Y-137795000D01*
D31*
X165100000Y-135270000D02*
X165720000Y-135270000D01*
X165720000Y-135270000D02*
X165735000Y-135255000D01*
X162763000Y-134960000D02*
X164170000Y-134960000D01*
X164480000Y-135270000D02*
X165100000Y-135270000D01*
X164170000Y-134960000D02*
X164480000Y-135270000D01*
X165100000Y-130795000D02*
X165720000Y-130795000D01*
X165720000Y-130795000D02*
X165735000Y-130810000D01*
X153035000Y-134635000D02*
X152415000Y-134635000D01*
X152415000Y-134635000D02*
X152400000Y-134620000D01*
X156007000Y-134310000D02*
X153980000Y-134310000D01*
X153655000Y-134635000D02*
X153035000Y-134635000D01*
X153980000Y-134310000D02*
X153655000Y-134635000D01*
D30*
X162763000Y-68210000D02*
X161290000Y-68210000D01*
X162763000Y-73410000D02*
X161290000Y-73410000D01*
X165100000Y-74310000D02*
X165720000Y-74310000D01*
X165720000Y-74310000D02*
X165735000Y-74295000D01*
X165100000Y-67295000D02*
X165720000Y-67295000D01*
X165720000Y-67295000D02*
X165735000Y-67310000D01*
X162763000Y-71460000D02*
X164170000Y-71460000D01*
X164170000Y-71460000D02*
X164480000Y-71770000D01*
D31*
X151325000Y-101985000D02*
X150075000Y-101985000D01*
X151325000Y-96985000D02*
X149170000Y-96985000D01*
X148770000Y-97385000D02*
X148150000Y-97385000D01*
X149170000Y-96985000D02*
X148770000Y-97385000D01*
D30*
X172735000Y-67945000D02*
X172735000Y-66690000D01*
X172735000Y-66690000D02*
X172720000Y-66675000D01*
X168910000Y-69835000D02*
X168290000Y-69835000D01*
X168290000Y-69835000D02*
X168275000Y-69850000D01*
X174625000Y-69835000D02*
X175245000Y-69835000D01*
X175245000Y-69835000D02*
X175260000Y-69850000D01*
X176515000Y-73025000D02*
X176515000Y-74280000D01*
X176515000Y-74280000D02*
X176530000Y-74295000D01*
X179055000Y-70485000D02*
X179055000Y-71740000D01*
X179055000Y-71740000D02*
X179070000Y-71755000D01*
X173975000Y-67945000D02*
X173975000Y-66690000D01*
X173975000Y-66690000D02*
X173990000Y-66675000D01*
D31*
X153035000Y-71135000D02*
X152415000Y-71135000D01*
X152415000Y-71135000D02*
X152400000Y-71120000D01*
X156007000Y-70810000D02*
X153980000Y-70810000D01*
X153655000Y-71135000D02*
X153035000Y-71135000D01*
X153980000Y-70810000D02*
X153655000Y-71135000D01*
X172735000Y-131445000D02*
X172735000Y-130190000D01*
X172735000Y-130190000D02*
X172720000Y-130175000D01*
X173975000Y-131445000D02*
X173975000Y-130190000D01*
X173975000Y-130190000D02*
X173990000Y-130175000D01*
X176515000Y-136525000D02*
X176515000Y-137780000D01*
X176515000Y-137780000D02*
X176530000Y-137795000D01*
X179055000Y-133985000D02*
X179055000Y-135240000D01*
X179055000Y-135240000D02*
X179070000Y-135255000D01*
X180145000Y-103270000D02*
X180145000Y-104525000D01*
D30*
X168910000Y-133335000D02*
X168290000Y-133335000D01*
X168290000Y-133335000D02*
X168275000Y-133350000D01*
D31*
X174625000Y-133335000D02*
X175245000Y-133335000D01*
X175245000Y-133335000D02*
X175260000Y-133350000D01*
X172525000Y-107485000D02*
X174680000Y-107485000D01*
X175080000Y-107085000D02*
X175700000Y-107085000D01*
X174680000Y-107485000D02*
X175080000Y-107085000D01*
X166175000Y-91635000D02*
X166175000Y-92905000D01*
X162675000Y-91635000D02*
X162675000Y-92905000D01*
X157175000Y-91635000D02*
X157175000Y-92905000D01*
X156675000Y-112835000D02*
X156675000Y-111565000D01*
X160675000Y-112835000D02*
X160675000Y-111565000D01*
X165675000Y-112835000D02*
X165675000Y-111565000D01*
X172525000Y-102485000D02*
X171255000Y-102485000D01*
X180795000Y-115700000D02*
X180795000Y-116955000D01*
X180795000Y-116955000D02*
X180780000Y-116970000D01*
X182080000Y-109985000D02*
X183955000Y-109985000D01*
X178225000Y-91175000D02*
X176970000Y-91175000D01*
X182700000Y-94985000D02*
X183955000Y-94985000D01*
X157075000Y-88460000D02*
X157075000Y-87205000D01*
X157075000Y-87205000D02*
X157060000Y-87190000D01*
X162775000Y-88460000D02*
X162775000Y-87205000D01*
X162775000Y-87205000D02*
X162790000Y-87190000D01*
X171575000Y-88460000D02*
X171575000Y-87205000D01*
X171575000Y-87205000D02*
X171560000Y-87190000D01*
X152275000Y-88460000D02*
X152275000Y-87205000D01*
X152275000Y-87205000D02*
X152290000Y-87190000D01*
X148150000Y-101885000D02*
X146895000Y-101885000D01*
X146895000Y-101885000D02*
X146880000Y-101870000D01*
X148150000Y-97385000D02*
X146895000Y-97385000D01*
X146895000Y-97385000D02*
X146880000Y-97370000D01*
X148150000Y-107085000D02*
X146895000Y-107085000D01*
X146895000Y-107085000D02*
X146880000Y-107100000D01*
X148150000Y-111885000D02*
X146895000Y-111885000D01*
X146895000Y-111885000D02*
X146880000Y-111870000D01*
X156775000Y-116010000D02*
X156775000Y-117265000D01*
X156775000Y-117265000D02*
X156790000Y-117280000D01*
X161075000Y-116010000D02*
X161075000Y-117265000D01*
X161075000Y-117265000D02*
X161060000Y-117280000D01*
X165275000Y-116010000D02*
X165275000Y-117265000D01*
X165275000Y-117265000D02*
X165290000Y-117280000D01*
X171575000Y-116010000D02*
X171575000Y-117265000D01*
X171575000Y-117265000D02*
X171560000Y-117280000D01*
X175700000Y-107085000D02*
X176955000Y-107085000D01*
X176955000Y-107085000D02*
X176970000Y-107100000D01*
X175700000Y-104385000D02*
X176955000Y-104385000D01*
X176955000Y-104385000D02*
X176970000Y-104370000D01*
X175700000Y-97385000D02*
X176955000Y-97385000D01*
X176955000Y-97385000D02*
X176970000Y-97370000D01*
X175700000Y-92585000D02*
X176955000Y-92585000D01*
X176955000Y-92585000D02*
X176970000Y-92600000D01*
D30*
X165100000Y-71770000D02*
X165720000Y-71770000D01*
X165720000Y-71770000D02*
X165735000Y-71755000D01*
X164480000Y-71770000D02*
X165100000Y-71770000D01*
D33*
X169560000Y-142240000D02*
X170815000Y-142240000D01*
D30*
X175275000Y-73025000D02*
X175275000Y-72375000D01*
X176515000Y-71135000D02*
X176515000Y-70485000D01*
X175275000Y-72375000D02*
X176515000Y-71135000D01*
X177815000Y-67945000D02*
X179055000Y-67945000D01*
X176515000Y-70485000D02*
X176515000Y-69865000D01*
X177815000Y-68565000D02*
X177815000Y-67945000D01*
X176515000Y-69865000D02*
X177815000Y-68565000D01*
D32*
X140335000Y-144145000D02*
X142240000Y-146050000D01*
X138430000Y-142240000D02*
X140335000Y-144145000D01*
X138430000Y-100965000D02*
X138430000Y-142240000D01*
X144145000Y-150495000D02*
X146050000Y-150495000D01*
X142240000Y-148590000D02*
X144145000Y-150495000D01*
X142240000Y-146050000D02*
X142240000Y-148590000D01*
X138430000Y-100965000D02*
X138430000Y-62230000D01*
X138430000Y-62230000D02*
X140335000Y-60325000D01*
X140335000Y-60325000D02*
X146685000Y-53975000D01*
X140885000Y-100965000D02*
X138430000Y-100965000D01*
X143425000Y-100965000D02*
X140885000Y-100965000D01*
D35*
X147320000Y-148605000D02*
X146065000Y-148605000D01*
X146065000Y-148605000D02*
X146050000Y-148590000D01*
X147320000Y-148605000D02*
X148995000Y-148605000D01*
X148995000Y-148605000D02*
X149250000Y-148350000D01*
X147320000Y-60975000D02*
X146065000Y-60975000D01*
X146065000Y-60975000D02*
X146050000Y-60960000D01*
X147320000Y-60975000D02*
X148995000Y-60975000D01*
X148995000Y-60975000D02*
X149250000Y-60720000D01*
D30*
X170269000Y-69535000D02*
X170269000Y-67945000D01*
X170269000Y-67945000D02*
X170307000Y-67945000D01*
X171435000Y-73025000D02*
X168910000Y-73025000D01*
X168910000Y-67945000D02*
X170307000Y-67945000D01*
X170307000Y-67945000D02*
X171435000Y-67945000D01*
X167005000Y-69850000D02*
X168910000Y-67945000D01*
X167005000Y-71120000D02*
X167005000Y-69850000D01*
X168910000Y-73025000D02*
X167005000Y-71120000D01*
X172735000Y-73025000D02*
X172735000Y-71539000D01*
X172735000Y-71539000D02*
X172631000Y-71435000D01*
X166370000Y-71120000D02*
X166370000Y-71755000D01*
X162763000Y-69510000D02*
X165776000Y-69510000D01*
X166370000Y-70104000D02*
X166370000Y-70866000D01*
X165776000Y-69510000D02*
X166370000Y-70104000D01*
X166370000Y-71120000D02*
X166370000Y-70866000D01*
X172735000Y-73645000D02*
X172735000Y-73025000D01*
X172085000Y-74295000D02*
X172735000Y-73645000D01*
X168910000Y-74295000D02*
X172085000Y-74295000D01*
X166370000Y-71755000D02*
X168910000Y-74295000D01*
X173975000Y-73025000D02*
X172735000Y-73025000D01*
D35*
X152385000Y-62850000D02*
X153670000Y-64135000D01*
X153670000Y-64135000D02*
X159385000Y-64135000D01*
X161290000Y-66040000D02*
X159385000Y-64135000D01*
X152385000Y-62230000D02*
X152385000Y-62850000D01*
X152385000Y-62230000D02*
X152385000Y-58420000D01*
X152385000Y-58420000D02*
X152400000Y-58420000D01*
D34*
X149250000Y-58420000D02*
X152400000Y-58420000D01*
X152400000Y-58420000D02*
X155550000Y-58420000D01*
D31*
X165100000Y-133970000D02*
X165720000Y-133970000D01*
X165720000Y-133970000D02*
X165735000Y-133985000D01*
X162763000Y-134310000D02*
X164140000Y-134310000D01*
X164480000Y-133970000D02*
X165100000Y-133970000D01*
X164140000Y-134310000D02*
X164480000Y-133970000D01*
X165100000Y-132095000D02*
X165720000Y-132095000D01*
X165720000Y-132095000D02*
X165735000Y-132080000D01*
X162763000Y-132360000D02*
X164185000Y-132360000D01*
X164465000Y-132080000D02*
X165100000Y-132080000D01*
X164185000Y-132360000D02*
X164465000Y-132080000D01*
D30*
X164480000Y-70470000D02*
X165100000Y-70470000D01*
X164140000Y-70810000D02*
X164480000Y-70470000D01*
X165100000Y-70470000D02*
X165720000Y-70470000D01*
X165720000Y-70470000D02*
X165735000Y-70485000D01*
X162763000Y-70810000D02*
X164140000Y-70810000D01*
D31*
X162763000Y-68860000D02*
X164185000Y-68860000D01*
X164450000Y-68595000D02*
X165100000Y-68595000D01*
X164185000Y-68860000D02*
X164450000Y-68595000D01*
D30*
X165100000Y-68595000D02*
X165720000Y-68595000D01*
X165720000Y-68595000D02*
X165735000Y-68580000D01*
D35*
X152385000Y-142240000D02*
X152385000Y-139080000D01*
X152385000Y-139080000D02*
X152400000Y-139065000D01*
X152385000Y-142240000D02*
X152385000Y-146050000D01*
X152385000Y-146050000D02*
X152400000Y-146050000D01*
D34*
X155550000Y-146050000D02*
X152400000Y-146050000D01*
X152400000Y-146050000D02*
X149250000Y-146050000D01*
D31*
X153035000Y-133335000D02*
X152415000Y-133335000D01*
X152415000Y-133335000D02*
X152400000Y-133350000D01*
X156007000Y-133660000D02*
X153980000Y-133660000D01*
X153655000Y-133335000D02*
X153035000Y-133335000D01*
X153980000Y-133660000D02*
X153655000Y-133335000D01*
X153035000Y-69835000D02*
X152415000Y-69835000D01*
X152415000Y-69835000D02*
X152400000Y-69850000D01*
X156007000Y-70160000D02*
X153980000Y-70160000D01*
X153655000Y-69835000D02*
X153035000Y-69835000D01*
X153980000Y-70160000D02*
X153655000Y-69835000D01*
X179480000Y-112525000D02*
X179480000Y-116940000D01*
X179480000Y-116940000D02*
X179510000Y-116970000D01*
X179480000Y-112525000D02*
X179480000Y-115685000D01*
X179480000Y-115685000D02*
X179495000Y-115700000D01*
X182700000Y-91175000D02*
X183955000Y-91175000D01*
X155775000Y-88460000D02*
X155775000Y-87205000D01*
X155775000Y-87205000D02*
X155790000Y-87190000D01*
X156175000Y-91635000D02*
X156175000Y-89480000D01*
X155775000Y-89080000D02*
X155775000Y-88460000D01*
X156175000Y-89480000D02*
X155775000Y-89080000D01*
X163675000Y-91635000D02*
X163675000Y-89480000D01*
X164075000Y-89080000D02*
X164075000Y-88460000D01*
X163675000Y-89480000D02*
X164075000Y-89080000D01*
X164075000Y-88460000D02*
X164075000Y-87205000D01*
X164075000Y-87205000D02*
X164060000Y-87190000D01*
X170275000Y-88460000D02*
X170275000Y-87205000D01*
X170275000Y-87205000D02*
X170290000Y-87190000D01*
X170675000Y-91635000D02*
X170675000Y-89480000D01*
X170275000Y-89080000D02*
X170275000Y-88460000D01*
X170675000Y-89480000D02*
X170275000Y-89080000D01*
X153575000Y-88460000D02*
X153575000Y-87205000D01*
X153575000Y-87205000D02*
X153560000Y-87190000D01*
X153175000Y-91635000D02*
X153175000Y-89480000D01*
X153575000Y-89080000D02*
X153575000Y-88460000D01*
X153175000Y-89480000D02*
X153575000Y-89080000D01*
X148150000Y-100585000D02*
X146895000Y-100585000D01*
X146895000Y-100585000D02*
X146880000Y-100600000D01*
X151325000Y-100985000D02*
X149170000Y-100985000D01*
X148770000Y-100585000D02*
X148150000Y-100585000D01*
X149170000Y-100985000D02*
X148770000Y-100585000D01*
X151325000Y-96485000D02*
X149170000Y-96485000D01*
X148770000Y-96085000D02*
X148150000Y-96085000D01*
X149170000Y-96485000D02*
X148770000Y-96085000D01*
X148150000Y-96085000D02*
X146895000Y-96085000D01*
X146895000Y-96085000D02*
X146880000Y-96100000D01*
X151325000Y-107985000D02*
X149170000Y-107985000D01*
X148770000Y-108385000D02*
X148150000Y-108385000D01*
X149170000Y-107985000D02*
X148770000Y-108385000D01*
X148150000Y-108385000D02*
X146895000Y-108385000D01*
X146895000Y-108385000D02*
X146880000Y-108370000D01*
X148150000Y-110585000D02*
X146895000Y-110585000D01*
X146895000Y-110585000D02*
X146880000Y-110600000D01*
X151325000Y-110985000D02*
X149170000Y-110985000D01*
X148770000Y-110585000D02*
X148150000Y-110585000D01*
X149170000Y-110985000D02*
X148770000Y-110585000D01*
X158075000Y-116010000D02*
X158075000Y-117265000D01*
X158075000Y-117265000D02*
X158060000Y-117280000D01*
X157675000Y-112835000D02*
X157675000Y-114990000D01*
X158075000Y-115390000D02*
X158075000Y-116010000D01*
X157675000Y-114990000D02*
X158075000Y-115390000D01*
X159775000Y-116010000D02*
X159775000Y-117265000D01*
X159775000Y-117265000D02*
X159790000Y-117280000D01*
X160175000Y-112835000D02*
X160175000Y-114990000D01*
X159775000Y-115390000D02*
X159775000Y-116010000D01*
X160175000Y-114990000D02*
X159775000Y-115390000D01*
X166575000Y-116010000D02*
X166575000Y-117265000D01*
X166575000Y-117265000D02*
X166560000Y-117280000D01*
X166175000Y-112835000D02*
X166175000Y-114990000D01*
X166575000Y-115390000D02*
X166575000Y-116010000D01*
X166175000Y-114990000D02*
X166575000Y-115390000D01*
X170275000Y-116010000D02*
X170275000Y-117265000D01*
X170275000Y-117265000D02*
X170290000Y-117280000D01*
X170675000Y-112835000D02*
X170675000Y-114990000D01*
X170275000Y-115390000D02*
X170275000Y-116010000D01*
X170675000Y-114990000D02*
X170275000Y-115390000D01*
X175700000Y-108385000D02*
X176955000Y-108385000D01*
X176955000Y-108385000D02*
X176970000Y-108370000D01*
X172525000Y-107985000D02*
X174680000Y-107985000D01*
X175080000Y-108385000D02*
X175700000Y-108385000D01*
X174680000Y-107985000D02*
X175080000Y-108385000D01*
X175700000Y-103085000D02*
X176955000Y-103085000D01*
X176955000Y-103085000D02*
X176970000Y-103100000D01*
X172525000Y-103485000D02*
X174680000Y-103485000D01*
X175080000Y-103085000D02*
X175700000Y-103085000D01*
X174680000Y-103485000D02*
X175080000Y-103085000D01*
X175700000Y-96085000D02*
X176955000Y-96085000D01*
X176955000Y-96085000D02*
X176970000Y-96100000D01*
X172525000Y-96485000D02*
X174680000Y-96485000D01*
X175080000Y-96085000D02*
X175700000Y-96085000D01*
X174680000Y-96485000D02*
X175080000Y-96085000D01*
X175700000Y-93885000D02*
X176955000Y-93885000D01*
X176955000Y-93885000D02*
X176970000Y-93870000D01*
X172525000Y-93485000D02*
X174680000Y-93485000D01*
X175080000Y-93885000D02*
X175700000Y-93885000D01*
X174680000Y-93485000D02*
X175080000Y-93885000D01*
D30*
X180355000Y-133985000D02*
X180355000Y-136525000D01*
X183255000Y-133985000D02*
X180355000Y-133985000D01*
X177815000Y-136525000D02*
X177815000Y-133985000D01*
X179055000Y-136525000D02*
X177815000Y-136525000D01*
X175275000Y-131445000D02*
X175275000Y-131684000D01*
X175275000Y-131684000D02*
X174625000Y-132334000D01*
X173416000Y-133035000D02*
X172631000Y-133035000D01*
X174117000Y-132334000D02*
X173416000Y-133035000D01*
X174625000Y-132334000D02*
X174117000Y-132334000D01*
X176515000Y-131445000D02*
X175275000Y-131445000D01*
X179055000Y-131445000D02*
X177815000Y-131445000D01*
X176515000Y-133985000D02*
X176515000Y-133365000D01*
X177815000Y-132065000D02*
X177815000Y-131445000D01*
X176515000Y-133365000D02*
X177815000Y-132065000D01*
X176515000Y-133985000D02*
X176515000Y-134635000D01*
X175275000Y-135875000D02*
X175275000Y-136525000D01*
X176515000Y-134635000D02*
X175275000Y-135875000D01*
X166370000Y-134239000D02*
X166370000Y-135255000D01*
X165776000Y-133010000D02*
X166370000Y-133604000D01*
X166370000Y-133604000D02*
X166370000Y-134239000D01*
X162763000Y-133010000D02*
X165776000Y-133010000D01*
X172735000Y-137145000D02*
X172735000Y-136525000D01*
X172085000Y-137795000D02*
X172735000Y-137145000D01*
X168910000Y-137795000D02*
X172085000Y-137795000D01*
X166370000Y-135255000D02*
X168910000Y-137795000D01*
X173975000Y-136525000D02*
X172735000Y-136525000D01*
X172735000Y-136525000D02*
X172735000Y-135039000D01*
X172735000Y-135039000D02*
X172631000Y-134935000D01*
D31*
X183255000Y-101985000D02*
X180160000Y-101985000D01*
X180160000Y-101985000D02*
X180145000Y-101970000D01*
X172525000Y-101985000D02*
X180130000Y-101985000D01*
X180130000Y-101985000D02*
X180145000Y-101970000D01*
X180160000Y-101985000D02*
X180145000Y-101970000D01*
X167965000Y-121090000D02*
X167965000Y-121725000D01*
X167965000Y-121725000D02*
X166695000Y-122995000D01*
X167965000Y-120455000D02*
X167965000Y-121090000D01*
X167175000Y-112835000D02*
X167175000Y-114585000D01*
X167965000Y-115375000D02*
X167965000Y-120455000D01*
X167175000Y-114585000D02*
X167965000Y-115375000D01*
X167330000Y-119185000D02*
X167330000Y-119820000D01*
X167330000Y-119820000D02*
X166695000Y-120455000D01*
X167330000Y-118550000D02*
X167330000Y-119185000D01*
X166675000Y-112835000D02*
X166675000Y-114720000D01*
X167330000Y-115375000D02*
X167330000Y-118550000D01*
X166675000Y-114720000D02*
X167330000Y-115375000D01*
X164175000Y-112835000D02*
X164175000Y-120435000D01*
X164175000Y-120435000D02*
X164155000Y-120455000D01*
X164175000Y-119800000D02*
X164155000Y-119820000D01*
X162885000Y-121090000D02*
X162885000Y-121725000D01*
X162885000Y-121725000D02*
X164155000Y-122995000D01*
X162885000Y-120455000D02*
X162885000Y-121090000D01*
X163675000Y-112835000D02*
X163675000Y-117760000D01*
X162885000Y-118550000D02*
X162885000Y-120455000D01*
X163675000Y-117760000D02*
X162885000Y-118550000D01*
X144675000Y-124835000D02*
X144425000Y-125085000D01*
X154175000Y-113835000D02*
X145175000Y-122835000D01*
X145175000Y-122835000D02*
X145175000Y-124335000D01*
X145175000Y-124335000D02*
X144675000Y-124835000D01*
X154175000Y-112835000D02*
X154175000Y-113835000D01*
X142165000Y-125085000D02*
X140885000Y-126365000D01*
X144425000Y-125085000D02*
X142165000Y-125085000D01*
X151325000Y-110485000D02*
X152325000Y-110485000D01*
X152325000Y-110485000D02*
X153325000Y-111485000D01*
X154325000Y-109485000D02*
X154825000Y-109985000D01*
X151325000Y-109485000D02*
X154325000Y-109485000D01*
X151325000Y-108485000D02*
X156325000Y-108485000D01*
X157325000Y-106485000D02*
X157825000Y-106985000D01*
X151325000Y-106485000D02*
X157325000Y-106485000D01*
X144825000Y-106985000D02*
X144825000Y-111735000D01*
X145825000Y-104985000D02*
X144825000Y-105985000D01*
X144825000Y-105985000D02*
X144825000Y-106985000D01*
X151325000Y-104985000D02*
X147325000Y-104985000D01*
X147325000Y-104985000D02*
X145825000Y-104985000D01*
X142065000Y-112485000D02*
X140885000Y-113665000D01*
X144075000Y-112485000D02*
X142065000Y-112485000D01*
X144825000Y-111735000D02*
X144075000Y-112485000D01*
X151325000Y-104485000D02*
X156825000Y-104485000D01*
X156825000Y-104485000D02*
X159325000Y-106985000D01*
X158825000Y-103485000D02*
X160825000Y-105485000D01*
X151325000Y-103485000D02*
X158825000Y-103485000D01*
D32*
X143425000Y-98425000D02*
X140885000Y-98425000D01*
D35*
X163195000Y-60975000D02*
X161940000Y-60975000D01*
X161940000Y-60975000D02*
X161925000Y-60960000D01*
X163195000Y-60975000D02*
X164870000Y-60975000D01*
X164870000Y-60975000D02*
X165125000Y-60720000D01*
D30*
X165100000Y-146700000D02*
X163845000Y-146700000D01*
X163845000Y-146700000D02*
X163830000Y-146685000D01*
X167094000Y-147000000D02*
X165400000Y-147000000D01*
X165400000Y-147000000D02*
X165100000Y-146700000D01*
D32*
X143425000Y-106045000D02*
X140885000Y-106045000D01*
D31*
X151325000Y-102485000D02*
X156325000Y-102485000D01*
X156325000Y-102485000D02*
X160825000Y-97985000D01*
X155325000Y-100485000D02*
X159325000Y-96485000D01*
X151325000Y-100485000D02*
X155325000Y-100485000D01*
X151325000Y-99485000D02*
X153325000Y-99485000D01*
X153325000Y-99485000D02*
X157825000Y-94985000D01*
X151325000Y-98485000D02*
X146745000Y-98485000D01*
X142155000Y-89535000D02*
X140885000Y-88265000D01*
X144145000Y-89535000D02*
X142155000Y-89535000D01*
X146050000Y-91440000D02*
X144145000Y-89535000D01*
X146050000Y-97790000D02*
X146050000Y-91440000D01*
X146745000Y-98485000D02*
X146050000Y-97790000D01*
X152325000Y-97485000D02*
X156325000Y-93485000D01*
X151325000Y-97485000D02*
X152325000Y-97485000D01*
X151325000Y-95485000D02*
X149460000Y-95485000D01*
X142155000Y-84455000D02*
X140885000Y-83185000D01*
X144145000Y-84455000D02*
X142155000Y-84455000D01*
X146685000Y-86995000D02*
X144145000Y-84455000D01*
X146685000Y-92710000D02*
X146685000Y-86995000D01*
X149460000Y-95485000D02*
X146685000Y-92710000D01*
X151325000Y-94485000D02*
X149730000Y-94485000D01*
X142155000Y-81915000D02*
X140885000Y-80645000D01*
X144145000Y-81915000D02*
X142155000Y-81915000D01*
X147955000Y-85725000D02*
X144145000Y-81915000D01*
X147955000Y-92710000D02*
X147955000Y-85725000D01*
X149730000Y-94485000D02*
X147955000Y-92710000D01*
X151325000Y-93485000D02*
X150000000Y-93485000D01*
X142155000Y-79375000D02*
X140885000Y-78105000D01*
X144145000Y-79375000D02*
X142155000Y-79375000D01*
X149225000Y-84455000D02*
X144145000Y-79375000D01*
X149225000Y-92710000D02*
X149225000Y-84455000D01*
X150000000Y-93485000D02*
X149225000Y-92710000D01*
X154686000Y-89027000D02*
X154686000Y-87376000D01*
X154686000Y-89154000D02*
X154686000Y-89027000D01*
X153675000Y-91635000D02*
X153675000Y-90165000D01*
X153675000Y-90165000D02*
X154305000Y-89535000D01*
X154305000Y-89535000D02*
X154686000Y-89154000D01*
X145415000Y-78105000D02*
X143425000Y-78105000D01*
X154686000Y-87376000D02*
X145415000Y-78105000D01*
X151325000Y-93985000D02*
X149865000Y-93985000D01*
X148590000Y-85725000D02*
X143510000Y-80645000D01*
X148590000Y-92710000D02*
X148590000Y-85725000D01*
X149865000Y-93985000D02*
X148590000Y-92710000D01*
X143510000Y-80645000D02*
X143425000Y-80645000D01*
X151325000Y-94985000D02*
X149595000Y-94985000D01*
X147320000Y-86995000D02*
X143510000Y-83185000D01*
X147320000Y-92710000D02*
X147320000Y-86995000D01*
X149595000Y-94985000D02*
X147320000Y-92710000D01*
X143510000Y-83185000D02*
X143425000Y-83185000D01*
X152325000Y-95985000D02*
X154825000Y-93485000D01*
X151325000Y-95985000D02*
X152325000Y-95985000D01*
X153325000Y-97985000D02*
X156325000Y-94985000D01*
X151325000Y-97985000D02*
X153325000Y-97985000D01*
X151325000Y-98985000D02*
X146610000Y-98985000D01*
X145415000Y-92795000D02*
X143425000Y-90805000D01*
X145415000Y-97790000D02*
X145415000Y-92795000D01*
X146610000Y-98985000D02*
X145415000Y-97790000D01*
X154325000Y-99985000D02*
X157825000Y-96485000D01*
X151325000Y-99985000D02*
X154325000Y-99985000D01*
X155825000Y-101485000D02*
X159325000Y-97985000D01*
X151325000Y-101485000D02*
X155825000Y-101485000D01*
X159825000Y-102985000D02*
X160825000Y-103985000D01*
X151325000Y-102985000D02*
X159825000Y-102985000D01*
X151325000Y-103985000D02*
X157825000Y-103985000D01*
X157825000Y-103985000D02*
X159325000Y-105485000D01*
X145325000Y-106985000D02*
X145325000Y-112985000D01*
X146325000Y-105485000D02*
X145325000Y-106485000D01*
X145325000Y-106485000D02*
X145325000Y-106985000D01*
X151325000Y-105485000D02*
X147325000Y-105485000D01*
X147325000Y-105485000D02*
X146325000Y-105485000D01*
X144645000Y-113665000D02*
X143425000Y-113665000D01*
X145325000Y-112985000D02*
X144645000Y-113665000D01*
X145825000Y-106985000D02*
X145825000Y-113805000D01*
X146825000Y-105985000D02*
X145825000Y-106985000D01*
X151325000Y-105985000D02*
X147825000Y-105985000D01*
X147825000Y-105985000D02*
X146825000Y-105985000D01*
X145825000Y-113805000D02*
X143425000Y-116205000D01*
X156325000Y-106985000D02*
X157825000Y-108485000D01*
X156325000Y-106985000D02*
X151325000Y-106985000D01*
X155325000Y-108985000D02*
X151325000Y-108985000D01*
X155325000Y-108985000D02*
X156325000Y-109985000D01*
X151325000Y-109985000D02*
X153325000Y-109985000D01*
X153325000Y-109985000D02*
X154825000Y-111485000D01*
X154675000Y-112835000D02*
X154675000Y-114335000D01*
X144645000Y-126365000D02*
X143425000Y-126365000D01*
X145675000Y-125335000D02*
X144645000Y-126365000D01*
X145675000Y-123335000D02*
X145675000Y-125335000D01*
X154675000Y-114335000D02*
X145675000Y-123335000D01*
D30*
X170269000Y-133035000D02*
X170269000Y-131445000D01*
X170269000Y-131445000D02*
X170180000Y-131445000D01*
X171435000Y-131445000D02*
X170180000Y-131445000D01*
X170180000Y-131445000D02*
X168910000Y-131445000D01*
X168910000Y-136525000D02*
X171435000Y-136525000D01*
X167005000Y-134620000D02*
X168910000Y-136525000D01*
X167005000Y-133350000D02*
X167005000Y-134620000D01*
X168910000Y-131445000D02*
X167005000Y-133350000D01*
X165100000Y-73010000D02*
X165720000Y-73010000D01*
X165720000Y-73010000D02*
X165735000Y-73025000D01*
X162763000Y-72760000D02*
X164200000Y-72760000D01*
X164450000Y-73010000D02*
X165100000Y-73010000D01*
X164200000Y-72760000D02*
X164450000Y-73010000D01*
X162763000Y-72110000D02*
X162763000Y-72760000D01*
X165100000Y-136510000D02*
X165720000Y-136510000D01*
X165720000Y-136510000D02*
X165735000Y-136525000D01*
X162763000Y-136260000D02*
X164200000Y-136260000D01*
X164450000Y-136510000D02*
X165100000Y-136510000D01*
X164200000Y-136260000D02*
X164450000Y-136510000D01*
X162763000Y-135610000D02*
X162763000Y-136260000D01*
D31*
X154555000Y-67560000D02*
X153670000Y-66675000D01*
X153670000Y-66675000D02*
X153035000Y-66675000D01*
X156007000Y-67560000D02*
X154555000Y-67560000D01*
X164525000Y-100985000D02*
X163025000Y-99485000D01*
X164525000Y-100985000D02*
X172525000Y-100985000D01*
X154570000Y-68210000D02*
X153670000Y-67310000D01*
X153670000Y-67310000D02*
X151765000Y-67310000D01*
X156007000Y-68210000D02*
X154570000Y-68210000D01*
X165525000Y-100485000D02*
X172525000Y-100485000D01*
X165525000Y-100485000D02*
X164525000Y-99485000D01*
X154585000Y-68860000D02*
X153670000Y-67945000D01*
X153670000Y-67945000D02*
X153035000Y-67945000D01*
X156007000Y-68860000D02*
X154585000Y-68860000D01*
X166525000Y-99985000D02*
X172525000Y-99985000D01*
X166525000Y-99985000D02*
X164525000Y-97985000D01*
X154600000Y-69510000D02*
X153670000Y-68580000D01*
X153670000Y-68580000D02*
X151765000Y-68580000D01*
X156007000Y-69510000D02*
X154600000Y-69510000D01*
X167525000Y-99485000D02*
X172525000Y-99485000D01*
X167525000Y-99485000D02*
X166025000Y-97985000D01*
X168525000Y-98985000D02*
X172525000Y-98985000D01*
X168525000Y-98985000D02*
X166025000Y-96485000D01*
X154600000Y-71460000D02*
X156007000Y-71460000D01*
X153670000Y-72390000D02*
X151765000Y-72390000D01*
X154600000Y-71460000D02*
X153670000Y-72390000D01*
X154585000Y-72110000D02*
X156007000Y-72110000D01*
X153670000Y-73025000D02*
X153035000Y-73025000D01*
X154585000Y-72110000D02*
X153670000Y-73025000D01*
X169525000Y-98485000D02*
X172525000Y-98485000D01*
X169525000Y-98485000D02*
X167525000Y-96485000D01*
X154570000Y-72760000D02*
X153670000Y-73660000D01*
X153670000Y-73660000D02*
X151765000Y-73660000D01*
X156007000Y-72760000D02*
X154570000Y-72760000D01*
X172525000Y-97985000D02*
X170525000Y-97985000D01*
X170525000Y-97985000D02*
X167525000Y-94985000D01*
X154555000Y-73410000D02*
X153670000Y-74295000D01*
X153670000Y-74295000D02*
X153035000Y-74295000D01*
X154555000Y-73410000D02*
X156007000Y-73410000D01*
X171525000Y-97485000D02*
X169025000Y-94985000D01*
X172525000Y-97485000D02*
X171525000Y-97485000D01*
X156007000Y-131060000D02*
X154555000Y-131060000D01*
X153670000Y-130175000D02*
X153035000Y-130175000D01*
X154555000Y-131060000D02*
X153670000Y-130175000D01*
X170525000Y-108485000D02*
X172525000Y-108485000D01*
X170525000Y-108485000D02*
X168525000Y-110485000D01*
X154570000Y-131710000D02*
X153670000Y-130810000D01*
X153670000Y-130810000D02*
X151765000Y-130810000D01*
X154570000Y-131710000D02*
X156007000Y-131710000D01*
X172525000Y-106985000D02*
X170525000Y-106985000D01*
X170525000Y-106985000D02*
X168525000Y-108985000D01*
X154585000Y-132360000D02*
X156007000Y-132360000D01*
X153670000Y-131445000D02*
X153035000Y-131445000D01*
X154585000Y-132360000D02*
X153670000Y-131445000D01*
X172525000Y-106485000D02*
X169525000Y-106485000D01*
X169525000Y-106485000D02*
X167025000Y-108985000D01*
X172525000Y-105985000D02*
X168525000Y-105985000D01*
X168525000Y-105985000D02*
X167025000Y-107485000D01*
X154600000Y-133010000D02*
X156007000Y-133010000D01*
X153670000Y-132080000D02*
X151765000Y-132080000D01*
X154600000Y-133010000D02*
X153670000Y-132080000D01*
X154600000Y-134960000D02*
X153670000Y-135890000D01*
X153670000Y-135890000D02*
X151765000Y-135890000D01*
X156007000Y-134960000D02*
X154600000Y-134960000D01*
X167525000Y-105485000D02*
X172525000Y-105485000D01*
X167525000Y-105485000D02*
X165525000Y-107485000D01*
X154585000Y-135610000D02*
X153670000Y-136525000D01*
X153670000Y-136525000D02*
X153035000Y-136525000D01*
X156007000Y-135610000D02*
X154585000Y-135610000D01*
X166525000Y-104985000D02*
X165525000Y-105985000D01*
X166525000Y-104985000D02*
X172525000Y-104985000D01*
X154570000Y-136260000D02*
X153670000Y-137160000D01*
X153670000Y-137160000D02*
X151765000Y-137160000D01*
X156007000Y-136260000D02*
X154570000Y-136260000D01*
X165525000Y-104485000D02*
X172525000Y-104485000D01*
X165525000Y-104485000D02*
X164025000Y-105985000D01*
X154555000Y-136910000D02*
X153670000Y-137795000D01*
X153670000Y-137795000D02*
X153035000Y-137795000D01*
X156007000Y-136910000D02*
X154555000Y-136910000D01*
X164525000Y-103985000D02*
X164025000Y-104485000D01*
X164525000Y-103985000D02*
X172525000Y-103985000D01*
D35*
X168260000Y-142240000D02*
X168260000Y-141620000D01*
X177165000Y-140335000D02*
X179705000Y-137795000D01*
X169545000Y-140335000D02*
X177165000Y-140335000D01*
X168260000Y-141620000D02*
X169545000Y-140335000D01*
D30*
X167094000Y-145100000D02*
X167094000Y-144056000D01*
X168260000Y-142890000D02*
X168260000Y-142240000D01*
X167094000Y-144056000D02*
X168260000Y-142890000D01*
X174625000Y-71135000D02*
X175245000Y-71135000D01*
X175245000Y-71135000D02*
X175260000Y-71120000D01*
X172631000Y-70485000D02*
X173355000Y-70485000D01*
X173355000Y-70485000D02*
X174005000Y-71135000D01*
X174005000Y-71135000D02*
X174625000Y-71135000D01*
D31*
X172631000Y-133985000D02*
X173355000Y-133985000D01*
X173355000Y-133985000D02*
X174005000Y-134635000D01*
X174005000Y-134635000D02*
X174625000Y-134635000D01*
X174625000Y-134635000D02*
X175245000Y-134635000D01*
X175245000Y-134635000D02*
X175260000Y-134620000D01*
D35*
X168260000Y-66025000D02*
X168275000Y-66040000D01*
X168260000Y-62230000D02*
X168260000Y-66025000D01*
X168260000Y-62230000D02*
X168260000Y-58420000D01*
X168260000Y-58420000D02*
X168275000Y-58420000D01*
D34*
X165125000Y-58420000D02*
X168275000Y-58420000D01*
X168275000Y-58420000D02*
X171425000Y-58420000D01*
D30*
X168910000Y-71135000D02*
X168290000Y-71135000D01*
X168290000Y-71135000D02*
X168275000Y-71120000D01*
X170269000Y-71435000D02*
X169210000Y-71435000D01*
X169210000Y-71435000D02*
X168910000Y-71135000D01*
X168910000Y-134635000D02*
X168290000Y-134635000D01*
X168290000Y-134635000D02*
X168275000Y-134620000D01*
X170269000Y-134935000D02*
X169210000Y-134935000D01*
X169210000Y-134935000D02*
X168910000Y-134635000D01*
D31*
X181400000Y-91175000D02*
X179525000Y-91175000D01*
X178225000Y-94985000D02*
X172525000Y-94985000D01*
X179480000Y-109985000D02*
X172525000Y-109985000D01*
X179525000Y-94985000D02*
X181400000Y-94985000D01*
X162763000Y-131060000D02*
X159600000Y-131060000D01*
X158525000Y-129985000D02*
X158525000Y-128485000D01*
X159600000Y-131060000D02*
X158525000Y-129985000D01*
X171525000Y-108985000D02*
X170025000Y-110485000D01*
X172525000Y-108985000D02*
X171525000Y-108985000D01*
X162763000Y-67560000D02*
X160100000Y-67560000D01*
X163525000Y-101485000D02*
X172525000Y-101485000D01*
X163525000Y-101485000D02*
X163025000Y-100985000D01*
X158525000Y-65985000D02*
X157525000Y-65985000D01*
X160100000Y-67560000D02*
X158525000Y-65985000D01*
M02*
