M48
;DRILL file {KiCad 4.0.7-e2-6376~58~ubuntu16.04.1} date Sun Sep 16 22:19:39 2018
;FORMAT={3:3/ absolute / metric / suppress leading zeros}
FMAT,2
METRIC,TZ
T1C0.300
T2C0.400
T3C0.500
T4C1.000
T5C1.211
T6C2.790
%
G90
G05
M71
T1
X150075Y-101985
X151765Y-67310
X151765Y-68580
X151765Y-72390
X151765Y-73660
X151765Y-130810
X151765Y-132080
X151765Y-135890
X151765Y-137160
X152400Y-69850
X152400Y-71120
X152400Y-133350
X152400Y-134620
X153035Y-66675
X153035Y-67945
X153035Y-73025
X153035Y-74295
X153035Y-130175
X153035Y-131445
X153035Y-136525
X153035Y-137795
X153325Y-111485
X154825Y-93485
X154825Y-109985
X154825Y-111485
X156325Y-93485
X156325Y-94985
X156325Y-108485
X156325Y-109985
X157525Y-65985
X157825Y-94985
X157825Y-96485
X157825Y-106985
X157825Y-108485
X158525Y-128485
X159325Y-96485
X159325Y-97985
X159325Y-105485
X159325Y-106985
X160825Y-97985
X160825Y-103985
X160825Y-105485
X161290Y-68210
X161290Y-73410
X161290Y-131710
X161290Y-136910
X163025Y-99485
X163025Y-100985
X163830Y-145415
X163830Y-146685
X164025Y-104485
X164025Y-105985
X164525Y-97985
X164525Y-99485
X165525Y-105985
X165525Y-107485
X165735Y-67310
X165735Y-68580
X165735Y-70485
X165735Y-71755
X165735Y-73025
X165735Y-74295
X165735Y-130810
X165735Y-132080
X165735Y-133985
X165735Y-135255
X165735Y-136525
X165735Y-137795
X166025Y-96485
X166025Y-97985
X167025Y-107485
X167025Y-108985
X167525Y-94985
X167525Y-96485
X168275Y-69850
X168275Y-71120
X168275Y-133350
X168275Y-134620
X168275Y-146050
X168525Y-108985
X168525Y-110485
X169025Y-94985
X170025Y-110485
X172720Y-66675
X172720Y-130175
X173990Y-66675
X173990Y-130175
X175260Y-69850
X175260Y-71120
X175260Y-133350
X175260Y-134620
X176530Y-74295
X176530Y-137795
X179070Y-71755
X179070Y-135255
X182880Y-66040
X182880Y-74930
X182880Y-97155
X182880Y-106680
X182880Y-129540
X182880Y-138430
T2
X146880Y-96100
X146880Y-97370
X146880Y-100600
X146880Y-101870
X146880Y-107100
X146880Y-108370
X146880Y-110600
X146880Y-111870
X152290Y-87190
X153560Y-87190
X155790Y-87190
X156675Y-111565
X156790Y-117280
X157060Y-87190
X157175Y-92905
X158060Y-117280
X159790Y-117280
X160675Y-111565
X161060Y-117280
X162675Y-92905
X162790Y-87190
X164060Y-87190
X165290Y-117280
X165675Y-111565
X166175Y-92905
X166560Y-117280
X170290Y-87190
X170290Y-117280
X171255Y-102485
X171560Y-87190
X171560Y-117280
X176970Y-91175
X176970Y-92600
X176970Y-93870
X176970Y-96100
X176970Y-97370
X176970Y-103100
X176970Y-104370
X176970Y-107100
X176970Y-108370
X179510Y-116970
X180145Y-104525
X180780Y-116970
X183955Y-91175
X183955Y-94985
X183955Y-109985
T3
X146050Y-60960
X146050Y-148590
X147320Y-58420
X147320Y-146050
X152400Y-139065
X154940Y-62230
X154940Y-142240
X161290Y-66040
X161925Y-60960
X163195Y-58420
X163195Y-74930
X163195Y-129540
X168275Y-66040
X168275Y-74930
X169545Y-129540
X170815Y-62230
X170815Y-142240
X179705Y-74295
X179705Y-130175
X179705Y-137795
T4
X140885Y-62865
X140885Y-65405
X140885Y-67945
X140885Y-70485
X140885Y-73025
X140885Y-75565
X140885Y-78105
X140885Y-80645
X140885Y-83185
X140885Y-85725
X140885Y-88265
X140885Y-90805
X140885Y-93345
X140885Y-95885
X140885Y-98425
X140885Y-100965
X140885Y-103505
X140885Y-106045
X140885Y-108585
X140885Y-111125
X140885Y-113665
X140885Y-116205
X140885Y-118745
X140885Y-121285
X140885Y-123825
X140885Y-126365
X140885Y-128905
X140885Y-131445
X140885Y-133985
X140885Y-136525
X140885Y-139065
X140885Y-141605
X143425Y-62865
X143425Y-65405
X143425Y-67945
X143425Y-70485
X143425Y-73025
X143425Y-75565
X143425Y-78105
X143425Y-80645
X143425Y-83185
X143425Y-85725
X143425Y-88265
X143425Y-90805
X143425Y-93345
X143425Y-95885
X143425Y-98425
X143425Y-100965
X143425Y-103505
X143425Y-106045
X143425Y-108585
X143425Y-111125
X143425Y-113665
X143425Y-116205
X143425Y-118745
X143425Y-121285
X143425Y-123825
X143425Y-126365
X143425Y-128905
X143425Y-131445
X143425Y-133985
X143425Y-136525
X143425Y-139065
X143425Y-141605
X149225Y-53975
X149225Y-141605
X164155Y-120455
X164155Y-122995
X165100Y-53975
X166695Y-120455
X166695Y-122995
T5
X146050Y-150495
X146685Y-53975
X162560Y-53975
X162560Y-140970
T6
X138345Y-57785
X138345Y-146685
T0
M30
