G04 #@! TF.FileFunction,Copper,L3,Inr,Plane*
%FSLAX46Y46*%
G04 Gerber Fmt 4.6, Leading zero omitted, Abs format (unit mm)*
G04 Created by KiCad (PCBNEW 4.0.7-e2-6376~58~ubuntu16.04.1) date Sun Sep 16 22:19:27 2018*
%MOMM*%
%LPD*%
G01*
G04 APERTURE LIST*
%ADD10C,0.100000*%
%ADD11C,1.711200*%
%ADD12C,3.501200*%
%ADD13C,0.604800*%
%ADD14C,0.700000*%
%ADD15C,1.500000*%
%ADD16C,0.600000*%
%ADD17C,1.711000*%
%ADD18C,0.900000*%
%ADD19C,0.900000*%
%ADD20C,0.152400*%
G04 APERTURE END LIST*
D10*
D11*
X140885000Y-141605000D03*
X140885000Y-139065000D03*
X140885000Y-136525000D03*
X140885000Y-133985000D03*
X140885000Y-131445000D03*
X140885000Y-128905000D03*
X140885000Y-126365000D03*
X140885000Y-123825000D03*
X140885000Y-121285000D03*
X140885000Y-118745000D03*
X140885000Y-116205000D03*
X140885000Y-113665000D03*
X140885000Y-111125000D03*
X140885000Y-108585000D03*
X140885000Y-106045000D03*
X140885000Y-103505000D03*
X140885000Y-100965000D03*
X140885000Y-98425000D03*
X140885000Y-95885000D03*
X140885000Y-93345000D03*
X140885000Y-90805000D03*
X140885000Y-88265000D03*
X140885000Y-85725000D03*
X140885000Y-83185000D03*
X140885000Y-80645000D03*
X140885000Y-78105000D03*
X140885000Y-75565000D03*
X140885000Y-73025000D03*
X140885000Y-70485000D03*
X140885000Y-67945000D03*
X140885000Y-65405000D03*
X140885000Y-62865000D03*
X143425000Y-62865000D03*
X143425000Y-65405000D03*
X143425000Y-67945000D03*
X143425000Y-70485000D03*
X143425000Y-73025000D03*
X143425000Y-75565000D03*
X143425000Y-78105000D03*
X143425000Y-80645000D03*
X143425000Y-83185000D03*
X143425000Y-85725000D03*
X143425000Y-88265000D03*
X143425000Y-90805000D03*
X143425000Y-93345000D03*
X143425000Y-95885000D03*
X143425000Y-98425000D03*
X143425000Y-100965000D03*
X143425000Y-103505000D03*
X143425000Y-106045000D03*
X143425000Y-108585000D03*
X143425000Y-111125000D03*
X143425000Y-113665000D03*
X143425000Y-116205000D03*
X143425000Y-118745000D03*
X143425000Y-121285000D03*
X143425000Y-123825000D03*
X143425000Y-126365000D03*
X143425000Y-128905000D03*
X143425000Y-131445000D03*
X143425000Y-133985000D03*
X143425000Y-136525000D03*
X143425000Y-139065000D03*
X143425000Y-141605000D03*
D12*
X138345000Y-57785000D03*
X138345000Y-146685000D03*
D11*
X166695000Y-122995000D03*
X166695000Y-120455000D03*
X164155000Y-120455000D03*
X164155000Y-122995000D03*
D13*
X168275000Y-146050000D03*
X163830000Y-145415000D03*
D14*
X147320000Y-146050000D03*
X163195000Y-58420000D03*
D15*
X149225000Y-141605000D03*
X165100000Y-53975000D03*
X149225000Y-53975000D03*
D14*
X147320000Y-58420000D03*
X154940000Y-62230000D03*
X170815000Y-62230000D03*
X154940000Y-142240000D03*
D13*
X182880000Y-74930000D03*
X182880000Y-66040000D03*
X182880000Y-106680000D03*
X182880000Y-97155000D03*
X182880000Y-138430000D03*
X182880000Y-129540000D03*
X161290000Y-131710000D03*
X161290000Y-136910000D03*
X165735000Y-137795000D03*
X165735000Y-135255000D03*
X165735000Y-130810000D03*
X152400000Y-134620000D03*
X161290000Y-68210000D03*
X161290000Y-73410000D03*
X165735000Y-74295000D03*
X165735000Y-67310000D03*
X150075000Y-101985000D03*
X172720000Y-66675000D03*
X168275000Y-69850000D03*
X175260000Y-69850000D03*
X176530000Y-74295000D03*
X179070000Y-71755000D03*
X173990000Y-66675000D03*
X152400000Y-71120000D03*
X172720000Y-130175000D03*
X173990000Y-130175000D03*
X176530000Y-137795000D03*
X179070000Y-135255000D03*
D16*
X180145000Y-104525000D03*
D13*
X168275000Y-133350000D03*
X175260000Y-133350000D03*
D16*
X166175000Y-92905000D03*
X162675000Y-92905000D03*
X157175000Y-92905000D03*
X156675000Y-111565000D03*
X160675000Y-111565000D03*
X165675000Y-111565000D03*
X171255000Y-102485000D03*
X180780000Y-116970000D03*
X183955000Y-109985000D03*
X176970000Y-91175000D03*
X183955000Y-94985000D03*
X157060000Y-87190000D03*
X162790000Y-87190000D03*
X171560000Y-87190000D03*
X152290000Y-87190000D03*
X146880000Y-101870000D03*
X146880000Y-97370000D03*
X146880000Y-107100000D03*
X146880000Y-111870000D03*
X156790000Y-117280000D03*
X161060000Y-117280000D03*
X165290000Y-117280000D03*
X171560000Y-117280000D03*
X176970000Y-107100000D03*
X176970000Y-104370000D03*
X176970000Y-97370000D03*
X176970000Y-92600000D03*
D13*
X165735000Y-71755000D03*
D14*
X170815000Y-142240000D03*
D17*
X146050000Y-150495000D03*
X146685000Y-53975000D03*
D18*
X146050000Y-148590000D03*
X146050000Y-60960000D03*
X163195000Y-74930000D03*
X161290000Y-66040000D03*
X163195000Y-129540000D03*
D13*
X165735000Y-133985000D03*
X165735000Y-132080000D03*
X165735000Y-70485000D03*
X165735000Y-68580000D03*
D18*
X152400000Y-139065000D03*
D13*
X152400000Y-133350000D03*
X152400000Y-69850000D03*
D16*
X179510000Y-116970000D03*
X183955000Y-91175000D03*
X155790000Y-87190000D03*
X164060000Y-87190000D03*
X170290000Y-87190000D03*
X153560000Y-87190000D03*
X146880000Y-100600000D03*
X146880000Y-96100000D03*
X146880000Y-108370000D03*
X146880000Y-110600000D03*
X158060000Y-117280000D03*
X159790000Y-117280000D03*
X166560000Y-117280000D03*
X170290000Y-117280000D03*
X176970000Y-108370000D03*
X176970000Y-103100000D03*
X176970000Y-96100000D03*
X176970000Y-93870000D03*
D13*
X153325000Y-111485000D03*
X154825000Y-109985000D03*
X156325000Y-108485000D03*
X157825000Y-106985000D03*
X159325000Y-106985000D03*
X160825000Y-105485000D03*
D17*
X162560000Y-53975000D03*
D18*
X161925000Y-60960000D03*
D13*
X163830000Y-146685000D03*
D17*
X162560000Y-140970000D03*
D13*
X160825000Y-97985000D03*
X159325000Y-96485000D03*
X157825000Y-94985000D03*
X156325000Y-93485000D03*
X154825000Y-93485000D03*
X156325000Y-94985000D03*
X157825000Y-96485000D03*
X159325000Y-97985000D03*
X160825000Y-103985000D03*
X159325000Y-105485000D03*
X157825000Y-108485000D03*
X156325000Y-109985000D03*
X154825000Y-111485000D03*
X165735000Y-73025000D03*
X165735000Y-136525000D03*
X153035000Y-66675000D03*
X163025000Y-99485000D03*
X151765000Y-67310000D03*
X164525000Y-99485000D03*
X153035000Y-67945000D03*
X164525000Y-97985000D03*
X151765000Y-68580000D03*
X166025000Y-97985000D03*
X166025000Y-96485000D03*
X151765000Y-72390000D03*
X153035000Y-73025000D03*
X167525000Y-96485000D03*
X151765000Y-73660000D03*
X167525000Y-94985000D03*
X153035000Y-74295000D03*
X169025000Y-94985000D03*
X153035000Y-130175000D03*
X168525000Y-110485000D03*
X151765000Y-130810000D03*
X168525000Y-108985000D03*
X153035000Y-131445000D03*
X167025000Y-108985000D03*
X167025000Y-107485000D03*
X151765000Y-132080000D03*
X151765000Y-135890000D03*
X165525000Y-107485000D03*
X153035000Y-136525000D03*
X165525000Y-105985000D03*
X151765000Y-137160000D03*
X164025000Y-105985000D03*
X153035000Y-137795000D03*
X164025000Y-104485000D03*
D18*
X179705000Y-130175000D03*
X179705000Y-137795000D03*
X179705000Y-74295000D03*
D13*
X175260000Y-71120000D03*
X175260000Y-134620000D03*
D18*
X168275000Y-66040000D03*
X168275000Y-74930000D03*
X169545000Y-129540000D03*
D13*
X168275000Y-71120000D03*
X168275000Y-134620000D03*
X158525000Y-128485000D03*
X170025000Y-110485000D03*
X163025000Y-100985000D03*
X157525000Y-65985000D03*
D19*
X163195000Y-67945000D02*
X163195000Y-74930000D01*
X161290000Y-66040000D02*
X163195000Y-67945000D01*
X179705000Y-136525000D02*
X180340000Y-135890000D01*
X180340000Y-135890000D02*
X180340000Y-130810000D01*
X180340000Y-130810000D02*
X179705000Y-130175000D01*
X179705000Y-137795000D02*
X179705000Y-136525000D01*
X168275000Y-66040000D02*
X169545000Y-67310000D01*
X169545000Y-73660000D02*
X168275000Y-74930000D01*
X169545000Y-67310000D02*
X169545000Y-73660000D01*
D20*
G36*
X171119800Y-138988800D02*
X167335200Y-138988800D01*
X167335200Y-133455159D01*
X167743908Y-133455159D01*
X167824578Y-133650394D01*
X167973820Y-133799897D01*
X168168914Y-133880908D01*
X168380159Y-133881092D01*
X168575394Y-133800422D01*
X168724897Y-133651180D01*
X168805908Y-133456086D01*
X168806092Y-133244841D01*
X168725422Y-133049606D01*
X168576180Y-132900103D01*
X168381086Y-132819092D01*
X168169841Y-132818908D01*
X167974606Y-132899578D01*
X167825103Y-133048820D01*
X167744092Y-133243914D01*
X167743908Y-133455159D01*
X167335200Y-133455159D01*
X167335200Y-128981200D01*
X171119800Y-128981200D01*
X171119800Y-138988800D01*
X171119800Y-138988800D01*
G37*
X171119800Y-138988800D02*
X167335200Y-138988800D01*
X167335200Y-133455159D01*
X167743908Y-133455159D01*
X167824578Y-133650394D01*
X167973820Y-133799897D01*
X168168914Y-133880908D01*
X168380159Y-133881092D01*
X168575394Y-133800422D01*
X168724897Y-133651180D01*
X168805908Y-133456086D01*
X168806092Y-133244841D01*
X168725422Y-133049606D01*
X168576180Y-132900103D01*
X168381086Y-132819092D01*
X168169841Y-132818908D01*
X167974606Y-132899578D01*
X167825103Y-133048820D01*
X167744092Y-133243914D01*
X167743908Y-133455159D01*
X167335200Y-133455159D01*
X167335200Y-128981200D01*
X171119800Y-128981200D01*
X171119800Y-138988800D01*
G36*
X185351400Y-138988800D02*
X171780200Y-138988800D01*
X171780200Y-138535159D01*
X182348908Y-138535159D01*
X182429578Y-138730394D01*
X182578820Y-138879897D01*
X182773914Y-138960908D01*
X182985159Y-138961092D01*
X183180394Y-138880422D01*
X183329897Y-138731180D01*
X183410908Y-138536086D01*
X183411092Y-138324841D01*
X183330422Y-138129606D01*
X183181180Y-137980103D01*
X182986086Y-137899092D01*
X182774841Y-137898908D01*
X182579606Y-137979578D01*
X182430103Y-138128820D01*
X182349092Y-138323914D01*
X182348908Y-138535159D01*
X171780200Y-138535159D01*
X171780200Y-137900159D01*
X175998908Y-137900159D01*
X176079578Y-138095394D01*
X176228820Y-138244897D01*
X176423914Y-138325908D01*
X176635159Y-138326092D01*
X176830394Y-138245422D01*
X176979897Y-138096180D01*
X177060908Y-137901086D01*
X177061092Y-137689841D01*
X176980422Y-137494606D01*
X176831180Y-137345103D01*
X176636086Y-137264092D01*
X176424841Y-137263908D01*
X176229606Y-137344578D01*
X176080103Y-137493820D01*
X175999092Y-137688914D01*
X175998908Y-137900159D01*
X171780200Y-137900159D01*
X171780200Y-135360159D01*
X178538908Y-135360159D01*
X178619578Y-135555394D01*
X178768820Y-135704897D01*
X178963914Y-135785908D01*
X179175159Y-135786092D01*
X179370394Y-135705422D01*
X179519897Y-135556180D01*
X179600908Y-135361086D01*
X179601092Y-135149841D01*
X179520422Y-134954606D01*
X179371180Y-134805103D01*
X179176086Y-134724092D01*
X178964841Y-134723908D01*
X178769606Y-134804578D01*
X178620103Y-134953820D01*
X178539092Y-135148914D01*
X178538908Y-135360159D01*
X171780200Y-135360159D01*
X171780200Y-133455159D01*
X174728908Y-133455159D01*
X174809578Y-133650394D01*
X174958820Y-133799897D01*
X175153914Y-133880908D01*
X175365159Y-133881092D01*
X175560394Y-133800422D01*
X175709897Y-133651180D01*
X175790908Y-133456086D01*
X175791092Y-133244841D01*
X175710422Y-133049606D01*
X175561180Y-132900103D01*
X175366086Y-132819092D01*
X175154841Y-132818908D01*
X174959606Y-132899578D01*
X174810103Y-133048820D01*
X174729092Y-133243914D01*
X174728908Y-133455159D01*
X171780200Y-133455159D01*
X171780200Y-130280159D01*
X172188908Y-130280159D01*
X172269578Y-130475394D01*
X172418820Y-130624897D01*
X172613914Y-130705908D01*
X172825159Y-130706092D01*
X173020394Y-130625422D01*
X173169897Y-130476180D01*
X173250908Y-130281086D01*
X173250908Y-130280159D01*
X173458908Y-130280159D01*
X173539578Y-130475394D01*
X173688820Y-130624897D01*
X173883914Y-130705908D01*
X174095159Y-130706092D01*
X174290394Y-130625422D01*
X174439897Y-130476180D01*
X174520908Y-130281086D01*
X174521092Y-130069841D01*
X174440422Y-129874606D01*
X174291180Y-129725103D01*
X174098656Y-129645159D01*
X182348908Y-129645159D01*
X182429578Y-129840394D01*
X182578820Y-129989897D01*
X182773914Y-130070908D01*
X182985159Y-130071092D01*
X183180394Y-129990422D01*
X183329897Y-129841180D01*
X183410908Y-129646086D01*
X183411092Y-129434841D01*
X183330422Y-129239606D01*
X183181180Y-129090103D01*
X182986086Y-129009092D01*
X182774841Y-129008908D01*
X182579606Y-129089578D01*
X182430103Y-129238820D01*
X182349092Y-129433914D01*
X182348908Y-129645159D01*
X174098656Y-129645159D01*
X174096086Y-129644092D01*
X173884841Y-129643908D01*
X173689606Y-129724578D01*
X173540103Y-129873820D01*
X173459092Y-130068914D01*
X173458908Y-130280159D01*
X173250908Y-130280159D01*
X173251092Y-130069841D01*
X173170422Y-129874606D01*
X173021180Y-129725103D01*
X172826086Y-129644092D01*
X172614841Y-129643908D01*
X172419606Y-129724578D01*
X172270103Y-129873820D01*
X172189092Y-130068914D01*
X172188908Y-130280159D01*
X171780200Y-130280159D01*
X171780200Y-128981200D01*
X185351400Y-128981200D01*
X185351400Y-138988800D01*
X185351400Y-138988800D01*
G37*
X185351400Y-138988800D02*
X171780200Y-138988800D01*
X171780200Y-138535159D01*
X182348908Y-138535159D01*
X182429578Y-138730394D01*
X182578820Y-138879897D01*
X182773914Y-138960908D01*
X182985159Y-138961092D01*
X183180394Y-138880422D01*
X183329897Y-138731180D01*
X183410908Y-138536086D01*
X183411092Y-138324841D01*
X183330422Y-138129606D01*
X183181180Y-137980103D01*
X182986086Y-137899092D01*
X182774841Y-137898908D01*
X182579606Y-137979578D01*
X182430103Y-138128820D01*
X182349092Y-138323914D01*
X182348908Y-138535159D01*
X171780200Y-138535159D01*
X171780200Y-137900159D01*
X175998908Y-137900159D01*
X176079578Y-138095394D01*
X176228820Y-138244897D01*
X176423914Y-138325908D01*
X176635159Y-138326092D01*
X176830394Y-138245422D01*
X176979897Y-138096180D01*
X177060908Y-137901086D01*
X177061092Y-137689841D01*
X176980422Y-137494606D01*
X176831180Y-137345103D01*
X176636086Y-137264092D01*
X176424841Y-137263908D01*
X176229606Y-137344578D01*
X176080103Y-137493820D01*
X175999092Y-137688914D01*
X175998908Y-137900159D01*
X171780200Y-137900159D01*
X171780200Y-135360159D01*
X178538908Y-135360159D01*
X178619578Y-135555394D01*
X178768820Y-135704897D01*
X178963914Y-135785908D01*
X179175159Y-135786092D01*
X179370394Y-135705422D01*
X179519897Y-135556180D01*
X179600908Y-135361086D01*
X179601092Y-135149841D01*
X179520422Y-134954606D01*
X179371180Y-134805103D01*
X179176086Y-134724092D01*
X178964841Y-134723908D01*
X178769606Y-134804578D01*
X178620103Y-134953820D01*
X178539092Y-135148914D01*
X178538908Y-135360159D01*
X171780200Y-135360159D01*
X171780200Y-133455159D01*
X174728908Y-133455159D01*
X174809578Y-133650394D01*
X174958820Y-133799897D01*
X175153914Y-133880908D01*
X175365159Y-133881092D01*
X175560394Y-133800422D01*
X175709897Y-133651180D01*
X175790908Y-133456086D01*
X175791092Y-133244841D01*
X175710422Y-133049606D01*
X175561180Y-132900103D01*
X175366086Y-132819092D01*
X175154841Y-132818908D01*
X174959606Y-132899578D01*
X174810103Y-133048820D01*
X174729092Y-133243914D01*
X174728908Y-133455159D01*
X171780200Y-133455159D01*
X171780200Y-130280159D01*
X172188908Y-130280159D01*
X172269578Y-130475394D01*
X172418820Y-130624897D01*
X172613914Y-130705908D01*
X172825159Y-130706092D01*
X173020394Y-130625422D01*
X173169897Y-130476180D01*
X173250908Y-130281086D01*
X173250908Y-130280159D01*
X173458908Y-130280159D01*
X173539578Y-130475394D01*
X173688820Y-130624897D01*
X173883914Y-130705908D01*
X174095159Y-130706092D01*
X174290394Y-130625422D01*
X174439897Y-130476180D01*
X174520908Y-130281086D01*
X174521092Y-130069841D01*
X174440422Y-129874606D01*
X174291180Y-129725103D01*
X174098656Y-129645159D01*
X182348908Y-129645159D01*
X182429578Y-129840394D01*
X182578820Y-129989897D01*
X182773914Y-130070908D01*
X182985159Y-130071092D01*
X183180394Y-129990422D01*
X183329897Y-129841180D01*
X183410908Y-129646086D01*
X183411092Y-129434841D01*
X183330422Y-129239606D01*
X183181180Y-129090103D01*
X182986086Y-129009092D01*
X182774841Y-129008908D01*
X182579606Y-129089578D01*
X182430103Y-129238820D01*
X182349092Y-129433914D01*
X182348908Y-129645159D01*
X174098656Y-129645159D01*
X174096086Y-129644092D01*
X173884841Y-129643908D01*
X173689606Y-129724578D01*
X173540103Y-129873820D01*
X173459092Y-130068914D01*
X173458908Y-130280159D01*
X173250908Y-130280159D01*
X173251092Y-130069841D01*
X173170422Y-129874606D01*
X173021180Y-129725103D01*
X172826086Y-129644092D01*
X172614841Y-129643908D01*
X172419606Y-129724578D01*
X172270103Y-129873820D01*
X172189092Y-130068914D01*
X172188908Y-130280159D01*
X171780200Y-130280159D01*
X171780200Y-128981200D01*
X185351400Y-128981200D01*
X185351400Y-138988800D01*
G36*
X166674800Y-138988800D02*
X159715200Y-138988800D01*
X159715200Y-137900159D01*
X165203908Y-137900159D01*
X165284578Y-138095394D01*
X165433820Y-138244897D01*
X165628914Y-138325908D01*
X165840159Y-138326092D01*
X166035394Y-138245422D01*
X166184897Y-138096180D01*
X166265908Y-137901086D01*
X166266092Y-137689841D01*
X166185422Y-137494606D01*
X166036180Y-137345103D01*
X165841086Y-137264092D01*
X165629841Y-137263908D01*
X165434606Y-137344578D01*
X165285103Y-137493820D01*
X165204092Y-137688914D01*
X165203908Y-137900159D01*
X159715200Y-137900159D01*
X159715200Y-137015159D01*
X160758908Y-137015159D01*
X160839578Y-137210394D01*
X160988820Y-137359897D01*
X161183914Y-137440908D01*
X161395159Y-137441092D01*
X161590394Y-137360422D01*
X161739897Y-137211180D01*
X161820908Y-137016086D01*
X161821092Y-136804841D01*
X161748915Y-136630159D01*
X165203908Y-136630159D01*
X165284578Y-136825394D01*
X165433820Y-136974897D01*
X165628914Y-137055908D01*
X165840159Y-137056092D01*
X166035394Y-136975422D01*
X166184897Y-136826180D01*
X166265908Y-136631086D01*
X166266092Y-136419841D01*
X166185422Y-136224606D01*
X166036180Y-136075103D01*
X165841086Y-135994092D01*
X165629841Y-135993908D01*
X165434606Y-136074578D01*
X165285103Y-136223820D01*
X165204092Y-136418914D01*
X165203908Y-136630159D01*
X161748915Y-136630159D01*
X161740422Y-136609606D01*
X161591180Y-136460103D01*
X161396086Y-136379092D01*
X161184841Y-136378908D01*
X160989606Y-136459578D01*
X160840103Y-136608820D01*
X160759092Y-136803914D01*
X160758908Y-137015159D01*
X159715200Y-137015159D01*
X159715200Y-135360159D01*
X165203908Y-135360159D01*
X165284578Y-135555394D01*
X165433820Y-135704897D01*
X165628914Y-135785908D01*
X165840159Y-135786092D01*
X166035394Y-135705422D01*
X166184897Y-135556180D01*
X166265908Y-135361086D01*
X166266092Y-135149841D01*
X166185422Y-134954606D01*
X166036180Y-134805103D01*
X165841086Y-134724092D01*
X165629841Y-134723908D01*
X165434606Y-134804578D01*
X165285103Y-134953820D01*
X165204092Y-135148914D01*
X165203908Y-135360159D01*
X159715200Y-135360159D01*
X159715200Y-131815159D01*
X160758908Y-131815159D01*
X160839578Y-132010394D01*
X160988820Y-132159897D01*
X161183914Y-132240908D01*
X161395159Y-132241092D01*
X161590394Y-132160422D01*
X161739897Y-132011180D01*
X161820908Y-131816086D01*
X161821092Y-131604841D01*
X161740422Y-131409606D01*
X161591180Y-131260103D01*
X161396086Y-131179092D01*
X161184841Y-131178908D01*
X160989606Y-131259578D01*
X160840103Y-131408820D01*
X160759092Y-131603914D01*
X160758908Y-131815159D01*
X159715200Y-131815159D01*
X159715200Y-130915159D01*
X165203908Y-130915159D01*
X165284578Y-131110394D01*
X165433820Y-131259897D01*
X165628914Y-131340908D01*
X165840159Y-131341092D01*
X166035394Y-131260422D01*
X166184897Y-131111180D01*
X166265908Y-130916086D01*
X166266092Y-130704841D01*
X166185422Y-130509606D01*
X166036180Y-130360103D01*
X165841086Y-130279092D01*
X165629841Y-130278908D01*
X165434606Y-130359578D01*
X165285103Y-130508820D01*
X165204092Y-130703914D01*
X165203908Y-130915159D01*
X159715200Y-130915159D01*
X159715200Y-128981200D01*
X166674800Y-128981200D01*
X166674800Y-138988800D01*
X166674800Y-138988800D01*
G37*
X166674800Y-138988800D02*
X159715200Y-138988800D01*
X159715200Y-137900159D01*
X165203908Y-137900159D01*
X165284578Y-138095394D01*
X165433820Y-138244897D01*
X165628914Y-138325908D01*
X165840159Y-138326092D01*
X166035394Y-138245422D01*
X166184897Y-138096180D01*
X166265908Y-137901086D01*
X166266092Y-137689841D01*
X166185422Y-137494606D01*
X166036180Y-137345103D01*
X165841086Y-137264092D01*
X165629841Y-137263908D01*
X165434606Y-137344578D01*
X165285103Y-137493820D01*
X165204092Y-137688914D01*
X165203908Y-137900159D01*
X159715200Y-137900159D01*
X159715200Y-137015159D01*
X160758908Y-137015159D01*
X160839578Y-137210394D01*
X160988820Y-137359897D01*
X161183914Y-137440908D01*
X161395159Y-137441092D01*
X161590394Y-137360422D01*
X161739897Y-137211180D01*
X161820908Y-137016086D01*
X161821092Y-136804841D01*
X161748915Y-136630159D01*
X165203908Y-136630159D01*
X165284578Y-136825394D01*
X165433820Y-136974897D01*
X165628914Y-137055908D01*
X165840159Y-137056092D01*
X166035394Y-136975422D01*
X166184897Y-136826180D01*
X166265908Y-136631086D01*
X166266092Y-136419841D01*
X166185422Y-136224606D01*
X166036180Y-136075103D01*
X165841086Y-135994092D01*
X165629841Y-135993908D01*
X165434606Y-136074578D01*
X165285103Y-136223820D01*
X165204092Y-136418914D01*
X165203908Y-136630159D01*
X161748915Y-136630159D01*
X161740422Y-136609606D01*
X161591180Y-136460103D01*
X161396086Y-136379092D01*
X161184841Y-136378908D01*
X160989606Y-136459578D01*
X160840103Y-136608820D01*
X160759092Y-136803914D01*
X160758908Y-137015159D01*
X159715200Y-137015159D01*
X159715200Y-135360159D01*
X165203908Y-135360159D01*
X165284578Y-135555394D01*
X165433820Y-135704897D01*
X165628914Y-135785908D01*
X165840159Y-135786092D01*
X166035394Y-135705422D01*
X166184897Y-135556180D01*
X166265908Y-135361086D01*
X166266092Y-135149841D01*
X166185422Y-134954606D01*
X166036180Y-134805103D01*
X165841086Y-134724092D01*
X165629841Y-134723908D01*
X165434606Y-134804578D01*
X165285103Y-134953820D01*
X165204092Y-135148914D01*
X165203908Y-135360159D01*
X159715200Y-135360159D01*
X159715200Y-131815159D01*
X160758908Y-131815159D01*
X160839578Y-132010394D01*
X160988820Y-132159897D01*
X161183914Y-132240908D01*
X161395159Y-132241092D01*
X161590394Y-132160422D01*
X161739897Y-132011180D01*
X161820908Y-131816086D01*
X161821092Y-131604841D01*
X161740422Y-131409606D01*
X161591180Y-131260103D01*
X161396086Y-131179092D01*
X161184841Y-131178908D01*
X160989606Y-131259578D01*
X160840103Y-131408820D01*
X160759092Y-131603914D01*
X160758908Y-131815159D01*
X159715200Y-131815159D01*
X159715200Y-130915159D01*
X165203908Y-130915159D01*
X165284578Y-131110394D01*
X165433820Y-131259897D01*
X165628914Y-131340908D01*
X165840159Y-131341092D01*
X166035394Y-131260422D01*
X166184897Y-131111180D01*
X166265908Y-130916086D01*
X166266092Y-130704841D01*
X166185422Y-130509606D01*
X166036180Y-130360103D01*
X165841086Y-130279092D01*
X165629841Y-130278908D01*
X165434606Y-130359578D01*
X165285103Y-130508820D01*
X165204092Y-130703914D01*
X165203908Y-130915159D01*
X159715200Y-130915159D01*
X159715200Y-128981200D01*
X166674800Y-128981200D01*
X166674800Y-138988800D01*
G36*
X185351400Y-75488800D02*
X171780200Y-75488800D01*
X171780200Y-75035159D01*
X182348908Y-75035159D01*
X182429578Y-75230394D01*
X182578820Y-75379897D01*
X182773914Y-75460908D01*
X182985159Y-75461092D01*
X183180394Y-75380422D01*
X183329897Y-75231180D01*
X183410908Y-75036086D01*
X183411092Y-74824841D01*
X183330422Y-74629606D01*
X183181180Y-74480103D01*
X182986086Y-74399092D01*
X182774841Y-74398908D01*
X182579606Y-74479578D01*
X182430103Y-74628820D01*
X182349092Y-74823914D01*
X182348908Y-75035159D01*
X171780200Y-75035159D01*
X171780200Y-74400159D01*
X175998908Y-74400159D01*
X176079578Y-74595394D01*
X176228820Y-74744897D01*
X176423914Y-74825908D01*
X176635159Y-74826092D01*
X176830394Y-74745422D01*
X176979897Y-74596180D01*
X177060908Y-74401086D01*
X177061092Y-74189841D01*
X176980422Y-73994606D01*
X176831180Y-73845103D01*
X176636086Y-73764092D01*
X176424841Y-73763908D01*
X176229606Y-73844578D01*
X176080103Y-73993820D01*
X175999092Y-74188914D01*
X175998908Y-74400159D01*
X171780200Y-74400159D01*
X171780200Y-71860159D01*
X178538908Y-71860159D01*
X178619578Y-72055394D01*
X178768820Y-72204897D01*
X178963914Y-72285908D01*
X179175159Y-72286092D01*
X179370394Y-72205422D01*
X179519897Y-72056180D01*
X179600908Y-71861086D01*
X179601092Y-71649841D01*
X179520422Y-71454606D01*
X179371180Y-71305103D01*
X179176086Y-71224092D01*
X178964841Y-71223908D01*
X178769606Y-71304578D01*
X178620103Y-71453820D01*
X178539092Y-71648914D01*
X178538908Y-71860159D01*
X171780200Y-71860159D01*
X171780200Y-69955159D01*
X174728908Y-69955159D01*
X174809578Y-70150394D01*
X174958820Y-70299897D01*
X175153914Y-70380908D01*
X175365159Y-70381092D01*
X175560394Y-70300422D01*
X175709897Y-70151180D01*
X175790908Y-69956086D01*
X175791092Y-69744841D01*
X175710422Y-69549606D01*
X175561180Y-69400103D01*
X175366086Y-69319092D01*
X175154841Y-69318908D01*
X174959606Y-69399578D01*
X174810103Y-69548820D01*
X174729092Y-69743914D01*
X174728908Y-69955159D01*
X171780200Y-69955159D01*
X171780200Y-66780159D01*
X172188908Y-66780159D01*
X172269578Y-66975394D01*
X172418820Y-67124897D01*
X172613914Y-67205908D01*
X172825159Y-67206092D01*
X173020394Y-67125422D01*
X173169897Y-66976180D01*
X173250908Y-66781086D01*
X173250908Y-66780159D01*
X173458908Y-66780159D01*
X173539578Y-66975394D01*
X173688820Y-67124897D01*
X173883914Y-67205908D01*
X174095159Y-67206092D01*
X174290394Y-67125422D01*
X174439897Y-66976180D01*
X174520908Y-66781086D01*
X174521092Y-66569841D01*
X174440422Y-66374606D01*
X174291180Y-66225103D01*
X174098656Y-66145159D01*
X182348908Y-66145159D01*
X182429578Y-66340394D01*
X182578820Y-66489897D01*
X182773914Y-66570908D01*
X182985159Y-66571092D01*
X183180394Y-66490422D01*
X183329897Y-66341180D01*
X183410908Y-66146086D01*
X183411092Y-65934841D01*
X183330422Y-65739606D01*
X183181180Y-65590103D01*
X182986086Y-65509092D01*
X182774841Y-65508908D01*
X182579606Y-65589578D01*
X182430103Y-65738820D01*
X182349092Y-65933914D01*
X182348908Y-66145159D01*
X174098656Y-66145159D01*
X174096086Y-66144092D01*
X173884841Y-66143908D01*
X173689606Y-66224578D01*
X173540103Y-66373820D01*
X173459092Y-66568914D01*
X173458908Y-66780159D01*
X173250908Y-66780159D01*
X173251092Y-66569841D01*
X173170422Y-66374606D01*
X173021180Y-66225103D01*
X172826086Y-66144092D01*
X172614841Y-66143908D01*
X172419606Y-66224578D01*
X172270103Y-66373820D01*
X172189092Y-66568914D01*
X172188908Y-66780159D01*
X171780200Y-66780159D01*
X171780200Y-65481200D01*
X185351400Y-65481200D01*
X185351400Y-75488800D01*
X185351400Y-75488800D01*
G37*
X185351400Y-75488800D02*
X171780200Y-75488800D01*
X171780200Y-75035159D01*
X182348908Y-75035159D01*
X182429578Y-75230394D01*
X182578820Y-75379897D01*
X182773914Y-75460908D01*
X182985159Y-75461092D01*
X183180394Y-75380422D01*
X183329897Y-75231180D01*
X183410908Y-75036086D01*
X183411092Y-74824841D01*
X183330422Y-74629606D01*
X183181180Y-74480103D01*
X182986086Y-74399092D01*
X182774841Y-74398908D01*
X182579606Y-74479578D01*
X182430103Y-74628820D01*
X182349092Y-74823914D01*
X182348908Y-75035159D01*
X171780200Y-75035159D01*
X171780200Y-74400159D01*
X175998908Y-74400159D01*
X176079578Y-74595394D01*
X176228820Y-74744897D01*
X176423914Y-74825908D01*
X176635159Y-74826092D01*
X176830394Y-74745422D01*
X176979897Y-74596180D01*
X177060908Y-74401086D01*
X177061092Y-74189841D01*
X176980422Y-73994606D01*
X176831180Y-73845103D01*
X176636086Y-73764092D01*
X176424841Y-73763908D01*
X176229606Y-73844578D01*
X176080103Y-73993820D01*
X175999092Y-74188914D01*
X175998908Y-74400159D01*
X171780200Y-74400159D01*
X171780200Y-71860159D01*
X178538908Y-71860159D01*
X178619578Y-72055394D01*
X178768820Y-72204897D01*
X178963914Y-72285908D01*
X179175159Y-72286092D01*
X179370394Y-72205422D01*
X179519897Y-72056180D01*
X179600908Y-71861086D01*
X179601092Y-71649841D01*
X179520422Y-71454606D01*
X179371180Y-71305103D01*
X179176086Y-71224092D01*
X178964841Y-71223908D01*
X178769606Y-71304578D01*
X178620103Y-71453820D01*
X178539092Y-71648914D01*
X178538908Y-71860159D01*
X171780200Y-71860159D01*
X171780200Y-69955159D01*
X174728908Y-69955159D01*
X174809578Y-70150394D01*
X174958820Y-70299897D01*
X175153914Y-70380908D01*
X175365159Y-70381092D01*
X175560394Y-70300422D01*
X175709897Y-70151180D01*
X175790908Y-69956086D01*
X175791092Y-69744841D01*
X175710422Y-69549606D01*
X175561180Y-69400103D01*
X175366086Y-69319092D01*
X175154841Y-69318908D01*
X174959606Y-69399578D01*
X174810103Y-69548820D01*
X174729092Y-69743914D01*
X174728908Y-69955159D01*
X171780200Y-69955159D01*
X171780200Y-66780159D01*
X172188908Y-66780159D01*
X172269578Y-66975394D01*
X172418820Y-67124897D01*
X172613914Y-67205908D01*
X172825159Y-67206092D01*
X173020394Y-67125422D01*
X173169897Y-66976180D01*
X173250908Y-66781086D01*
X173250908Y-66780159D01*
X173458908Y-66780159D01*
X173539578Y-66975394D01*
X173688820Y-67124897D01*
X173883914Y-67205908D01*
X174095159Y-67206092D01*
X174290394Y-67125422D01*
X174439897Y-66976180D01*
X174520908Y-66781086D01*
X174521092Y-66569841D01*
X174440422Y-66374606D01*
X174291180Y-66225103D01*
X174098656Y-66145159D01*
X182348908Y-66145159D01*
X182429578Y-66340394D01*
X182578820Y-66489897D01*
X182773914Y-66570908D01*
X182985159Y-66571092D01*
X183180394Y-66490422D01*
X183329897Y-66341180D01*
X183410908Y-66146086D01*
X183411092Y-65934841D01*
X183330422Y-65739606D01*
X183181180Y-65590103D01*
X182986086Y-65509092D01*
X182774841Y-65508908D01*
X182579606Y-65589578D01*
X182430103Y-65738820D01*
X182349092Y-65933914D01*
X182348908Y-66145159D01*
X174098656Y-66145159D01*
X174096086Y-66144092D01*
X173884841Y-66143908D01*
X173689606Y-66224578D01*
X173540103Y-66373820D01*
X173459092Y-66568914D01*
X173458908Y-66780159D01*
X173250908Y-66780159D01*
X173251092Y-66569841D01*
X173170422Y-66374606D01*
X173021180Y-66225103D01*
X172826086Y-66144092D01*
X172614841Y-66143908D01*
X172419606Y-66224578D01*
X172270103Y-66373820D01*
X172189092Y-66568914D01*
X172188908Y-66780159D01*
X171780200Y-66780159D01*
X171780200Y-65481200D01*
X185351400Y-65481200D01*
X185351400Y-75488800D01*
G36*
X159054800Y-76073000D02*
X159060803Y-76102646D01*
X159077868Y-76127621D01*
X159103305Y-76143989D01*
X159131000Y-76149200D01*
X185351400Y-76149200D01*
X185351400Y-128320800D01*
X159131000Y-128320800D01*
X159103305Y-128326011D01*
X159102405Y-128326590D01*
X159101354Y-128326803D01*
X159089714Y-128334757D01*
X159077868Y-128342379D01*
X159077264Y-128343264D01*
X159076379Y-128343868D01*
X159068757Y-128355714D01*
X159060803Y-128367354D01*
X159060590Y-128368405D01*
X159060011Y-128369305D01*
X159056083Y-128390179D01*
X159056092Y-128379841D01*
X158975422Y-128184606D01*
X158826180Y-128035103D01*
X158631086Y-127954092D01*
X158419841Y-127953908D01*
X158224606Y-128034578D01*
X158075103Y-128183820D01*
X157994092Y-128378914D01*
X157993908Y-128590159D01*
X158074578Y-128785394D01*
X158223820Y-128934897D01*
X158418914Y-129015908D01*
X158630159Y-129016092D01*
X158825394Y-128935422D01*
X158974897Y-128786180D01*
X159054800Y-128593754D01*
X159054800Y-140258800D01*
X135958600Y-140258800D01*
X135958600Y-139279715D01*
X139800612Y-139279715D01*
X139965324Y-139678348D01*
X140270048Y-139983604D01*
X140668393Y-140149012D01*
X141099715Y-140149388D01*
X141498348Y-139984676D01*
X141803604Y-139679952D01*
X141969012Y-139281607D01*
X141969013Y-139279715D01*
X142340612Y-139279715D01*
X142505324Y-139678348D01*
X142810048Y-139983604D01*
X143208393Y-140149012D01*
X143639715Y-140149388D01*
X144038348Y-139984676D01*
X144343604Y-139679952D01*
X144509012Y-139281607D01*
X144509388Y-138850285D01*
X144344676Y-138451652D01*
X144039952Y-138146396D01*
X143641607Y-137980988D01*
X143210285Y-137980612D01*
X142811652Y-138145324D01*
X142506396Y-138450048D01*
X142340988Y-138848393D01*
X142340612Y-139279715D01*
X141969013Y-139279715D01*
X141969388Y-138850285D01*
X141804676Y-138451652D01*
X141499952Y-138146396D01*
X141101607Y-137980988D01*
X140670285Y-137980612D01*
X140271652Y-138145324D01*
X139966396Y-138450048D01*
X139800988Y-138848393D01*
X139800612Y-139279715D01*
X135958600Y-139279715D01*
X135958600Y-137900159D01*
X152503908Y-137900159D01*
X152584578Y-138095394D01*
X152733820Y-138244897D01*
X152928914Y-138325908D01*
X153140159Y-138326092D01*
X153335394Y-138245422D01*
X153484897Y-138096180D01*
X153565908Y-137901086D01*
X153566092Y-137689841D01*
X153485422Y-137494606D01*
X153336180Y-137345103D01*
X153141086Y-137264092D01*
X152929841Y-137263908D01*
X152734606Y-137344578D01*
X152585103Y-137493820D01*
X152504092Y-137688914D01*
X152503908Y-137900159D01*
X135958600Y-137900159D01*
X135958600Y-136739715D01*
X139800612Y-136739715D01*
X139965324Y-137138348D01*
X140270048Y-137443604D01*
X140668393Y-137609012D01*
X141099715Y-137609388D01*
X141498348Y-137444676D01*
X141803604Y-137139952D01*
X141969012Y-136741607D01*
X141969013Y-136739715D01*
X142340612Y-136739715D01*
X142505324Y-137138348D01*
X142810048Y-137443604D01*
X143208393Y-137609012D01*
X143639715Y-137609388D01*
X144038348Y-137444676D01*
X144218178Y-137265159D01*
X151233908Y-137265159D01*
X151314578Y-137460394D01*
X151463820Y-137609897D01*
X151658914Y-137690908D01*
X151870159Y-137691092D01*
X152065394Y-137610422D01*
X152214897Y-137461180D01*
X152295908Y-137266086D01*
X152296092Y-137054841D01*
X152215422Y-136859606D01*
X152066180Y-136710103D01*
X151873656Y-136630159D01*
X152503908Y-136630159D01*
X152584578Y-136825394D01*
X152733820Y-136974897D01*
X152928914Y-137055908D01*
X153140159Y-137056092D01*
X153335394Y-136975422D01*
X153484897Y-136826180D01*
X153565908Y-136631086D01*
X153566092Y-136419841D01*
X153485422Y-136224606D01*
X153336180Y-136075103D01*
X153141086Y-135994092D01*
X152929841Y-135993908D01*
X152734606Y-136074578D01*
X152585103Y-136223820D01*
X152504092Y-136418914D01*
X152503908Y-136630159D01*
X151873656Y-136630159D01*
X151871086Y-136629092D01*
X151659841Y-136628908D01*
X151464606Y-136709578D01*
X151315103Y-136858820D01*
X151234092Y-137053914D01*
X151233908Y-137265159D01*
X144218178Y-137265159D01*
X144343604Y-137139952D01*
X144509012Y-136741607D01*
X144509388Y-136310285D01*
X144379181Y-135995159D01*
X151233908Y-135995159D01*
X151314578Y-136190394D01*
X151463820Y-136339897D01*
X151658914Y-136420908D01*
X151870159Y-136421092D01*
X152065394Y-136340422D01*
X152214897Y-136191180D01*
X152295908Y-135996086D01*
X152296092Y-135784841D01*
X152215422Y-135589606D01*
X152066180Y-135440103D01*
X151871086Y-135359092D01*
X151659841Y-135358908D01*
X151464606Y-135439578D01*
X151315103Y-135588820D01*
X151234092Y-135783914D01*
X151233908Y-135995159D01*
X144379181Y-135995159D01*
X144344676Y-135911652D01*
X144039952Y-135606396D01*
X143641607Y-135440988D01*
X143210285Y-135440612D01*
X142811652Y-135605324D01*
X142506396Y-135910048D01*
X142340988Y-136308393D01*
X142340612Y-136739715D01*
X141969013Y-136739715D01*
X141969388Y-136310285D01*
X141804676Y-135911652D01*
X141499952Y-135606396D01*
X141101607Y-135440988D01*
X140670285Y-135440612D01*
X140271652Y-135605324D01*
X139966396Y-135910048D01*
X139800988Y-136308393D01*
X139800612Y-136739715D01*
X135958600Y-136739715D01*
X135958600Y-134199715D01*
X139800612Y-134199715D01*
X139965324Y-134598348D01*
X140270048Y-134903604D01*
X140668393Y-135069012D01*
X141099715Y-135069388D01*
X141498348Y-134904676D01*
X141803604Y-134599952D01*
X141969012Y-134201607D01*
X141969013Y-134199715D01*
X142340612Y-134199715D01*
X142505324Y-134598348D01*
X142810048Y-134903604D01*
X143208393Y-135069012D01*
X143639715Y-135069388D01*
X144038348Y-134904676D01*
X144218178Y-134725159D01*
X151868908Y-134725159D01*
X151949578Y-134920394D01*
X152098820Y-135069897D01*
X152293914Y-135150908D01*
X152505159Y-135151092D01*
X152700394Y-135070422D01*
X152849897Y-134921180D01*
X152930908Y-134726086D01*
X152931092Y-134514841D01*
X152850422Y-134319606D01*
X152701180Y-134170103D01*
X152506086Y-134089092D01*
X152294841Y-134088908D01*
X152099606Y-134169578D01*
X151950103Y-134318820D01*
X151869092Y-134513914D01*
X151868908Y-134725159D01*
X144218178Y-134725159D01*
X144343604Y-134599952D01*
X144509012Y-134201607D01*
X144509388Y-133770285D01*
X144344676Y-133371652D01*
X144039952Y-133066396D01*
X143641607Y-132900988D01*
X143210285Y-132900612D01*
X142811652Y-133065324D01*
X142506396Y-133370048D01*
X142340988Y-133768393D01*
X142340612Y-134199715D01*
X141969013Y-134199715D01*
X141969388Y-133770285D01*
X141804676Y-133371652D01*
X141499952Y-133066396D01*
X141101607Y-132900988D01*
X140670285Y-132900612D01*
X140271652Y-133065324D01*
X139966396Y-133370048D01*
X139800988Y-133768393D01*
X139800612Y-134199715D01*
X135958600Y-134199715D01*
X135958600Y-131659715D01*
X139800612Y-131659715D01*
X139965324Y-132058348D01*
X140270048Y-132363604D01*
X140668393Y-132529012D01*
X141099715Y-132529388D01*
X141498348Y-132364676D01*
X141803604Y-132059952D01*
X141969012Y-131661607D01*
X141969013Y-131659715D01*
X142340612Y-131659715D01*
X142505324Y-132058348D01*
X142810048Y-132363604D01*
X143208393Y-132529012D01*
X143639715Y-132529388D01*
X144038348Y-132364676D01*
X144218178Y-132185159D01*
X151233908Y-132185159D01*
X151314578Y-132380394D01*
X151463820Y-132529897D01*
X151658914Y-132610908D01*
X151870159Y-132611092D01*
X152065394Y-132530422D01*
X152214897Y-132381180D01*
X152295908Y-132186086D01*
X152296092Y-131974841D01*
X152215422Y-131779606D01*
X152066180Y-131630103D01*
X151873656Y-131550159D01*
X152503908Y-131550159D01*
X152584578Y-131745394D01*
X152733820Y-131894897D01*
X152928914Y-131975908D01*
X153140159Y-131976092D01*
X153335394Y-131895422D01*
X153484897Y-131746180D01*
X153565908Y-131551086D01*
X153566092Y-131339841D01*
X153485422Y-131144606D01*
X153336180Y-130995103D01*
X153141086Y-130914092D01*
X152929841Y-130913908D01*
X152734606Y-130994578D01*
X152585103Y-131143820D01*
X152504092Y-131338914D01*
X152503908Y-131550159D01*
X151873656Y-131550159D01*
X151871086Y-131549092D01*
X151659841Y-131548908D01*
X151464606Y-131629578D01*
X151315103Y-131778820D01*
X151234092Y-131973914D01*
X151233908Y-132185159D01*
X144218178Y-132185159D01*
X144343604Y-132059952D01*
X144509012Y-131661607D01*
X144509388Y-131230285D01*
X144379181Y-130915159D01*
X151233908Y-130915159D01*
X151314578Y-131110394D01*
X151463820Y-131259897D01*
X151658914Y-131340908D01*
X151870159Y-131341092D01*
X152065394Y-131260422D01*
X152214897Y-131111180D01*
X152295908Y-130916086D01*
X152296092Y-130704841D01*
X152215422Y-130509606D01*
X152066180Y-130360103D01*
X151873656Y-130280159D01*
X152503908Y-130280159D01*
X152584578Y-130475394D01*
X152733820Y-130624897D01*
X152928914Y-130705908D01*
X153140159Y-130706092D01*
X153335394Y-130625422D01*
X153484897Y-130476180D01*
X153565908Y-130281086D01*
X153566092Y-130069841D01*
X153485422Y-129874606D01*
X153336180Y-129725103D01*
X153141086Y-129644092D01*
X152929841Y-129643908D01*
X152734606Y-129724578D01*
X152585103Y-129873820D01*
X152504092Y-130068914D01*
X152503908Y-130280159D01*
X151873656Y-130280159D01*
X151871086Y-130279092D01*
X151659841Y-130278908D01*
X151464606Y-130359578D01*
X151315103Y-130508820D01*
X151234092Y-130703914D01*
X151233908Y-130915159D01*
X144379181Y-130915159D01*
X144344676Y-130831652D01*
X144039952Y-130526396D01*
X143641607Y-130360988D01*
X143210285Y-130360612D01*
X142811652Y-130525324D01*
X142506396Y-130830048D01*
X142340988Y-131228393D01*
X142340612Y-131659715D01*
X141969013Y-131659715D01*
X141969388Y-131230285D01*
X141804676Y-130831652D01*
X141499952Y-130526396D01*
X141101607Y-130360988D01*
X140670285Y-130360612D01*
X140271652Y-130525324D01*
X139966396Y-130830048D01*
X139800988Y-131228393D01*
X139800612Y-131659715D01*
X135958600Y-131659715D01*
X135958600Y-129119715D01*
X139800612Y-129119715D01*
X139965324Y-129518348D01*
X140270048Y-129823604D01*
X140668393Y-129989012D01*
X141099715Y-129989388D01*
X141498348Y-129824676D01*
X141803604Y-129519952D01*
X141969012Y-129121607D01*
X141969013Y-129119715D01*
X142340612Y-129119715D01*
X142505324Y-129518348D01*
X142810048Y-129823604D01*
X143208393Y-129989012D01*
X143639715Y-129989388D01*
X144038348Y-129824676D01*
X144343604Y-129519952D01*
X144509012Y-129121607D01*
X144509388Y-128690285D01*
X144344676Y-128291652D01*
X144039952Y-127986396D01*
X143641607Y-127820988D01*
X143210285Y-127820612D01*
X142811652Y-127985324D01*
X142506396Y-128290048D01*
X142340988Y-128688393D01*
X142340612Y-129119715D01*
X141969013Y-129119715D01*
X141969388Y-128690285D01*
X141804676Y-128291652D01*
X141499952Y-127986396D01*
X141101607Y-127820988D01*
X140670285Y-127820612D01*
X140271652Y-127985324D01*
X139966396Y-128290048D01*
X139800988Y-128688393D01*
X139800612Y-129119715D01*
X135958600Y-129119715D01*
X135958600Y-126579715D01*
X139800612Y-126579715D01*
X139965324Y-126978348D01*
X140270048Y-127283604D01*
X140668393Y-127449012D01*
X141099715Y-127449388D01*
X141498348Y-127284676D01*
X141803604Y-126979952D01*
X141969012Y-126581607D01*
X141969013Y-126579715D01*
X142340612Y-126579715D01*
X142505324Y-126978348D01*
X142810048Y-127283604D01*
X143208393Y-127449012D01*
X143639715Y-127449388D01*
X144038348Y-127284676D01*
X144343604Y-126979952D01*
X144509012Y-126581607D01*
X144509388Y-126150285D01*
X144344676Y-125751652D01*
X144039952Y-125446396D01*
X143641607Y-125280988D01*
X143210285Y-125280612D01*
X142811652Y-125445324D01*
X142506396Y-125750048D01*
X142340988Y-126148393D01*
X142340612Y-126579715D01*
X141969013Y-126579715D01*
X141969388Y-126150285D01*
X141804676Y-125751652D01*
X141499952Y-125446396D01*
X141101607Y-125280988D01*
X140670285Y-125280612D01*
X140271652Y-125445324D01*
X139966396Y-125750048D01*
X139800988Y-126148393D01*
X139800612Y-126579715D01*
X135958600Y-126579715D01*
X135958600Y-124039715D01*
X139800612Y-124039715D01*
X139965324Y-124438348D01*
X140270048Y-124743604D01*
X140668393Y-124909012D01*
X141099715Y-124909388D01*
X141498348Y-124744676D01*
X141803604Y-124439952D01*
X141969012Y-124041607D01*
X141969013Y-124039715D01*
X142340612Y-124039715D01*
X142505324Y-124438348D01*
X142810048Y-124743604D01*
X143208393Y-124909012D01*
X143639715Y-124909388D01*
X144038348Y-124744676D01*
X144343604Y-124439952D01*
X144509012Y-124041607D01*
X144509388Y-123610285D01*
X144344676Y-123211652D01*
X144342743Y-123209715D01*
X163070612Y-123209715D01*
X163235324Y-123608348D01*
X163540048Y-123913604D01*
X163938393Y-124079012D01*
X164369715Y-124079388D01*
X164768348Y-123914676D01*
X165073604Y-123609952D01*
X165239012Y-123211607D01*
X165239013Y-123209715D01*
X165610612Y-123209715D01*
X165775324Y-123608348D01*
X166080048Y-123913604D01*
X166478393Y-124079012D01*
X166909715Y-124079388D01*
X167308348Y-123914676D01*
X167613604Y-123609952D01*
X167779012Y-123211607D01*
X167779388Y-122780285D01*
X167614676Y-122381652D01*
X167309952Y-122076396D01*
X166911607Y-121910988D01*
X166480285Y-121910612D01*
X166081652Y-122075324D01*
X165776396Y-122380048D01*
X165610988Y-122778393D01*
X165610612Y-123209715D01*
X165239013Y-123209715D01*
X165239388Y-122780285D01*
X165074676Y-122381652D01*
X164769952Y-122076396D01*
X164371607Y-121910988D01*
X163940285Y-121910612D01*
X163541652Y-122075324D01*
X163236396Y-122380048D01*
X163070988Y-122778393D01*
X163070612Y-123209715D01*
X144342743Y-123209715D01*
X144039952Y-122906396D01*
X143641607Y-122740988D01*
X143210285Y-122740612D01*
X142811652Y-122905324D01*
X142506396Y-123210048D01*
X142340988Y-123608393D01*
X142340612Y-124039715D01*
X141969013Y-124039715D01*
X141969388Y-123610285D01*
X141804676Y-123211652D01*
X141499952Y-122906396D01*
X141101607Y-122740988D01*
X140670285Y-122740612D01*
X140271652Y-122905324D01*
X139966396Y-123210048D01*
X139800988Y-123608393D01*
X139800612Y-124039715D01*
X135958600Y-124039715D01*
X135958600Y-121499715D01*
X139800612Y-121499715D01*
X139965324Y-121898348D01*
X140270048Y-122203604D01*
X140668393Y-122369012D01*
X141099715Y-122369388D01*
X141498348Y-122204676D01*
X141803604Y-121899952D01*
X141969012Y-121501607D01*
X141969013Y-121499715D01*
X142340612Y-121499715D01*
X142505324Y-121898348D01*
X142810048Y-122203604D01*
X143208393Y-122369012D01*
X143639715Y-122369388D01*
X144038348Y-122204676D01*
X144343604Y-121899952D01*
X144509012Y-121501607D01*
X144509388Y-121070285D01*
X144344676Y-120671652D01*
X144342743Y-120669715D01*
X163070612Y-120669715D01*
X163235324Y-121068348D01*
X163540048Y-121373604D01*
X163938393Y-121539012D01*
X164369715Y-121539388D01*
X164768348Y-121374676D01*
X165073604Y-121069952D01*
X165239012Y-120671607D01*
X165239013Y-120669715D01*
X165610612Y-120669715D01*
X165775324Y-121068348D01*
X166080048Y-121373604D01*
X166478393Y-121539012D01*
X166909715Y-121539388D01*
X167308348Y-121374676D01*
X167613604Y-121069952D01*
X167779012Y-120671607D01*
X167779388Y-120240285D01*
X167614676Y-119841652D01*
X167309952Y-119536396D01*
X166911607Y-119370988D01*
X166480285Y-119370612D01*
X166081652Y-119535324D01*
X165776396Y-119840048D01*
X165610988Y-120238393D01*
X165610612Y-120669715D01*
X165239013Y-120669715D01*
X165239388Y-120240285D01*
X165074676Y-119841652D01*
X164769952Y-119536396D01*
X164371607Y-119370988D01*
X163940285Y-119370612D01*
X163541652Y-119535324D01*
X163236396Y-119840048D01*
X163070988Y-120238393D01*
X163070612Y-120669715D01*
X144342743Y-120669715D01*
X144039952Y-120366396D01*
X143641607Y-120200988D01*
X143210285Y-120200612D01*
X142811652Y-120365324D01*
X142506396Y-120670048D01*
X142340988Y-121068393D01*
X142340612Y-121499715D01*
X141969013Y-121499715D01*
X141969388Y-121070285D01*
X141804676Y-120671652D01*
X141499952Y-120366396D01*
X141101607Y-120200988D01*
X140670285Y-120200612D01*
X140271652Y-120365324D01*
X139966396Y-120670048D01*
X139800988Y-121068393D01*
X139800612Y-121499715D01*
X135958600Y-121499715D01*
X135958600Y-118959715D01*
X139800612Y-118959715D01*
X139965324Y-119358348D01*
X140270048Y-119663604D01*
X140668393Y-119829012D01*
X141099715Y-119829388D01*
X141498348Y-119664676D01*
X141803604Y-119359952D01*
X141969012Y-118961607D01*
X141969013Y-118959715D01*
X142340612Y-118959715D01*
X142505324Y-119358348D01*
X142810048Y-119663604D01*
X143208393Y-119829012D01*
X143639715Y-119829388D01*
X144038348Y-119664676D01*
X144343604Y-119359952D01*
X144509012Y-118961607D01*
X144509388Y-118530285D01*
X144344676Y-118131652D01*
X144039952Y-117826396D01*
X143641607Y-117660988D01*
X143210285Y-117660612D01*
X142811652Y-117825324D01*
X142506396Y-118130048D01*
X142340988Y-118528393D01*
X142340612Y-118959715D01*
X141969013Y-118959715D01*
X141969388Y-118530285D01*
X141804676Y-118131652D01*
X141499952Y-117826396D01*
X141101607Y-117660988D01*
X140670285Y-117660612D01*
X140271652Y-117825324D01*
X139966396Y-118130048D01*
X139800988Y-118528393D01*
X139800612Y-118959715D01*
X135958600Y-118959715D01*
X135958600Y-117384684D01*
X156261308Y-117384684D01*
X156341613Y-117579037D01*
X156490181Y-117727864D01*
X156684394Y-117808508D01*
X156894684Y-117808692D01*
X157089037Y-117728387D01*
X157237864Y-117579819D01*
X157318508Y-117385606D01*
X157318508Y-117384684D01*
X160531308Y-117384684D01*
X160611613Y-117579037D01*
X160760181Y-117727864D01*
X160954394Y-117808508D01*
X161164684Y-117808692D01*
X161359037Y-117728387D01*
X161507864Y-117579819D01*
X161588508Y-117385606D01*
X161588508Y-117384684D01*
X164761308Y-117384684D01*
X164841613Y-117579037D01*
X164990181Y-117727864D01*
X165184394Y-117808508D01*
X165394684Y-117808692D01*
X165589037Y-117728387D01*
X165737864Y-117579819D01*
X165818508Y-117385606D01*
X165818508Y-117384684D01*
X171031308Y-117384684D01*
X171111613Y-117579037D01*
X171260181Y-117727864D01*
X171454394Y-117808508D01*
X171664684Y-117808692D01*
X171859037Y-117728387D01*
X172007864Y-117579819D01*
X172088508Y-117385606D01*
X172088692Y-117175316D01*
X172047112Y-117074684D01*
X180251308Y-117074684D01*
X180331613Y-117269037D01*
X180480181Y-117417864D01*
X180674394Y-117498508D01*
X180884684Y-117498692D01*
X181079037Y-117418387D01*
X181227864Y-117269819D01*
X181308508Y-117075606D01*
X181308692Y-116865316D01*
X181228387Y-116670963D01*
X181079819Y-116522136D01*
X180885606Y-116441492D01*
X180675316Y-116441308D01*
X180480963Y-116521613D01*
X180332136Y-116670181D01*
X180251492Y-116864394D01*
X180251308Y-117074684D01*
X172047112Y-117074684D01*
X172008387Y-116980963D01*
X171859819Y-116832136D01*
X171665606Y-116751492D01*
X171455316Y-116751308D01*
X171260963Y-116831613D01*
X171112136Y-116980181D01*
X171031492Y-117174394D01*
X171031308Y-117384684D01*
X165818508Y-117384684D01*
X165818692Y-117175316D01*
X165738387Y-116980963D01*
X165589819Y-116832136D01*
X165395606Y-116751492D01*
X165185316Y-116751308D01*
X164990963Y-116831613D01*
X164842136Y-116980181D01*
X164761492Y-117174394D01*
X164761308Y-117384684D01*
X161588508Y-117384684D01*
X161588692Y-117175316D01*
X161508387Y-116980963D01*
X161359819Y-116832136D01*
X161165606Y-116751492D01*
X160955316Y-116751308D01*
X160760963Y-116831613D01*
X160612136Y-116980181D01*
X160531492Y-117174394D01*
X160531308Y-117384684D01*
X157318508Y-117384684D01*
X157318692Y-117175316D01*
X157238387Y-116980963D01*
X157089819Y-116832136D01*
X156895606Y-116751492D01*
X156685316Y-116751308D01*
X156490963Y-116831613D01*
X156342136Y-116980181D01*
X156261492Y-117174394D01*
X156261308Y-117384684D01*
X135958600Y-117384684D01*
X135958600Y-116419715D01*
X139800612Y-116419715D01*
X139965324Y-116818348D01*
X140270048Y-117123604D01*
X140668393Y-117289012D01*
X141099715Y-117289388D01*
X141498348Y-117124676D01*
X141803604Y-116819952D01*
X141969012Y-116421607D01*
X141969013Y-116419715D01*
X142340612Y-116419715D01*
X142505324Y-116818348D01*
X142810048Y-117123604D01*
X143208393Y-117289012D01*
X143639715Y-117289388D01*
X144038348Y-117124676D01*
X144343604Y-116819952D01*
X144509012Y-116421607D01*
X144509388Y-115990285D01*
X144344676Y-115591652D01*
X144039952Y-115286396D01*
X143641607Y-115120988D01*
X143210285Y-115120612D01*
X142811652Y-115285324D01*
X142506396Y-115590048D01*
X142340988Y-115988393D01*
X142340612Y-116419715D01*
X141969013Y-116419715D01*
X141969388Y-115990285D01*
X141804676Y-115591652D01*
X141499952Y-115286396D01*
X141101607Y-115120988D01*
X140670285Y-115120612D01*
X140271652Y-115285324D01*
X139966396Y-115590048D01*
X139800988Y-115988393D01*
X139800612Y-116419715D01*
X135958600Y-116419715D01*
X135958600Y-113879715D01*
X139800612Y-113879715D01*
X139965324Y-114278348D01*
X140270048Y-114583604D01*
X140668393Y-114749012D01*
X141099715Y-114749388D01*
X141498348Y-114584676D01*
X141803604Y-114279952D01*
X141969012Y-113881607D01*
X141969013Y-113879715D01*
X142340612Y-113879715D01*
X142505324Y-114278348D01*
X142810048Y-114583604D01*
X143208393Y-114749012D01*
X143639715Y-114749388D01*
X144038348Y-114584676D01*
X144343604Y-114279952D01*
X144509012Y-113881607D01*
X144509388Y-113450285D01*
X144344676Y-113051652D01*
X144039952Y-112746396D01*
X143641607Y-112580988D01*
X143210285Y-112580612D01*
X142811652Y-112745324D01*
X142506396Y-113050048D01*
X142340988Y-113448393D01*
X142340612Y-113879715D01*
X141969013Y-113879715D01*
X141969388Y-113450285D01*
X141804676Y-113051652D01*
X141499952Y-112746396D01*
X141101607Y-112580988D01*
X140670285Y-112580612D01*
X140271652Y-112745324D01*
X139966396Y-113050048D01*
X139800988Y-113448393D01*
X139800612Y-113879715D01*
X135958600Y-113879715D01*
X135958600Y-111339715D01*
X139800612Y-111339715D01*
X139965324Y-111738348D01*
X140270048Y-112043604D01*
X140668393Y-112209012D01*
X141099715Y-112209388D01*
X141498348Y-112044676D01*
X141803604Y-111739952D01*
X141969012Y-111341607D01*
X141969013Y-111339715D01*
X142340612Y-111339715D01*
X142505324Y-111738348D01*
X142810048Y-112043604D01*
X143208393Y-112209012D01*
X143639715Y-112209388D01*
X144038348Y-112044676D01*
X144108462Y-111974684D01*
X146351308Y-111974684D01*
X146431613Y-112169037D01*
X146580181Y-112317864D01*
X146774394Y-112398508D01*
X146984684Y-112398692D01*
X147179037Y-112318387D01*
X147327864Y-112169819D01*
X147408508Y-111975606D01*
X147408692Y-111765316D01*
X147336319Y-111590159D01*
X152793908Y-111590159D01*
X152874578Y-111785394D01*
X153023820Y-111934897D01*
X153218914Y-112015908D01*
X153430159Y-112016092D01*
X153625394Y-111935422D01*
X153774897Y-111786180D01*
X153855908Y-111591086D01*
X153855908Y-111590159D01*
X154293908Y-111590159D01*
X154374578Y-111785394D01*
X154523820Y-111934897D01*
X154718914Y-112015908D01*
X154930159Y-112016092D01*
X155125394Y-111935422D01*
X155274897Y-111786180D01*
X155323270Y-111669684D01*
X156146308Y-111669684D01*
X156226613Y-111864037D01*
X156375181Y-112012864D01*
X156569394Y-112093508D01*
X156779684Y-112093692D01*
X156974037Y-112013387D01*
X157122864Y-111864819D01*
X157203508Y-111670606D01*
X157203508Y-111669684D01*
X160146308Y-111669684D01*
X160226613Y-111864037D01*
X160375181Y-112012864D01*
X160569394Y-112093508D01*
X160779684Y-112093692D01*
X160974037Y-112013387D01*
X161122864Y-111864819D01*
X161203508Y-111670606D01*
X161203508Y-111669684D01*
X165146308Y-111669684D01*
X165226613Y-111864037D01*
X165375181Y-112012864D01*
X165569394Y-112093508D01*
X165779684Y-112093692D01*
X165974037Y-112013387D01*
X166122864Y-111864819D01*
X166203508Y-111670606D01*
X166203692Y-111460316D01*
X166123387Y-111265963D01*
X165974819Y-111117136D01*
X165780606Y-111036492D01*
X165570316Y-111036308D01*
X165375963Y-111116613D01*
X165227136Y-111265181D01*
X165146492Y-111459394D01*
X165146308Y-111669684D01*
X161203508Y-111669684D01*
X161203692Y-111460316D01*
X161123387Y-111265963D01*
X160974819Y-111117136D01*
X160780606Y-111036492D01*
X160570316Y-111036308D01*
X160375963Y-111116613D01*
X160227136Y-111265181D01*
X160146492Y-111459394D01*
X160146308Y-111669684D01*
X157203508Y-111669684D01*
X157203692Y-111460316D01*
X157123387Y-111265963D01*
X156974819Y-111117136D01*
X156780606Y-111036492D01*
X156570316Y-111036308D01*
X156375963Y-111116613D01*
X156227136Y-111265181D01*
X156146492Y-111459394D01*
X156146308Y-111669684D01*
X155323270Y-111669684D01*
X155355908Y-111591086D01*
X155356092Y-111379841D01*
X155275422Y-111184606D01*
X155126180Y-111035103D01*
X154931086Y-110954092D01*
X154719841Y-110953908D01*
X154524606Y-111034578D01*
X154375103Y-111183820D01*
X154294092Y-111378914D01*
X154293908Y-111590159D01*
X153855908Y-111590159D01*
X153856092Y-111379841D01*
X153775422Y-111184606D01*
X153626180Y-111035103D01*
X153431086Y-110954092D01*
X153219841Y-110953908D01*
X153024606Y-111034578D01*
X152875103Y-111183820D01*
X152794092Y-111378914D01*
X152793908Y-111590159D01*
X147336319Y-111590159D01*
X147328387Y-111570963D01*
X147179819Y-111422136D01*
X146985606Y-111341492D01*
X146775316Y-111341308D01*
X146580963Y-111421613D01*
X146432136Y-111570181D01*
X146351492Y-111764394D01*
X146351308Y-111974684D01*
X144108462Y-111974684D01*
X144343604Y-111739952D01*
X144509012Y-111341607D01*
X144509388Y-110910285D01*
X144377115Y-110590159D01*
X167993908Y-110590159D01*
X168074578Y-110785394D01*
X168223820Y-110934897D01*
X168418914Y-111015908D01*
X168630159Y-111016092D01*
X168825394Y-110935422D01*
X168974897Y-110786180D01*
X169055908Y-110591086D01*
X169055908Y-110590159D01*
X169493908Y-110590159D01*
X169574578Y-110785394D01*
X169723820Y-110934897D01*
X169918914Y-111015908D01*
X170130159Y-111016092D01*
X170325394Y-110935422D01*
X170474897Y-110786180D01*
X170555908Y-110591086D01*
X170556092Y-110379841D01*
X170475422Y-110184606D01*
X170380666Y-110089684D01*
X183426308Y-110089684D01*
X183506613Y-110284037D01*
X183655181Y-110432864D01*
X183849394Y-110513508D01*
X184059684Y-110513692D01*
X184254037Y-110433387D01*
X184402864Y-110284819D01*
X184483508Y-110090606D01*
X184483692Y-109880316D01*
X184403387Y-109685963D01*
X184254819Y-109537136D01*
X184060606Y-109456492D01*
X183850316Y-109456308D01*
X183655963Y-109536613D01*
X183507136Y-109685181D01*
X183426492Y-109879394D01*
X183426308Y-110089684D01*
X170380666Y-110089684D01*
X170326180Y-110035103D01*
X170131086Y-109954092D01*
X169919841Y-109953908D01*
X169724606Y-110034578D01*
X169575103Y-110183820D01*
X169494092Y-110378914D01*
X169493908Y-110590159D01*
X169055908Y-110590159D01*
X169056092Y-110379841D01*
X168975422Y-110184606D01*
X168826180Y-110035103D01*
X168631086Y-109954092D01*
X168419841Y-109953908D01*
X168224606Y-110034578D01*
X168075103Y-110183820D01*
X167994092Y-110378914D01*
X167993908Y-110590159D01*
X144377115Y-110590159D01*
X144344676Y-110511652D01*
X144039952Y-110206396D01*
X143760024Y-110090159D01*
X154293908Y-110090159D01*
X154374578Y-110285394D01*
X154523820Y-110434897D01*
X154718914Y-110515908D01*
X154930159Y-110516092D01*
X155125394Y-110435422D01*
X155274897Y-110286180D01*
X155355908Y-110091086D01*
X155355908Y-110090159D01*
X155793908Y-110090159D01*
X155874578Y-110285394D01*
X156023820Y-110434897D01*
X156218914Y-110515908D01*
X156430159Y-110516092D01*
X156625394Y-110435422D01*
X156774897Y-110286180D01*
X156855908Y-110091086D01*
X156856092Y-109879841D01*
X156775422Y-109684606D01*
X156626180Y-109535103D01*
X156431086Y-109454092D01*
X156219841Y-109453908D01*
X156024606Y-109534578D01*
X155875103Y-109683820D01*
X155794092Y-109878914D01*
X155793908Y-110090159D01*
X155355908Y-110090159D01*
X155356092Y-109879841D01*
X155275422Y-109684606D01*
X155126180Y-109535103D01*
X154931086Y-109454092D01*
X154719841Y-109453908D01*
X154524606Y-109534578D01*
X154375103Y-109683820D01*
X154294092Y-109878914D01*
X154293908Y-110090159D01*
X143760024Y-110090159D01*
X143641607Y-110040988D01*
X143210285Y-110040612D01*
X142811652Y-110205324D01*
X142506396Y-110510048D01*
X142340988Y-110908393D01*
X142340612Y-111339715D01*
X141969013Y-111339715D01*
X141969388Y-110910285D01*
X141804676Y-110511652D01*
X141499952Y-110206396D01*
X141101607Y-110040988D01*
X140670285Y-110040612D01*
X140271652Y-110205324D01*
X139966396Y-110510048D01*
X139800988Y-110908393D01*
X139800612Y-111339715D01*
X135958600Y-111339715D01*
X135958600Y-108799715D01*
X139800612Y-108799715D01*
X139965324Y-109198348D01*
X140270048Y-109503604D01*
X140668393Y-109669012D01*
X141099715Y-109669388D01*
X141498348Y-109504676D01*
X141803604Y-109199952D01*
X141969012Y-108801607D01*
X141969013Y-108799715D01*
X142340612Y-108799715D01*
X142505324Y-109198348D01*
X142810048Y-109503604D01*
X143208393Y-109669012D01*
X143639715Y-109669388D01*
X144038348Y-109504676D01*
X144343604Y-109199952D01*
X144389194Y-109090159D01*
X166493908Y-109090159D01*
X166574578Y-109285394D01*
X166723820Y-109434897D01*
X166918914Y-109515908D01*
X167130159Y-109516092D01*
X167325394Y-109435422D01*
X167474897Y-109286180D01*
X167555908Y-109091086D01*
X167555908Y-109090159D01*
X167993908Y-109090159D01*
X168074578Y-109285394D01*
X168223820Y-109434897D01*
X168418914Y-109515908D01*
X168630159Y-109516092D01*
X168825394Y-109435422D01*
X168974897Y-109286180D01*
X169055908Y-109091086D01*
X169056092Y-108879841D01*
X168975422Y-108684606D01*
X168826180Y-108535103D01*
X168631086Y-108454092D01*
X168419841Y-108453908D01*
X168224606Y-108534578D01*
X168075103Y-108683820D01*
X167994092Y-108878914D01*
X167993908Y-109090159D01*
X167555908Y-109090159D01*
X167556092Y-108879841D01*
X167475422Y-108684606D01*
X167326180Y-108535103D01*
X167131086Y-108454092D01*
X166919841Y-108453908D01*
X166724606Y-108534578D01*
X166575103Y-108683820D01*
X166494092Y-108878914D01*
X166493908Y-109090159D01*
X144389194Y-109090159D01*
X144509012Y-108801607D01*
X144509196Y-108590159D01*
X155793908Y-108590159D01*
X155874578Y-108785394D01*
X156023820Y-108934897D01*
X156218914Y-109015908D01*
X156430159Y-109016092D01*
X156625394Y-108935422D01*
X156774897Y-108786180D01*
X156855908Y-108591086D01*
X156855908Y-108590159D01*
X157293908Y-108590159D01*
X157374578Y-108785394D01*
X157523820Y-108934897D01*
X157718914Y-109015908D01*
X157930159Y-109016092D01*
X158125394Y-108935422D01*
X158274897Y-108786180D01*
X158355908Y-108591086D01*
X158356092Y-108379841D01*
X158275422Y-108184606D01*
X158126180Y-108035103D01*
X157931086Y-107954092D01*
X157719841Y-107953908D01*
X157524606Y-108034578D01*
X157375103Y-108183820D01*
X157294092Y-108378914D01*
X157293908Y-108590159D01*
X156855908Y-108590159D01*
X156856092Y-108379841D01*
X156775422Y-108184606D01*
X156626180Y-108035103D01*
X156431086Y-107954092D01*
X156219841Y-107953908D01*
X156024606Y-108034578D01*
X155875103Y-108183820D01*
X155794092Y-108378914D01*
X155793908Y-108590159D01*
X144509196Y-108590159D01*
X144509388Y-108370285D01*
X144344676Y-107971652D01*
X144039952Y-107666396D01*
X143641607Y-107500988D01*
X143210285Y-107500612D01*
X142811652Y-107665324D01*
X142506396Y-107970048D01*
X142340988Y-108368393D01*
X142340612Y-108799715D01*
X141969013Y-108799715D01*
X141969388Y-108370285D01*
X141804676Y-107971652D01*
X141499952Y-107666396D01*
X141101607Y-107500988D01*
X140670285Y-107500612D01*
X140271652Y-107665324D01*
X139966396Y-107970048D01*
X139800988Y-108368393D01*
X139800612Y-108799715D01*
X135958600Y-108799715D01*
X135958600Y-107204684D01*
X146351308Y-107204684D01*
X146431613Y-107399037D01*
X146580181Y-107547864D01*
X146774394Y-107628508D01*
X146984684Y-107628692D01*
X147077941Y-107590159D01*
X164993908Y-107590159D01*
X165074578Y-107785394D01*
X165223820Y-107934897D01*
X165418914Y-108015908D01*
X165630159Y-108016092D01*
X165825394Y-107935422D01*
X165974897Y-107786180D01*
X166055908Y-107591086D01*
X166055908Y-107590159D01*
X166493908Y-107590159D01*
X166574578Y-107785394D01*
X166723820Y-107934897D01*
X166918914Y-108015908D01*
X167130159Y-108016092D01*
X167325394Y-107935422D01*
X167474897Y-107786180D01*
X167555908Y-107591086D01*
X167556092Y-107379841D01*
X167483719Y-107204684D01*
X176441308Y-107204684D01*
X176521613Y-107399037D01*
X176670181Y-107547864D01*
X176864394Y-107628508D01*
X177074684Y-107628692D01*
X177269037Y-107548387D01*
X177417864Y-107399819D01*
X177498508Y-107205606D01*
X177498692Y-106995316D01*
X177418387Y-106800963D01*
X177402611Y-106785159D01*
X182348908Y-106785159D01*
X182429578Y-106980394D01*
X182578820Y-107129897D01*
X182773914Y-107210908D01*
X182985159Y-107211092D01*
X183180394Y-107130422D01*
X183329897Y-106981180D01*
X183410908Y-106786086D01*
X183411092Y-106574841D01*
X183330422Y-106379606D01*
X183181180Y-106230103D01*
X182986086Y-106149092D01*
X182774841Y-106148908D01*
X182579606Y-106229578D01*
X182430103Y-106378820D01*
X182349092Y-106573914D01*
X182348908Y-106785159D01*
X177402611Y-106785159D01*
X177269819Y-106652136D01*
X177075606Y-106571492D01*
X176865316Y-106571308D01*
X176670963Y-106651613D01*
X176522136Y-106800181D01*
X176441492Y-106994394D01*
X176441308Y-107204684D01*
X167483719Y-107204684D01*
X167475422Y-107184606D01*
X167326180Y-107035103D01*
X167131086Y-106954092D01*
X166919841Y-106953908D01*
X166724606Y-107034578D01*
X166575103Y-107183820D01*
X166494092Y-107378914D01*
X166493908Y-107590159D01*
X166055908Y-107590159D01*
X166056092Y-107379841D01*
X165975422Y-107184606D01*
X165826180Y-107035103D01*
X165631086Y-106954092D01*
X165419841Y-106953908D01*
X165224606Y-107034578D01*
X165075103Y-107183820D01*
X164994092Y-107378914D01*
X164993908Y-107590159D01*
X147077941Y-107590159D01*
X147179037Y-107548387D01*
X147327864Y-107399819D01*
X147408508Y-107205606D01*
X147408609Y-107090159D01*
X157293908Y-107090159D01*
X157374578Y-107285394D01*
X157523820Y-107434897D01*
X157718914Y-107515908D01*
X157930159Y-107516092D01*
X158125394Y-107435422D01*
X158274897Y-107286180D01*
X158355908Y-107091086D01*
X158355908Y-107090159D01*
X158793908Y-107090159D01*
X158874578Y-107285394D01*
X159023820Y-107434897D01*
X159218914Y-107515908D01*
X159430159Y-107516092D01*
X159625394Y-107435422D01*
X159774897Y-107286180D01*
X159855908Y-107091086D01*
X159856092Y-106879841D01*
X159775422Y-106684606D01*
X159626180Y-106535103D01*
X159431086Y-106454092D01*
X159219841Y-106453908D01*
X159024606Y-106534578D01*
X158875103Y-106683820D01*
X158794092Y-106878914D01*
X158793908Y-107090159D01*
X158355908Y-107090159D01*
X158356092Y-106879841D01*
X158275422Y-106684606D01*
X158126180Y-106535103D01*
X157931086Y-106454092D01*
X157719841Y-106453908D01*
X157524606Y-106534578D01*
X157375103Y-106683820D01*
X157294092Y-106878914D01*
X157293908Y-107090159D01*
X147408609Y-107090159D01*
X147408692Y-106995316D01*
X147328387Y-106800963D01*
X147179819Y-106652136D01*
X146985606Y-106571492D01*
X146775316Y-106571308D01*
X146580963Y-106651613D01*
X146432136Y-106800181D01*
X146351492Y-106994394D01*
X146351308Y-107204684D01*
X135958600Y-107204684D01*
X135958600Y-106259715D01*
X139800612Y-106259715D01*
X139965324Y-106658348D01*
X140270048Y-106963604D01*
X140668393Y-107129012D01*
X141099715Y-107129388D01*
X141498348Y-106964676D01*
X141803604Y-106659952D01*
X141969012Y-106261607D01*
X141969013Y-106259715D01*
X142340612Y-106259715D01*
X142505324Y-106658348D01*
X142810048Y-106963604D01*
X143208393Y-107129012D01*
X143639715Y-107129388D01*
X144038348Y-106964676D01*
X144343604Y-106659952D01*
X144509012Y-106261607D01*
X144509161Y-106090159D01*
X163493908Y-106090159D01*
X163574578Y-106285394D01*
X163723820Y-106434897D01*
X163918914Y-106515908D01*
X164130159Y-106516092D01*
X164325394Y-106435422D01*
X164474897Y-106286180D01*
X164555908Y-106091086D01*
X164555908Y-106090159D01*
X164993908Y-106090159D01*
X165074578Y-106285394D01*
X165223820Y-106434897D01*
X165418914Y-106515908D01*
X165630159Y-106516092D01*
X165825394Y-106435422D01*
X165974897Y-106286180D01*
X166055908Y-106091086D01*
X166056092Y-105879841D01*
X165975422Y-105684606D01*
X165826180Y-105535103D01*
X165631086Y-105454092D01*
X165419841Y-105453908D01*
X165224606Y-105534578D01*
X165075103Y-105683820D01*
X164994092Y-105878914D01*
X164993908Y-106090159D01*
X164555908Y-106090159D01*
X164556092Y-105879841D01*
X164475422Y-105684606D01*
X164326180Y-105535103D01*
X164131086Y-105454092D01*
X163919841Y-105453908D01*
X163724606Y-105534578D01*
X163575103Y-105683820D01*
X163494092Y-105878914D01*
X163493908Y-106090159D01*
X144509161Y-106090159D01*
X144509388Y-105830285D01*
X144410170Y-105590159D01*
X158793908Y-105590159D01*
X158874578Y-105785394D01*
X159023820Y-105934897D01*
X159218914Y-106015908D01*
X159430159Y-106016092D01*
X159625394Y-105935422D01*
X159774897Y-105786180D01*
X159855908Y-105591086D01*
X159855908Y-105590159D01*
X160293908Y-105590159D01*
X160374578Y-105785394D01*
X160523820Y-105934897D01*
X160718914Y-106015908D01*
X160930159Y-106016092D01*
X161125394Y-105935422D01*
X161274897Y-105786180D01*
X161355908Y-105591086D01*
X161356092Y-105379841D01*
X161275422Y-105184606D01*
X161126180Y-105035103D01*
X160931086Y-104954092D01*
X160719841Y-104953908D01*
X160524606Y-105034578D01*
X160375103Y-105183820D01*
X160294092Y-105378914D01*
X160293908Y-105590159D01*
X159855908Y-105590159D01*
X159856092Y-105379841D01*
X159775422Y-105184606D01*
X159626180Y-105035103D01*
X159431086Y-104954092D01*
X159219841Y-104953908D01*
X159024606Y-105034578D01*
X158875103Y-105183820D01*
X158794092Y-105378914D01*
X158793908Y-105590159D01*
X144410170Y-105590159D01*
X144344676Y-105431652D01*
X144039952Y-105126396D01*
X143641607Y-104960988D01*
X143210285Y-104960612D01*
X142811652Y-105125324D01*
X142506396Y-105430048D01*
X142340988Y-105828393D01*
X142340612Y-106259715D01*
X141969013Y-106259715D01*
X141969388Y-105830285D01*
X141804676Y-105431652D01*
X141499952Y-105126396D01*
X141101607Y-104960988D01*
X140670285Y-104960612D01*
X140271652Y-105125324D01*
X139966396Y-105430048D01*
X139800988Y-105828393D01*
X139800612Y-106259715D01*
X135958600Y-106259715D01*
X135958600Y-104590159D01*
X163493908Y-104590159D01*
X163574578Y-104785394D01*
X163723820Y-104934897D01*
X163918914Y-105015908D01*
X164130159Y-105016092D01*
X164325394Y-104935422D01*
X164474897Y-104786180D01*
X164555908Y-104591086D01*
X164556009Y-104474684D01*
X176441308Y-104474684D01*
X176521613Y-104669037D01*
X176670181Y-104817864D01*
X176864394Y-104898508D01*
X177074684Y-104898692D01*
X177269037Y-104818387D01*
X177417864Y-104669819D01*
X177434529Y-104629684D01*
X179616308Y-104629684D01*
X179696613Y-104824037D01*
X179845181Y-104972864D01*
X180039394Y-105053508D01*
X180249684Y-105053692D01*
X180444037Y-104973387D01*
X180592864Y-104824819D01*
X180673508Y-104630606D01*
X180673692Y-104420316D01*
X180593387Y-104225963D01*
X180444819Y-104077136D01*
X180250606Y-103996492D01*
X180040316Y-103996308D01*
X179845963Y-104076613D01*
X179697136Y-104225181D01*
X179616492Y-104419394D01*
X179616308Y-104629684D01*
X177434529Y-104629684D01*
X177498508Y-104475606D01*
X177498692Y-104265316D01*
X177418387Y-104070963D01*
X177269819Y-103922136D01*
X177075606Y-103841492D01*
X176865316Y-103841308D01*
X176670963Y-103921613D01*
X176522136Y-104070181D01*
X176441492Y-104264394D01*
X176441308Y-104474684D01*
X164556009Y-104474684D01*
X164556092Y-104379841D01*
X164475422Y-104184606D01*
X164326180Y-104035103D01*
X164131086Y-103954092D01*
X163919841Y-103953908D01*
X163724606Y-104034578D01*
X163575103Y-104183820D01*
X163494092Y-104378914D01*
X163493908Y-104590159D01*
X135958600Y-104590159D01*
X135958600Y-103719715D01*
X139800612Y-103719715D01*
X139965324Y-104118348D01*
X140270048Y-104423604D01*
X140668393Y-104589012D01*
X141099715Y-104589388D01*
X141498348Y-104424676D01*
X141803604Y-104119952D01*
X141969012Y-103721607D01*
X141969013Y-103719715D01*
X142340612Y-103719715D01*
X142505324Y-104118348D01*
X142810048Y-104423604D01*
X143208393Y-104589012D01*
X143639715Y-104589388D01*
X144038348Y-104424676D01*
X144343604Y-104119952D01*
X144355975Y-104090159D01*
X160293908Y-104090159D01*
X160374578Y-104285394D01*
X160523820Y-104434897D01*
X160718914Y-104515908D01*
X160930159Y-104516092D01*
X161125394Y-104435422D01*
X161274897Y-104286180D01*
X161355908Y-104091086D01*
X161356092Y-103879841D01*
X161275422Y-103684606D01*
X161126180Y-103535103D01*
X160931086Y-103454092D01*
X160719841Y-103453908D01*
X160524606Y-103534578D01*
X160375103Y-103683820D01*
X160294092Y-103878914D01*
X160293908Y-104090159D01*
X144355975Y-104090159D01*
X144509012Y-103721607D01*
X144509388Y-103290285D01*
X144344676Y-102891652D01*
X144043235Y-102589684D01*
X170726308Y-102589684D01*
X170806613Y-102784037D01*
X170955181Y-102932864D01*
X171149394Y-103013508D01*
X171359684Y-103013692D01*
X171554037Y-102933387D01*
X171702864Y-102784819D01*
X171783508Y-102590606D01*
X171783692Y-102380316D01*
X171703387Y-102185963D01*
X171554819Y-102037136D01*
X171360606Y-101956492D01*
X171150316Y-101956308D01*
X170955963Y-102036613D01*
X170807136Y-102185181D01*
X170726492Y-102379394D01*
X170726308Y-102589684D01*
X144043235Y-102589684D01*
X144039952Y-102586396D01*
X143641607Y-102420988D01*
X143210285Y-102420612D01*
X142811652Y-102585324D01*
X142506396Y-102890048D01*
X142340988Y-103288393D01*
X142340612Y-103719715D01*
X141969013Y-103719715D01*
X141969388Y-103290285D01*
X141804676Y-102891652D01*
X141499952Y-102586396D01*
X141101607Y-102420988D01*
X140670285Y-102420612D01*
X140271652Y-102585324D01*
X139966396Y-102890048D01*
X139800988Y-103288393D01*
X139800612Y-103719715D01*
X135958600Y-103719715D01*
X135958600Y-101179715D01*
X139800612Y-101179715D01*
X139965324Y-101578348D01*
X140270048Y-101883604D01*
X140668393Y-102049012D01*
X141099715Y-102049388D01*
X141498348Y-101884676D01*
X141803604Y-101579952D01*
X141969012Y-101181607D01*
X141969013Y-101179715D01*
X142340612Y-101179715D01*
X142505324Y-101578348D01*
X142810048Y-101883604D01*
X143208393Y-102049012D01*
X143639715Y-102049388D01*
X143820512Y-101974684D01*
X146351308Y-101974684D01*
X146431613Y-102169037D01*
X146580181Y-102317864D01*
X146774394Y-102398508D01*
X146984684Y-102398692D01*
X147179037Y-102318387D01*
X147327864Y-102169819D01*
X147360941Y-102090159D01*
X149543908Y-102090159D01*
X149624578Y-102285394D01*
X149773820Y-102434897D01*
X149968914Y-102515908D01*
X150180159Y-102516092D01*
X150375394Y-102435422D01*
X150524897Y-102286180D01*
X150605908Y-102091086D01*
X150606092Y-101879841D01*
X150525422Y-101684606D01*
X150376180Y-101535103D01*
X150181086Y-101454092D01*
X149969841Y-101453908D01*
X149774606Y-101534578D01*
X149625103Y-101683820D01*
X149544092Y-101878914D01*
X149543908Y-102090159D01*
X147360941Y-102090159D01*
X147408508Y-101975606D01*
X147408692Y-101765316D01*
X147328387Y-101570963D01*
X147179819Y-101422136D01*
X146985606Y-101341492D01*
X146775316Y-101341308D01*
X146580963Y-101421613D01*
X146432136Y-101570181D01*
X146351492Y-101764394D01*
X146351308Y-101974684D01*
X143820512Y-101974684D01*
X144038348Y-101884676D01*
X144343604Y-101579952D01*
X144509012Y-101181607D01*
X144509091Y-101090159D01*
X162493908Y-101090159D01*
X162574578Y-101285394D01*
X162723820Y-101434897D01*
X162918914Y-101515908D01*
X163130159Y-101516092D01*
X163325394Y-101435422D01*
X163474897Y-101286180D01*
X163555908Y-101091086D01*
X163556092Y-100879841D01*
X163475422Y-100684606D01*
X163326180Y-100535103D01*
X163131086Y-100454092D01*
X162919841Y-100453908D01*
X162724606Y-100534578D01*
X162575103Y-100683820D01*
X162494092Y-100878914D01*
X162493908Y-101090159D01*
X144509091Y-101090159D01*
X144509388Y-100750285D01*
X144344676Y-100351652D01*
X144039952Y-100046396D01*
X143641607Y-99880988D01*
X143210285Y-99880612D01*
X142811652Y-100045324D01*
X142506396Y-100350048D01*
X142340988Y-100748393D01*
X142340612Y-101179715D01*
X141969013Y-101179715D01*
X141969388Y-100750285D01*
X141804676Y-100351652D01*
X141499952Y-100046396D01*
X141101607Y-99880988D01*
X140670285Y-99880612D01*
X140271652Y-100045324D01*
X139966396Y-100350048D01*
X139800988Y-100748393D01*
X139800612Y-101179715D01*
X135958600Y-101179715D01*
X135958600Y-99590159D01*
X162493908Y-99590159D01*
X162574578Y-99785394D01*
X162723820Y-99934897D01*
X162918914Y-100015908D01*
X163130159Y-100016092D01*
X163325394Y-99935422D01*
X163474897Y-99786180D01*
X163555908Y-99591086D01*
X163555908Y-99590159D01*
X163993908Y-99590159D01*
X164074578Y-99785394D01*
X164223820Y-99934897D01*
X164418914Y-100015908D01*
X164630159Y-100016092D01*
X164825394Y-99935422D01*
X164974897Y-99786180D01*
X165055908Y-99591086D01*
X165056092Y-99379841D01*
X164975422Y-99184606D01*
X164826180Y-99035103D01*
X164631086Y-98954092D01*
X164419841Y-98953908D01*
X164224606Y-99034578D01*
X164075103Y-99183820D01*
X163994092Y-99378914D01*
X163993908Y-99590159D01*
X163555908Y-99590159D01*
X163556092Y-99379841D01*
X163475422Y-99184606D01*
X163326180Y-99035103D01*
X163131086Y-98954092D01*
X162919841Y-98953908D01*
X162724606Y-99034578D01*
X162575103Y-99183820D01*
X162494092Y-99378914D01*
X162493908Y-99590159D01*
X135958600Y-99590159D01*
X135958600Y-98639715D01*
X139800612Y-98639715D01*
X139965324Y-99038348D01*
X140270048Y-99343604D01*
X140668393Y-99509012D01*
X141099715Y-99509388D01*
X141498348Y-99344676D01*
X141803604Y-99039952D01*
X141969012Y-98641607D01*
X141969013Y-98639715D01*
X142340612Y-98639715D01*
X142505324Y-99038348D01*
X142810048Y-99343604D01*
X143208393Y-99509012D01*
X143639715Y-99509388D01*
X144038348Y-99344676D01*
X144343604Y-99039952D01*
X144509012Y-98641607D01*
X144509388Y-98210285D01*
X144459753Y-98090159D01*
X158793908Y-98090159D01*
X158874578Y-98285394D01*
X159023820Y-98434897D01*
X159218914Y-98515908D01*
X159430159Y-98516092D01*
X159625394Y-98435422D01*
X159774897Y-98286180D01*
X159855908Y-98091086D01*
X159855908Y-98090159D01*
X160293908Y-98090159D01*
X160374578Y-98285394D01*
X160523820Y-98434897D01*
X160718914Y-98515908D01*
X160930159Y-98516092D01*
X161125394Y-98435422D01*
X161274897Y-98286180D01*
X161355908Y-98091086D01*
X161355908Y-98090159D01*
X163993908Y-98090159D01*
X164074578Y-98285394D01*
X164223820Y-98434897D01*
X164418914Y-98515908D01*
X164630159Y-98516092D01*
X164825394Y-98435422D01*
X164974897Y-98286180D01*
X165055908Y-98091086D01*
X165055908Y-98090159D01*
X165493908Y-98090159D01*
X165574578Y-98285394D01*
X165723820Y-98434897D01*
X165918914Y-98515908D01*
X166130159Y-98516092D01*
X166325394Y-98435422D01*
X166474897Y-98286180D01*
X166555908Y-98091086D01*
X166556092Y-97879841D01*
X166475422Y-97684606D01*
X166326180Y-97535103D01*
X166180677Y-97474684D01*
X176441308Y-97474684D01*
X176521613Y-97669037D01*
X176670181Y-97817864D01*
X176864394Y-97898508D01*
X177074684Y-97898692D01*
X177269037Y-97818387D01*
X177417864Y-97669819D01*
X177498508Y-97475606D01*
X177498692Y-97265316D01*
X177496562Y-97260159D01*
X182348908Y-97260159D01*
X182429578Y-97455394D01*
X182578820Y-97604897D01*
X182773914Y-97685908D01*
X182985159Y-97686092D01*
X183180394Y-97605422D01*
X183329897Y-97456180D01*
X183410908Y-97261086D01*
X183411092Y-97049841D01*
X183330422Y-96854606D01*
X183181180Y-96705103D01*
X182986086Y-96624092D01*
X182774841Y-96623908D01*
X182579606Y-96704578D01*
X182430103Y-96853820D01*
X182349092Y-97048914D01*
X182348908Y-97260159D01*
X177496562Y-97260159D01*
X177418387Y-97070963D01*
X177269819Y-96922136D01*
X177075606Y-96841492D01*
X176865316Y-96841308D01*
X176670963Y-96921613D01*
X176522136Y-97070181D01*
X176441492Y-97264394D01*
X176441308Y-97474684D01*
X166180677Y-97474684D01*
X166131086Y-97454092D01*
X165919841Y-97453908D01*
X165724606Y-97534578D01*
X165575103Y-97683820D01*
X165494092Y-97878914D01*
X165493908Y-98090159D01*
X165055908Y-98090159D01*
X165056092Y-97879841D01*
X164975422Y-97684606D01*
X164826180Y-97535103D01*
X164631086Y-97454092D01*
X164419841Y-97453908D01*
X164224606Y-97534578D01*
X164075103Y-97683820D01*
X163994092Y-97878914D01*
X163993908Y-98090159D01*
X161355908Y-98090159D01*
X161356092Y-97879841D01*
X161275422Y-97684606D01*
X161126180Y-97535103D01*
X160931086Y-97454092D01*
X160719841Y-97453908D01*
X160524606Y-97534578D01*
X160375103Y-97683820D01*
X160294092Y-97878914D01*
X160293908Y-98090159D01*
X159855908Y-98090159D01*
X159856092Y-97879841D01*
X159775422Y-97684606D01*
X159626180Y-97535103D01*
X159431086Y-97454092D01*
X159219841Y-97453908D01*
X159024606Y-97534578D01*
X158875103Y-97683820D01*
X158794092Y-97878914D01*
X158793908Y-98090159D01*
X144459753Y-98090159D01*
X144344676Y-97811652D01*
X144039952Y-97506396D01*
X143963582Y-97474684D01*
X146351308Y-97474684D01*
X146431613Y-97669037D01*
X146580181Y-97817864D01*
X146774394Y-97898508D01*
X146984684Y-97898692D01*
X147179037Y-97818387D01*
X147327864Y-97669819D01*
X147408508Y-97475606D01*
X147408692Y-97265316D01*
X147328387Y-97070963D01*
X147179819Y-96922136D01*
X146985606Y-96841492D01*
X146775316Y-96841308D01*
X146580963Y-96921613D01*
X146432136Y-97070181D01*
X146351492Y-97264394D01*
X146351308Y-97474684D01*
X143963582Y-97474684D01*
X143641607Y-97340988D01*
X143210285Y-97340612D01*
X142811652Y-97505324D01*
X142506396Y-97810048D01*
X142340988Y-98208393D01*
X142340612Y-98639715D01*
X141969013Y-98639715D01*
X141969388Y-98210285D01*
X141804676Y-97811652D01*
X141499952Y-97506396D01*
X141101607Y-97340988D01*
X140670285Y-97340612D01*
X140271652Y-97505324D01*
X139966396Y-97810048D01*
X139800988Y-98208393D01*
X139800612Y-98639715D01*
X135958600Y-98639715D01*
X135958600Y-96099715D01*
X139800612Y-96099715D01*
X139965324Y-96498348D01*
X140270048Y-96803604D01*
X140668393Y-96969012D01*
X141099715Y-96969388D01*
X141498348Y-96804676D01*
X141803604Y-96499952D01*
X141969012Y-96101607D01*
X141969013Y-96099715D01*
X142340612Y-96099715D01*
X142505324Y-96498348D01*
X142810048Y-96803604D01*
X143208393Y-96969012D01*
X143639715Y-96969388D01*
X144038348Y-96804676D01*
X144253239Y-96590159D01*
X157293908Y-96590159D01*
X157374578Y-96785394D01*
X157523820Y-96934897D01*
X157718914Y-97015908D01*
X157930159Y-97016092D01*
X158125394Y-96935422D01*
X158274897Y-96786180D01*
X158355908Y-96591086D01*
X158355908Y-96590159D01*
X158793908Y-96590159D01*
X158874578Y-96785394D01*
X159023820Y-96934897D01*
X159218914Y-97015908D01*
X159430159Y-97016092D01*
X159625394Y-96935422D01*
X159774897Y-96786180D01*
X159855908Y-96591086D01*
X159855908Y-96590159D01*
X165493908Y-96590159D01*
X165574578Y-96785394D01*
X165723820Y-96934897D01*
X165918914Y-97015908D01*
X166130159Y-97016092D01*
X166325394Y-96935422D01*
X166474897Y-96786180D01*
X166555908Y-96591086D01*
X166555908Y-96590159D01*
X166993908Y-96590159D01*
X167074578Y-96785394D01*
X167223820Y-96934897D01*
X167418914Y-97015908D01*
X167630159Y-97016092D01*
X167825394Y-96935422D01*
X167974897Y-96786180D01*
X168055908Y-96591086D01*
X168056092Y-96379841D01*
X167975422Y-96184606D01*
X167826180Y-96035103D01*
X167631086Y-95954092D01*
X167419841Y-95953908D01*
X167224606Y-96034578D01*
X167075103Y-96183820D01*
X166994092Y-96378914D01*
X166993908Y-96590159D01*
X166555908Y-96590159D01*
X166556092Y-96379841D01*
X166475422Y-96184606D01*
X166326180Y-96035103D01*
X166131086Y-95954092D01*
X165919841Y-95953908D01*
X165724606Y-96034578D01*
X165575103Y-96183820D01*
X165494092Y-96378914D01*
X165493908Y-96590159D01*
X159855908Y-96590159D01*
X159856092Y-96379841D01*
X159775422Y-96184606D01*
X159626180Y-96035103D01*
X159431086Y-95954092D01*
X159219841Y-95953908D01*
X159024606Y-96034578D01*
X158875103Y-96183820D01*
X158794092Y-96378914D01*
X158793908Y-96590159D01*
X158355908Y-96590159D01*
X158356092Y-96379841D01*
X158275422Y-96184606D01*
X158126180Y-96035103D01*
X157931086Y-95954092D01*
X157719841Y-95953908D01*
X157524606Y-96034578D01*
X157375103Y-96183820D01*
X157294092Y-96378914D01*
X157293908Y-96590159D01*
X144253239Y-96590159D01*
X144343604Y-96499952D01*
X144509012Y-96101607D01*
X144509388Y-95670285D01*
X144344676Y-95271652D01*
X144163500Y-95090159D01*
X155793908Y-95090159D01*
X155874578Y-95285394D01*
X156023820Y-95434897D01*
X156218914Y-95515908D01*
X156430159Y-95516092D01*
X156625394Y-95435422D01*
X156774897Y-95286180D01*
X156855908Y-95091086D01*
X156855908Y-95090159D01*
X157293908Y-95090159D01*
X157374578Y-95285394D01*
X157523820Y-95434897D01*
X157718914Y-95515908D01*
X157930159Y-95516092D01*
X158125394Y-95435422D01*
X158274897Y-95286180D01*
X158355908Y-95091086D01*
X158355908Y-95090159D01*
X166993908Y-95090159D01*
X167074578Y-95285394D01*
X167223820Y-95434897D01*
X167418914Y-95515908D01*
X167630159Y-95516092D01*
X167825394Y-95435422D01*
X167974897Y-95286180D01*
X168055908Y-95091086D01*
X168055908Y-95090159D01*
X168493908Y-95090159D01*
X168574578Y-95285394D01*
X168723820Y-95434897D01*
X168918914Y-95515908D01*
X169130159Y-95516092D01*
X169325394Y-95435422D01*
X169474897Y-95286180D01*
X169555908Y-95091086D01*
X169555909Y-95089684D01*
X183426308Y-95089684D01*
X183506613Y-95284037D01*
X183655181Y-95432864D01*
X183849394Y-95513508D01*
X184059684Y-95513692D01*
X184254037Y-95433387D01*
X184402864Y-95284819D01*
X184483508Y-95090606D01*
X184483692Y-94880316D01*
X184403387Y-94685963D01*
X184254819Y-94537136D01*
X184060606Y-94456492D01*
X183850316Y-94456308D01*
X183655963Y-94536613D01*
X183507136Y-94685181D01*
X183426492Y-94879394D01*
X183426308Y-95089684D01*
X169555909Y-95089684D01*
X169556092Y-94879841D01*
X169475422Y-94684606D01*
X169326180Y-94535103D01*
X169131086Y-94454092D01*
X168919841Y-94453908D01*
X168724606Y-94534578D01*
X168575103Y-94683820D01*
X168494092Y-94878914D01*
X168493908Y-95090159D01*
X168055908Y-95090159D01*
X168056092Y-94879841D01*
X167975422Y-94684606D01*
X167826180Y-94535103D01*
X167631086Y-94454092D01*
X167419841Y-94453908D01*
X167224606Y-94534578D01*
X167075103Y-94683820D01*
X166994092Y-94878914D01*
X166993908Y-95090159D01*
X158355908Y-95090159D01*
X158356092Y-94879841D01*
X158275422Y-94684606D01*
X158126180Y-94535103D01*
X157931086Y-94454092D01*
X157719841Y-94453908D01*
X157524606Y-94534578D01*
X157375103Y-94683820D01*
X157294092Y-94878914D01*
X157293908Y-95090159D01*
X156855908Y-95090159D01*
X156856092Y-94879841D01*
X156775422Y-94684606D01*
X156626180Y-94535103D01*
X156431086Y-94454092D01*
X156219841Y-94453908D01*
X156024606Y-94534578D01*
X155875103Y-94683820D01*
X155794092Y-94878914D01*
X155793908Y-95090159D01*
X144163500Y-95090159D01*
X144039952Y-94966396D01*
X143641607Y-94800988D01*
X143210285Y-94800612D01*
X142811652Y-94965324D01*
X142506396Y-95270048D01*
X142340988Y-95668393D01*
X142340612Y-96099715D01*
X141969013Y-96099715D01*
X141969388Y-95670285D01*
X141804676Y-95271652D01*
X141499952Y-94966396D01*
X141101607Y-94800988D01*
X140670285Y-94800612D01*
X140271652Y-94965324D01*
X139966396Y-95270048D01*
X139800988Y-95668393D01*
X139800612Y-96099715D01*
X135958600Y-96099715D01*
X135958600Y-93559715D01*
X139800612Y-93559715D01*
X139965324Y-93958348D01*
X140270048Y-94263604D01*
X140668393Y-94429012D01*
X141099715Y-94429388D01*
X141498348Y-94264676D01*
X141803604Y-93959952D01*
X141969012Y-93561607D01*
X141969013Y-93559715D01*
X142340612Y-93559715D01*
X142505324Y-93958348D01*
X142810048Y-94263604D01*
X143208393Y-94429012D01*
X143639715Y-94429388D01*
X144038348Y-94264676D01*
X144343604Y-93959952D01*
X144497156Y-93590159D01*
X154293908Y-93590159D01*
X154374578Y-93785394D01*
X154523820Y-93934897D01*
X154718914Y-94015908D01*
X154930159Y-94016092D01*
X155125394Y-93935422D01*
X155274897Y-93786180D01*
X155355908Y-93591086D01*
X155355908Y-93590159D01*
X155793908Y-93590159D01*
X155874578Y-93785394D01*
X156023820Y-93934897D01*
X156218914Y-94015908D01*
X156430159Y-94016092D01*
X156625394Y-93935422D01*
X156774897Y-93786180D01*
X156855908Y-93591086D01*
X156856092Y-93379841D01*
X156823592Y-93301185D01*
X156875181Y-93352864D01*
X157069394Y-93433508D01*
X157279684Y-93433692D01*
X157474037Y-93353387D01*
X157622864Y-93204819D01*
X157703508Y-93010606D01*
X157703508Y-93009684D01*
X162146308Y-93009684D01*
X162226613Y-93204037D01*
X162375181Y-93352864D01*
X162569394Y-93433508D01*
X162779684Y-93433692D01*
X162974037Y-93353387D01*
X163122864Y-93204819D01*
X163203508Y-93010606D01*
X163203508Y-93009684D01*
X165646308Y-93009684D01*
X165726613Y-93204037D01*
X165875181Y-93352864D01*
X166069394Y-93433508D01*
X166279684Y-93433692D01*
X166474037Y-93353387D01*
X166622864Y-93204819D01*
X166703508Y-93010606D01*
X166703692Y-92800316D01*
X166664178Y-92704684D01*
X176441308Y-92704684D01*
X176521613Y-92899037D01*
X176670181Y-93047864D01*
X176864394Y-93128508D01*
X177074684Y-93128692D01*
X177269037Y-93048387D01*
X177417864Y-92899819D01*
X177498508Y-92705606D01*
X177498692Y-92495316D01*
X177418387Y-92300963D01*
X177269819Y-92152136D01*
X177075606Y-92071492D01*
X176865316Y-92071308D01*
X176670963Y-92151613D01*
X176522136Y-92300181D01*
X176441492Y-92494394D01*
X176441308Y-92704684D01*
X166664178Y-92704684D01*
X166623387Y-92605963D01*
X166474819Y-92457136D01*
X166280606Y-92376492D01*
X166070316Y-92376308D01*
X165875963Y-92456613D01*
X165727136Y-92605181D01*
X165646492Y-92799394D01*
X165646308Y-93009684D01*
X163203508Y-93009684D01*
X163203692Y-92800316D01*
X163123387Y-92605963D01*
X162974819Y-92457136D01*
X162780606Y-92376492D01*
X162570316Y-92376308D01*
X162375963Y-92456613D01*
X162227136Y-92605181D01*
X162146492Y-92799394D01*
X162146308Y-93009684D01*
X157703508Y-93009684D01*
X157703692Y-92800316D01*
X157623387Y-92605963D01*
X157474819Y-92457136D01*
X157280606Y-92376492D01*
X157070316Y-92376308D01*
X156875963Y-92456613D01*
X156727136Y-92605181D01*
X156646492Y-92799394D01*
X156646308Y-93009684D01*
X156678444Y-93087458D01*
X156626180Y-93035103D01*
X156431086Y-92954092D01*
X156219841Y-92953908D01*
X156024606Y-93034578D01*
X155875103Y-93183820D01*
X155794092Y-93378914D01*
X155793908Y-93590159D01*
X155355908Y-93590159D01*
X155356092Y-93379841D01*
X155275422Y-93184606D01*
X155126180Y-93035103D01*
X154931086Y-92954092D01*
X154719841Y-92953908D01*
X154524606Y-93034578D01*
X154375103Y-93183820D01*
X154294092Y-93378914D01*
X154293908Y-93590159D01*
X144497156Y-93590159D01*
X144509012Y-93561607D01*
X144509388Y-93130285D01*
X144344676Y-92731652D01*
X144039952Y-92426396D01*
X143641607Y-92260988D01*
X143210285Y-92260612D01*
X142811652Y-92425324D01*
X142506396Y-92730048D01*
X142340988Y-93128393D01*
X142340612Y-93559715D01*
X141969013Y-93559715D01*
X141969388Y-93130285D01*
X141804676Y-92731652D01*
X141499952Y-92426396D01*
X141101607Y-92260988D01*
X140670285Y-92260612D01*
X140271652Y-92425324D01*
X139966396Y-92730048D01*
X139800988Y-93128393D01*
X139800612Y-93559715D01*
X135958600Y-93559715D01*
X135958600Y-91019715D01*
X139800612Y-91019715D01*
X139965324Y-91418348D01*
X140270048Y-91723604D01*
X140668393Y-91889012D01*
X141099715Y-91889388D01*
X141498348Y-91724676D01*
X141803604Y-91419952D01*
X141969012Y-91021607D01*
X141969013Y-91019715D01*
X142340612Y-91019715D01*
X142505324Y-91418348D01*
X142810048Y-91723604D01*
X143208393Y-91889012D01*
X143639715Y-91889388D01*
X144038348Y-91724676D01*
X144343604Y-91419952D01*
X144401848Y-91279684D01*
X176441308Y-91279684D01*
X176521613Y-91474037D01*
X176670181Y-91622864D01*
X176864394Y-91703508D01*
X177074684Y-91703692D01*
X177269037Y-91623387D01*
X177417864Y-91474819D01*
X177498508Y-91280606D01*
X177498692Y-91070316D01*
X177418387Y-90875963D01*
X177269819Y-90727136D01*
X177075606Y-90646492D01*
X176865316Y-90646308D01*
X176670963Y-90726613D01*
X176522136Y-90875181D01*
X176441492Y-91069394D01*
X176441308Y-91279684D01*
X144401848Y-91279684D01*
X144509012Y-91021607D01*
X144509388Y-90590285D01*
X144344676Y-90191652D01*
X144039952Y-89886396D01*
X143641607Y-89720988D01*
X143210285Y-89720612D01*
X142811652Y-89885324D01*
X142506396Y-90190048D01*
X142340988Y-90588393D01*
X142340612Y-91019715D01*
X141969013Y-91019715D01*
X141969388Y-90590285D01*
X141804676Y-90191652D01*
X141499952Y-89886396D01*
X141101607Y-89720988D01*
X140670285Y-89720612D01*
X140271652Y-89885324D01*
X139966396Y-90190048D01*
X139800988Y-90588393D01*
X139800612Y-91019715D01*
X135958600Y-91019715D01*
X135958600Y-88479715D01*
X139800612Y-88479715D01*
X139965324Y-88878348D01*
X140270048Y-89183604D01*
X140668393Y-89349012D01*
X141099715Y-89349388D01*
X141498348Y-89184676D01*
X141803604Y-88879952D01*
X141969012Y-88481607D01*
X141969013Y-88479715D01*
X142340612Y-88479715D01*
X142505324Y-88878348D01*
X142810048Y-89183604D01*
X143208393Y-89349012D01*
X143639715Y-89349388D01*
X144038348Y-89184676D01*
X144343604Y-88879952D01*
X144509012Y-88481607D01*
X144509388Y-88050285D01*
X144344676Y-87651652D01*
X144039952Y-87346396D01*
X143915417Y-87294684D01*
X151761308Y-87294684D01*
X151841613Y-87489037D01*
X151990181Y-87637864D01*
X152184394Y-87718508D01*
X152394684Y-87718692D01*
X152589037Y-87638387D01*
X152737864Y-87489819D01*
X152818508Y-87295606D01*
X152818508Y-87294684D01*
X156531308Y-87294684D01*
X156611613Y-87489037D01*
X156760181Y-87637864D01*
X156954394Y-87718508D01*
X157164684Y-87718692D01*
X157359037Y-87638387D01*
X157507864Y-87489819D01*
X157588508Y-87295606D01*
X157588508Y-87294684D01*
X162261308Y-87294684D01*
X162341613Y-87489037D01*
X162490181Y-87637864D01*
X162684394Y-87718508D01*
X162894684Y-87718692D01*
X163089037Y-87638387D01*
X163237864Y-87489819D01*
X163318508Y-87295606D01*
X163318508Y-87294684D01*
X171031308Y-87294684D01*
X171111613Y-87489037D01*
X171260181Y-87637864D01*
X171454394Y-87718508D01*
X171664684Y-87718692D01*
X171859037Y-87638387D01*
X172007864Y-87489819D01*
X172088508Y-87295606D01*
X172088692Y-87085316D01*
X172008387Y-86890963D01*
X171859819Y-86742136D01*
X171665606Y-86661492D01*
X171455316Y-86661308D01*
X171260963Y-86741613D01*
X171112136Y-86890181D01*
X171031492Y-87084394D01*
X171031308Y-87294684D01*
X163318508Y-87294684D01*
X163318692Y-87085316D01*
X163238387Y-86890963D01*
X163089819Y-86742136D01*
X162895606Y-86661492D01*
X162685316Y-86661308D01*
X162490963Y-86741613D01*
X162342136Y-86890181D01*
X162261492Y-87084394D01*
X162261308Y-87294684D01*
X157588508Y-87294684D01*
X157588692Y-87085316D01*
X157508387Y-86890963D01*
X157359819Y-86742136D01*
X157165606Y-86661492D01*
X156955316Y-86661308D01*
X156760963Y-86741613D01*
X156612136Y-86890181D01*
X156531492Y-87084394D01*
X156531308Y-87294684D01*
X152818508Y-87294684D01*
X152818692Y-87085316D01*
X152738387Y-86890963D01*
X152589819Y-86742136D01*
X152395606Y-86661492D01*
X152185316Y-86661308D01*
X151990963Y-86741613D01*
X151842136Y-86890181D01*
X151761492Y-87084394D01*
X151761308Y-87294684D01*
X143915417Y-87294684D01*
X143641607Y-87180988D01*
X143210285Y-87180612D01*
X142811652Y-87345324D01*
X142506396Y-87650048D01*
X142340988Y-88048393D01*
X142340612Y-88479715D01*
X141969013Y-88479715D01*
X141969388Y-88050285D01*
X141804676Y-87651652D01*
X141499952Y-87346396D01*
X141101607Y-87180988D01*
X140670285Y-87180612D01*
X140271652Y-87345324D01*
X139966396Y-87650048D01*
X139800988Y-88048393D01*
X139800612Y-88479715D01*
X135958600Y-88479715D01*
X135958600Y-85939715D01*
X139800612Y-85939715D01*
X139965324Y-86338348D01*
X140270048Y-86643604D01*
X140668393Y-86809012D01*
X141099715Y-86809388D01*
X141498348Y-86644676D01*
X141803604Y-86339952D01*
X141969012Y-85941607D01*
X141969013Y-85939715D01*
X142340612Y-85939715D01*
X142505324Y-86338348D01*
X142810048Y-86643604D01*
X143208393Y-86809012D01*
X143639715Y-86809388D01*
X144038348Y-86644676D01*
X144343604Y-86339952D01*
X144509012Y-85941607D01*
X144509388Y-85510285D01*
X144344676Y-85111652D01*
X144039952Y-84806396D01*
X143641607Y-84640988D01*
X143210285Y-84640612D01*
X142811652Y-84805324D01*
X142506396Y-85110048D01*
X142340988Y-85508393D01*
X142340612Y-85939715D01*
X141969013Y-85939715D01*
X141969388Y-85510285D01*
X141804676Y-85111652D01*
X141499952Y-84806396D01*
X141101607Y-84640988D01*
X140670285Y-84640612D01*
X140271652Y-84805324D01*
X139966396Y-85110048D01*
X139800988Y-85508393D01*
X139800612Y-85939715D01*
X135958600Y-85939715D01*
X135958600Y-83399715D01*
X139800612Y-83399715D01*
X139965324Y-83798348D01*
X140270048Y-84103604D01*
X140668393Y-84269012D01*
X141099715Y-84269388D01*
X141498348Y-84104676D01*
X141803604Y-83799952D01*
X141969012Y-83401607D01*
X141969013Y-83399715D01*
X142340612Y-83399715D01*
X142505324Y-83798348D01*
X142810048Y-84103604D01*
X143208393Y-84269012D01*
X143639715Y-84269388D01*
X144038348Y-84104676D01*
X144343604Y-83799952D01*
X144509012Y-83401607D01*
X144509388Y-82970285D01*
X144344676Y-82571652D01*
X144039952Y-82266396D01*
X143641607Y-82100988D01*
X143210285Y-82100612D01*
X142811652Y-82265324D01*
X142506396Y-82570048D01*
X142340988Y-82968393D01*
X142340612Y-83399715D01*
X141969013Y-83399715D01*
X141969388Y-82970285D01*
X141804676Y-82571652D01*
X141499952Y-82266396D01*
X141101607Y-82100988D01*
X140670285Y-82100612D01*
X140271652Y-82265324D01*
X139966396Y-82570048D01*
X139800988Y-82968393D01*
X139800612Y-83399715D01*
X135958600Y-83399715D01*
X135958600Y-80859715D01*
X139800612Y-80859715D01*
X139965324Y-81258348D01*
X140270048Y-81563604D01*
X140668393Y-81729012D01*
X141099715Y-81729388D01*
X141498348Y-81564676D01*
X141803604Y-81259952D01*
X141969012Y-80861607D01*
X141969013Y-80859715D01*
X142340612Y-80859715D01*
X142505324Y-81258348D01*
X142810048Y-81563604D01*
X143208393Y-81729012D01*
X143639715Y-81729388D01*
X144038348Y-81564676D01*
X144343604Y-81259952D01*
X144509012Y-80861607D01*
X144509388Y-80430285D01*
X144344676Y-80031652D01*
X144039952Y-79726396D01*
X143641607Y-79560988D01*
X143210285Y-79560612D01*
X142811652Y-79725324D01*
X142506396Y-80030048D01*
X142340988Y-80428393D01*
X142340612Y-80859715D01*
X141969013Y-80859715D01*
X141969388Y-80430285D01*
X141804676Y-80031652D01*
X141499952Y-79726396D01*
X141101607Y-79560988D01*
X140670285Y-79560612D01*
X140271652Y-79725324D01*
X139966396Y-80030048D01*
X139800988Y-80428393D01*
X139800612Y-80859715D01*
X135958600Y-80859715D01*
X135958600Y-78319715D01*
X139800612Y-78319715D01*
X139965324Y-78718348D01*
X140270048Y-79023604D01*
X140668393Y-79189012D01*
X141099715Y-79189388D01*
X141498348Y-79024676D01*
X141803604Y-78719952D01*
X141969012Y-78321607D01*
X141969013Y-78319715D01*
X142340612Y-78319715D01*
X142505324Y-78718348D01*
X142810048Y-79023604D01*
X143208393Y-79189012D01*
X143639715Y-79189388D01*
X144038348Y-79024676D01*
X144343604Y-78719952D01*
X144509012Y-78321607D01*
X144509388Y-77890285D01*
X144344676Y-77491652D01*
X144039952Y-77186396D01*
X143641607Y-77020988D01*
X143210285Y-77020612D01*
X142811652Y-77185324D01*
X142506396Y-77490048D01*
X142340988Y-77888393D01*
X142340612Y-78319715D01*
X141969013Y-78319715D01*
X141969388Y-77890285D01*
X141804676Y-77491652D01*
X141499952Y-77186396D01*
X141101607Y-77020988D01*
X140670285Y-77020612D01*
X140271652Y-77185324D01*
X139966396Y-77490048D01*
X139800988Y-77888393D01*
X139800612Y-78319715D01*
X135958600Y-78319715D01*
X135958600Y-75779715D01*
X139800612Y-75779715D01*
X139965324Y-76178348D01*
X140270048Y-76483604D01*
X140668393Y-76649012D01*
X141099715Y-76649388D01*
X141498348Y-76484676D01*
X141803604Y-76179952D01*
X141969012Y-75781607D01*
X141969013Y-75779715D01*
X142340612Y-75779715D01*
X142505324Y-76178348D01*
X142810048Y-76483604D01*
X143208393Y-76649012D01*
X143639715Y-76649388D01*
X144038348Y-76484676D01*
X144343604Y-76179952D01*
X144509012Y-75781607D01*
X144509388Y-75350285D01*
X144344676Y-74951652D01*
X144039952Y-74646396D01*
X143641607Y-74480988D01*
X143210285Y-74480612D01*
X142811652Y-74645324D01*
X142506396Y-74950048D01*
X142340988Y-75348393D01*
X142340612Y-75779715D01*
X141969013Y-75779715D01*
X141969388Y-75350285D01*
X141804676Y-74951652D01*
X141499952Y-74646396D01*
X141101607Y-74480988D01*
X140670285Y-74480612D01*
X140271652Y-74645324D01*
X139966396Y-74950048D01*
X139800988Y-75348393D01*
X139800612Y-75779715D01*
X135958600Y-75779715D01*
X135958600Y-74400159D01*
X152503908Y-74400159D01*
X152584578Y-74595394D01*
X152733820Y-74744897D01*
X152928914Y-74825908D01*
X153140159Y-74826092D01*
X153335394Y-74745422D01*
X153484897Y-74596180D01*
X153565908Y-74401086D01*
X153566092Y-74189841D01*
X153485422Y-73994606D01*
X153336180Y-73845103D01*
X153141086Y-73764092D01*
X152929841Y-73763908D01*
X152734606Y-73844578D01*
X152585103Y-73993820D01*
X152504092Y-74188914D01*
X152503908Y-74400159D01*
X135958600Y-74400159D01*
X135958600Y-73239715D01*
X139800612Y-73239715D01*
X139965324Y-73638348D01*
X140270048Y-73943604D01*
X140668393Y-74109012D01*
X141099715Y-74109388D01*
X141498348Y-73944676D01*
X141803604Y-73639952D01*
X141969012Y-73241607D01*
X141969013Y-73239715D01*
X142340612Y-73239715D01*
X142505324Y-73638348D01*
X142810048Y-73943604D01*
X143208393Y-74109012D01*
X143639715Y-74109388D01*
X144038348Y-73944676D01*
X144218178Y-73765159D01*
X151233908Y-73765159D01*
X151314578Y-73960394D01*
X151463820Y-74109897D01*
X151658914Y-74190908D01*
X151870159Y-74191092D01*
X152065394Y-74110422D01*
X152214897Y-73961180D01*
X152295908Y-73766086D01*
X152296092Y-73554841D01*
X152215422Y-73359606D01*
X152066180Y-73210103D01*
X151873656Y-73130159D01*
X152503908Y-73130159D01*
X152584578Y-73325394D01*
X152733820Y-73474897D01*
X152928914Y-73555908D01*
X153140159Y-73556092D01*
X153335394Y-73475422D01*
X153484897Y-73326180D01*
X153565908Y-73131086D01*
X153566092Y-72919841D01*
X153485422Y-72724606D01*
X153336180Y-72575103D01*
X153141086Y-72494092D01*
X152929841Y-72493908D01*
X152734606Y-72574578D01*
X152585103Y-72723820D01*
X152504092Y-72918914D01*
X152503908Y-73130159D01*
X151873656Y-73130159D01*
X151871086Y-73129092D01*
X151659841Y-73128908D01*
X151464606Y-73209578D01*
X151315103Y-73358820D01*
X151234092Y-73553914D01*
X151233908Y-73765159D01*
X144218178Y-73765159D01*
X144343604Y-73639952D01*
X144509012Y-73241607D01*
X144509388Y-72810285D01*
X144379181Y-72495159D01*
X151233908Y-72495159D01*
X151314578Y-72690394D01*
X151463820Y-72839897D01*
X151658914Y-72920908D01*
X151870159Y-72921092D01*
X152065394Y-72840422D01*
X152214897Y-72691180D01*
X152295908Y-72496086D01*
X152296092Y-72284841D01*
X152215422Y-72089606D01*
X152066180Y-71940103D01*
X151871086Y-71859092D01*
X151659841Y-71858908D01*
X151464606Y-71939578D01*
X151315103Y-72088820D01*
X151234092Y-72283914D01*
X151233908Y-72495159D01*
X144379181Y-72495159D01*
X144344676Y-72411652D01*
X144039952Y-72106396D01*
X143641607Y-71940988D01*
X143210285Y-71940612D01*
X142811652Y-72105324D01*
X142506396Y-72410048D01*
X142340988Y-72808393D01*
X142340612Y-73239715D01*
X141969013Y-73239715D01*
X141969388Y-72810285D01*
X141804676Y-72411652D01*
X141499952Y-72106396D01*
X141101607Y-71940988D01*
X140670285Y-71940612D01*
X140271652Y-72105324D01*
X139966396Y-72410048D01*
X139800988Y-72808393D01*
X139800612Y-73239715D01*
X135958600Y-73239715D01*
X135958600Y-70699715D01*
X139800612Y-70699715D01*
X139965324Y-71098348D01*
X140270048Y-71403604D01*
X140668393Y-71569012D01*
X141099715Y-71569388D01*
X141498348Y-71404676D01*
X141803604Y-71099952D01*
X141969012Y-70701607D01*
X141969013Y-70699715D01*
X142340612Y-70699715D01*
X142505324Y-71098348D01*
X142810048Y-71403604D01*
X143208393Y-71569012D01*
X143639715Y-71569388D01*
X144038348Y-71404676D01*
X144218178Y-71225159D01*
X151868908Y-71225159D01*
X151949578Y-71420394D01*
X152098820Y-71569897D01*
X152293914Y-71650908D01*
X152505159Y-71651092D01*
X152700394Y-71570422D01*
X152849897Y-71421180D01*
X152930908Y-71226086D01*
X152931092Y-71014841D01*
X152850422Y-70819606D01*
X152701180Y-70670103D01*
X152506086Y-70589092D01*
X152294841Y-70588908D01*
X152099606Y-70669578D01*
X151950103Y-70818820D01*
X151869092Y-71013914D01*
X151868908Y-71225159D01*
X144218178Y-71225159D01*
X144343604Y-71099952D01*
X144509012Y-70701607D01*
X144509388Y-70270285D01*
X144344676Y-69871652D01*
X144039952Y-69566396D01*
X143641607Y-69400988D01*
X143210285Y-69400612D01*
X142811652Y-69565324D01*
X142506396Y-69870048D01*
X142340988Y-70268393D01*
X142340612Y-70699715D01*
X141969013Y-70699715D01*
X141969388Y-70270285D01*
X141804676Y-69871652D01*
X141499952Y-69566396D01*
X141101607Y-69400988D01*
X140670285Y-69400612D01*
X140271652Y-69565324D01*
X139966396Y-69870048D01*
X139800988Y-70268393D01*
X139800612Y-70699715D01*
X135958600Y-70699715D01*
X135958600Y-68159715D01*
X139800612Y-68159715D01*
X139965324Y-68558348D01*
X140270048Y-68863604D01*
X140668393Y-69029012D01*
X141099715Y-69029388D01*
X141498348Y-68864676D01*
X141803604Y-68559952D01*
X141969012Y-68161607D01*
X141969013Y-68159715D01*
X142340612Y-68159715D01*
X142505324Y-68558348D01*
X142810048Y-68863604D01*
X143208393Y-69029012D01*
X143639715Y-69029388D01*
X144038348Y-68864676D01*
X144218178Y-68685159D01*
X151233908Y-68685159D01*
X151314578Y-68880394D01*
X151463820Y-69029897D01*
X151658914Y-69110908D01*
X151870159Y-69111092D01*
X152065394Y-69030422D01*
X152214897Y-68881180D01*
X152295908Y-68686086D01*
X152296092Y-68474841D01*
X152215422Y-68279606D01*
X152066180Y-68130103D01*
X151873656Y-68050159D01*
X152503908Y-68050159D01*
X152584578Y-68245394D01*
X152733820Y-68394897D01*
X152928914Y-68475908D01*
X153140159Y-68476092D01*
X153335394Y-68395422D01*
X153484897Y-68246180D01*
X153565908Y-68051086D01*
X153566092Y-67839841D01*
X153485422Y-67644606D01*
X153336180Y-67495103D01*
X153141086Y-67414092D01*
X152929841Y-67413908D01*
X152734606Y-67494578D01*
X152585103Y-67643820D01*
X152504092Y-67838914D01*
X152503908Y-68050159D01*
X151873656Y-68050159D01*
X151871086Y-68049092D01*
X151659841Y-68048908D01*
X151464606Y-68129578D01*
X151315103Y-68278820D01*
X151234092Y-68473914D01*
X151233908Y-68685159D01*
X144218178Y-68685159D01*
X144343604Y-68559952D01*
X144509012Y-68161607D01*
X144509388Y-67730285D01*
X144379181Y-67415159D01*
X151233908Y-67415159D01*
X151314578Y-67610394D01*
X151463820Y-67759897D01*
X151658914Y-67840908D01*
X151870159Y-67841092D01*
X152065394Y-67760422D01*
X152214897Y-67611180D01*
X152295908Y-67416086D01*
X152296092Y-67204841D01*
X152215422Y-67009606D01*
X152066180Y-66860103D01*
X151873656Y-66780159D01*
X152503908Y-66780159D01*
X152584578Y-66975394D01*
X152733820Y-67124897D01*
X152928914Y-67205908D01*
X153140159Y-67206092D01*
X153335394Y-67125422D01*
X153484897Y-66976180D01*
X153565908Y-66781086D01*
X153566092Y-66569841D01*
X153485422Y-66374606D01*
X153336180Y-66225103D01*
X153141086Y-66144092D01*
X152929841Y-66143908D01*
X152734606Y-66224578D01*
X152585103Y-66373820D01*
X152504092Y-66568914D01*
X152503908Y-66780159D01*
X151873656Y-66780159D01*
X151871086Y-66779092D01*
X151659841Y-66778908D01*
X151464606Y-66859578D01*
X151315103Y-67008820D01*
X151234092Y-67203914D01*
X151233908Y-67415159D01*
X144379181Y-67415159D01*
X144344676Y-67331652D01*
X144039952Y-67026396D01*
X143641607Y-66860988D01*
X143210285Y-66860612D01*
X142811652Y-67025324D01*
X142506396Y-67330048D01*
X142340988Y-67728393D01*
X142340612Y-68159715D01*
X141969013Y-68159715D01*
X141969388Y-67730285D01*
X141804676Y-67331652D01*
X141499952Y-67026396D01*
X141101607Y-66860988D01*
X140670285Y-66860612D01*
X140271652Y-67025324D01*
X139966396Y-67330048D01*
X139800988Y-67728393D01*
X139800612Y-68159715D01*
X135958600Y-68159715D01*
X135958600Y-65619715D01*
X139800612Y-65619715D01*
X139965324Y-66018348D01*
X140270048Y-66323604D01*
X140668393Y-66489012D01*
X141099715Y-66489388D01*
X141498348Y-66324676D01*
X141803604Y-66019952D01*
X141969012Y-65621607D01*
X141969013Y-65619715D01*
X142340612Y-65619715D01*
X142505324Y-66018348D01*
X142810048Y-66323604D01*
X143208393Y-66489012D01*
X143639715Y-66489388D01*
X144038348Y-66324676D01*
X144273274Y-66090159D01*
X156993908Y-66090159D01*
X157074578Y-66285394D01*
X157223820Y-66434897D01*
X157418914Y-66515908D01*
X157630159Y-66516092D01*
X157825394Y-66435422D01*
X157974897Y-66286180D01*
X158055908Y-66091086D01*
X158056092Y-65879841D01*
X157975422Y-65684606D01*
X157826180Y-65535103D01*
X157631086Y-65454092D01*
X157419841Y-65453908D01*
X157224606Y-65534578D01*
X157075103Y-65683820D01*
X156994092Y-65878914D01*
X156993908Y-66090159D01*
X144273274Y-66090159D01*
X144343604Y-66019952D01*
X144509012Y-65621607D01*
X144509388Y-65190285D01*
X144344676Y-64791652D01*
X144039952Y-64486396D01*
X143641607Y-64320988D01*
X143210285Y-64320612D01*
X142811652Y-64485324D01*
X142506396Y-64790048D01*
X142340988Y-65188393D01*
X142340612Y-65619715D01*
X141969013Y-65619715D01*
X141969388Y-65190285D01*
X141804676Y-64791652D01*
X141499952Y-64486396D01*
X141101607Y-64320988D01*
X140670285Y-64320612D01*
X140271652Y-64485324D01*
X139966396Y-64790048D01*
X139800988Y-65188393D01*
X139800612Y-65619715D01*
X135958600Y-65619715D01*
X135958600Y-64211200D01*
X159054800Y-64211200D01*
X159054800Y-76073000D01*
X159054800Y-76073000D01*
G37*
X159054800Y-76073000D02*
X159060803Y-76102646D01*
X159077868Y-76127621D01*
X159103305Y-76143989D01*
X159131000Y-76149200D01*
X185351400Y-76149200D01*
X185351400Y-128320800D01*
X159131000Y-128320800D01*
X159103305Y-128326011D01*
X159102405Y-128326590D01*
X159101354Y-128326803D01*
X159089714Y-128334757D01*
X159077868Y-128342379D01*
X159077264Y-128343264D01*
X159076379Y-128343868D01*
X159068757Y-128355714D01*
X159060803Y-128367354D01*
X159060590Y-128368405D01*
X159060011Y-128369305D01*
X159056083Y-128390179D01*
X159056092Y-128379841D01*
X158975422Y-128184606D01*
X158826180Y-128035103D01*
X158631086Y-127954092D01*
X158419841Y-127953908D01*
X158224606Y-128034578D01*
X158075103Y-128183820D01*
X157994092Y-128378914D01*
X157993908Y-128590159D01*
X158074578Y-128785394D01*
X158223820Y-128934897D01*
X158418914Y-129015908D01*
X158630159Y-129016092D01*
X158825394Y-128935422D01*
X158974897Y-128786180D01*
X159054800Y-128593754D01*
X159054800Y-140258800D01*
X135958600Y-140258800D01*
X135958600Y-139279715D01*
X139800612Y-139279715D01*
X139965324Y-139678348D01*
X140270048Y-139983604D01*
X140668393Y-140149012D01*
X141099715Y-140149388D01*
X141498348Y-139984676D01*
X141803604Y-139679952D01*
X141969012Y-139281607D01*
X141969013Y-139279715D01*
X142340612Y-139279715D01*
X142505324Y-139678348D01*
X142810048Y-139983604D01*
X143208393Y-140149012D01*
X143639715Y-140149388D01*
X144038348Y-139984676D01*
X144343604Y-139679952D01*
X144509012Y-139281607D01*
X144509388Y-138850285D01*
X144344676Y-138451652D01*
X144039952Y-138146396D01*
X143641607Y-137980988D01*
X143210285Y-137980612D01*
X142811652Y-138145324D01*
X142506396Y-138450048D01*
X142340988Y-138848393D01*
X142340612Y-139279715D01*
X141969013Y-139279715D01*
X141969388Y-138850285D01*
X141804676Y-138451652D01*
X141499952Y-138146396D01*
X141101607Y-137980988D01*
X140670285Y-137980612D01*
X140271652Y-138145324D01*
X139966396Y-138450048D01*
X139800988Y-138848393D01*
X139800612Y-139279715D01*
X135958600Y-139279715D01*
X135958600Y-137900159D01*
X152503908Y-137900159D01*
X152584578Y-138095394D01*
X152733820Y-138244897D01*
X152928914Y-138325908D01*
X153140159Y-138326092D01*
X153335394Y-138245422D01*
X153484897Y-138096180D01*
X153565908Y-137901086D01*
X153566092Y-137689841D01*
X153485422Y-137494606D01*
X153336180Y-137345103D01*
X153141086Y-137264092D01*
X152929841Y-137263908D01*
X152734606Y-137344578D01*
X152585103Y-137493820D01*
X152504092Y-137688914D01*
X152503908Y-137900159D01*
X135958600Y-137900159D01*
X135958600Y-136739715D01*
X139800612Y-136739715D01*
X139965324Y-137138348D01*
X140270048Y-137443604D01*
X140668393Y-137609012D01*
X141099715Y-137609388D01*
X141498348Y-137444676D01*
X141803604Y-137139952D01*
X141969012Y-136741607D01*
X141969013Y-136739715D01*
X142340612Y-136739715D01*
X142505324Y-137138348D01*
X142810048Y-137443604D01*
X143208393Y-137609012D01*
X143639715Y-137609388D01*
X144038348Y-137444676D01*
X144218178Y-137265159D01*
X151233908Y-137265159D01*
X151314578Y-137460394D01*
X151463820Y-137609897D01*
X151658914Y-137690908D01*
X151870159Y-137691092D01*
X152065394Y-137610422D01*
X152214897Y-137461180D01*
X152295908Y-137266086D01*
X152296092Y-137054841D01*
X152215422Y-136859606D01*
X152066180Y-136710103D01*
X151873656Y-136630159D01*
X152503908Y-136630159D01*
X152584578Y-136825394D01*
X152733820Y-136974897D01*
X152928914Y-137055908D01*
X153140159Y-137056092D01*
X153335394Y-136975422D01*
X153484897Y-136826180D01*
X153565908Y-136631086D01*
X153566092Y-136419841D01*
X153485422Y-136224606D01*
X153336180Y-136075103D01*
X153141086Y-135994092D01*
X152929841Y-135993908D01*
X152734606Y-136074578D01*
X152585103Y-136223820D01*
X152504092Y-136418914D01*
X152503908Y-136630159D01*
X151873656Y-136630159D01*
X151871086Y-136629092D01*
X151659841Y-136628908D01*
X151464606Y-136709578D01*
X151315103Y-136858820D01*
X151234092Y-137053914D01*
X151233908Y-137265159D01*
X144218178Y-137265159D01*
X144343604Y-137139952D01*
X144509012Y-136741607D01*
X144509388Y-136310285D01*
X144379181Y-135995159D01*
X151233908Y-135995159D01*
X151314578Y-136190394D01*
X151463820Y-136339897D01*
X151658914Y-136420908D01*
X151870159Y-136421092D01*
X152065394Y-136340422D01*
X152214897Y-136191180D01*
X152295908Y-135996086D01*
X152296092Y-135784841D01*
X152215422Y-135589606D01*
X152066180Y-135440103D01*
X151871086Y-135359092D01*
X151659841Y-135358908D01*
X151464606Y-135439578D01*
X151315103Y-135588820D01*
X151234092Y-135783914D01*
X151233908Y-135995159D01*
X144379181Y-135995159D01*
X144344676Y-135911652D01*
X144039952Y-135606396D01*
X143641607Y-135440988D01*
X143210285Y-135440612D01*
X142811652Y-135605324D01*
X142506396Y-135910048D01*
X142340988Y-136308393D01*
X142340612Y-136739715D01*
X141969013Y-136739715D01*
X141969388Y-136310285D01*
X141804676Y-135911652D01*
X141499952Y-135606396D01*
X141101607Y-135440988D01*
X140670285Y-135440612D01*
X140271652Y-135605324D01*
X139966396Y-135910048D01*
X139800988Y-136308393D01*
X139800612Y-136739715D01*
X135958600Y-136739715D01*
X135958600Y-134199715D01*
X139800612Y-134199715D01*
X139965324Y-134598348D01*
X140270048Y-134903604D01*
X140668393Y-135069012D01*
X141099715Y-135069388D01*
X141498348Y-134904676D01*
X141803604Y-134599952D01*
X141969012Y-134201607D01*
X141969013Y-134199715D01*
X142340612Y-134199715D01*
X142505324Y-134598348D01*
X142810048Y-134903604D01*
X143208393Y-135069012D01*
X143639715Y-135069388D01*
X144038348Y-134904676D01*
X144218178Y-134725159D01*
X151868908Y-134725159D01*
X151949578Y-134920394D01*
X152098820Y-135069897D01*
X152293914Y-135150908D01*
X152505159Y-135151092D01*
X152700394Y-135070422D01*
X152849897Y-134921180D01*
X152930908Y-134726086D01*
X152931092Y-134514841D01*
X152850422Y-134319606D01*
X152701180Y-134170103D01*
X152506086Y-134089092D01*
X152294841Y-134088908D01*
X152099606Y-134169578D01*
X151950103Y-134318820D01*
X151869092Y-134513914D01*
X151868908Y-134725159D01*
X144218178Y-134725159D01*
X144343604Y-134599952D01*
X144509012Y-134201607D01*
X144509388Y-133770285D01*
X144344676Y-133371652D01*
X144039952Y-133066396D01*
X143641607Y-132900988D01*
X143210285Y-132900612D01*
X142811652Y-133065324D01*
X142506396Y-133370048D01*
X142340988Y-133768393D01*
X142340612Y-134199715D01*
X141969013Y-134199715D01*
X141969388Y-133770285D01*
X141804676Y-133371652D01*
X141499952Y-133066396D01*
X141101607Y-132900988D01*
X140670285Y-132900612D01*
X140271652Y-133065324D01*
X139966396Y-133370048D01*
X139800988Y-133768393D01*
X139800612Y-134199715D01*
X135958600Y-134199715D01*
X135958600Y-131659715D01*
X139800612Y-131659715D01*
X139965324Y-132058348D01*
X140270048Y-132363604D01*
X140668393Y-132529012D01*
X141099715Y-132529388D01*
X141498348Y-132364676D01*
X141803604Y-132059952D01*
X141969012Y-131661607D01*
X141969013Y-131659715D01*
X142340612Y-131659715D01*
X142505324Y-132058348D01*
X142810048Y-132363604D01*
X143208393Y-132529012D01*
X143639715Y-132529388D01*
X144038348Y-132364676D01*
X144218178Y-132185159D01*
X151233908Y-132185159D01*
X151314578Y-132380394D01*
X151463820Y-132529897D01*
X151658914Y-132610908D01*
X151870159Y-132611092D01*
X152065394Y-132530422D01*
X152214897Y-132381180D01*
X152295908Y-132186086D01*
X152296092Y-131974841D01*
X152215422Y-131779606D01*
X152066180Y-131630103D01*
X151873656Y-131550159D01*
X152503908Y-131550159D01*
X152584578Y-131745394D01*
X152733820Y-131894897D01*
X152928914Y-131975908D01*
X153140159Y-131976092D01*
X153335394Y-131895422D01*
X153484897Y-131746180D01*
X153565908Y-131551086D01*
X153566092Y-131339841D01*
X153485422Y-131144606D01*
X153336180Y-130995103D01*
X153141086Y-130914092D01*
X152929841Y-130913908D01*
X152734606Y-130994578D01*
X152585103Y-131143820D01*
X152504092Y-131338914D01*
X152503908Y-131550159D01*
X151873656Y-131550159D01*
X151871086Y-131549092D01*
X151659841Y-131548908D01*
X151464606Y-131629578D01*
X151315103Y-131778820D01*
X151234092Y-131973914D01*
X151233908Y-132185159D01*
X144218178Y-132185159D01*
X144343604Y-132059952D01*
X144509012Y-131661607D01*
X144509388Y-131230285D01*
X144379181Y-130915159D01*
X151233908Y-130915159D01*
X151314578Y-131110394D01*
X151463820Y-131259897D01*
X151658914Y-131340908D01*
X151870159Y-131341092D01*
X152065394Y-131260422D01*
X152214897Y-131111180D01*
X152295908Y-130916086D01*
X152296092Y-130704841D01*
X152215422Y-130509606D01*
X152066180Y-130360103D01*
X151873656Y-130280159D01*
X152503908Y-130280159D01*
X152584578Y-130475394D01*
X152733820Y-130624897D01*
X152928914Y-130705908D01*
X153140159Y-130706092D01*
X153335394Y-130625422D01*
X153484897Y-130476180D01*
X153565908Y-130281086D01*
X153566092Y-130069841D01*
X153485422Y-129874606D01*
X153336180Y-129725103D01*
X153141086Y-129644092D01*
X152929841Y-129643908D01*
X152734606Y-129724578D01*
X152585103Y-129873820D01*
X152504092Y-130068914D01*
X152503908Y-130280159D01*
X151873656Y-130280159D01*
X151871086Y-130279092D01*
X151659841Y-130278908D01*
X151464606Y-130359578D01*
X151315103Y-130508820D01*
X151234092Y-130703914D01*
X151233908Y-130915159D01*
X144379181Y-130915159D01*
X144344676Y-130831652D01*
X144039952Y-130526396D01*
X143641607Y-130360988D01*
X143210285Y-130360612D01*
X142811652Y-130525324D01*
X142506396Y-130830048D01*
X142340988Y-131228393D01*
X142340612Y-131659715D01*
X141969013Y-131659715D01*
X141969388Y-131230285D01*
X141804676Y-130831652D01*
X141499952Y-130526396D01*
X141101607Y-130360988D01*
X140670285Y-130360612D01*
X140271652Y-130525324D01*
X139966396Y-130830048D01*
X139800988Y-131228393D01*
X139800612Y-131659715D01*
X135958600Y-131659715D01*
X135958600Y-129119715D01*
X139800612Y-129119715D01*
X139965324Y-129518348D01*
X140270048Y-129823604D01*
X140668393Y-129989012D01*
X141099715Y-129989388D01*
X141498348Y-129824676D01*
X141803604Y-129519952D01*
X141969012Y-129121607D01*
X141969013Y-129119715D01*
X142340612Y-129119715D01*
X142505324Y-129518348D01*
X142810048Y-129823604D01*
X143208393Y-129989012D01*
X143639715Y-129989388D01*
X144038348Y-129824676D01*
X144343604Y-129519952D01*
X144509012Y-129121607D01*
X144509388Y-128690285D01*
X144344676Y-128291652D01*
X144039952Y-127986396D01*
X143641607Y-127820988D01*
X143210285Y-127820612D01*
X142811652Y-127985324D01*
X142506396Y-128290048D01*
X142340988Y-128688393D01*
X142340612Y-129119715D01*
X141969013Y-129119715D01*
X141969388Y-128690285D01*
X141804676Y-128291652D01*
X141499952Y-127986396D01*
X141101607Y-127820988D01*
X140670285Y-127820612D01*
X140271652Y-127985324D01*
X139966396Y-128290048D01*
X139800988Y-128688393D01*
X139800612Y-129119715D01*
X135958600Y-129119715D01*
X135958600Y-126579715D01*
X139800612Y-126579715D01*
X139965324Y-126978348D01*
X140270048Y-127283604D01*
X140668393Y-127449012D01*
X141099715Y-127449388D01*
X141498348Y-127284676D01*
X141803604Y-126979952D01*
X141969012Y-126581607D01*
X141969013Y-126579715D01*
X142340612Y-126579715D01*
X142505324Y-126978348D01*
X142810048Y-127283604D01*
X143208393Y-127449012D01*
X143639715Y-127449388D01*
X144038348Y-127284676D01*
X144343604Y-126979952D01*
X144509012Y-126581607D01*
X144509388Y-126150285D01*
X144344676Y-125751652D01*
X144039952Y-125446396D01*
X143641607Y-125280988D01*
X143210285Y-125280612D01*
X142811652Y-125445324D01*
X142506396Y-125750048D01*
X142340988Y-126148393D01*
X142340612Y-126579715D01*
X141969013Y-126579715D01*
X141969388Y-126150285D01*
X141804676Y-125751652D01*
X141499952Y-125446396D01*
X141101607Y-125280988D01*
X140670285Y-125280612D01*
X140271652Y-125445324D01*
X139966396Y-125750048D01*
X139800988Y-126148393D01*
X139800612Y-126579715D01*
X135958600Y-126579715D01*
X135958600Y-124039715D01*
X139800612Y-124039715D01*
X139965324Y-124438348D01*
X140270048Y-124743604D01*
X140668393Y-124909012D01*
X141099715Y-124909388D01*
X141498348Y-124744676D01*
X141803604Y-124439952D01*
X141969012Y-124041607D01*
X141969013Y-124039715D01*
X142340612Y-124039715D01*
X142505324Y-124438348D01*
X142810048Y-124743604D01*
X143208393Y-124909012D01*
X143639715Y-124909388D01*
X144038348Y-124744676D01*
X144343604Y-124439952D01*
X144509012Y-124041607D01*
X144509388Y-123610285D01*
X144344676Y-123211652D01*
X144342743Y-123209715D01*
X163070612Y-123209715D01*
X163235324Y-123608348D01*
X163540048Y-123913604D01*
X163938393Y-124079012D01*
X164369715Y-124079388D01*
X164768348Y-123914676D01*
X165073604Y-123609952D01*
X165239012Y-123211607D01*
X165239013Y-123209715D01*
X165610612Y-123209715D01*
X165775324Y-123608348D01*
X166080048Y-123913604D01*
X166478393Y-124079012D01*
X166909715Y-124079388D01*
X167308348Y-123914676D01*
X167613604Y-123609952D01*
X167779012Y-123211607D01*
X167779388Y-122780285D01*
X167614676Y-122381652D01*
X167309952Y-122076396D01*
X166911607Y-121910988D01*
X166480285Y-121910612D01*
X166081652Y-122075324D01*
X165776396Y-122380048D01*
X165610988Y-122778393D01*
X165610612Y-123209715D01*
X165239013Y-123209715D01*
X165239388Y-122780285D01*
X165074676Y-122381652D01*
X164769952Y-122076396D01*
X164371607Y-121910988D01*
X163940285Y-121910612D01*
X163541652Y-122075324D01*
X163236396Y-122380048D01*
X163070988Y-122778393D01*
X163070612Y-123209715D01*
X144342743Y-123209715D01*
X144039952Y-122906396D01*
X143641607Y-122740988D01*
X143210285Y-122740612D01*
X142811652Y-122905324D01*
X142506396Y-123210048D01*
X142340988Y-123608393D01*
X142340612Y-124039715D01*
X141969013Y-124039715D01*
X141969388Y-123610285D01*
X141804676Y-123211652D01*
X141499952Y-122906396D01*
X141101607Y-122740988D01*
X140670285Y-122740612D01*
X140271652Y-122905324D01*
X139966396Y-123210048D01*
X139800988Y-123608393D01*
X139800612Y-124039715D01*
X135958600Y-124039715D01*
X135958600Y-121499715D01*
X139800612Y-121499715D01*
X139965324Y-121898348D01*
X140270048Y-122203604D01*
X140668393Y-122369012D01*
X141099715Y-122369388D01*
X141498348Y-122204676D01*
X141803604Y-121899952D01*
X141969012Y-121501607D01*
X141969013Y-121499715D01*
X142340612Y-121499715D01*
X142505324Y-121898348D01*
X142810048Y-122203604D01*
X143208393Y-122369012D01*
X143639715Y-122369388D01*
X144038348Y-122204676D01*
X144343604Y-121899952D01*
X144509012Y-121501607D01*
X144509388Y-121070285D01*
X144344676Y-120671652D01*
X144342743Y-120669715D01*
X163070612Y-120669715D01*
X163235324Y-121068348D01*
X163540048Y-121373604D01*
X163938393Y-121539012D01*
X164369715Y-121539388D01*
X164768348Y-121374676D01*
X165073604Y-121069952D01*
X165239012Y-120671607D01*
X165239013Y-120669715D01*
X165610612Y-120669715D01*
X165775324Y-121068348D01*
X166080048Y-121373604D01*
X166478393Y-121539012D01*
X166909715Y-121539388D01*
X167308348Y-121374676D01*
X167613604Y-121069952D01*
X167779012Y-120671607D01*
X167779388Y-120240285D01*
X167614676Y-119841652D01*
X167309952Y-119536396D01*
X166911607Y-119370988D01*
X166480285Y-119370612D01*
X166081652Y-119535324D01*
X165776396Y-119840048D01*
X165610988Y-120238393D01*
X165610612Y-120669715D01*
X165239013Y-120669715D01*
X165239388Y-120240285D01*
X165074676Y-119841652D01*
X164769952Y-119536396D01*
X164371607Y-119370988D01*
X163940285Y-119370612D01*
X163541652Y-119535324D01*
X163236396Y-119840048D01*
X163070988Y-120238393D01*
X163070612Y-120669715D01*
X144342743Y-120669715D01*
X144039952Y-120366396D01*
X143641607Y-120200988D01*
X143210285Y-120200612D01*
X142811652Y-120365324D01*
X142506396Y-120670048D01*
X142340988Y-121068393D01*
X142340612Y-121499715D01*
X141969013Y-121499715D01*
X141969388Y-121070285D01*
X141804676Y-120671652D01*
X141499952Y-120366396D01*
X141101607Y-120200988D01*
X140670285Y-120200612D01*
X140271652Y-120365324D01*
X139966396Y-120670048D01*
X139800988Y-121068393D01*
X139800612Y-121499715D01*
X135958600Y-121499715D01*
X135958600Y-118959715D01*
X139800612Y-118959715D01*
X139965324Y-119358348D01*
X140270048Y-119663604D01*
X140668393Y-119829012D01*
X141099715Y-119829388D01*
X141498348Y-119664676D01*
X141803604Y-119359952D01*
X141969012Y-118961607D01*
X141969013Y-118959715D01*
X142340612Y-118959715D01*
X142505324Y-119358348D01*
X142810048Y-119663604D01*
X143208393Y-119829012D01*
X143639715Y-119829388D01*
X144038348Y-119664676D01*
X144343604Y-119359952D01*
X144509012Y-118961607D01*
X144509388Y-118530285D01*
X144344676Y-118131652D01*
X144039952Y-117826396D01*
X143641607Y-117660988D01*
X143210285Y-117660612D01*
X142811652Y-117825324D01*
X142506396Y-118130048D01*
X142340988Y-118528393D01*
X142340612Y-118959715D01*
X141969013Y-118959715D01*
X141969388Y-118530285D01*
X141804676Y-118131652D01*
X141499952Y-117826396D01*
X141101607Y-117660988D01*
X140670285Y-117660612D01*
X140271652Y-117825324D01*
X139966396Y-118130048D01*
X139800988Y-118528393D01*
X139800612Y-118959715D01*
X135958600Y-118959715D01*
X135958600Y-117384684D01*
X156261308Y-117384684D01*
X156341613Y-117579037D01*
X156490181Y-117727864D01*
X156684394Y-117808508D01*
X156894684Y-117808692D01*
X157089037Y-117728387D01*
X157237864Y-117579819D01*
X157318508Y-117385606D01*
X157318508Y-117384684D01*
X160531308Y-117384684D01*
X160611613Y-117579037D01*
X160760181Y-117727864D01*
X160954394Y-117808508D01*
X161164684Y-117808692D01*
X161359037Y-117728387D01*
X161507864Y-117579819D01*
X161588508Y-117385606D01*
X161588508Y-117384684D01*
X164761308Y-117384684D01*
X164841613Y-117579037D01*
X164990181Y-117727864D01*
X165184394Y-117808508D01*
X165394684Y-117808692D01*
X165589037Y-117728387D01*
X165737864Y-117579819D01*
X165818508Y-117385606D01*
X165818508Y-117384684D01*
X171031308Y-117384684D01*
X171111613Y-117579037D01*
X171260181Y-117727864D01*
X171454394Y-117808508D01*
X171664684Y-117808692D01*
X171859037Y-117728387D01*
X172007864Y-117579819D01*
X172088508Y-117385606D01*
X172088692Y-117175316D01*
X172047112Y-117074684D01*
X180251308Y-117074684D01*
X180331613Y-117269037D01*
X180480181Y-117417864D01*
X180674394Y-117498508D01*
X180884684Y-117498692D01*
X181079037Y-117418387D01*
X181227864Y-117269819D01*
X181308508Y-117075606D01*
X181308692Y-116865316D01*
X181228387Y-116670963D01*
X181079819Y-116522136D01*
X180885606Y-116441492D01*
X180675316Y-116441308D01*
X180480963Y-116521613D01*
X180332136Y-116670181D01*
X180251492Y-116864394D01*
X180251308Y-117074684D01*
X172047112Y-117074684D01*
X172008387Y-116980963D01*
X171859819Y-116832136D01*
X171665606Y-116751492D01*
X171455316Y-116751308D01*
X171260963Y-116831613D01*
X171112136Y-116980181D01*
X171031492Y-117174394D01*
X171031308Y-117384684D01*
X165818508Y-117384684D01*
X165818692Y-117175316D01*
X165738387Y-116980963D01*
X165589819Y-116832136D01*
X165395606Y-116751492D01*
X165185316Y-116751308D01*
X164990963Y-116831613D01*
X164842136Y-116980181D01*
X164761492Y-117174394D01*
X164761308Y-117384684D01*
X161588508Y-117384684D01*
X161588692Y-117175316D01*
X161508387Y-116980963D01*
X161359819Y-116832136D01*
X161165606Y-116751492D01*
X160955316Y-116751308D01*
X160760963Y-116831613D01*
X160612136Y-116980181D01*
X160531492Y-117174394D01*
X160531308Y-117384684D01*
X157318508Y-117384684D01*
X157318692Y-117175316D01*
X157238387Y-116980963D01*
X157089819Y-116832136D01*
X156895606Y-116751492D01*
X156685316Y-116751308D01*
X156490963Y-116831613D01*
X156342136Y-116980181D01*
X156261492Y-117174394D01*
X156261308Y-117384684D01*
X135958600Y-117384684D01*
X135958600Y-116419715D01*
X139800612Y-116419715D01*
X139965324Y-116818348D01*
X140270048Y-117123604D01*
X140668393Y-117289012D01*
X141099715Y-117289388D01*
X141498348Y-117124676D01*
X141803604Y-116819952D01*
X141969012Y-116421607D01*
X141969013Y-116419715D01*
X142340612Y-116419715D01*
X142505324Y-116818348D01*
X142810048Y-117123604D01*
X143208393Y-117289012D01*
X143639715Y-117289388D01*
X144038348Y-117124676D01*
X144343604Y-116819952D01*
X144509012Y-116421607D01*
X144509388Y-115990285D01*
X144344676Y-115591652D01*
X144039952Y-115286396D01*
X143641607Y-115120988D01*
X143210285Y-115120612D01*
X142811652Y-115285324D01*
X142506396Y-115590048D01*
X142340988Y-115988393D01*
X142340612Y-116419715D01*
X141969013Y-116419715D01*
X141969388Y-115990285D01*
X141804676Y-115591652D01*
X141499952Y-115286396D01*
X141101607Y-115120988D01*
X140670285Y-115120612D01*
X140271652Y-115285324D01*
X139966396Y-115590048D01*
X139800988Y-115988393D01*
X139800612Y-116419715D01*
X135958600Y-116419715D01*
X135958600Y-113879715D01*
X139800612Y-113879715D01*
X139965324Y-114278348D01*
X140270048Y-114583604D01*
X140668393Y-114749012D01*
X141099715Y-114749388D01*
X141498348Y-114584676D01*
X141803604Y-114279952D01*
X141969012Y-113881607D01*
X141969013Y-113879715D01*
X142340612Y-113879715D01*
X142505324Y-114278348D01*
X142810048Y-114583604D01*
X143208393Y-114749012D01*
X143639715Y-114749388D01*
X144038348Y-114584676D01*
X144343604Y-114279952D01*
X144509012Y-113881607D01*
X144509388Y-113450285D01*
X144344676Y-113051652D01*
X144039952Y-112746396D01*
X143641607Y-112580988D01*
X143210285Y-112580612D01*
X142811652Y-112745324D01*
X142506396Y-113050048D01*
X142340988Y-113448393D01*
X142340612Y-113879715D01*
X141969013Y-113879715D01*
X141969388Y-113450285D01*
X141804676Y-113051652D01*
X141499952Y-112746396D01*
X141101607Y-112580988D01*
X140670285Y-112580612D01*
X140271652Y-112745324D01*
X139966396Y-113050048D01*
X139800988Y-113448393D01*
X139800612Y-113879715D01*
X135958600Y-113879715D01*
X135958600Y-111339715D01*
X139800612Y-111339715D01*
X139965324Y-111738348D01*
X140270048Y-112043604D01*
X140668393Y-112209012D01*
X141099715Y-112209388D01*
X141498348Y-112044676D01*
X141803604Y-111739952D01*
X141969012Y-111341607D01*
X141969013Y-111339715D01*
X142340612Y-111339715D01*
X142505324Y-111738348D01*
X142810048Y-112043604D01*
X143208393Y-112209012D01*
X143639715Y-112209388D01*
X144038348Y-112044676D01*
X144108462Y-111974684D01*
X146351308Y-111974684D01*
X146431613Y-112169037D01*
X146580181Y-112317864D01*
X146774394Y-112398508D01*
X146984684Y-112398692D01*
X147179037Y-112318387D01*
X147327864Y-112169819D01*
X147408508Y-111975606D01*
X147408692Y-111765316D01*
X147336319Y-111590159D01*
X152793908Y-111590159D01*
X152874578Y-111785394D01*
X153023820Y-111934897D01*
X153218914Y-112015908D01*
X153430159Y-112016092D01*
X153625394Y-111935422D01*
X153774897Y-111786180D01*
X153855908Y-111591086D01*
X153855908Y-111590159D01*
X154293908Y-111590159D01*
X154374578Y-111785394D01*
X154523820Y-111934897D01*
X154718914Y-112015908D01*
X154930159Y-112016092D01*
X155125394Y-111935422D01*
X155274897Y-111786180D01*
X155323270Y-111669684D01*
X156146308Y-111669684D01*
X156226613Y-111864037D01*
X156375181Y-112012864D01*
X156569394Y-112093508D01*
X156779684Y-112093692D01*
X156974037Y-112013387D01*
X157122864Y-111864819D01*
X157203508Y-111670606D01*
X157203508Y-111669684D01*
X160146308Y-111669684D01*
X160226613Y-111864037D01*
X160375181Y-112012864D01*
X160569394Y-112093508D01*
X160779684Y-112093692D01*
X160974037Y-112013387D01*
X161122864Y-111864819D01*
X161203508Y-111670606D01*
X161203508Y-111669684D01*
X165146308Y-111669684D01*
X165226613Y-111864037D01*
X165375181Y-112012864D01*
X165569394Y-112093508D01*
X165779684Y-112093692D01*
X165974037Y-112013387D01*
X166122864Y-111864819D01*
X166203508Y-111670606D01*
X166203692Y-111460316D01*
X166123387Y-111265963D01*
X165974819Y-111117136D01*
X165780606Y-111036492D01*
X165570316Y-111036308D01*
X165375963Y-111116613D01*
X165227136Y-111265181D01*
X165146492Y-111459394D01*
X165146308Y-111669684D01*
X161203508Y-111669684D01*
X161203692Y-111460316D01*
X161123387Y-111265963D01*
X160974819Y-111117136D01*
X160780606Y-111036492D01*
X160570316Y-111036308D01*
X160375963Y-111116613D01*
X160227136Y-111265181D01*
X160146492Y-111459394D01*
X160146308Y-111669684D01*
X157203508Y-111669684D01*
X157203692Y-111460316D01*
X157123387Y-111265963D01*
X156974819Y-111117136D01*
X156780606Y-111036492D01*
X156570316Y-111036308D01*
X156375963Y-111116613D01*
X156227136Y-111265181D01*
X156146492Y-111459394D01*
X156146308Y-111669684D01*
X155323270Y-111669684D01*
X155355908Y-111591086D01*
X155356092Y-111379841D01*
X155275422Y-111184606D01*
X155126180Y-111035103D01*
X154931086Y-110954092D01*
X154719841Y-110953908D01*
X154524606Y-111034578D01*
X154375103Y-111183820D01*
X154294092Y-111378914D01*
X154293908Y-111590159D01*
X153855908Y-111590159D01*
X153856092Y-111379841D01*
X153775422Y-111184606D01*
X153626180Y-111035103D01*
X153431086Y-110954092D01*
X153219841Y-110953908D01*
X153024606Y-111034578D01*
X152875103Y-111183820D01*
X152794092Y-111378914D01*
X152793908Y-111590159D01*
X147336319Y-111590159D01*
X147328387Y-111570963D01*
X147179819Y-111422136D01*
X146985606Y-111341492D01*
X146775316Y-111341308D01*
X146580963Y-111421613D01*
X146432136Y-111570181D01*
X146351492Y-111764394D01*
X146351308Y-111974684D01*
X144108462Y-111974684D01*
X144343604Y-111739952D01*
X144509012Y-111341607D01*
X144509388Y-110910285D01*
X144377115Y-110590159D01*
X167993908Y-110590159D01*
X168074578Y-110785394D01*
X168223820Y-110934897D01*
X168418914Y-111015908D01*
X168630159Y-111016092D01*
X168825394Y-110935422D01*
X168974897Y-110786180D01*
X169055908Y-110591086D01*
X169055908Y-110590159D01*
X169493908Y-110590159D01*
X169574578Y-110785394D01*
X169723820Y-110934897D01*
X169918914Y-111015908D01*
X170130159Y-111016092D01*
X170325394Y-110935422D01*
X170474897Y-110786180D01*
X170555908Y-110591086D01*
X170556092Y-110379841D01*
X170475422Y-110184606D01*
X170380666Y-110089684D01*
X183426308Y-110089684D01*
X183506613Y-110284037D01*
X183655181Y-110432864D01*
X183849394Y-110513508D01*
X184059684Y-110513692D01*
X184254037Y-110433387D01*
X184402864Y-110284819D01*
X184483508Y-110090606D01*
X184483692Y-109880316D01*
X184403387Y-109685963D01*
X184254819Y-109537136D01*
X184060606Y-109456492D01*
X183850316Y-109456308D01*
X183655963Y-109536613D01*
X183507136Y-109685181D01*
X183426492Y-109879394D01*
X183426308Y-110089684D01*
X170380666Y-110089684D01*
X170326180Y-110035103D01*
X170131086Y-109954092D01*
X169919841Y-109953908D01*
X169724606Y-110034578D01*
X169575103Y-110183820D01*
X169494092Y-110378914D01*
X169493908Y-110590159D01*
X169055908Y-110590159D01*
X169056092Y-110379841D01*
X168975422Y-110184606D01*
X168826180Y-110035103D01*
X168631086Y-109954092D01*
X168419841Y-109953908D01*
X168224606Y-110034578D01*
X168075103Y-110183820D01*
X167994092Y-110378914D01*
X167993908Y-110590159D01*
X144377115Y-110590159D01*
X144344676Y-110511652D01*
X144039952Y-110206396D01*
X143760024Y-110090159D01*
X154293908Y-110090159D01*
X154374578Y-110285394D01*
X154523820Y-110434897D01*
X154718914Y-110515908D01*
X154930159Y-110516092D01*
X155125394Y-110435422D01*
X155274897Y-110286180D01*
X155355908Y-110091086D01*
X155355908Y-110090159D01*
X155793908Y-110090159D01*
X155874578Y-110285394D01*
X156023820Y-110434897D01*
X156218914Y-110515908D01*
X156430159Y-110516092D01*
X156625394Y-110435422D01*
X156774897Y-110286180D01*
X156855908Y-110091086D01*
X156856092Y-109879841D01*
X156775422Y-109684606D01*
X156626180Y-109535103D01*
X156431086Y-109454092D01*
X156219841Y-109453908D01*
X156024606Y-109534578D01*
X155875103Y-109683820D01*
X155794092Y-109878914D01*
X155793908Y-110090159D01*
X155355908Y-110090159D01*
X155356092Y-109879841D01*
X155275422Y-109684606D01*
X155126180Y-109535103D01*
X154931086Y-109454092D01*
X154719841Y-109453908D01*
X154524606Y-109534578D01*
X154375103Y-109683820D01*
X154294092Y-109878914D01*
X154293908Y-110090159D01*
X143760024Y-110090159D01*
X143641607Y-110040988D01*
X143210285Y-110040612D01*
X142811652Y-110205324D01*
X142506396Y-110510048D01*
X142340988Y-110908393D01*
X142340612Y-111339715D01*
X141969013Y-111339715D01*
X141969388Y-110910285D01*
X141804676Y-110511652D01*
X141499952Y-110206396D01*
X141101607Y-110040988D01*
X140670285Y-110040612D01*
X140271652Y-110205324D01*
X139966396Y-110510048D01*
X139800988Y-110908393D01*
X139800612Y-111339715D01*
X135958600Y-111339715D01*
X135958600Y-108799715D01*
X139800612Y-108799715D01*
X139965324Y-109198348D01*
X140270048Y-109503604D01*
X140668393Y-109669012D01*
X141099715Y-109669388D01*
X141498348Y-109504676D01*
X141803604Y-109199952D01*
X141969012Y-108801607D01*
X141969013Y-108799715D01*
X142340612Y-108799715D01*
X142505324Y-109198348D01*
X142810048Y-109503604D01*
X143208393Y-109669012D01*
X143639715Y-109669388D01*
X144038348Y-109504676D01*
X144343604Y-109199952D01*
X144389194Y-109090159D01*
X166493908Y-109090159D01*
X166574578Y-109285394D01*
X166723820Y-109434897D01*
X166918914Y-109515908D01*
X167130159Y-109516092D01*
X167325394Y-109435422D01*
X167474897Y-109286180D01*
X167555908Y-109091086D01*
X167555908Y-109090159D01*
X167993908Y-109090159D01*
X168074578Y-109285394D01*
X168223820Y-109434897D01*
X168418914Y-109515908D01*
X168630159Y-109516092D01*
X168825394Y-109435422D01*
X168974897Y-109286180D01*
X169055908Y-109091086D01*
X169056092Y-108879841D01*
X168975422Y-108684606D01*
X168826180Y-108535103D01*
X168631086Y-108454092D01*
X168419841Y-108453908D01*
X168224606Y-108534578D01*
X168075103Y-108683820D01*
X167994092Y-108878914D01*
X167993908Y-109090159D01*
X167555908Y-109090159D01*
X167556092Y-108879841D01*
X167475422Y-108684606D01*
X167326180Y-108535103D01*
X167131086Y-108454092D01*
X166919841Y-108453908D01*
X166724606Y-108534578D01*
X166575103Y-108683820D01*
X166494092Y-108878914D01*
X166493908Y-109090159D01*
X144389194Y-109090159D01*
X144509012Y-108801607D01*
X144509196Y-108590159D01*
X155793908Y-108590159D01*
X155874578Y-108785394D01*
X156023820Y-108934897D01*
X156218914Y-109015908D01*
X156430159Y-109016092D01*
X156625394Y-108935422D01*
X156774897Y-108786180D01*
X156855908Y-108591086D01*
X156855908Y-108590159D01*
X157293908Y-108590159D01*
X157374578Y-108785394D01*
X157523820Y-108934897D01*
X157718914Y-109015908D01*
X157930159Y-109016092D01*
X158125394Y-108935422D01*
X158274897Y-108786180D01*
X158355908Y-108591086D01*
X158356092Y-108379841D01*
X158275422Y-108184606D01*
X158126180Y-108035103D01*
X157931086Y-107954092D01*
X157719841Y-107953908D01*
X157524606Y-108034578D01*
X157375103Y-108183820D01*
X157294092Y-108378914D01*
X157293908Y-108590159D01*
X156855908Y-108590159D01*
X156856092Y-108379841D01*
X156775422Y-108184606D01*
X156626180Y-108035103D01*
X156431086Y-107954092D01*
X156219841Y-107953908D01*
X156024606Y-108034578D01*
X155875103Y-108183820D01*
X155794092Y-108378914D01*
X155793908Y-108590159D01*
X144509196Y-108590159D01*
X144509388Y-108370285D01*
X144344676Y-107971652D01*
X144039952Y-107666396D01*
X143641607Y-107500988D01*
X143210285Y-107500612D01*
X142811652Y-107665324D01*
X142506396Y-107970048D01*
X142340988Y-108368393D01*
X142340612Y-108799715D01*
X141969013Y-108799715D01*
X141969388Y-108370285D01*
X141804676Y-107971652D01*
X141499952Y-107666396D01*
X141101607Y-107500988D01*
X140670285Y-107500612D01*
X140271652Y-107665324D01*
X139966396Y-107970048D01*
X139800988Y-108368393D01*
X139800612Y-108799715D01*
X135958600Y-108799715D01*
X135958600Y-107204684D01*
X146351308Y-107204684D01*
X146431613Y-107399037D01*
X146580181Y-107547864D01*
X146774394Y-107628508D01*
X146984684Y-107628692D01*
X147077941Y-107590159D01*
X164993908Y-107590159D01*
X165074578Y-107785394D01*
X165223820Y-107934897D01*
X165418914Y-108015908D01*
X165630159Y-108016092D01*
X165825394Y-107935422D01*
X165974897Y-107786180D01*
X166055908Y-107591086D01*
X166055908Y-107590159D01*
X166493908Y-107590159D01*
X166574578Y-107785394D01*
X166723820Y-107934897D01*
X166918914Y-108015908D01*
X167130159Y-108016092D01*
X167325394Y-107935422D01*
X167474897Y-107786180D01*
X167555908Y-107591086D01*
X167556092Y-107379841D01*
X167483719Y-107204684D01*
X176441308Y-107204684D01*
X176521613Y-107399037D01*
X176670181Y-107547864D01*
X176864394Y-107628508D01*
X177074684Y-107628692D01*
X177269037Y-107548387D01*
X177417864Y-107399819D01*
X177498508Y-107205606D01*
X177498692Y-106995316D01*
X177418387Y-106800963D01*
X177402611Y-106785159D01*
X182348908Y-106785159D01*
X182429578Y-106980394D01*
X182578820Y-107129897D01*
X182773914Y-107210908D01*
X182985159Y-107211092D01*
X183180394Y-107130422D01*
X183329897Y-106981180D01*
X183410908Y-106786086D01*
X183411092Y-106574841D01*
X183330422Y-106379606D01*
X183181180Y-106230103D01*
X182986086Y-106149092D01*
X182774841Y-106148908D01*
X182579606Y-106229578D01*
X182430103Y-106378820D01*
X182349092Y-106573914D01*
X182348908Y-106785159D01*
X177402611Y-106785159D01*
X177269819Y-106652136D01*
X177075606Y-106571492D01*
X176865316Y-106571308D01*
X176670963Y-106651613D01*
X176522136Y-106800181D01*
X176441492Y-106994394D01*
X176441308Y-107204684D01*
X167483719Y-107204684D01*
X167475422Y-107184606D01*
X167326180Y-107035103D01*
X167131086Y-106954092D01*
X166919841Y-106953908D01*
X166724606Y-107034578D01*
X166575103Y-107183820D01*
X166494092Y-107378914D01*
X166493908Y-107590159D01*
X166055908Y-107590159D01*
X166056092Y-107379841D01*
X165975422Y-107184606D01*
X165826180Y-107035103D01*
X165631086Y-106954092D01*
X165419841Y-106953908D01*
X165224606Y-107034578D01*
X165075103Y-107183820D01*
X164994092Y-107378914D01*
X164993908Y-107590159D01*
X147077941Y-107590159D01*
X147179037Y-107548387D01*
X147327864Y-107399819D01*
X147408508Y-107205606D01*
X147408609Y-107090159D01*
X157293908Y-107090159D01*
X157374578Y-107285394D01*
X157523820Y-107434897D01*
X157718914Y-107515908D01*
X157930159Y-107516092D01*
X158125394Y-107435422D01*
X158274897Y-107286180D01*
X158355908Y-107091086D01*
X158355908Y-107090159D01*
X158793908Y-107090159D01*
X158874578Y-107285394D01*
X159023820Y-107434897D01*
X159218914Y-107515908D01*
X159430159Y-107516092D01*
X159625394Y-107435422D01*
X159774897Y-107286180D01*
X159855908Y-107091086D01*
X159856092Y-106879841D01*
X159775422Y-106684606D01*
X159626180Y-106535103D01*
X159431086Y-106454092D01*
X159219841Y-106453908D01*
X159024606Y-106534578D01*
X158875103Y-106683820D01*
X158794092Y-106878914D01*
X158793908Y-107090159D01*
X158355908Y-107090159D01*
X158356092Y-106879841D01*
X158275422Y-106684606D01*
X158126180Y-106535103D01*
X157931086Y-106454092D01*
X157719841Y-106453908D01*
X157524606Y-106534578D01*
X157375103Y-106683820D01*
X157294092Y-106878914D01*
X157293908Y-107090159D01*
X147408609Y-107090159D01*
X147408692Y-106995316D01*
X147328387Y-106800963D01*
X147179819Y-106652136D01*
X146985606Y-106571492D01*
X146775316Y-106571308D01*
X146580963Y-106651613D01*
X146432136Y-106800181D01*
X146351492Y-106994394D01*
X146351308Y-107204684D01*
X135958600Y-107204684D01*
X135958600Y-106259715D01*
X139800612Y-106259715D01*
X139965324Y-106658348D01*
X140270048Y-106963604D01*
X140668393Y-107129012D01*
X141099715Y-107129388D01*
X141498348Y-106964676D01*
X141803604Y-106659952D01*
X141969012Y-106261607D01*
X141969013Y-106259715D01*
X142340612Y-106259715D01*
X142505324Y-106658348D01*
X142810048Y-106963604D01*
X143208393Y-107129012D01*
X143639715Y-107129388D01*
X144038348Y-106964676D01*
X144343604Y-106659952D01*
X144509012Y-106261607D01*
X144509161Y-106090159D01*
X163493908Y-106090159D01*
X163574578Y-106285394D01*
X163723820Y-106434897D01*
X163918914Y-106515908D01*
X164130159Y-106516092D01*
X164325394Y-106435422D01*
X164474897Y-106286180D01*
X164555908Y-106091086D01*
X164555908Y-106090159D01*
X164993908Y-106090159D01*
X165074578Y-106285394D01*
X165223820Y-106434897D01*
X165418914Y-106515908D01*
X165630159Y-106516092D01*
X165825394Y-106435422D01*
X165974897Y-106286180D01*
X166055908Y-106091086D01*
X166056092Y-105879841D01*
X165975422Y-105684606D01*
X165826180Y-105535103D01*
X165631086Y-105454092D01*
X165419841Y-105453908D01*
X165224606Y-105534578D01*
X165075103Y-105683820D01*
X164994092Y-105878914D01*
X164993908Y-106090159D01*
X164555908Y-106090159D01*
X164556092Y-105879841D01*
X164475422Y-105684606D01*
X164326180Y-105535103D01*
X164131086Y-105454092D01*
X163919841Y-105453908D01*
X163724606Y-105534578D01*
X163575103Y-105683820D01*
X163494092Y-105878914D01*
X163493908Y-106090159D01*
X144509161Y-106090159D01*
X144509388Y-105830285D01*
X144410170Y-105590159D01*
X158793908Y-105590159D01*
X158874578Y-105785394D01*
X159023820Y-105934897D01*
X159218914Y-106015908D01*
X159430159Y-106016092D01*
X159625394Y-105935422D01*
X159774897Y-105786180D01*
X159855908Y-105591086D01*
X159855908Y-105590159D01*
X160293908Y-105590159D01*
X160374578Y-105785394D01*
X160523820Y-105934897D01*
X160718914Y-106015908D01*
X160930159Y-106016092D01*
X161125394Y-105935422D01*
X161274897Y-105786180D01*
X161355908Y-105591086D01*
X161356092Y-105379841D01*
X161275422Y-105184606D01*
X161126180Y-105035103D01*
X160931086Y-104954092D01*
X160719841Y-104953908D01*
X160524606Y-105034578D01*
X160375103Y-105183820D01*
X160294092Y-105378914D01*
X160293908Y-105590159D01*
X159855908Y-105590159D01*
X159856092Y-105379841D01*
X159775422Y-105184606D01*
X159626180Y-105035103D01*
X159431086Y-104954092D01*
X159219841Y-104953908D01*
X159024606Y-105034578D01*
X158875103Y-105183820D01*
X158794092Y-105378914D01*
X158793908Y-105590159D01*
X144410170Y-105590159D01*
X144344676Y-105431652D01*
X144039952Y-105126396D01*
X143641607Y-104960988D01*
X143210285Y-104960612D01*
X142811652Y-105125324D01*
X142506396Y-105430048D01*
X142340988Y-105828393D01*
X142340612Y-106259715D01*
X141969013Y-106259715D01*
X141969388Y-105830285D01*
X141804676Y-105431652D01*
X141499952Y-105126396D01*
X141101607Y-104960988D01*
X140670285Y-104960612D01*
X140271652Y-105125324D01*
X139966396Y-105430048D01*
X139800988Y-105828393D01*
X139800612Y-106259715D01*
X135958600Y-106259715D01*
X135958600Y-104590159D01*
X163493908Y-104590159D01*
X163574578Y-104785394D01*
X163723820Y-104934897D01*
X163918914Y-105015908D01*
X164130159Y-105016092D01*
X164325394Y-104935422D01*
X164474897Y-104786180D01*
X164555908Y-104591086D01*
X164556009Y-104474684D01*
X176441308Y-104474684D01*
X176521613Y-104669037D01*
X176670181Y-104817864D01*
X176864394Y-104898508D01*
X177074684Y-104898692D01*
X177269037Y-104818387D01*
X177417864Y-104669819D01*
X177434529Y-104629684D01*
X179616308Y-104629684D01*
X179696613Y-104824037D01*
X179845181Y-104972864D01*
X180039394Y-105053508D01*
X180249684Y-105053692D01*
X180444037Y-104973387D01*
X180592864Y-104824819D01*
X180673508Y-104630606D01*
X180673692Y-104420316D01*
X180593387Y-104225963D01*
X180444819Y-104077136D01*
X180250606Y-103996492D01*
X180040316Y-103996308D01*
X179845963Y-104076613D01*
X179697136Y-104225181D01*
X179616492Y-104419394D01*
X179616308Y-104629684D01*
X177434529Y-104629684D01*
X177498508Y-104475606D01*
X177498692Y-104265316D01*
X177418387Y-104070963D01*
X177269819Y-103922136D01*
X177075606Y-103841492D01*
X176865316Y-103841308D01*
X176670963Y-103921613D01*
X176522136Y-104070181D01*
X176441492Y-104264394D01*
X176441308Y-104474684D01*
X164556009Y-104474684D01*
X164556092Y-104379841D01*
X164475422Y-104184606D01*
X164326180Y-104035103D01*
X164131086Y-103954092D01*
X163919841Y-103953908D01*
X163724606Y-104034578D01*
X163575103Y-104183820D01*
X163494092Y-104378914D01*
X163493908Y-104590159D01*
X135958600Y-104590159D01*
X135958600Y-103719715D01*
X139800612Y-103719715D01*
X139965324Y-104118348D01*
X140270048Y-104423604D01*
X140668393Y-104589012D01*
X141099715Y-104589388D01*
X141498348Y-104424676D01*
X141803604Y-104119952D01*
X141969012Y-103721607D01*
X141969013Y-103719715D01*
X142340612Y-103719715D01*
X142505324Y-104118348D01*
X142810048Y-104423604D01*
X143208393Y-104589012D01*
X143639715Y-104589388D01*
X144038348Y-104424676D01*
X144343604Y-104119952D01*
X144355975Y-104090159D01*
X160293908Y-104090159D01*
X160374578Y-104285394D01*
X160523820Y-104434897D01*
X160718914Y-104515908D01*
X160930159Y-104516092D01*
X161125394Y-104435422D01*
X161274897Y-104286180D01*
X161355908Y-104091086D01*
X161356092Y-103879841D01*
X161275422Y-103684606D01*
X161126180Y-103535103D01*
X160931086Y-103454092D01*
X160719841Y-103453908D01*
X160524606Y-103534578D01*
X160375103Y-103683820D01*
X160294092Y-103878914D01*
X160293908Y-104090159D01*
X144355975Y-104090159D01*
X144509012Y-103721607D01*
X144509388Y-103290285D01*
X144344676Y-102891652D01*
X144043235Y-102589684D01*
X170726308Y-102589684D01*
X170806613Y-102784037D01*
X170955181Y-102932864D01*
X171149394Y-103013508D01*
X171359684Y-103013692D01*
X171554037Y-102933387D01*
X171702864Y-102784819D01*
X171783508Y-102590606D01*
X171783692Y-102380316D01*
X171703387Y-102185963D01*
X171554819Y-102037136D01*
X171360606Y-101956492D01*
X171150316Y-101956308D01*
X170955963Y-102036613D01*
X170807136Y-102185181D01*
X170726492Y-102379394D01*
X170726308Y-102589684D01*
X144043235Y-102589684D01*
X144039952Y-102586396D01*
X143641607Y-102420988D01*
X143210285Y-102420612D01*
X142811652Y-102585324D01*
X142506396Y-102890048D01*
X142340988Y-103288393D01*
X142340612Y-103719715D01*
X141969013Y-103719715D01*
X141969388Y-103290285D01*
X141804676Y-102891652D01*
X141499952Y-102586396D01*
X141101607Y-102420988D01*
X140670285Y-102420612D01*
X140271652Y-102585324D01*
X139966396Y-102890048D01*
X139800988Y-103288393D01*
X139800612Y-103719715D01*
X135958600Y-103719715D01*
X135958600Y-101179715D01*
X139800612Y-101179715D01*
X139965324Y-101578348D01*
X140270048Y-101883604D01*
X140668393Y-102049012D01*
X141099715Y-102049388D01*
X141498348Y-101884676D01*
X141803604Y-101579952D01*
X141969012Y-101181607D01*
X141969013Y-101179715D01*
X142340612Y-101179715D01*
X142505324Y-101578348D01*
X142810048Y-101883604D01*
X143208393Y-102049012D01*
X143639715Y-102049388D01*
X143820512Y-101974684D01*
X146351308Y-101974684D01*
X146431613Y-102169037D01*
X146580181Y-102317864D01*
X146774394Y-102398508D01*
X146984684Y-102398692D01*
X147179037Y-102318387D01*
X147327864Y-102169819D01*
X147360941Y-102090159D01*
X149543908Y-102090159D01*
X149624578Y-102285394D01*
X149773820Y-102434897D01*
X149968914Y-102515908D01*
X150180159Y-102516092D01*
X150375394Y-102435422D01*
X150524897Y-102286180D01*
X150605908Y-102091086D01*
X150606092Y-101879841D01*
X150525422Y-101684606D01*
X150376180Y-101535103D01*
X150181086Y-101454092D01*
X149969841Y-101453908D01*
X149774606Y-101534578D01*
X149625103Y-101683820D01*
X149544092Y-101878914D01*
X149543908Y-102090159D01*
X147360941Y-102090159D01*
X147408508Y-101975606D01*
X147408692Y-101765316D01*
X147328387Y-101570963D01*
X147179819Y-101422136D01*
X146985606Y-101341492D01*
X146775316Y-101341308D01*
X146580963Y-101421613D01*
X146432136Y-101570181D01*
X146351492Y-101764394D01*
X146351308Y-101974684D01*
X143820512Y-101974684D01*
X144038348Y-101884676D01*
X144343604Y-101579952D01*
X144509012Y-101181607D01*
X144509091Y-101090159D01*
X162493908Y-101090159D01*
X162574578Y-101285394D01*
X162723820Y-101434897D01*
X162918914Y-101515908D01*
X163130159Y-101516092D01*
X163325394Y-101435422D01*
X163474897Y-101286180D01*
X163555908Y-101091086D01*
X163556092Y-100879841D01*
X163475422Y-100684606D01*
X163326180Y-100535103D01*
X163131086Y-100454092D01*
X162919841Y-100453908D01*
X162724606Y-100534578D01*
X162575103Y-100683820D01*
X162494092Y-100878914D01*
X162493908Y-101090159D01*
X144509091Y-101090159D01*
X144509388Y-100750285D01*
X144344676Y-100351652D01*
X144039952Y-100046396D01*
X143641607Y-99880988D01*
X143210285Y-99880612D01*
X142811652Y-100045324D01*
X142506396Y-100350048D01*
X142340988Y-100748393D01*
X142340612Y-101179715D01*
X141969013Y-101179715D01*
X141969388Y-100750285D01*
X141804676Y-100351652D01*
X141499952Y-100046396D01*
X141101607Y-99880988D01*
X140670285Y-99880612D01*
X140271652Y-100045324D01*
X139966396Y-100350048D01*
X139800988Y-100748393D01*
X139800612Y-101179715D01*
X135958600Y-101179715D01*
X135958600Y-99590159D01*
X162493908Y-99590159D01*
X162574578Y-99785394D01*
X162723820Y-99934897D01*
X162918914Y-100015908D01*
X163130159Y-100016092D01*
X163325394Y-99935422D01*
X163474897Y-99786180D01*
X163555908Y-99591086D01*
X163555908Y-99590159D01*
X163993908Y-99590159D01*
X164074578Y-99785394D01*
X164223820Y-99934897D01*
X164418914Y-100015908D01*
X164630159Y-100016092D01*
X164825394Y-99935422D01*
X164974897Y-99786180D01*
X165055908Y-99591086D01*
X165056092Y-99379841D01*
X164975422Y-99184606D01*
X164826180Y-99035103D01*
X164631086Y-98954092D01*
X164419841Y-98953908D01*
X164224606Y-99034578D01*
X164075103Y-99183820D01*
X163994092Y-99378914D01*
X163993908Y-99590159D01*
X163555908Y-99590159D01*
X163556092Y-99379841D01*
X163475422Y-99184606D01*
X163326180Y-99035103D01*
X163131086Y-98954092D01*
X162919841Y-98953908D01*
X162724606Y-99034578D01*
X162575103Y-99183820D01*
X162494092Y-99378914D01*
X162493908Y-99590159D01*
X135958600Y-99590159D01*
X135958600Y-98639715D01*
X139800612Y-98639715D01*
X139965324Y-99038348D01*
X140270048Y-99343604D01*
X140668393Y-99509012D01*
X141099715Y-99509388D01*
X141498348Y-99344676D01*
X141803604Y-99039952D01*
X141969012Y-98641607D01*
X141969013Y-98639715D01*
X142340612Y-98639715D01*
X142505324Y-99038348D01*
X142810048Y-99343604D01*
X143208393Y-99509012D01*
X143639715Y-99509388D01*
X144038348Y-99344676D01*
X144343604Y-99039952D01*
X144509012Y-98641607D01*
X144509388Y-98210285D01*
X144459753Y-98090159D01*
X158793908Y-98090159D01*
X158874578Y-98285394D01*
X159023820Y-98434897D01*
X159218914Y-98515908D01*
X159430159Y-98516092D01*
X159625394Y-98435422D01*
X159774897Y-98286180D01*
X159855908Y-98091086D01*
X159855908Y-98090159D01*
X160293908Y-98090159D01*
X160374578Y-98285394D01*
X160523820Y-98434897D01*
X160718914Y-98515908D01*
X160930159Y-98516092D01*
X161125394Y-98435422D01*
X161274897Y-98286180D01*
X161355908Y-98091086D01*
X161355908Y-98090159D01*
X163993908Y-98090159D01*
X164074578Y-98285394D01*
X164223820Y-98434897D01*
X164418914Y-98515908D01*
X164630159Y-98516092D01*
X164825394Y-98435422D01*
X164974897Y-98286180D01*
X165055908Y-98091086D01*
X165055908Y-98090159D01*
X165493908Y-98090159D01*
X165574578Y-98285394D01*
X165723820Y-98434897D01*
X165918914Y-98515908D01*
X166130159Y-98516092D01*
X166325394Y-98435422D01*
X166474897Y-98286180D01*
X166555908Y-98091086D01*
X166556092Y-97879841D01*
X166475422Y-97684606D01*
X166326180Y-97535103D01*
X166180677Y-97474684D01*
X176441308Y-97474684D01*
X176521613Y-97669037D01*
X176670181Y-97817864D01*
X176864394Y-97898508D01*
X177074684Y-97898692D01*
X177269037Y-97818387D01*
X177417864Y-97669819D01*
X177498508Y-97475606D01*
X177498692Y-97265316D01*
X177496562Y-97260159D01*
X182348908Y-97260159D01*
X182429578Y-97455394D01*
X182578820Y-97604897D01*
X182773914Y-97685908D01*
X182985159Y-97686092D01*
X183180394Y-97605422D01*
X183329897Y-97456180D01*
X183410908Y-97261086D01*
X183411092Y-97049841D01*
X183330422Y-96854606D01*
X183181180Y-96705103D01*
X182986086Y-96624092D01*
X182774841Y-96623908D01*
X182579606Y-96704578D01*
X182430103Y-96853820D01*
X182349092Y-97048914D01*
X182348908Y-97260159D01*
X177496562Y-97260159D01*
X177418387Y-97070963D01*
X177269819Y-96922136D01*
X177075606Y-96841492D01*
X176865316Y-96841308D01*
X176670963Y-96921613D01*
X176522136Y-97070181D01*
X176441492Y-97264394D01*
X176441308Y-97474684D01*
X166180677Y-97474684D01*
X166131086Y-97454092D01*
X165919841Y-97453908D01*
X165724606Y-97534578D01*
X165575103Y-97683820D01*
X165494092Y-97878914D01*
X165493908Y-98090159D01*
X165055908Y-98090159D01*
X165056092Y-97879841D01*
X164975422Y-97684606D01*
X164826180Y-97535103D01*
X164631086Y-97454092D01*
X164419841Y-97453908D01*
X164224606Y-97534578D01*
X164075103Y-97683820D01*
X163994092Y-97878914D01*
X163993908Y-98090159D01*
X161355908Y-98090159D01*
X161356092Y-97879841D01*
X161275422Y-97684606D01*
X161126180Y-97535103D01*
X160931086Y-97454092D01*
X160719841Y-97453908D01*
X160524606Y-97534578D01*
X160375103Y-97683820D01*
X160294092Y-97878914D01*
X160293908Y-98090159D01*
X159855908Y-98090159D01*
X159856092Y-97879841D01*
X159775422Y-97684606D01*
X159626180Y-97535103D01*
X159431086Y-97454092D01*
X159219841Y-97453908D01*
X159024606Y-97534578D01*
X158875103Y-97683820D01*
X158794092Y-97878914D01*
X158793908Y-98090159D01*
X144459753Y-98090159D01*
X144344676Y-97811652D01*
X144039952Y-97506396D01*
X143963582Y-97474684D01*
X146351308Y-97474684D01*
X146431613Y-97669037D01*
X146580181Y-97817864D01*
X146774394Y-97898508D01*
X146984684Y-97898692D01*
X147179037Y-97818387D01*
X147327864Y-97669819D01*
X147408508Y-97475606D01*
X147408692Y-97265316D01*
X147328387Y-97070963D01*
X147179819Y-96922136D01*
X146985606Y-96841492D01*
X146775316Y-96841308D01*
X146580963Y-96921613D01*
X146432136Y-97070181D01*
X146351492Y-97264394D01*
X146351308Y-97474684D01*
X143963582Y-97474684D01*
X143641607Y-97340988D01*
X143210285Y-97340612D01*
X142811652Y-97505324D01*
X142506396Y-97810048D01*
X142340988Y-98208393D01*
X142340612Y-98639715D01*
X141969013Y-98639715D01*
X141969388Y-98210285D01*
X141804676Y-97811652D01*
X141499952Y-97506396D01*
X141101607Y-97340988D01*
X140670285Y-97340612D01*
X140271652Y-97505324D01*
X139966396Y-97810048D01*
X139800988Y-98208393D01*
X139800612Y-98639715D01*
X135958600Y-98639715D01*
X135958600Y-96099715D01*
X139800612Y-96099715D01*
X139965324Y-96498348D01*
X140270048Y-96803604D01*
X140668393Y-96969012D01*
X141099715Y-96969388D01*
X141498348Y-96804676D01*
X141803604Y-96499952D01*
X141969012Y-96101607D01*
X141969013Y-96099715D01*
X142340612Y-96099715D01*
X142505324Y-96498348D01*
X142810048Y-96803604D01*
X143208393Y-96969012D01*
X143639715Y-96969388D01*
X144038348Y-96804676D01*
X144253239Y-96590159D01*
X157293908Y-96590159D01*
X157374578Y-96785394D01*
X157523820Y-96934897D01*
X157718914Y-97015908D01*
X157930159Y-97016092D01*
X158125394Y-96935422D01*
X158274897Y-96786180D01*
X158355908Y-96591086D01*
X158355908Y-96590159D01*
X158793908Y-96590159D01*
X158874578Y-96785394D01*
X159023820Y-96934897D01*
X159218914Y-97015908D01*
X159430159Y-97016092D01*
X159625394Y-96935422D01*
X159774897Y-96786180D01*
X159855908Y-96591086D01*
X159855908Y-96590159D01*
X165493908Y-96590159D01*
X165574578Y-96785394D01*
X165723820Y-96934897D01*
X165918914Y-97015908D01*
X166130159Y-97016092D01*
X166325394Y-96935422D01*
X166474897Y-96786180D01*
X166555908Y-96591086D01*
X166555908Y-96590159D01*
X166993908Y-96590159D01*
X167074578Y-96785394D01*
X167223820Y-96934897D01*
X167418914Y-97015908D01*
X167630159Y-97016092D01*
X167825394Y-96935422D01*
X167974897Y-96786180D01*
X168055908Y-96591086D01*
X168056092Y-96379841D01*
X167975422Y-96184606D01*
X167826180Y-96035103D01*
X167631086Y-95954092D01*
X167419841Y-95953908D01*
X167224606Y-96034578D01*
X167075103Y-96183820D01*
X166994092Y-96378914D01*
X166993908Y-96590159D01*
X166555908Y-96590159D01*
X166556092Y-96379841D01*
X166475422Y-96184606D01*
X166326180Y-96035103D01*
X166131086Y-95954092D01*
X165919841Y-95953908D01*
X165724606Y-96034578D01*
X165575103Y-96183820D01*
X165494092Y-96378914D01*
X165493908Y-96590159D01*
X159855908Y-96590159D01*
X159856092Y-96379841D01*
X159775422Y-96184606D01*
X159626180Y-96035103D01*
X159431086Y-95954092D01*
X159219841Y-95953908D01*
X159024606Y-96034578D01*
X158875103Y-96183820D01*
X158794092Y-96378914D01*
X158793908Y-96590159D01*
X158355908Y-96590159D01*
X158356092Y-96379841D01*
X158275422Y-96184606D01*
X158126180Y-96035103D01*
X157931086Y-95954092D01*
X157719841Y-95953908D01*
X157524606Y-96034578D01*
X157375103Y-96183820D01*
X157294092Y-96378914D01*
X157293908Y-96590159D01*
X144253239Y-96590159D01*
X144343604Y-96499952D01*
X144509012Y-96101607D01*
X144509388Y-95670285D01*
X144344676Y-95271652D01*
X144163500Y-95090159D01*
X155793908Y-95090159D01*
X155874578Y-95285394D01*
X156023820Y-95434897D01*
X156218914Y-95515908D01*
X156430159Y-95516092D01*
X156625394Y-95435422D01*
X156774897Y-95286180D01*
X156855908Y-95091086D01*
X156855908Y-95090159D01*
X157293908Y-95090159D01*
X157374578Y-95285394D01*
X157523820Y-95434897D01*
X157718914Y-95515908D01*
X157930159Y-95516092D01*
X158125394Y-95435422D01*
X158274897Y-95286180D01*
X158355908Y-95091086D01*
X158355908Y-95090159D01*
X166993908Y-95090159D01*
X167074578Y-95285394D01*
X167223820Y-95434897D01*
X167418914Y-95515908D01*
X167630159Y-95516092D01*
X167825394Y-95435422D01*
X167974897Y-95286180D01*
X168055908Y-95091086D01*
X168055908Y-95090159D01*
X168493908Y-95090159D01*
X168574578Y-95285394D01*
X168723820Y-95434897D01*
X168918914Y-95515908D01*
X169130159Y-95516092D01*
X169325394Y-95435422D01*
X169474897Y-95286180D01*
X169555908Y-95091086D01*
X169555909Y-95089684D01*
X183426308Y-95089684D01*
X183506613Y-95284037D01*
X183655181Y-95432864D01*
X183849394Y-95513508D01*
X184059684Y-95513692D01*
X184254037Y-95433387D01*
X184402864Y-95284819D01*
X184483508Y-95090606D01*
X184483692Y-94880316D01*
X184403387Y-94685963D01*
X184254819Y-94537136D01*
X184060606Y-94456492D01*
X183850316Y-94456308D01*
X183655963Y-94536613D01*
X183507136Y-94685181D01*
X183426492Y-94879394D01*
X183426308Y-95089684D01*
X169555909Y-95089684D01*
X169556092Y-94879841D01*
X169475422Y-94684606D01*
X169326180Y-94535103D01*
X169131086Y-94454092D01*
X168919841Y-94453908D01*
X168724606Y-94534578D01*
X168575103Y-94683820D01*
X168494092Y-94878914D01*
X168493908Y-95090159D01*
X168055908Y-95090159D01*
X168056092Y-94879841D01*
X167975422Y-94684606D01*
X167826180Y-94535103D01*
X167631086Y-94454092D01*
X167419841Y-94453908D01*
X167224606Y-94534578D01*
X167075103Y-94683820D01*
X166994092Y-94878914D01*
X166993908Y-95090159D01*
X158355908Y-95090159D01*
X158356092Y-94879841D01*
X158275422Y-94684606D01*
X158126180Y-94535103D01*
X157931086Y-94454092D01*
X157719841Y-94453908D01*
X157524606Y-94534578D01*
X157375103Y-94683820D01*
X157294092Y-94878914D01*
X157293908Y-95090159D01*
X156855908Y-95090159D01*
X156856092Y-94879841D01*
X156775422Y-94684606D01*
X156626180Y-94535103D01*
X156431086Y-94454092D01*
X156219841Y-94453908D01*
X156024606Y-94534578D01*
X155875103Y-94683820D01*
X155794092Y-94878914D01*
X155793908Y-95090159D01*
X144163500Y-95090159D01*
X144039952Y-94966396D01*
X143641607Y-94800988D01*
X143210285Y-94800612D01*
X142811652Y-94965324D01*
X142506396Y-95270048D01*
X142340988Y-95668393D01*
X142340612Y-96099715D01*
X141969013Y-96099715D01*
X141969388Y-95670285D01*
X141804676Y-95271652D01*
X141499952Y-94966396D01*
X141101607Y-94800988D01*
X140670285Y-94800612D01*
X140271652Y-94965324D01*
X139966396Y-95270048D01*
X139800988Y-95668393D01*
X139800612Y-96099715D01*
X135958600Y-96099715D01*
X135958600Y-93559715D01*
X139800612Y-93559715D01*
X139965324Y-93958348D01*
X140270048Y-94263604D01*
X140668393Y-94429012D01*
X141099715Y-94429388D01*
X141498348Y-94264676D01*
X141803604Y-93959952D01*
X141969012Y-93561607D01*
X141969013Y-93559715D01*
X142340612Y-93559715D01*
X142505324Y-93958348D01*
X142810048Y-94263604D01*
X143208393Y-94429012D01*
X143639715Y-94429388D01*
X144038348Y-94264676D01*
X144343604Y-93959952D01*
X144497156Y-93590159D01*
X154293908Y-93590159D01*
X154374578Y-93785394D01*
X154523820Y-93934897D01*
X154718914Y-94015908D01*
X154930159Y-94016092D01*
X155125394Y-93935422D01*
X155274897Y-93786180D01*
X155355908Y-93591086D01*
X155355908Y-93590159D01*
X155793908Y-93590159D01*
X155874578Y-93785394D01*
X156023820Y-93934897D01*
X156218914Y-94015908D01*
X156430159Y-94016092D01*
X156625394Y-93935422D01*
X156774897Y-93786180D01*
X156855908Y-93591086D01*
X156856092Y-93379841D01*
X156823592Y-93301185D01*
X156875181Y-93352864D01*
X157069394Y-93433508D01*
X157279684Y-93433692D01*
X157474037Y-93353387D01*
X157622864Y-93204819D01*
X157703508Y-93010606D01*
X157703508Y-93009684D01*
X162146308Y-93009684D01*
X162226613Y-93204037D01*
X162375181Y-93352864D01*
X162569394Y-93433508D01*
X162779684Y-93433692D01*
X162974037Y-93353387D01*
X163122864Y-93204819D01*
X163203508Y-93010606D01*
X163203508Y-93009684D01*
X165646308Y-93009684D01*
X165726613Y-93204037D01*
X165875181Y-93352864D01*
X166069394Y-93433508D01*
X166279684Y-93433692D01*
X166474037Y-93353387D01*
X166622864Y-93204819D01*
X166703508Y-93010606D01*
X166703692Y-92800316D01*
X166664178Y-92704684D01*
X176441308Y-92704684D01*
X176521613Y-92899037D01*
X176670181Y-93047864D01*
X176864394Y-93128508D01*
X177074684Y-93128692D01*
X177269037Y-93048387D01*
X177417864Y-92899819D01*
X177498508Y-92705606D01*
X177498692Y-92495316D01*
X177418387Y-92300963D01*
X177269819Y-92152136D01*
X177075606Y-92071492D01*
X176865316Y-92071308D01*
X176670963Y-92151613D01*
X176522136Y-92300181D01*
X176441492Y-92494394D01*
X176441308Y-92704684D01*
X166664178Y-92704684D01*
X166623387Y-92605963D01*
X166474819Y-92457136D01*
X166280606Y-92376492D01*
X166070316Y-92376308D01*
X165875963Y-92456613D01*
X165727136Y-92605181D01*
X165646492Y-92799394D01*
X165646308Y-93009684D01*
X163203508Y-93009684D01*
X163203692Y-92800316D01*
X163123387Y-92605963D01*
X162974819Y-92457136D01*
X162780606Y-92376492D01*
X162570316Y-92376308D01*
X162375963Y-92456613D01*
X162227136Y-92605181D01*
X162146492Y-92799394D01*
X162146308Y-93009684D01*
X157703508Y-93009684D01*
X157703692Y-92800316D01*
X157623387Y-92605963D01*
X157474819Y-92457136D01*
X157280606Y-92376492D01*
X157070316Y-92376308D01*
X156875963Y-92456613D01*
X156727136Y-92605181D01*
X156646492Y-92799394D01*
X156646308Y-93009684D01*
X156678444Y-93087458D01*
X156626180Y-93035103D01*
X156431086Y-92954092D01*
X156219841Y-92953908D01*
X156024606Y-93034578D01*
X155875103Y-93183820D01*
X155794092Y-93378914D01*
X155793908Y-93590159D01*
X155355908Y-93590159D01*
X155356092Y-93379841D01*
X155275422Y-93184606D01*
X155126180Y-93035103D01*
X154931086Y-92954092D01*
X154719841Y-92953908D01*
X154524606Y-93034578D01*
X154375103Y-93183820D01*
X154294092Y-93378914D01*
X154293908Y-93590159D01*
X144497156Y-93590159D01*
X144509012Y-93561607D01*
X144509388Y-93130285D01*
X144344676Y-92731652D01*
X144039952Y-92426396D01*
X143641607Y-92260988D01*
X143210285Y-92260612D01*
X142811652Y-92425324D01*
X142506396Y-92730048D01*
X142340988Y-93128393D01*
X142340612Y-93559715D01*
X141969013Y-93559715D01*
X141969388Y-93130285D01*
X141804676Y-92731652D01*
X141499952Y-92426396D01*
X141101607Y-92260988D01*
X140670285Y-92260612D01*
X140271652Y-92425324D01*
X139966396Y-92730048D01*
X139800988Y-93128393D01*
X139800612Y-93559715D01*
X135958600Y-93559715D01*
X135958600Y-91019715D01*
X139800612Y-91019715D01*
X139965324Y-91418348D01*
X140270048Y-91723604D01*
X140668393Y-91889012D01*
X141099715Y-91889388D01*
X141498348Y-91724676D01*
X141803604Y-91419952D01*
X141969012Y-91021607D01*
X141969013Y-91019715D01*
X142340612Y-91019715D01*
X142505324Y-91418348D01*
X142810048Y-91723604D01*
X143208393Y-91889012D01*
X143639715Y-91889388D01*
X144038348Y-91724676D01*
X144343604Y-91419952D01*
X144401848Y-91279684D01*
X176441308Y-91279684D01*
X176521613Y-91474037D01*
X176670181Y-91622864D01*
X176864394Y-91703508D01*
X177074684Y-91703692D01*
X177269037Y-91623387D01*
X177417864Y-91474819D01*
X177498508Y-91280606D01*
X177498692Y-91070316D01*
X177418387Y-90875963D01*
X177269819Y-90727136D01*
X177075606Y-90646492D01*
X176865316Y-90646308D01*
X176670963Y-90726613D01*
X176522136Y-90875181D01*
X176441492Y-91069394D01*
X176441308Y-91279684D01*
X144401848Y-91279684D01*
X144509012Y-91021607D01*
X144509388Y-90590285D01*
X144344676Y-90191652D01*
X144039952Y-89886396D01*
X143641607Y-89720988D01*
X143210285Y-89720612D01*
X142811652Y-89885324D01*
X142506396Y-90190048D01*
X142340988Y-90588393D01*
X142340612Y-91019715D01*
X141969013Y-91019715D01*
X141969388Y-90590285D01*
X141804676Y-90191652D01*
X141499952Y-89886396D01*
X141101607Y-89720988D01*
X140670285Y-89720612D01*
X140271652Y-89885324D01*
X139966396Y-90190048D01*
X139800988Y-90588393D01*
X139800612Y-91019715D01*
X135958600Y-91019715D01*
X135958600Y-88479715D01*
X139800612Y-88479715D01*
X139965324Y-88878348D01*
X140270048Y-89183604D01*
X140668393Y-89349012D01*
X141099715Y-89349388D01*
X141498348Y-89184676D01*
X141803604Y-88879952D01*
X141969012Y-88481607D01*
X141969013Y-88479715D01*
X142340612Y-88479715D01*
X142505324Y-88878348D01*
X142810048Y-89183604D01*
X143208393Y-89349012D01*
X143639715Y-89349388D01*
X144038348Y-89184676D01*
X144343604Y-88879952D01*
X144509012Y-88481607D01*
X144509388Y-88050285D01*
X144344676Y-87651652D01*
X144039952Y-87346396D01*
X143915417Y-87294684D01*
X151761308Y-87294684D01*
X151841613Y-87489037D01*
X151990181Y-87637864D01*
X152184394Y-87718508D01*
X152394684Y-87718692D01*
X152589037Y-87638387D01*
X152737864Y-87489819D01*
X152818508Y-87295606D01*
X152818508Y-87294684D01*
X156531308Y-87294684D01*
X156611613Y-87489037D01*
X156760181Y-87637864D01*
X156954394Y-87718508D01*
X157164684Y-87718692D01*
X157359037Y-87638387D01*
X157507864Y-87489819D01*
X157588508Y-87295606D01*
X157588508Y-87294684D01*
X162261308Y-87294684D01*
X162341613Y-87489037D01*
X162490181Y-87637864D01*
X162684394Y-87718508D01*
X162894684Y-87718692D01*
X163089037Y-87638387D01*
X163237864Y-87489819D01*
X163318508Y-87295606D01*
X163318508Y-87294684D01*
X171031308Y-87294684D01*
X171111613Y-87489037D01*
X171260181Y-87637864D01*
X171454394Y-87718508D01*
X171664684Y-87718692D01*
X171859037Y-87638387D01*
X172007864Y-87489819D01*
X172088508Y-87295606D01*
X172088692Y-87085316D01*
X172008387Y-86890963D01*
X171859819Y-86742136D01*
X171665606Y-86661492D01*
X171455316Y-86661308D01*
X171260963Y-86741613D01*
X171112136Y-86890181D01*
X171031492Y-87084394D01*
X171031308Y-87294684D01*
X163318508Y-87294684D01*
X163318692Y-87085316D01*
X163238387Y-86890963D01*
X163089819Y-86742136D01*
X162895606Y-86661492D01*
X162685316Y-86661308D01*
X162490963Y-86741613D01*
X162342136Y-86890181D01*
X162261492Y-87084394D01*
X162261308Y-87294684D01*
X157588508Y-87294684D01*
X157588692Y-87085316D01*
X157508387Y-86890963D01*
X157359819Y-86742136D01*
X157165606Y-86661492D01*
X156955316Y-86661308D01*
X156760963Y-86741613D01*
X156612136Y-86890181D01*
X156531492Y-87084394D01*
X156531308Y-87294684D01*
X152818508Y-87294684D01*
X152818692Y-87085316D01*
X152738387Y-86890963D01*
X152589819Y-86742136D01*
X152395606Y-86661492D01*
X152185316Y-86661308D01*
X151990963Y-86741613D01*
X151842136Y-86890181D01*
X151761492Y-87084394D01*
X151761308Y-87294684D01*
X143915417Y-87294684D01*
X143641607Y-87180988D01*
X143210285Y-87180612D01*
X142811652Y-87345324D01*
X142506396Y-87650048D01*
X142340988Y-88048393D01*
X142340612Y-88479715D01*
X141969013Y-88479715D01*
X141969388Y-88050285D01*
X141804676Y-87651652D01*
X141499952Y-87346396D01*
X141101607Y-87180988D01*
X140670285Y-87180612D01*
X140271652Y-87345324D01*
X139966396Y-87650048D01*
X139800988Y-88048393D01*
X139800612Y-88479715D01*
X135958600Y-88479715D01*
X135958600Y-85939715D01*
X139800612Y-85939715D01*
X139965324Y-86338348D01*
X140270048Y-86643604D01*
X140668393Y-86809012D01*
X141099715Y-86809388D01*
X141498348Y-86644676D01*
X141803604Y-86339952D01*
X141969012Y-85941607D01*
X141969013Y-85939715D01*
X142340612Y-85939715D01*
X142505324Y-86338348D01*
X142810048Y-86643604D01*
X143208393Y-86809012D01*
X143639715Y-86809388D01*
X144038348Y-86644676D01*
X144343604Y-86339952D01*
X144509012Y-85941607D01*
X144509388Y-85510285D01*
X144344676Y-85111652D01*
X144039952Y-84806396D01*
X143641607Y-84640988D01*
X143210285Y-84640612D01*
X142811652Y-84805324D01*
X142506396Y-85110048D01*
X142340988Y-85508393D01*
X142340612Y-85939715D01*
X141969013Y-85939715D01*
X141969388Y-85510285D01*
X141804676Y-85111652D01*
X141499952Y-84806396D01*
X141101607Y-84640988D01*
X140670285Y-84640612D01*
X140271652Y-84805324D01*
X139966396Y-85110048D01*
X139800988Y-85508393D01*
X139800612Y-85939715D01*
X135958600Y-85939715D01*
X135958600Y-83399715D01*
X139800612Y-83399715D01*
X139965324Y-83798348D01*
X140270048Y-84103604D01*
X140668393Y-84269012D01*
X141099715Y-84269388D01*
X141498348Y-84104676D01*
X141803604Y-83799952D01*
X141969012Y-83401607D01*
X141969013Y-83399715D01*
X142340612Y-83399715D01*
X142505324Y-83798348D01*
X142810048Y-84103604D01*
X143208393Y-84269012D01*
X143639715Y-84269388D01*
X144038348Y-84104676D01*
X144343604Y-83799952D01*
X144509012Y-83401607D01*
X144509388Y-82970285D01*
X144344676Y-82571652D01*
X144039952Y-82266396D01*
X143641607Y-82100988D01*
X143210285Y-82100612D01*
X142811652Y-82265324D01*
X142506396Y-82570048D01*
X142340988Y-82968393D01*
X142340612Y-83399715D01*
X141969013Y-83399715D01*
X141969388Y-82970285D01*
X141804676Y-82571652D01*
X141499952Y-82266396D01*
X141101607Y-82100988D01*
X140670285Y-82100612D01*
X140271652Y-82265324D01*
X139966396Y-82570048D01*
X139800988Y-82968393D01*
X139800612Y-83399715D01*
X135958600Y-83399715D01*
X135958600Y-80859715D01*
X139800612Y-80859715D01*
X139965324Y-81258348D01*
X140270048Y-81563604D01*
X140668393Y-81729012D01*
X141099715Y-81729388D01*
X141498348Y-81564676D01*
X141803604Y-81259952D01*
X141969012Y-80861607D01*
X141969013Y-80859715D01*
X142340612Y-80859715D01*
X142505324Y-81258348D01*
X142810048Y-81563604D01*
X143208393Y-81729012D01*
X143639715Y-81729388D01*
X144038348Y-81564676D01*
X144343604Y-81259952D01*
X144509012Y-80861607D01*
X144509388Y-80430285D01*
X144344676Y-80031652D01*
X144039952Y-79726396D01*
X143641607Y-79560988D01*
X143210285Y-79560612D01*
X142811652Y-79725324D01*
X142506396Y-80030048D01*
X142340988Y-80428393D01*
X142340612Y-80859715D01*
X141969013Y-80859715D01*
X141969388Y-80430285D01*
X141804676Y-80031652D01*
X141499952Y-79726396D01*
X141101607Y-79560988D01*
X140670285Y-79560612D01*
X140271652Y-79725324D01*
X139966396Y-80030048D01*
X139800988Y-80428393D01*
X139800612Y-80859715D01*
X135958600Y-80859715D01*
X135958600Y-78319715D01*
X139800612Y-78319715D01*
X139965324Y-78718348D01*
X140270048Y-79023604D01*
X140668393Y-79189012D01*
X141099715Y-79189388D01*
X141498348Y-79024676D01*
X141803604Y-78719952D01*
X141969012Y-78321607D01*
X141969013Y-78319715D01*
X142340612Y-78319715D01*
X142505324Y-78718348D01*
X142810048Y-79023604D01*
X143208393Y-79189012D01*
X143639715Y-79189388D01*
X144038348Y-79024676D01*
X144343604Y-78719952D01*
X144509012Y-78321607D01*
X144509388Y-77890285D01*
X144344676Y-77491652D01*
X144039952Y-77186396D01*
X143641607Y-77020988D01*
X143210285Y-77020612D01*
X142811652Y-77185324D01*
X142506396Y-77490048D01*
X142340988Y-77888393D01*
X142340612Y-78319715D01*
X141969013Y-78319715D01*
X141969388Y-77890285D01*
X141804676Y-77491652D01*
X141499952Y-77186396D01*
X141101607Y-77020988D01*
X140670285Y-77020612D01*
X140271652Y-77185324D01*
X139966396Y-77490048D01*
X139800988Y-77888393D01*
X139800612Y-78319715D01*
X135958600Y-78319715D01*
X135958600Y-75779715D01*
X139800612Y-75779715D01*
X139965324Y-76178348D01*
X140270048Y-76483604D01*
X140668393Y-76649012D01*
X141099715Y-76649388D01*
X141498348Y-76484676D01*
X141803604Y-76179952D01*
X141969012Y-75781607D01*
X141969013Y-75779715D01*
X142340612Y-75779715D01*
X142505324Y-76178348D01*
X142810048Y-76483604D01*
X143208393Y-76649012D01*
X143639715Y-76649388D01*
X144038348Y-76484676D01*
X144343604Y-76179952D01*
X144509012Y-75781607D01*
X144509388Y-75350285D01*
X144344676Y-74951652D01*
X144039952Y-74646396D01*
X143641607Y-74480988D01*
X143210285Y-74480612D01*
X142811652Y-74645324D01*
X142506396Y-74950048D01*
X142340988Y-75348393D01*
X142340612Y-75779715D01*
X141969013Y-75779715D01*
X141969388Y-75350285D01*
X141804676Y-74951652D01*
X141499952Y-74646396D01*
X141101607Y-74480988D01*
X140670285Y-74480612D01*
X140271652Y-74645324D01*
X139966396Y-74950048D01*
X139800988Y-75348393D01*
X139800612Y-75779715D01*
X135958600Y-75779715D01*
X135958600Y-74400159D01*
X152503908Y-74400159D01*
X152584578Y-74595394D01*
X152733820Y-74744897D01*
X152928914Y-74825908D01*
X153140159Y-74826092D01*
X153335394Y-74745422D01*
X153484897Y-74596180D01*
X153565908Y-74401086D01*
X153566092Y-74189841D01*
X153485422Y-73994606D01*
X153336180Y-73845103D01*
X153141086Y-73764092D01*
X152929841Y-73763908D01*
X152734606Y-73844578D01*
X152585103Y-73993820D01*
X152504092Y-74188914D01*
X152503908Y-74400159D01*
X135958600Y-74400159D01*
X135958600Y-73239715D01*
X139800612Y-73239715D01*
X139965324Y-73638348D01*
X140270048Y-73943604D01*
X140668393Y-74109012D01*
X141099715Y-74109388D01*
X141498348Y-73944676D01*
X141803604Y-73639952D01*
X141969012Y-73241607D01*
X141969013Y-73239715D01*
X142340612Y-73239715D01*
X142505324Y-73638348D01*
X142810048Y-73943604D01*
X143208393Y-74109012D01*
X143639715Y-74109388D01*
X144038348Y-73944676D01*
X144218178Y-73765159D01*
X151233908Y-73765159D01*
X151314578Y-73960394D01*
X151463820Y-74109897D01*
X151658914Y-74190908D01*
X151870159Y-74191092D01*
X152065394Y-74110422D01*
X152214897Y-73961180D01*
X152295908Y-73766086D01*
X152296092Y-73554841D01*
X152215422Y-73359606D01*
X152066180Y-73210103D01*
X151873656Y-73130159D01*
X152503908Y-73130159D01*
X152584578Y-73325394D01*
X152733820Y-73474897D01*
X152928914Y-73555908D01*
X153140159Y-73556092D01*
X153335394Y-73475422D01*
X153484897Y-73326180D01*
X153565908Y-73131086D01*
X153566092Y-72919841D01*
X153485422Y-72724606D01*
X153336180Y-72575103D01*
X153141086Y-72494092D01*
X152929841Y-72493908D01*
X152734606Y-72574578D01*
X152585103Y-72723820D01*
X152504092Y-72918914D01*
X152503908Y-73130159D01*
X151873656Y-73130159D01*
X151871086Y-73129092D01*
X151659841Y-73128908D01*
X151464606Y-73209578D01*
X151315103Y-73358820D01*
X151234092Y-73553914D01*
X151233908Y-73765159D01*
X144218178Y-73765159D01*
X144343604Y-73639952D01*
X144509012Y-73241607D01*
X144509388Y-72810285D01*
X144379181Y-72495159D01*
X151233908Y-72495159D01*
X151314578Y-72690394D01*
X151463820Y-72839897D01*
X151658914Y-72920908D01*
X151870159Y-72921092D01*
X152065394Y-72840422D01*
X152214897Y-72691180D01*
X152295908Y-72496086D01*
X152296092Y-72284841D01*
X152215422Y-72089606D01*
X152066180Y-71940103D01*
X151871086Y-71859092D01*
X151659841Y-71858908D01*
X151464606Y-71939578D01*
X151315103Y-72088820D01*
X151234092Y-72283914D01*
X151233908Y-72495159D01*
X144379181Y-72495159D01*
X144344676Y-72411652D01*
X144039952Y-72106396D01*
X143641607Y-71940988D01*
X143210285Y-71940612D01*
X142811652Y-72105324D01*
X142506396Y-72410048D01*
X142340988Y-72808393D01*
X142340612Y-73239715D01*
X141969013Y-73239715D01*
X141969388Y-72810285D01*
X141804676Y-72411652D01*
X141499952Y-72106396D01*
X141101607Y-71940988D01*
X140670285Y-71940612D01*
X140271652Y-72105324D01*
X139966396Y-72410048D01*
X139800988Y-72808393D01*
X139800612Y-73239715D01*
X135958600Y-73239715D01*
X135958600Y-70699715D01*
X139800612Y-70699715D01*
X139965324Y-71098348D01*
X140270048Y-71403604D01*
X140668393Y-71569012D01*
X141099715Y-71569388D01*
X141498348Y-71404676D01*
X141803604Y-71099952D01*
X141969012Y-70701607D01*
X141969013Y-70699715D01*
X142340612Y-70699715D01*
X142505324Y-71098348D01*
X142810048Y-71403604D01*
X143208393Y-71569012D01*
X143639715Y-71569388D01*
X144038348Y-71404676D01*
X144218178Y-71225159D01*
X151868908Y-71225159D01*
X151949578Y-71420394D01*
X152098820Y-71569897D01*
X152293914Y-71650908D01*
X152505159Y-71651092D01*
X152700394Y-71570422D01*
X152849897Y-71421180D01*
X152930908Y-71226086D01*
X152931092Y-71014841D01*
X152850422Y-70819606D01*
X152701180Y-70670103D01*
X152506086Y-70589092D01*
X152294841Y-70588908D01*
X152099606Y-70669578D01*
X151950103Y-70818820D01*
X151869092Y-71013914D01*
X151868908Y-71225159D01*
X144218178Y-71225159D01*
X144343604Y-71099952D01*
X144509012Y-70701607D01*
X144509388Y-70270285D01*
X144344676Y-69871652D01*
X144039952Y-69566396D01*
X143641607Y-69400988D01*
X143210285Y-69400612D01*
X142811652Y-69565324D01*
X142506396Y-69870048D01*
X142340988Y-70268393D01*
X142340612Y-70699715D01*
X141969013Y-70699715D01*
X141969388Y-70270285D01*
X141804676Y-69871652D01*
X141499952Y-69566396D01*
X141101607Y-69400988D01*
X140670285Y-69400612D01*
X140271652Y-69565324D01*
X139966396Y-69870048D01*
X139800988Y-70268393D01*
X139800612Y-70699715D01*
X135958600Y-70699715D01*
X135958600Y-68159715D01*
X139800612Y-68159715D01*
X139965324Y-68558348D01*
X140270048Y-68863604D01*
X140668393Y-69029012D01*
X141099715Y-69029388D01*
X141498348Y-68864676D01*
X141803604Y-68559952D01*
X141969012Y-68161607D01*
X141969013Y-68159715D01*
X142340612Y-68159715D01*
X142505324Y-68558348D01*
X142810048Y-68863604D01*
X143208393Y-69029012D01*
X143639715Y-69029388D01*
X144038348Y-68864676D01*
X144218178Y-68685159D01*
X151233908Y-68685159D01*
X151314578Y-68880394D01*
X151463820Y-69029897D01*
X151658914Y-69110908D01*
X151870159Y-69111092D01*
X152065394Y-69030422D01*
X152214897Y-68881180D01*
X152295908Y-68686086D01*
X152296092Y-68474841D01*
X152215422Y-68279606D01*
X152066180Y-68130103D01*
X151873656Y-68050159D01*
X152503908Y-68050159D01*
X152584578Y-68245394D01*
X152733820Y-68394897D01*
X152928914Y-68475908D01*
X153140159Y-68476092D01*
X153335394Y-68395422D01*
X153484897Y-68246180D01*
X153565908Y-68051086D01*
X153566092Y-67839841D01*
X153485422Y-67644606D01*
X153336180Y-67495103D01*
X153141086Y-67414092D01*
X152929841Y-67413908D01*
X152734606Y-67494578D01*
X152585103Y-67643820D01*
X152504092Y-67838914D01*
X152503908Y-68050159D01*
X151873656Y-68050159D01*
X151871086Y-68049092D01*
X151659841Y-68048908D01*
X151464606Y-68129578D01*
X151315103Y-68278820D01*
X151234092Y-68473914D01*
X151233908Y-68685159D01*
X144218178Y-68685159D01*
X144343604Y-68559952D01*
X144509012Y-68161607D01*
X144509388Y-67730285D01*
X144379181Y-67415159D01*
X151233908Y-67415159D01*
X151314578Y-67610394D01*
X151463820Y-67759897D01*
X151658914Y-67840908D01*
X151870159Y-67841092D01*
X152065394Y-67760422D01*
X152214897Y-67611180D01*
X152295908Y-67416086D01*
X152296092Y-67204841D01*
X152215422Y-67009606D01*
X152066180Y-66860103D01*
X151873656Y-66780159D01*
X152503908Y-66780159D01*
X152584578Y-66975394D01*
X152733820Y-67124897D01*
X152928914Y-67205908D01*
X153140159Y-67206092D01*
X153335394Y-67125422D01*
X153484897Y-66976180D01*
X153565908Y-66781086D01*
X153566092Y-66569841D01*
X153485422Y-66374606D01*
X153336180Y-66225103D01*
X153141086Y-66144092D01*
X152929841Y-66143908D01*
X152734606Y-66224578D01*
X152585103Y-66373820D01*
X152504092Y-66568914D01*
X152503908Y-66780159D01*
X151873656Y-66780159D01*
X151871086Y-66779092D01*
X151659841Y-66778908D01*
X151464606Y-66859578D01*
X151315103Y-67008820D01*
X151234092Y-67203914D01*
X151233908Y-67415159D01*
X144379181Y-67415159D01*
X144344676Y-67331652D01*
X144039952Y-67026396D01*
X143641607Y-66860988D01*
X143210285Y-66860612D01*
X142811652Y-67025324D01*
X142506396Y-67330048D01*
X142340988Y-67728393D01*
X142340612Y-68159715D01*
X141969013Y-68159715D01*
X141969388Y-67730285D01*
X141804676Y-67331652D01*
X141499952Y-67026396D01*
X141101607Y-66860988D01*
X140670285Y-66860612D01*
X140271652Y-67025324D01*
X139966396Y-67330048D01*
X139800988Y-67728393D01*
X139800612Y-68159715D01*
X135958600Y-68159715D01*
X135958600Y-65619715D01*
X139800612Y-65619715D01*
X139965324Y-66018348D01*
X140270048Y-66323604D01*
X140668393Y-66489012D01*
X141099715Y-66489388D01*
X141498348Y-66324676D01*
X141803604Y-66019952D01*
X141969012Y-65621607D01*
X141969013Y-65619715D01*
X142340612Y-65619715D01*
X142505324Y-66018348D01*
X142810048Y-66323604D01*
X143208393Y-66489012D01*
X143639715Y-66489388D01*
X144038348Y-66324676D01*
X144273274Y-66090159D01*
X156993908Y-66090159D01*
X157074578Y-66285394D01*
X157223820Y-66434897D01*
X157418914Y-66515908D01*
X157630159Y-66516092D01*
X157825394Y-66435422D01*
X157974897Y-66286180D01*
X158055908Y-66091086D01*
X158056092Y-65879841D01*
X157975422Y-65684606D01*
X157826180Y-65535103D01*
X157631086Y-65454092D01*
X157419841Y-65453908D01*
X157224606Y-65534578D01*
X157075103Y-65683820D01*
X156994092Y-65878914D01*
X156993908Y-66090159D01*
X144273274Y-66090159D01*
X144343604Y-66019952D01*
X144509012Y-65621607D01*
X144509388Y-65190285D01*
X144344676Y-64791652D01*
X144039952Y-64486396D01*
X143641607Y-64320988D01*
X143210285Y-64320612D01*
X142811652Y-64485324D01*
X142506396Y-64790048D01*
X142340988Y-65188393D01*
X142340612Y-65619715D01*
X141969013Y-65619715D01*
X141969388Y-65190285D01*
X141804676Y-64791652D01*
X141499952Y-64486396D01*
X141101607Y-64320988D01*
X140670285Y-64320612D01*
X140271652Y-64485324D01*
X139966396Y-64790048D01*
X139800988Y-65188393D01*
X139800612Y-65619715D01*
X135958600Y-65619715D01*
X135958600Y-64211200D01*
X159054800Y-64211200D01*
X159054800Y-76073000D01*
G36*
X171119800Y-75488800D02*
X167335200Y-75488800D01*
X167335200Y-69955159D01*
X167743908Y-69955159D01*
X167824578Y-70150394D01*
X167973820Y-70299897D01*
X168168914Y-70380908D01*
X168380159Y-70381092D01*
X168575394Y-70300422D01*
X168724897Y-70151180D01*
X168805908Y-69956086D01*
X168806092Y-69744841D01*
X168725422Y-69549606D01*
X168576180Y-69400103D01*
X168381086Y-69319092D01*
X168169841Y-69318908D01*
X167974606Y-69399578D01*
X167825103Y-69548820D01*
X167744092Y-69743914D01*
X167743908Y-69955159D01*
X167335200Y-69955159D01*
X167335200Y-65481200D01*
X171119800Y-65481200D01*
X171119800Y-75488800D01*
X171119800Y-75488800D01*
G37*
X171119800Y-75488800D02*
X167335200Y-75488800D01*
X167335200Y-69955159D01*
X167743908Y-69955159D01*
X167824578Y-70150394D01*
X167973820Y-70299897D01*
X168168914Y-70380908D01*
X168380159Y-70381092D01*
X168575394Y-70300422D01*
X168724897Y-70151180D01*
X168805908Y-69956086D01*
X168806092Y-69744841D01*
X168725422Y-69549606D01*
X168576180Y-69400103D01*
X168381086Y-69319092D01*
X168169841Y-69318908D01*
X167974606Y-69399578D01*
X167825103Y-69548820D01*
X167744092Y-69743914D01*
X167743908Y-69955159D01*
X167335200Y-69955159D01*
X167335200Y-65481200D01*
X171119800Y-65481200D01*
X171119800Y-75488800D01*
G36*
X166674800Y-75488800D02*
X159715200Y-75488800D01*
X159715200Y-74400159D01*
X165203908Y-74400159D01*
X165284578Y-74595394D01*
X165433820Y-74744897D01*
X165628914Y-74825908D01*
X165840159Y-74826092D01*
X166035394Y-74745422D01*
X166184897Y-74596180D01*
X166265908Y-74401086D01*
X166266092Y-74189841D01*
X166185422Y-73994606D01*
X166036180Y-73845103D01*
X165841086Y-73764092D01*
X165629841Y-73763908D01*
X165434606Y-73844578D01*
X165285103Y-73993820D01*
X165204092Y-74188914D01*
X165203908Y-74400159D01*
X159715200Y-74400159D01*
X159715200Y-73515159D01*
X160758908Y-73515159D01*
X160839578Y-73710394D01*
X160988820Y-73859897D01*
X161183914Y-73940908D01*
X161395159Y-73941092D01*
X161590394Y-73860422D01*
X161739897Y-73711180D01*
X161820908Y-73516086D01*
X161821092Y-73304841D01*
X161748915Y-73130159D01*
X165203908Y-73130159D01*
X165284578Y-73325394D01*
X165433820Y-73474897D01*
X165628914Y-73555908D01*
X165840159Y-73556092D01*
X166035394Y-73475422D01*
X166184897Y-73326180D01*
X166265908Y-73131086D01*
X166266092Y-72919841D01*
X166185422Y-72724606D01*
X166036180Y-72575103D01*
X165841086Y-72494092D01*
X165629841Y-72493908D01*
X165434606Y-72574578D01*
X165285103Y-72723820D01*
X165204092Y-72918914D01*
X165203908Y-73130159D01*
X161748915Y-73130159D01*
X161740422Y-73109606D01*
X161591180Y-72960103D01*
X161396086Y-72879092D01*
X161184841Y-72878908D01*
X160989606Y-72959578D01*
X160840103Y-73108820D01*
X160759092Y-73303914D01*
X160758908Y-73515159D01*
X159715200Y-73515159D01*
X159715200Y-71860159D01*
X165203908Y-71860159D01*
X165284578Y-72055394D01*
X165433820Y-72204897D01*
X165628914Y-72285908D01*
X165840159Y-72286092D01*
X166035394Y-72205422D01*
X166184897Y-72056180D01*
X166265908Y-71861086D01*
X166266092Y-71649841D01*
X166185422Y-71454606D01*
X166036180Y-71305103D01*
X165841086Y-71224092D01*
X165629841Y-71223908D01*
X165434606Y-71304578D01*
X165285103Y-71453820D01*
X165204092Y-71648914D01*
X165203908Y-71860159D01*
X159715200Y-71860159D01*
X159715200Y-68315159D01*
X160758908Y-68315159D01*
X160839578Y-68510394D01*
X160988820Y-68659897D01*
X161183914Y-68740908D01*
X161395159Y-68741092D01*
X161590394Y-68660422D01*
X161739897Y-68511180D01*
X161820908Y-68316086D01*
X161821092Y-68104841D01*
X161740422Y-67909606D01*
X161591180Y-67760103D01*
X161396086Y-67679092D01*
X161184841Y-67678908D01*
X160989606Y-67759578D01*
X160840103Y-67908820D01*
X160759092Y-68103914D01*
X160758908Y-68315159D01*
X159715200Y-68315159D01*
X159715200Y-67415159D01*
X165203908Y-67415159D01*
X165284578Y-67610394D01*
X165433820Y-67759897D01*
X165628914Y-67840908D01*
X165840159Y-67841092D01*
X166035394Y-67760422D01*
X166184897Y-67611180D01*
X166265908Y-67416086D01*
X166266092Y-67204841D01*
X166185422Y-67009606D01*
X166036180Y-66860103D01*
X165841086Y-66779092D01*
X165629841Y-66778908D01*
X165434606Y-66859578D01*
X165285103Y-67008820D01*
X165204092Y-67203914D01*
X165203908Y-67415159D01*
X159715200Y-67415159D01*
X159715200Y-65481200D01*
X166674800Y-65481200D01*
X166674800Y-75488800D01*
X166674800Y-75488800D01*
G37*
X166674800Y-75488800D02*
X159715200Y-75488800D01*
X159715200Y-74400159D01*
X165203908Y-74400159D01*
X165284578Y-74595394D01*
X165433820Y-74744897D01*
X165628914Y-74825908D01*
X165840159Y-74826092D01*
X166035394Y-74745422D01*
X166184897Y-74596180D01*
X166265908Y-74401086D01*
X166266092Y-74189841D01*
X166185422Y-73994606D01*
X166036180Y-73845103D01*
X165841086Y-73764092D01*
X165629841Y-73763908D01*
X165434606Y-73844578D01*
X165285103Y-73993820D01*
X165204092Y-74188914D01*
X165203908Y-74400159D01*
X159715200Y-74400159D01*
X159715200Y-73515159D01*
X160758908Y-73515159D01*
X160839578Y-73710394D01*
X160988820Y-73859897D01*
X161183914Y-73940908D01*
X161395159Y-73941092D01*
X161590394Y-73860422D01*
X161739897Y-73711180D01*
X161820908Y-73516086D01*
X161821092Y-73304841D01*
X161748915Y-73130159D01*
X165203908Y-73130159D01*
X165284578Y-73325394D01*
X165433820Y-73474897D01*
X165628914Y-73555908D01*
X165840159Y-73556092D01*
X166035394Y-73475422D01*
X166184897Y-73326180D01*
X166265908Y-73131086D01*
X166266092Y-72919841D01*
X166185422Y-72724606D01*
X166036180Y-72575103D01*
X165841086Y-72494092D01*
X165629841Y-72493908D01*
X165434606Y-72574578D01*
X165285103Y-72723820D01*
X165204092Y-72918914D01*
X165203908Y-73130159D01*
X161748915Y-73130159D01*
X161740422Y-73109606D01*
X161591180Y-72960103D01*
X161396086Y-72879092D01*
X161184841Y-72878908D01*
X160989606Y-72959578D01*
X160840103Y-73108820D01*
X160759092Y-73303914D01*
X160758908Y-73515159D01*
X159715200Y-73515159D01*
X159715200Y-71860159D01*
X165203908Y-71860159D01*
X165284578Y-72055394D01*
X165433820Y-72204897D01*
X165628914Y-72285908D01*
X165840159Y-72286092D01*
X166035394Y-72205422D01*
X166184897Y-72056180D01*
X166265908Y-71861086D01*
X166266092Y-71649841D01*
X166185422Y-71454606D01*
X166036180Y-71305103D01*
X165841086Y-71224092D01*
X165629841Y-71223908D01*
X165434606Y-71304578D01*
X165285103Y-71453820D01*
X165204092Y-71648914D01*
X165203908Y-71860159D01*
X159715200Y-71860159D01*
X159715200Y-68315159D01*
X160758908Y-68315159D01*
X160839578Y-68510394D01*
X160988820Y-68659897D01*
X161183914Y-68740908D01*
X161395159Y-68741092D01*
X161590394Y-68660422D01*
X161739897Y-68511180D01*
X161820908Y-68316086D01*
X161821092Y-68104841D01*
X161740422Y-67909606D01*
X161591180Y-67760103D01*
X161396086Y-67679092D01*
X161184841Y-67678908D01*
X160989606Y-67759578D01*
X160840103Y-67908820D01*
X160759092Y-68103914D01*
X160758908Y-68315159D01*
X159715200Y-68315159D01*
X159715200Y-67415159D01*
X165203908Y-67415159D01*
X165284578Y-67610394D01*
X165433820Y-67759897D01*
X165628914Y-67840908D01*
X165840159Y-67841092D01*
X166035394Y-67760422D01*
X166184897Y-67611180D01*
X166265908Y-67416086D01*
X166266092Y-67204841D01*
X166185422Y-67009606D01*
X166036180Y-66860103D01*
X165841086Y-66779092D01*
X165629841Y-66778908D01*
X165434606Y-66859578D01*
X165285103Y-67008820D01*
X165204092Y-67203914D01*
X165203908Y-67415159D01*
X159715200Y-67415159D01*
X159715200Y-65481200D01*
X166674800Y-65481200D01*
X166674800Y-75488800D01*
G36*
X160324800Y-64820800D02*
X159715200Y-64820800D01*
X159715200Y-63627000D01*
X159709197Y-63597354D01*
X159692132Y-63572379D01*
X159666695Y-63556011D01*
X159639000Y-63550800D01*
X144602200Y-63550800D01*
X144602200Y-62344586D01*
X154361300Y-62344586D01*
X154449201Y-62557322D01*
X154611822Y-62720227D01*
X154824405Y-62808499D01*
X155054586Y-62808700D01*
X155267322Y-62720799D01*
X155430227Y-62558178D01*
X155518499Y-62345595D01*
X155518700Y-62115414D01*
X155430799Y-61902678D01*
X155268178Y-61739773D01*
X155055595Y-61651501D01*
X154825414Y-61651300D01*
X154612678Y-61739201D01*
X154449773Y-61901822D01*
X154361501Y-62114405D01*
X154361300Y-62344586D01*
X144602200Y-62344586D01*
X144602200Y-58534586D01*
X146741300Y-58534586D01*
X146829201Y-58747322D01*
X146991822Y-58910227D01*
X147204405Y-58998499D01*
X147434586Y-58998700D01*
X147647322Y-58910799D01*
X147810227Y-58748178D01*
X147898499Y-58535595D01*
X147898700Y-58305414D01*
X147810799Y-58092678D01*
X147648178Y-57929773D01*
X147435595Y-57841501D01*
X147205414Y-57841300D01*
X146992678Y-57929201D01*
X146829773Y-58091822D01*
X146741501Y-58304405D01*
X146741300Y-58534586D01*
X144602200Y-58534586D01*
X144602200Y-54168802D01*
X148246230Y-54168802D01*
X148394899Y-54528608D01*
X148669944Y-54804133D01*
X149029490Y-54953430D01*
X149418802Y-54953770D01*
X149778608Y-54805101D01*
X150054133Y-54530056D01*
X150203430Y-54170510D01*
X150203770Y-53781198D01*
X150055101Y-53421392D01*
X149780056Y-53145867D01*
X149420510Y-52996570D01*
X149031198Y-52996230D01*
X148671392Y-53144899D01*
X148395867Y-53419944D01*
X148246570Y-53779490D01*
X148246230Y-54168802D01*
X144602200Y-54168802D01*
X144602200Y-52538600D01*
X160324800Y-52538600D01*
X160324800Y-64820800D01*
X160324800Y-64820800D01*
G37*
X160324800Y-64820800D02*
X159715200Y-64820800D01*
X159715200Y-63627000D01*
X159709197Y-63597354D01*
X159692132Y-63572379D01*
X159666695Y-63556011D01*
X159639000Y-63550800D01*
X144602200Y-63550800D01*
X144602200Y-62344586D01*
X154361300Y-62344586D01*
X154449201Y-62557322D01*
X154611822Y-62720227D01*
X154824405Y-62808499D01*
X155054586Y-62808700D01*
X155267322Y-62720799D01*
X155430227Y-62558178D01*
X155518499Y-62345595D01*
X155518700Y-62115414D01*
X155430799Y-61902678D01*
X155268178Y-61739773D01*
X155055595Y-61651501D01*
X154825414Y-61651300D01*
X154612678Y-61739201D01*
X154449773Y-61901822D01*
X154361501Y-62114405D01*
X154361300Y-62344586D01*
X144602200Y-62344586D01*
X144602200Y-58534586D01*
X146741300Y-58534586D01*
X146829201Y-58747322D01*
X146991822Y-58910227D01*
X147204405Y-58998499D01*
X147434586Y-58998700D01*
X147647322Y-58910799D01*
X147810227Y-58748178D01*
X147898499Y-58535595D01*
X147898700Y-58305414D01*
X147810799Y-58092678D01*
X147648178Y-57929773D01*
X147435595Y-57841501D01*
X147205414Y-57841300D01*
X146992678Y-57929201D01*
X146829773Y-58091822D01*
X146741501Y-58304405D01*
X146741300Y-58534586D01*
X144602200Y-58534586D01*
X144602200Y-54168802D01*
X148246230Y-54168802D01*
X148394899Y-54528608D01*
X148669944Y-54804133D01*
X149029490Y-54953430D01*
X149418802Y-54953770D01*
X149778608Y-54805101D01*
X150054133Y-54530056D01*
X150203430Y-54170510D01*
X150203770Y-53781198D01*
X150055101Y-53421392D01*
X149780056Y-53145867D01*
X149420510Y-52996570D01*
X149031198Y-52996230D01*
X148671392Y-53144899D01*
X148395867Y-53419944D01*
X148246570Y-53779490D01*
X148246230Y-54168802D01*
X144602200Y-54168802D01*
X144602200Y-52538600D01*
X160324800Y-52538600D01*
X160324800Y-64820800D01*
G36*
X175691800Y-64820800D02*
X160985200Y-64820800D01*
X160985200Y-62344586D01*
X170236300Y-62344586D01*
X170324201Y-62557322D01*
X170486822Y-62720227D01*
X170699405Y-62808499D01*
X170929586Y-62808700D01*
X171142322Y-62720799D01*
X171305227Y-62558178D01*
X171393499Y-62345595D01*
X171393700Y-62115414D01*
X171305799Y-61902678D01*
X171143178Y-61739773D01*
X170930595Y-61651501D01*
X170700414Y-61651300D01*
X170487678Y-61739201D01*
X170324773Y-61901822D01*
X170236501Y-62114405D01*
X170236300Y-62344586D01*
X160985200Y-62344586D01*
X160985200Y-58534586D01*
X162616300Y-58534586D01*
X162704201Y-58747322D01*
X162866822Y-58910227D01*
X163079405Y-58998499D01*
X163309586Y-58998700D01*
X163522322Y-58910799D01*
X163685227Y-58748178D01*
X163773499Y-58535595D01*
X163773700Y-58305414D01*
X163685799Y-58092678D01*
X163523178Y-57929773D01*
X163310595Y-57841501D01*
X163080414Y-57841300D01*
X162867678Y-57929201D01*
X162704773Y-58091822D01*
X162616501Y-58304405D01*
X162616300Y-58534586D01*
X160985200Y-58534586D01*
X160985200Y-54168802D01*
X164121230Y-54168802D01*
X164269899Y-54528608D01*
X164544944Y-54804133D01*
X164904490Y-54953430D01*
X165293802Y-54953770D01*
X165653608Y-54805101D01*
X165929133Y-54530056D01*
X166078430Y-54170510D01*
X166078770Y-53781198D01*
X165930101Y-53421392D01*
X165655056Y-53145867D01*
X165295510Y-52996570D01*
X164906198Y-52996230D01*
X164546392Y-53144899D01*
X164270867Y-53419944D01*
X164121570Y-53779490D01*
X164121230Y-54168802D01*
X160985200Y-54168802D01*
X160985200Y-52538600D01*
X175691800Y-52538600D01*
X175691800Y-64820800D01*
X175691800Y-64820800D01*
G37*
X175691800Y-64820800D02*
X160985200Y-64820800D01*
X160985200Y-62344586D01*
X170236300Y-62344586D01*
X170324201Y-62557322D01*
X170486822Y-62720227D01*
X170699405Y-62808499D01*
X170929586Y-62808700D01*
X171142322Y-62720799D01*
X171305227Y-62558178D01*
X171393499Y-62345595D01*
X171393700Y-62115414D01*
X171305799Y-61902678D01*
X171143178Y-61739773D01*
X170930595Y-61651501D01*
X170700414Y-61651300D01*
X170487678Y-61739201D01*
X170324773Y-61901822D01*
X170236501Y-62114405D01*
X170236300Y-62344586D01*
X160985200Y-62344586D01*
X160985200Y-58534586D01*
X162616300Y-58534586D01*
X162704201Y-58747322D01*
X162866822Y-58910227D01*
X163079405Y-58998499D01*
X163309586Y-58998700D01*
X163522322Y-58910799D01*
X163685227Y-58748178D01*
X163773499Y-58535595D01*
X163773700Y-58305414D01*
X163685799Y-58092678D01*
X163523178Y-57929773D01*
X163310595Y-57841501D01*
X163080414Y-57841300D01*
X162867678Y-57929201D01*
X162704773Y-58091822D01*
X162616501Y-58304405D01*
X162616300Y-58534586D01*
X160985200Y-58534586D01*
X160985200Y-54168802D01*
X164121230Y-54168802D01*
X164269899Y-54528608D01*
X164544944Y-54804133D01*
X164904490Y-54953430D01*
X165293802Y-54953770D01*
X165653608Y-54805101D01*
X165929133Y-54530056D01*
X166078430Y-54170510D01*
X166078770Y-53781198D01*
X165930101Y-53421392D01*
X165655056Y-53145867D01*
X165295510Y-52996570D01*
X164906198Y-52996230D01*
X164546392Y-53144899D01*
X164270867Y-53419944D01*
X164121570Y-53779490D01*
X164121230Y-54168802D01*
X160985200Y-54168802D01*
X160985200Y-52538600D01*
X175691800Y-52538600D01*
X175691800Y-64820800D01*
G36*
X160324800Y-151931400D02*
X144602200Y-151931400D01*
X144602200Y-146164586D01*
X146741300Y-146164586D01*
X146829201Y-146377322D01*
X146991822Y-146540227D01*
X147204405Y-146628499D01*
X147434586Y-146628700D01*
X147647322Y-146540799D01*
X147810227Y-146378178D01*
X147898499Y-146165595D01*
X147898700Y-145935414D01*
X147810799Y-145722678D01*
X147648178Y-145559773D01*
X147435595Y-145471501D01*
X147205414Y-145471300D01*
X146992678Y-145559201D01*
X146829773Y-145721822D01*
X146741501Y-145934405D01*
X146741300Y-146164586D01*
X144602200Y-146164586D01*
X144602200Y-140919200D01*
X148526839Y-140919200D01*
X148395867Y-141049944D01*
X148246570Y-141409490D01*
X148246230Y-141798802D01*
X148394899Y-142158608D01*
X148669944Y-142434133D01*
X149029490Y-142583430D01*
X149418802Y-142583770D01*
X149778608Y-142435101D01*
X149859263Y-142354586D01*
X154361300Y-142354586D01*
X154449201Y-142567322D01*
X154611822Y-142730227D01*
X154824405Y-142818499D01*
X155054586Y-142818700D01*
X155267322Y-142730799D01*
X155430227Y-142568178D01*
X155518499Y-142355595D01*
X155518700Y-142125414D01*
X155430799Y-141912678D01*
X155268178Y-141749773D01*
X155055595Y-141661501D01*
X154825414Y-141661300D01*
X154612678Y-141749201D01*
X154449773Y-141911822D01*
X154361501Y-142124405D01*
X154361300Y-142354586D01*
X149859263Y-142354586D01*
X150054133Y-142160056D01*
X150203430Y-141800510D01*
X150203770Y-141411198D01*
X150055101Y-141051392D01*
X149923139Y-140919200D01*
X159639000Y-140919200D01*
X159668646Y-140913197D01*
X159693621Y-140896132D01*
X159709989Y-140870695D01*
X159715200Y-140843000D01*
X159715200Y-139649200D01*
X160324800Y-139649200D01*
X160324800Y-151931400D01*
X160324800Y-151931400D01*
G37*
X160324800Y-151931400D02*
X144602200Y-151931400D01*
X144602200Y-146164586D01*
X146741300Y-146164586D01*
X146829201Y-146377322D01*
X146991822Y-146540227D01*
X147204405Y-146628499D01*
X147434586Y-146628700D01*
X147647322Y-146540799D01*
X147810227Y-146378178D01*
X147898499Y-146165595D01*
X147898700Y-145935414D01*
X147810799Y-145722678D01*
X147648178Y-145559773D01*
X147435595Y-145471501D01*
X147205414Y-145471300D01*
X146992678Y-145559201D01*
X146829773Y-145721822D01*
X146741501Y-145934405D01*
X146741300Y-146164586D01*
X144602200Y-146164586D01*
X144602200Y-140919200D01*
X148526839Y-140919200D01*
X148395867Y-141049944D01*
X148246570Y-141409490D01*
X148246230Y-141798802D01*
X148394899Y-142158608D01*
X148669944Y-142434133D01*
X149029490Y-142583430D01*
X149418802Y-142583770D01*
X149778608Y-142435101D01*
X149859263Y-142354586D01*
X154361300Y-142354586D01*
X154449201Y-142567322D01*
X154611822Y-142730227D01*
X154824405Y-142818499D01*
X155054586Y-142818700D01*
X155267322Y-142730799D01*
X155430227Y-142568178D01*
X155518499Y-142355595D01*
X155518700Y-142125414D01*
X155430799Y-141912678D01*
X155268178Y-141749773D01*
X155055595Y-141661501D01*
X154825414Y-141661300D01*
X154612678Y-141749201D01*
X154449773Y-141911822D01*
X154361501Y-142124405D01*
X154361300Y-142354586D01*
X149859263Y-142354586D01*
X150054133Y-142160056D01*
X150203430Y-141800510D01*
X150203770Y-141411198D01*
X150055101Y-141051392D01*
X149923139Y-140919200D01*
X159639000Y-140919200D01*
X159668646Y-140913197D01*
X159693621Y-140896132D01*
X159709989Y-140870695D01*
X159715200Y-140843000D01*
X159715200Y-139649200D01*
X160324800Y-139649200D01*
X160324800Y-151931400D01*
G36*
X176707800Y-151931400D02*
X160985200Y-151931400D01*
X160985200Y-146155159D01*
X167743908Y-146155159D01*
X167824578Y-146350394D01*
X167973820Y-146499897D01*
X168168914Y-146580908D01*
X168380159Y-146581092D01*
X168575394Y-146500422D01*
X168724897Y-146351180D01*
X168805908Y-146156086D01*
X168806092Y-145944841D01*
X168725422Y-145749606D01*
X168576180Y-145600103D01*
X168381086Y-145519092D01*
X168169841Y-145518908D01*
X167974606Y-145599578D01*
X167825103Y-145748820D01*
X167744092Y-145943914D01*
X167743908Y-146155159D01*
X160985200Y-146155159D01*
X160985200Y-145520159D01*
X163298908Y-145520159D01*
X163379578Y-145715394D01*
X163528820Y-145864897D01*
X163723914Y-145945908D01*
X163935159Y-145946092D01*
X164130394Y-145865422D01*
X164279897Y-145716180D01*
X164360908Y-145521086D01*
X164361092Y-145309841D01*
X164280422Y-145114606D01*
X164131180Y-144965103D01*
X163936086Y-144884092D01*
X163724841Y-144883908D01*
X163529606Y-144964578D01*
X163380103Y-145113820D01*
X163299092Y-145308914D01*
X163298908Y-145520159D01*
X160985200Y-145520159D01*
X160985200Y-142354586D01*
X170236300Y-142354586D01*
X170324201Y-142567322D01*
X170486822Y-142730227D01*
X170699405Y-142818499D01*
X170929586Y-142818700D01*
X171142322Y-142730799D01*
X171305227Y-142568178D01*
X171393499Y-142355595D01*
X171393700Y-142125414D01*
X171305799Y-141912678D01*
X171143178Y-141749773D01*
X170930595Y-141661501D01*
X170700414Y-141661300D01*
X170487678Y-141749201D01*
X170324773Y-141911822D01*
X170236501Y-142124405D01*
X170236300Y-142354586D01*
X160985200Y-142354586D01*
X160985200Y-139649200D01*
X176707800Y-139649200D01*
X176707800Y-151931400D01*
X176707800Y-151931400D01*
G37*
X176707800Y-151931400D02*
X160985200Y-151931400D01*
X160985200Y-146155159D01*
X167743908Y-146155159D01*
X167824578Y-146350394D01*
X167973820Y-146499897D01*
X168168914Y-146580908D01*
X168380159Y-146581092D01*
X168575394Y-146500422D01*
X168724897Y-146351180D01*
X168805908Y-146156086D01*
X168806092Y-145944841D01*
X168725422Y-145749606D01*
X168576180Y-145600103D01*
X168381086Y-145519092D01*
X168169841Y-145518908D01*
X167974606Y-145599578D01*
X167825103Y-145748820D01*
X167744092Y-145943914D01*
X167743908Y-146155159D01*
X160985200Y-146155159D01*
X160985200Y-145520159D01*
X163298908Y-145520159D01*
X163379578Y-145715394D01*
X163528820Y-145864897D01*
X163723914Y-145945908D01*
X163935159Y-145946092D01*
X164130394Y-145865422D01*
X164279897Y-145716180D01*
X164360908Y-145521086D01*
X164361092Y-145309841D01*
X164280422Y-145114606D01*
X164131180Y-144965103D01*
X163936086Y-144884092D01*
X163724841Y-144883908D01*
X163529606Y-144964578D01*
X163380103Y-145113820D01*
X163299092Y-145308914D01*
X163298908Y-145520159D01*
X160985200Y-145520159D01*
X160985200Y-142354586D01*
X170236300Y-142354586D01*
X170324201Y-142567322D01*
X170486822Y-142730227D01*
X170699405Y-142818499D01*
X170929586Y-142818700D01*
X171142322Y-142730799D01*
X171305227Y-142568178D01*
X171393499Y-142355595D01*
X171393700Y-142125414D01*
X171305799Y-141912678D01*
X171143178Y-141749773D01*
X170930595Y-141661501D01*
X170700414Y-141661300D01*
X170487678Y-141749201D01*
X170324773Y-141911822D01*
X170236501Y-142124405D01*
X170236300Y-142354586D01*
X160985200Y-142354586D01*
X160985200Y-139649200D01*
X176707800Y-139649200D01*
X176707800Y-151931400D01*
M02*
